<svg width="810" height="636" viewBox="0 0 810 636" fill="none" xmlns="http://www.w3.org/2000/svg">
<path d="M699.608 89.8411C699.608 89.8411 697.009 51.767 643.694 50.3393C590.378 48.9115 604.697 88.4133 590.396 97.9319C576.095 107.45 572.225 92.4682 557.887 102.006C543.55 111.543 550.092 130.561 538.389 133.341C526.687 136.12 511.132 121.081 496.795 130.618C482.457 140.156 482.493 148.323 475.988 148.323C469.483 148.323 456.49 142.878 448.731 148.323C440.971 153.767 431.831 160.583 431.831 160.583H760.737C760.737 160.583 764.626 148.323 750.325 140.156C736.024 131.989 729.518 138.785 724.321 131.97C719.124 125.155 738.622 107.641 699.608 89.8411Z" fill="#FB4A04"/>
<path opacity="0.8" d="M699.608 89.8411C699.608 89.8411 697.009 51.767 643.694 50.3393C590.378 48.9115 604.697 88.4133 590.396 97.9319C576.095 107.45 572.225 92.4682 557.887 102.006C543.55 111.543 550.092 130.561 538.389 133.341C526.687 136.12 511.132 121.081 496.795 130.618C482.457 140.156 482.493 148.323 475.988 148.323C469.483 148.323 456.49 142.878 448.731 148.323C440.971 153.767 431.831 160.583 431.831 160.583H760.737C760.737 160.583 764.626 148.323 750.325 140.156C736.024 131.989 729.518 138.785 724.321 131.97C719.124 125.155 738.622 107.641 699.608 89.8411Z" fill="white"/>
<path d="M403.556 27.3044C403.556 27.3044 401.738 0.976144 364.959 0.0242922C328.18 -0.92756 337.992 26.3715 328.125 32.9584C318.258 39.5452 315.569 29.151 305.683 35.7758C295.798 42.4007 300.232 55.5363 292.218 57.421C284.205 59.3056 273.356 48.9495 263.489 55.5173C253.622 62.085 253.604 67.739 249.115 67.739C244.627 67.739 235.65 63.9316 230.253 67.739C224.856 71.5464 218.587 76.2105 218.587 76.2105H445.732C445.732 76.2105 448.421 67.739 438.554 62.1041C428.687 56.4691 424.18 61.1522 420.582 56.393C416.984 51.6337 430.504 39.5452 403.556 27.3044Z" fill="#FB4A04"/>
<path opacity="0.8" d="M403.556 27.3044C403.556 27.3044 401.738 0.976144 364.959 0.0242922C328.18 -0.92756 337.992 26.3715 328.125 32.9584C318.258 39.5452 315.569 29.151 305.683 35.7758C295.798 42.4007 300.232 55.5363 292.218 57.421C284.205 59.3056 273.356 48.9495 263.489 55.5173C253.622 62.085 253.604 67.739 249.115 67.739C244.627 67.739 235.65 63.9316 230.253 67.739C224.856 71.5464 218.587 76.2105 218.587 76.2105H445.732C445.732 76.2105 448.421 67.739 438.554 62.1041C428.687 56.4691 424.18 61.1522 420.582 56.393C416.984 51.6337 430.504 39.5452 403.556 27.3044Z" fill="white"/>
<path d="M216.333 97.6651C216.333 97.6651 215.37 83.5587 195.636 83.0447C175.902 82.5307 181.099 97.1702 175.902 100.692C170.705 104.214 169.16 98.6741 163.872 102.215C158.584 105.756 160.983 112.8 156.603 113.809C152.224 114.818 146.5 109.278 141.212 112.8C135.924 116.321 135.906 119.367 133.507 119.367C131.109 119.367 126.239 117.349 123.404 119.367C120.569 121.385 117.135 123.898 117.135 123.898H238.884C238.884 123.898 240.338 119.367 235.032 116.283C229.726 113.199 227.327 115.769 225.419 113.256C223.511 110.744 230.78 104.233 216.333 97.6651Z" fill="#FB4A04"/>
<path opacity="0.8" d="M216.333 97.6651C216.333 97.6651 215.37 83.5587 195.636 83.0447C175.902 82.5307 181.099 97.1702 175.902 100.692C170.705 104.214 169.16 98.6741 163.872 102.215C158.584 105.756 160.983 112.8 156.603 113.809C152.224 114.818 146.5 109.278 141.212 112.8C135.924 116.321 135.906 119.367 133.507 119.367C131.109 119.367 126.239 117.349 123.404 119.367C120.569 121.385 117.135 123.898 117.135 123.898H238.884C238.884 123.898 240.338 119.367 235.032 116.283C229.726 113.199 227.327 115.769 225.419 113.256C223.511 110.744 230.78 104.233 216.333 97.6651Z" fill="white"/>
<path opacity="0.33" d="M616.017 626.419C616.017 631.216 583.054 635.081 542.386 635.081C501.718 635.081 468.827 631.159 468.827 626.419C468.827 621.679 501.7 617.833 542.368 617.833C583.036 617.833 616.017 621.641 616.017 626.419Z" fill="#FB4A04"/>
<path opacity="0.33" d="M761.009 622.497C761.009 627.276 728.045 631.159 687.377 631.159C646.709 631.159 613.746 627.352 613.746 622.497C613.746 617.643 646.709 613.835 687.377 613.835C728.045 613.835 761.009 617.719 761.009 622.497Z" fill="#FB4A04"/>
<path opacity="0.33" d="M329.123 625.639C369.789 625.639 402.755 621.761 402.755 616.977C402.755 612.193 369.789 608.315 329.123 608.315C288.458 608.315 255.492 612.193 255.492 616.977C255.492 621.761 288.458 625.639 329.123 625.639Z" fill="#FB4A04"/>
<path opacity="0.33" d="M164.199 632.72C204.864 632.72 237.83 628.842 237.83 624.058C237.83 619.274 204.864 615.396 164.199 615.396C123.533 615.396 90.5674 619.274 90.5674 624.058C90.5674 628.842 123.533 632.72 164.199 632.72Z" fill="#FB4A04"/>
<path d="M773.819 531.12C773.819 531.12 784.359 526.075 786.758 522.667C789.156 519.26 791.101 520.516 789.992 524.571C788.884 528.626 783.323 532.186 783.323 532.186" fill="white"/>
<path d="M773.819 531.12C773.819 531.12 784.359 526.075 786.758 522.667C789.156 519.26 791.101 520.516 789.992 524.571C788.884 528.626 783.323 532.186 783.323 532.186" stroke="#263238" stroke-width="0.826956" stroke-linecap="round" stroke-linejoin="round"/>
<path d="M735.695 576.275C735.695 576.275 739.329 590.02 741.437 595.312C743.545 600.605 744.872 603.098 740.583 606.582C736.295 610.066 725.119 615.13 721.976 615.263C718.832 615.396 714.707 608.277 716.669 608.2C718.408 608.319 720.121 608.697 721.757 609.324C721.757 609.324 727.99 607.077 729.771 604.374C731.552 601.671 724.483 580.121 724.483 580.121" fill="white"/>
<path d="M735.695 576.275C735.695 576.275 739.329 590.02 741.437 595.312C743.545 600.605 744.872 603.098 740.583 606.582C736.295 610.066 725.119 615.13 721.976 615.263C718.832 615.396 714.707 608.277 716.669 608.2C718.408 608.319 720.121 608.697 721.757 609.324C721.757 609.324 727.99 607.077 729.771 604.374C731.552 601.671 724.483 580.121 724.483 580.121" stroke="#263238" stroke-width="0.826956" stroke-linecap="round" stroke-linejoin="round"/>
<path d="M667.062 563.159C667.062 563.159 672.877 566.966 668.297 579.645C663.718 592.324 653.251 600.072 653.379 603.384C654.038 607.963 655.478 612.38 657.631 616.425C658.975 618.328 665.299 618.766 664.736 620.765C664.173 622.764 664.209 623.449 660.429 623.582C658.618 623.735 656.799 623.431 655.124 622.695C653.448 621.96 651.965 620.815 650.798 619.356C648.163 616.139 643.948 604.412 643.166 600.472C642.385 596.531 649.036 588.345 650.126 583.662C651.216 578.979 647.091 569.251 651.943 563.102C656.795 556.953 664.409 559.961 667.062 563.159Z" fill="white" stroke="#263238" stroke-width="0.826956" stroke-linecap="round" stroke-linejoin="round"/>
<path d="M752.086 523.39C748.099 522.814 744.046 522.975 740.111 523.866C735.114 525.389 721.94 527.902 699.262 528.816C676.583 529.73 667.334 518.84 650.416 522.172C633.499 525.503 626.103 547.605 627.193 560.113C628.283 572.62 634.789 578.331 632.408 582.386C630.028 586.441 622.814 578.807 623.322 592.019C623.831 605.231 629.628 626.8 633.39 626C637.151 625.2 634.898 598.168 634.807 595.541C634.716 592.914 652.379 592.857 657.176 586.022C661.973 579.188 665.953 567.157 665.953 567.157C665.953 567.157 671.023 567.613 680.745 574.486C690.467 581.358 713.363 586.422 729.699 584.442C746.035 582.462 750.051 571.116 750.051 571.116L755.594 567.594L752.086 523.39Z" fill="white" stroke="#263238" stroke-width="0.826956" stroke-linecap="round" stroke-linejoin="round"/>
<path d="M766.841 528.359C766.841 528.359 755.157 521.239 752.086 523.353C749.015 525.466 753.576 564.282 755.575 567.518C757.192 570.108 761.481 570.203 786.285 567.518C788.058 567.669 789.786 568.18 791.373 569.022C793.445 569.997 795.745 570.315 797.987 569.936L804.856 568.832C804.856 568.832 810.998 563.959 808.327 560.094C805.656 556.23 800.004 554.707 798.551 549.49C797.097 544.274 789.665 533.08 789.665 533.08C782.434 529.928 774.674 528.322 766.841 528.359Z" fill="white" stroke="#263238" stroke-width="0.826956" stroke-linecap="round" stroke-linejoin="round"/>
<path d="M785.141 535.974C788.545 535.815 791.908 535.122 795.117 533.918C799.296 532.014 801.84 529.197 801.986 533.081C802.131 536.964 797.098 544.369 793.99 546.159C791.632 547.18 789.004 547.288 786.576 546.464" fill="white"/>
<path d="M785.141 535.974C788.545 535.815 791.908 535.122 795.117 533.918C799.296 532.014 801.84 529.197 801.986 533.081C802.131 536.964 797.098 544.369 793.99 546.159C791.632 547.18 789.004 547.288 786.576 546.464" stroke="#263238" stroke-width="0.826956" stroke-linecap="round" stroke-linejoin="round"/>
<path d="M718.088 569.689C718.088 569.689 719.905 585.489 722.758 593.961C725.611 602.432 737.731 623.792 741.584 625.619C745.436 627.447 753.105 629.789 754.213 625.772C755.321 621.755 754.685 621.127 750.851 619.946L747.017 618.785C747.017 618.785 735.569 598.739 735.242 590.23C734.915 581.72 738.204 567.633 738.204 567.633" fill="white"/>
<path d="M718.088 569.689C718.088 569.689 719.905 585.489 722.758 593.961C725.611 602.432 737.731 623.792 741.584 625.619C745.436 627.447 753.105 629.789 754.213 625.772C755.321 621.755 754.685 621.127 750.851 619.946L747.017 618.785C747.017 618.785 735.569 598.739 735.242 590.23C734.915 581.72 738.204 567.633 738.204 567.633" stroke="#263238" stroke-width="0.826956" stroke-linecap="round" stroke-linejoin="round"/>
<g style="mix-blend-mode:multiply" opacity="0.6">
<path d="M795.371 536.621C783.069 536.621 785.195 541.095 781.234 540.276C777.272 539.458 786.776 533.651 778.853 532.814C770.93 531.976 760.464 530.51 760.464 530.51L755.139 527.008C755.139 527.008 746.181 527.179 730.099 528.759C714.017 530.339 700.37 530.663 687.832 532.109C680.113 533.025 672.312 532.827 664.645 531.519C664.645 531.519 667.37 508.789 653.924 505.477C640.477 502.164 638.114 532.814 638.114 532.814C638.114 532.814 632.663 543.589 631.791 551.851C630.918 560.113 639.695 570.888 638.914 575.876C638.132 580.863 632.59 585.813 637.333 585.813C642.076 585.813 648.399 589.125 653.142 577.532C657.885 565.938 659.629 560.399 667.062 563.14C674.494 565.881 702.169 575.038 712.491 574.219C722.812 573.401 720.413 589.125 726.737 589.944C733.061 590.763 733.842 575.038 733.842 572.563C733.842 570.088 744.909 565.101 744.127 560.951C743.346 556.801 734.06 546.882 735.423 540.257C736.786 533.632 747.798 530.282 747.798 530.282C747.798 530.282 748.452 551.47 753.813 555.392C759.173 559.313 762.317 565.938 768.641 559.294C774.965 552.65 774.365 547.301 780.507 546.882C786.649 546.463 807.692 536.583 795.371 536.621ZM644.547 524.476C641.585 525.408 641.621 525.161 640.913 521.677C640.204 518.193 643.002 515.128 647.745 515.128C652.488 515.128 658.466 524.152 658.466 524.152C654.741 520.116 647.6 523.543 644.62 524.552L644.547 524.476Z" fill="#FB4A04"/>
</g>
<path d="M632.045 537.44C632.045 537.44 636.86 531.31 631.917 516.956C626.975 502.602 638.641 493.541 649.308 491.789C659.974 490.038 669.969 504.201 672.186 513.358C674.403 522.515 670.986 532.585 664.644 531.519C658.303 530.453 657.249 519.24 650.852 516.861C644.456 514.481 639.677 521.925 641.766 525.161" fill="white"/>
<path d="M632.045 537.44C632.045 537.44 636.86 531.31 631.917 516.956C626.975 502.602 638.641 493.541 649.308 491.789C659.974 490.038 669.969 504.201 672.186 513.358C674.403 522.515 670.986 532.585 664.644 531.519C658.303 530.453 657.249 519.24 650.852 516.861C644.456 514.481 639.677 521.925 641.766 525.161" stroke="#263238" stroke-width="0.826956" stroke-linecap="round" stroke-linejoin="round"/>
<g style="mix-blend-mode:multiply">
<path d="M664.644 531.52C664.644 531.52 667.37 508.789 653.923 505.477C643.383 502.888 639.658 521.163 638.531 529.178L641.693 525.161C641.292 524.458 641.144 523.627 641.275 522.82C641.15 522.452 641.077 522.067 641.057 521.677C641.057 519.774 645.091 516.061 649.852 516.061C652.178 516.061 655.758 521.011 655.758 521.011C655.195 520.421 657.393 523.143 656.703 522.915C658.956 526.665 660.864 530.872 664.644 531.52Z" fill="#FB4A04"/>
</g>
<path d="M793.317 564.053C795.67 565.293 797.877 566.813 799.895 568.584L793.317 564.053Z" fill="#263238"/>
<path d="M793.317 564.053C795.67 565.293 797.877 566.813 799.895 568.584" stroke="#263238" stroke-width="0.826956" stroke-linecap="round" stroke-linejoin="round"/>
<path d="M798.533 550.956C798.533 552.232 798.188 553.279 797.661 553.317C797.134 553.355 796.68 552.308 796.625 551.032C796.571 549.757 796.97 548.71 797.497 548.691C798.024 548.672 798.479 549.681 798.533 550.956Z" fill="#263238"/>
<path d="M808.982 562.264C808.982 563.54 808.655 564.587 808.128 564.606C807.601 564.625 807.146 563.616 807.092 562.34C807.037 561.065 807.437 560.018 807.964 559.999C808.491 559.98 808.945 560.989 808.982 562.264Z" fill="#263238"/>
<path d="M786.285 567.575L780.561 565.062" stroke="#263238" stroke-width="0.620217" stroke-linecap="round" stroke-linejoin="round"/>
<path d="M637.096 522.362C637.096 522.362 638.677 513.491 641.33 511.835" stroke="#263238" stroke-width="0.620217" stroke-linecap="round" stroke-linejoin="round"/>
<path d="M644.511 513.491C644.511 513.491 646.619 509.056 650.326 509.056" stroke="#263238" stroke-width="0.620217" stroke-linecap="round" stroke-linejoin="round"/>
<path d="M650.853 512.939C652.374 512.132 654.117 511.911 655.778 512.315C657.439 512.719 658.912 513.721 659.938 515.147" stroke="#263238" stroke-width="0.620217" stroke-linecap="round" stroke-linejoin="round"/>
<path d="M657.812 516.271C657.812 516.271 663.1 520.078 663.1 524.019" stroke="#263238" stroke-width="0.620217" stroke-linecap="round" stroke-linejoin="round"/>
<path d="M672.04 565.063C674.602 566.055 677.419 566.055 679.981 565.063C684.215 563.406 686.323 562.854 686.323 562.854" stroke="#263238" stroke-width="0.620217" stroke-linecap="round" stroke-linejoin="round"/>
<path d="M693.21 560.627L690.03 562.302" stroke="#263238" stroke-width="0.620217" stroke-linecap="round" stroke-linejoin="round"/>
<path d="M681.035 568.337C681.035 568.337 686.85 569.441 690.121 567.233" stroke="#263238" stroke-width="0.620217" stroke-linecap="round" stroke-linejoin="round"/>
<path d="M698.498 576.713C698.498 576.713 706.439 578.369 710.146 577.265" stroke="#263238" stroke-width="0.620217" stroke-linecap="round" stroke-linejoin="round"/>
<path d="M720.213 529.578C720.213 529.578 713.853 532.338 712.272 534.565L710.673 536.793" stroke="#263238" stroke-width="0.620217" stroke-linecap="round" stroke-linejoin="round"/>
<path d="M709.619 532.338C709.619 532.338 705.385 537.345 704.858 539.553" stroke="#263238" stroke-width="0.620217" stroke-linecap="round" stroke-linejoin="round"/>
<path d="M703.259 535.117L699.57 539.553" stroke="#263238" stroke-width="0.620217" stroke-linecap="round" stroke-linejoin="round"/>
<path d="M752.305 538.734C752.873 540.558 753.969 542.152 755.441 543.295C756.913 544.437 758.687 545.072 760.518 545.112" stroke="#263238" stroke-width="0.620217" stroke-linecap="round" stroke-linejoin="round"/>
<path d="M755.684 547.396C755.684 547.396 760.972 549.624 764.152 548.5" stroke="#263238" stroke-width="0.620217" stroke-linecap="round" stroke-linejoin="round"/>
<path d="M650.853 532.338C650.853 532.338 644.511 536.145 646.619 542.885" stroke="#263238" stroke-width="0.620217" stroke-linecap="round" stroke-linejoin="round"/>
<path d="M642.385 541.78C642.385 541.78 643.984 552.86 654.033 553.431" stroke="#263238" stroke-width="0.620217" stroke-linecap="round" stroke-linejoin="round"/>
<path d="M582.818 394.358C581.685 400.017 580.842 405.737 580.292 411.491C580.292 415.47 601.099 490.78 601.099 502.012C601.099 513.244 609.93 611.037 609.93 611.037L595.393 614.331C595.393 614.331 583.399 567.423 577.73 550.252C572.06 533.081 569.535 503.345 569.535 503.345L556.287 453.848C556.287 453.848 545.566 431.385 540.515 422.78C535.463 414.175 531.065 407.55 531.683 400.316C532.301 393.082 539.261 388.437 539.261 388.437L582.818 394.358Z" fill="#FB4A04"/>
<path opacity="0.9" d="M582.818 394.358C581.685 400.017 580.842 405.737 580.292 411.491C580.292 415.47 601.099 490.78 601.099 502.012C601.099 513.244 609.93 611.037 609.93 611.037L595.393 614.331C595.393 614.331 583.399 567.423 577.73 550.252C572.06 533.081 569.535 503.345 569.535 503.345L556.287 453.848C556.287 453.848 545.566 431.385 540.515 422.78C535.463 414.175 531.065 407.55 531.683 400.316C532.301 393.082 539.261 388.437 539.261 388.437L582.818 394.358Z" fill="black"/>
<path d="M610.675 425.559C610.675 425.559 604.879 428.929 606.169 432.984C607.459 437.039 614.528 442.502 618.398 443.759C622.269 445.015 636.406 437.02 637.697 431.632C638.987 426.245 635.116 416.136 632.554 414.784L629.974 413.433L610.675 425.559Z" fill="#FB4A04" stroke="#263238" stroke-width="0.826956" stroke-linecap="round" stroke-linejoin="round"/>
<path d="M633.189 436.924L752.086 523.39" stroke="#263238" stroke-width="0.826956" stroke-linecap="round" stroke-linejoin="round"/>
<path d="M747.998 523.467C747.998 523.467 747.726 531.31 747.726 541.419C747.726 551.527 753.341 568.337 753.341 568.337L755.576 567.48C755.576 567.48 752.305 543.437 752.305 538.734C752.305 534.032 752.723 523.105 752.723 523.105L747.998 523.467Z" fill="#263238"/>
<path d="M754.121 523.752C754.121 523.752 743.4 512.939 740.62 512.939C737.839 512.939 736.985 515.014 738.239 516.746C739.493 518.479 748.034 523.543 748.034 523.543C748.034 523.543 751.304 527.902 754.121 523.752Z" fill="#FB4A04" stroke="#263238" stroke-width="0.826956" stroke-linecap="round" stroke-linejoin="round"/>
<path opacity="0.2" d="M754.121 523.752C754.121 523.752 743.4 512.939 740.62 512.939C737.839 512.939 736.985 515.014 738.239 516.746C739.493 518.479 748.034 523.543 748.034 523.543C748.034 523.543 751.304 527.902 754.121 523.752Z" fill="black"/>
<path d="M619.035 400.525C619.035 400.525 625.467 407.95 626.758 410.044C628.502 413.856 629.591 417.961 629.974 422.17C629.974 424.874 619.071 430.946 615.182 430.261C611.294 429.576 608.731 424.207 608.095 422.17C607.459 420.133 604.879 413.413 604.879 413.413L619.035 400.525Z" fill="white" stroke="#263238" stroke-width="0.826956" stroke-linecap="round" stroke-linejoin="round"/>
<path d="M520.998 391.045C519.952 399.211 520.384 407.509 522.27 415.508C525.414 427.387 530.466 437.971 530.466 439.951C530.466 441.931 526.686 499.404 526.05 501.403C525.414 503.402 482.529 604.507 483.165 606.411C483.801 608.315 493.25 612.351 493.25 612.351C493.25 612.351 556.324 520.516 559.468 515.89C562.611 511.264 574.005 428.681 575.822 424.055C577.639 419.429 579.675 389.731 579.675 389.731C579.675 389.731 536.771 388.418 520.998 391.045Z" fill="#FB4A04"/>
<path opacity="0.9" d="M520.998 391.045C519.952 399.211 520.384 407.509 522.27 415.508C525.414 427.387 530.466 437.971 530.466 439.951C530.466 441.931 526.686 499.404 526.05 501.403C525.414 503.402 482.529 604.507 483.165 606.411C483.801 608.315 493.25 612.351 493.25 612.351C493.25 612.351 556.324 520.516 559.468 515.89C562.611 511.264 574.005 428.681 575.822 424.055C577.639 419.429 579.675 389.731 579.675 389.731C579.675 389.731 536.771 388.418 520.998 391.045Z" fill="black"/>
<path opacity="0.59" d="M578.33 414.213L567.754 476.331" stroke="#FB4A04" stroke-width="0.620217" stroke-linecap="round" stroke-linejoin="round"/>
<path opacity="0.59" d="M558.741 405.894C557.117 409.064 555.167 412.039 552.926 414.765C551.485 416.359 549.657 417.511 547.638 418.097" stroke="#FB4A04" stroke-width="0.620217" stroke-linecap="round" stroke-linejoin="round"/>
<path opacity="0.59" d="M545.512 404.79C545.512 404.79 546.039 420.876 546.566 427.52C547.181 438.623 546.829 449.761 545.512 460.797C543.931 476.883 543.931 484.65 543.931 484.65" stroke="#FB4A04" stroke-width="0.620217" stroke-linecap="round" stroke-linejoin="round"/>
<path d="M609.93 611.075C609.93 611.075 633.262 615.035 633.262 617.681C633.262 620.327 597.319 632.911 595.429 629.579C593.539 626.248 595.429 614.349 595.429 614.349L609.93 611.075Z" fill="white" stroke="#263238" stroke-width="0.826956" stroke-linecap="round" stroke-linejoin="round"/>
<path d="M483.165 606.411C483.165 606.411 474.333 616.977 474.969 619.623C475.605 622.269 485.691 627.561 490.724 628.209C495.758 628.856 507.078 628.875 510.277 626.895C513.475 624.915 503.353 622.269 500.827 619.623C498.302 616.977 493.25 612.351 493.25 612.351L483.165 606.411Z" fill="white" stroke="#263238" stroke-width="0.826956" stroke-linecap="round" stroke-linejoin="round"/>
<path d="M510.277 626.933C510.277 626.933 496.812 626.628 490.978 625.029C485.145 623.43 476.696 617.262 476.696 617.262L475.787 616.938C475.241 617.751 474.955 618.724 474.969 619.718C475.587 622.364 485.69 627.656 490.724 628.304C495.758 628.951 507.133 628.913 510.277 626.933Z" fill="#FB4A04" stroke="#263238" stroke-width="0.620217" stroke-linecap="round" stroke-linejoin="round"/>
<path d="M611.147 623.849C604.805 626.629 596.864 625.524 595.283 625.524H594.629C594.61 626.89 594.883 628.243 595.428 629.484C597.246 632.777 633.262 620.232 633.262 617.586C633.262 617.205 632.753 616.786 631.899 616.349L630.736 616.558C630.736 616.558 617.507 621.089 611.147 623.849Z" fill="#FB4A04" stroke="#263238" stroke-width="0.620217" stroke-linecap="round" stroke-linejoin="round"/>
<path d="M659.102 257.405L662.736 259.08C663.24 259.301 663.687 259.642 664.042 260.075C664.398 260.509 664.652 261.024 664.784 261.578C664.916 262.133 664.923 262.712 664.804 263.27C664.685 263.827 664.444 264.348 664.099 264.791L647.745 286.551C647.465 286.921 647.116 287.227 646.72 287.451C646.324 287.676 645.888 287.814 645.44 287.856C644.991 287.899 644.539 287.846 644.11 287.7C643.682 287.554 643.286 287.319 642.948 287.008L640.185 284.457C639.562 283.883 639.169 283.083 639.084 282.218C639 281.353 639.231 280.487 639.731 279.793L654.759 258.661C655.243 257.971 655.934 257.471 656.722 257.243C657.51 257.015 658.349 257.072 659.102 257.405Z" fill="#263238"/>
<path d="M623.54 294.68C623.54 294.68 628.047 291.31 628.683 289.292C629.319 287.274 628.047 285.256 631.263 280.535C633.702 277.357 636.813 274.815 640.349 273.111C640.349 273.111 642.911 269.075 644.855 269.741C646.8 270.407 647.417 271.759 646.127 274.462C644.625 277.091 642.905 279.576 640.985 281.887C640.985 281.887 654.632 274.367 657.63 275.776C659.302 276.594 656.394 280.916 656.394 280.916C656.394 280.916 652.578 291.31 650.634 293.347C648.689 295.384 627.465 305.474 627.465 305.474L623.54 294.68Z" fill="white" stroke="#263238" stroke-width="0.826956" stroke-linecap="round" stroke-linejoin="round"/>
<path d="M614.527 411.986V416.041L619.034 418.059C619.034 418.059 611.311 429.481 615.181 430.185C619.052 430.89 624.83 422.095 625.466 420.077C625.811 417.845 625.811 415.569 625.466 413.337" fill="white"/>
<path d="M614.527 411.986V416.041L619.034 418.059C619.034 418.059 611.311 429.481 615.181 430.185C619.052 430.89 624.83 422.095 625.466 420.077C625.811 417.845 625.811 415.569 625.466 413.337" stroke="#263238" stroke-width="0.826956" stroke-linecap="round" stroke-linejoin="round"/>
<path d="M608.095 422.094L619.034 418.058" stroke="#263238" stroke-width="0.826956" stroke-linecap="round" stroke-linejoin="round"/>
<path d="M588.142 337.836C588.142 337.836 601.662 369.514 604.242 374.235C606.823 378.956 620.96 396.49 621.614 399.174C622.268 401.858 610.711 410.596 607.459 413.337L604.242 416.041C604.242 416.041 594.575 407.95 594.575 404.618C594.575 401.287 584.29 376.291 583.672 374.273C583.054 372.255 577.239 351.429 577.239 351.429C577.239 351.429 577.857 333.115 588.142 337.836Z" fill="#FB4A04" stroke="#263238" stroke-width="0.826956" stroke-linecap="round" stroke-linejoin="round"/>
<path opacity="0.1" d="M588.142 337.836C588.142 337.836 601.662 369.514 604.242 374.235C606.823 378.956 620.96 396.49 621.614 399.174C622.268 401.858 610.711 410.596 607.459 413.337L604.242 416.041C604.242 416.041 594.575 407.95 594.575 404.618C594.575 401.287 584.29 376.291 583.672 374.273C583.054 372.255 577.239 351.429 577.239 351.429C577.239 351.429 577.857 333.115 588.142 337.836Z" fill="black"/>
<path d="M566.263 248.838L577.166 260.984C577.166 260.984 581.036 270.502 579.11 271.093L577.166 271.759C577.166 271.759 593.266 351.981 596.482 368.162C599.699 384.344 601.625 393.786 600.335 397.156C599.044 400.525 592.612 400.525 592.612 400.525L579.11 396.49L560.448 253.559C560.448 253.559 558.54 244.136 566.263 248.838Z" fill="#FB4A04" stroke="#263238" stroke-width="0.826956" stroke-linecap="round" stroke-linejoin="round"/>
<path opacity="0.1" d="M566.263 248.838L577.166 260.984C577.166 260.984 581.036 270.502 579.11 271.093L577.166 271.759C577.166 271.759 593.266 351.981 596.482 368.162C599.699 384.344 601.625 393.786 600.335 397.156C599.044 400.525 592.612 400.525 592.612 400.525L579.11 396.49L560.448 253.559C560.448 253.559 558.54 244.136 566.263 248.838Z" fill="black"/>
<path d="M612.747 388.703L603.225 395.366" stroke="#263238" stroke-width="0.620217" stroke-linecap="round" stroke-linejoin="round"/>
<path d="M605.114 213.524C605.423 210.954 605.696 208.327 605.877 205.681C606.55 196.048 605.023 185.73 596.792 180.057C588.56 174.384 572.678 172.614 564.464 179.277C557.396 184.988 553.889 194.621 553.561 203.777C553.306 207.787 554.151 211.79 555.996 215.314C557.577 218.817 560.939 222.795 559.94 227.003C558.777 231.857 549.527 243.146 549.527 243.146L560.594 258.033C563.529 254.333 567.052 251.19 571.006 248.743C574.865 246.294 579.328 245.096 583.835 245.297C589.032 248.381 595.065 249.466 596.81 246.953C598.336 244.745 600.844 237.073 602.897 227.06C603.821 227.278 604.787 227.194 605.664 226.82C606.542 226.445 607.288 225.798 607.804 224.966C609.13 222.377 605.95 215.314 605.114 213.524Z" fill="white"/>
<mask id="mask0_415_1422" style="mask-type:alpha" maskUnits="userSpaceOnUse" x="549" y="174" width="60" height="85">
<path d="M605.114 213.524C605.423 210.954 605.696 208.327 605.877 205.681C606.55 196.048 605.023 185.73 596.792 180.057C588.56 174.384 572.678 172.614 564.464 179.277C557.396 184.988 553.889 194.621 553.561 203.777C553.306 207.787 554.151 211.79 555.996 215.314C557.577 218.817 560.939 222.795 559.94 227.003C558.777 231.857 549.527 243.146 549.527 243.146L560.594 258.033C563.529 254.333 567.052 251.19 571.006 248.743C574.865 246.294 579.328 245.096 583.835 245.297C589.032 248.381 595.065 249.466 596.81 246.953C598.336 244.745 600.844 237.073 602.897 227.06C603.821 227.278 604.787 227.194 605.664 226.82C606.542 226.445 607.288 225.798 607.804 224.966C609.13 222.377 605.95 215.314 605.114 213.524Z" fill="white"/>
</mask>
<g mask="url(#mask0_415_1422)">
<g style="mix-blend-mode:multiply" opacity="0.5">
<path d="M604.06 191.651C604.06 191.651 588.887 192.031 588.542 193.916C588.299 195.547 588.178 197.196 588.178 198.847C588.178 198.847 583.49 191.651 590.704 190.908C595.167 190.464 599.667 190.714 604.06 191.651Z" fill="#FB4A04"/>
</g>
<g style="mix-blend-mode:multiply" opacity="0.5">
<path d="M551.436 240.614L558.214 247.239L570.134 222.281L559.231 222.015C559.914 223.574 560.105 225.322 559.776 227.003C559.031 230.41 554.234 237.092 551.436 240.614Z" fill="#FB4A04"/>
</g>
</g>
<path d="M605.114 213.524C605.423 210.954 605.696 208.327 605.877 205.681C606.55 196.048 605.023 185.73 596.792 180.057C588.56 174.384 572.678 172.614 564.464 179.277C557.396 184.988 553.889 194.621 553.561 203.777C553.306 207.787 554.151 211.79 555.996 215.314C557.577 218.817 560.939 222.795 559.94 227.003C558.777 231.857 549.527 243.146 549.527 243.146L560.594 258.033C563.529 254.333 567.052 251.19 571.006 248.743C574.865 246.294 579.328 245.096 583.835 245.297C589.032 248.381 595.065 249.466 596.81 246.953C598.336 244.745 600.844 237.073 602.897 227.06C603.821 227.278 604.787 227.194 605.664 226.82C606.542 226.445 607.288 225.798 607.804 224.966C609.13 222.377 605.95 215.314 605.114 213.524Z" stroke="#263238" stroke-width="0.826956" stroke-linecap="round" stroke-linejoin="round"/>
<path d="M575.421 210.955C575.421 210.955 581.382 211.792 582.181 208.88C582.981 205.967 584.562 204.73 588.123 203.054C591.685 201.379 587.342 198.067 586.542 193.917C585.743 189.766 598.445 189.747 605.986 191.822C613.527 193.898 621.486 193.917 619.487 183.084C617.489 172.252 609.566 174.366 605.604 174.366C601.643 174.366 609.566 166.465 601.225 163.552C592.884 160.64 591.303 165.628 590.504 168.54C589.704 171.453 585.743 171.453 582.181 171.453C578.619 171.453 575.022 166.865 561.52 172.271C548.019 177.678 545.638 196.41 548.8 207.642C551.962 218.874 553.761 224.338 559.83 227.003C565.899 229.668 575.403 217.618 575.403 214.286L575.421 210.955Z" fill="#263238"/>
<path d="M584.689 192.946C584.689 192.946 585.216 190.718 579.401 195.706C573.586 200.694 571.46 205.701 563.047 206.253" stroke="white" stroke-width="0.620217" stroke-linecap="round" stroke-linejoin="round"/>
<path d="M555.579 212.896C555.579 212.896 561.921 215.676 565.628 212.896" stroke="white" stroke-width="0.620217" stroke-linecap="round" stroke-linejoin="round"/>
<path d="M601.207 207.585L599.39 219.007C599.312 219.455 599.401 219.917 599.637 220.299C599.873 220.681 600.24 220.954 600.662 221.063L601.279 221.215L603.097 209.793C603.15 209.348 603.051 208.898 602.818 208.522C602.586 208.146 602.234 207.868 601.825 207.737L601.207 207.585Z" fill="#263238"/>
<path d="M601.208 207.585C601.208 207.585 572.006 207.033 570.316 207.585C569.109 209.116 568.066 210.782 567.209 212.554C566.7 214.153 568.136 213.886 569.026 213.011C569.916 212.135 571.37 208.86 572.133 208.689C572.897 208.518 600.863 210.364 600.863 210.364L601.535 207.718L601.208 207.585Z" fill="#263238"/>
<path d="M580.019 212.801C580.019 212.801 579.22 202.807 572.878 209.47C566.536 216.133 571.279 223.614 574.459 224.433C575.403 224.623 576.382 224.482 577.242 224.031C578.103 223.58 578.798 222.845 579.22 221.939" fill="white"/>
<path d="M580.019 212.801C580.019 212.801 579.22 202.807 572.878 209.47C566.536 216.133 571.279 223.614 574.459 224.433C575.403 224.623 576.382 224.482 577.242 224.031C578.103 223.58 578.798 222.845 579.22 221.939" stroke="#263238" stroke-width="0.826956" stroke-linecap="round" stroke-linejoin="round"/>
<path d="M598.844 235.493C598.844 235.493 592.103 234.256 592.103 231.686L598.844 235.493Z" fill="white"/>
<path d="M598.844 235.493C598.844 235.493 592.103 234.256 592.103 231.686" stroke="#263238" stroke-width="0.826956" stroke-linecap="round" stroke-linejoin="round"/>
<path d="M594.085 213.448C594.085 213.448 598.373 213.772 598.846 216.361L594.085 213.448Z" fill="white"/>
<path d="M594.085 213.448C594.085 213.448 598.373 213.772 598.846 216.361" stroke="#263238" stroke-width="0.826956" stroke-linecap="round" stroke-linejoin="round"/>
<path d="M595.665 203.892C595.665 203.892 599.645 199.723 602.025 203.473L595.665 203.892Z" fill="white"/>
<path d="M595.665 203.892C595.665 203.892 599.645 199.723 602.025 203.473" stroke="#263238" stroke-width="0.826956" stroke-linecap="round" stroke-linejoin="round"/>
<path d="M574.459 224.433C574.459 224.433 575.15 232.866 578.33 237.854" stroke="#263238" stroke-width="0.620217" stroke-linecap="round" stroke-linejoin="round"/>
<path d="M550.055 237.206L570.207 260.222C570.207 260.222 577.13 311.775 583.436 350.743C589.742 389.712 589.742 403.609 589.742 403.609C576.736 404.773 563.66 404.773 550.654 403.609C537.665 402.234 524.797 399.803 512.167 396.337C512.167 396.337 517.855 305.816 522.27 280.706C526.195 258.357 544.64 240.728 548.619 237.111C548.824 236.929 549.088 236.837 549.355 236.855C549.623 236.873 549.874 236.999 550.055 237.206Z" fill="#FB4A04" stroke="#263238" stroke-width="0.826956" stroke-linecap="round" stroke-linejoin="round"/>
<path opacity="0.5" d="M550.055 237.206L570.207 260.222C570.207 260.222 577.13 311.775 583.436 350.743C589.742 389.712 589.742 403.609 589.742 403.609C576.736 404.773 563.66 404.773 550.654 403.609C537.665 402.234 524.797 399.803 512.167 396.337C512.167 396.337 517.855 305.816 522.27 280.706C526.195 258.357 544.64 240.728 548.619 237.111C548.824 236.929 549.088 236.837 549.355 236.855C549.623 236.873 549.874 236.999 550.055 237.206Z" fill="white" stroke="#263238" stroke-miterlimit="10"/>
<path d="M541.822 243.717C541.822 243.717 558.177 268.827 560.103 270.807C562.029 272.787 570.206 260.223 570.206 260.223C570.206 260.223 552.543 237.759 549.382 236.445C546.22 235.132 541.822 243.717 541.822 243.717Z" fill="#FB4A04" stroke="#263238" stroke-width="0.826956" stroke-linecap="round" stroke-linejoin="round"/>
<path d="M557.087 281.144C561.249 287.274 570.77 320.303 570.77 320.303C570.77 320.303 617.144 294.204 620.361 294.204C624.231 292.852 627.448 299.61 630.664 309.033C633.88 318.457 631.954 319.828 631.954 319.828L611.965 324.415C590.159 338.998 555.761 362.623 554.034 360.814C551.472 358.111 541.823 332.506 536.662 320.361C531.502 308.215 530.884 294.07 534.736 283.962C535.726 281.356 536.861 278.813 538.134 276.347C538.134 276.347 543.749 269.874 546.966 271.226" fill="#FB4A04"/>
<path d="M557.087 281.144C561.249 287.274 570.77 320.303 570.77 320.303C570.77 320.303 617.144 294.204 620.361 294.204C624.231 292.852 627.448 299.61 630.664 309.033C633.88 318.457 631.954 319.828 631.954 319.828L611.965 324.415C590.159 338.998 555.761 362.623 554.034 360.814C551.472 358.111 541.823 332.506 536.662 320.361C531.502 308.215 530.884 294.07 534.736 283.962C535.726 281.356 536.861 278.813 538.134 276.347C538.134 276.347 543.749 269.874 546.966 271.226" stroke="#263238" stroke-width="0.826956" stroke-linecap="round" stroke-linejoin="round"/>
<g opacity="0.5">
<path d="M557.087 281.144C561.249 287.274 570.77 320.303 570.77 320.303C570.77 320.303 617.144 294.204 620.361 294.204C624.231 292.852 627.448 299.61 630.664 309.033C633.88 318.457 631.954 319.828 631.954 319.828L611.965 324.415C590.159 338.998 555.761 362.623 554.034 360.814C551.472 358.111 541.823 332.506 536.662 320.361C531.502 308.215 530.884 294.07 534.736 283.962C535.726 281.356 536.861 278.813 538.134 276.347C538.134 276.347 543.749 269.874 546.966 271.226" fill="white"/>
<path d="M557.087 281.144C561.249 287.274 570.77 320.303 570.77 320.303C570.77 320.303 617.144 294.204 620.361 294.204C624.231 292.852 627.448 299.61 630.664 309.033C633.88 318.457 631.954 319.828 631.954 319.828L611.965 324.415C590.159 338.998 555.761 362.623 554.034 360.814C551.472 358.111 541.823 332.506 536.662 320.361C531.502 308.215 530.884 294.07 534.736 283.962C535.726 281.356 536.861 278.813 538.134 276.347C538.134 276.347 543.749 269.874 546.966 271.226" stroke="#263238" stroke-miterlimit="10"/>
</g>
<path d="M624.395 317.904C625.468 317.904 626.339 316.993 626.339 315.868C626.339 314.743 625.468 313.831 624.395 313.831C623.321 313.831 622.45 314.743 622.45 315.868C622.45 316.993 623.321 317.904 624.395 317.904Z" fill="white" stroke="#263238" stroke-width="0.826956" stroke-linecap="round" stroke-linejoin="round"/>
<path d="M602.771 306.559L609.203 320.342" stroke="#263238" stroke-width="0.620217" stroke-linecap="round" stroke-linejoin="round"/>
<path d="M570.77 320.304C570.77 320.304 564.21 325.482 563.302 330.279" stroke="#263238" stroke-width="0.620217" stroke-linecap="round" stroke-linejoin="round"/>
<path d="M564.519 322.264C564.519 322.264 558.395 327.404 558.704 333.819" stroke="#263238" stroke-width="0.620217" stroke-linecap="round" stroke-linejoin="round"/>
<path d="M574.623 294.984H566.155" stroke="#263238" stroke-width="0.620217" stroke-linecap="round" stroke-linejoin="round"/>
<path d="M576.749 306.083H568.281" stroke="#263238" stroke-width="0.620217" stroke-linecap="round" stroke-linejoin="round"/>
<path d="M515.347 388.151C525.409 391.025 535.671 393.068 546.038 394.262L561.92 395.918" stroke="#263238" stroke-width="0.620217" stroke-linecap="round" stroke-linejoin="round"/>
<path d="M568.281 395.919L582.819 394.358" stroke="#263238" stroke-width="0.620217" stroke-linecap="round" stroke-linejoin="round"/>
<path d="M578.855 351.543L583.089 383.164" stroke="#263238" stroke-width="0.620217" stroke-linecap="round" stroke-linejoin="round"/>
<path d="M540.224 273.358C540.224 273.358 543.404 260.032 547.638 255.616" stroke="#263238" stroke-width="0.620217" stroke-linecap="round" stroke-linejoin="round"/>
<path d="M551.346 259.48L546.566 265.039" stroke="#263238" stroke-width="0.620217" stroke-linecap="round" stroke-linejoin="round"/>
<path d="M742.856 188.948H670.006C665.941 188.948 662.646 192.4 662.646 196.658V227.536C662.646 231.794 665.941 235.246 670.006 235.246H742.856C746.92 235.246 750.215 231.794 750.215 227.536V196.658C750.215 192.4 746.92 188.948 742.856 188.948Z" fill="#FB4A04"/>
<path d="M662.646 223.138V248.001L675.894 232.048" fill="#FB4A04"/>
<path d="M693.175 212.954C693.178 212.011 692.914 211.088 692.417 210.302C691.919 209.517 691.209 208.904 690.379 208.541C689.548 208.179 688.633 208.083 687.75 208.266C686.867 208.449 686.056 208.903 685.419 209.569C684.783 210.236 684.35 211.086 684.175 212.011C684.001 212.936 684.092 213.894 684.438 214.765C684.784 215.635 685.369 216.378 686.119 216.9C686.869 217.421 687.75 217.698 688.65 217.694C689.848 217.689 690.997 217.188 691.844 216.3C692.692 215.412 693.17 214.209 693.175 212.954Z" fill="white"/>
<path d="M712.617 212.954C712.621 212.011 712.357 211.088 711.859 210.302C711.361 209.517 710.652 208.904 709.821 208.541C708.99 208.179 708.075 208.083 707.192 208.266C706.309 208.449 705.498 208.903 704.862 209.569C704.225 210.236 703.792 211.086 703.618 212.011C703.443 212.936 703.534 213.894 703.881 214.765C704.227 215.635 704.812 216.378 705.562 216.9C706.311 217.421 707.192 217.698 708.092 217.694C709.291 217.689 710.439 217.188 711.286 216.3C712.134 215.412 712.612 214.209 712.617 212.954Z" fill="white"/>
<path d="M732.061 212.954C732.065 212.012 731.802 211.089 731.305 210.304C730.808 209.519 730.099 208.906 729.27 208.543C728.44 208.18 727.526 208.083 726.643 208.264C725.761 208.446 724.95 208.898 724.313 209.563C723.675 210.227 723.241 211.075 723.064 211.999C722.887 212.923 722.976 213.881 723.32 214.751C723.663 215.622 724.245 216.367 724.993 216.89C725.74 217.414 726.619 217.694 727.518 217.694C728.72 217.694 729.873 217.195 730.724 216.307C731.576 215.418 732.057 214.213 732.061 212.954Z" fill="white"/>
<path d="M525.922 314.402L536.661 320.303" stroke="#263238" stroke-width="0.620217" stroke-linecap="round" stroke-linejoin="round"/>
<path d="M523.814 326.033C523.814 326.033 533.863 326.586 537.57 323.825" stroke="#263238" stroke-width="0.620217" stroke-linecap="round" stroke-linejoin="round"/>
<path opacity="0.59" d="M546.566 504.62C546.566 504.62 526.451 501.841 531.757 505.172C535.947 507.549 540.386 509.408 544.986 510.712H532.811" stroke="#FB4A04" stroke-width="0.620217" stroke-linecap="round" stroke-linejoin="round"/>
<path d="M359.125 438.447C359.125 438.447 353.674 509.494 351.475 514.862C349.276 520.23 313.314 599.881 313.314 599.881L306.409 595.826L332.249 497.9L327.361 388.399L359.125 438.447Z" fill="white" stroke="#263238" stroke-width="0.826956" stroke-linecap="round" stroke-linejoin="round"/>
<path d="M370.083 373.15C370.083 373.15 380.332 430.89 382.476 447.89C384.62 464.89 383.003 607.154 383.003 607.154L375.098 608.353L351.712 450.574C351.712 450.574 337.792 416.041 330.723 407.455C322.528 397.518 318.403 385.658 323.164 375.835C326.271 369.248 370.083 373.15 370.083 373.15Z" fill="white" stroke="#263238" stroke-width="0.826956" stroke-linecap="round" stroke-linejoin="round"/>
<path d="M322.364 579.873C333.267 555.906 350.04 518.479 351.439 514.862C353.583 509.494 359.089 438.447 359.089 438.447L327.325 388.361L332.25 497.9L311.752 575.628L322.364 579.873Z" fill="#FB4A04" stroke="#263238" stroke-width="0.826956" stroke-linecap="round" stroke-linejoin="round"/>
<path d="M383.202 586.004C383.602 546.026 384.093 460.778 382.476 447.89C380.331 430.89 370.083 373.15 370.083 373.15C370.083 373.15 326.271 369.248 323.091 375.835C318.33 385.658 322.455 397.518 330.65 407.455C337.792 416.117 351.711 450.574 351.711 450.574L372.19 586.727C375.875 587.087 379.59 586.843 383.202 586.004Z" fill="#FB4A04" stroke="#263238" stroke-width="0.826956" stroke-linecap="round" stroke-linejoin="round"/>
<path d="M344.243 379.432C344.243 379.432 340.427 383.43 342.971 385.658C345.515 387.885 355.691 384.763 352.729 386.99C349.767 389.217 338.301 396.775 344.661 395.899C351.021 395.024 358.69 394.11 355.709 397.232C352.729 400.354 351.457 400.335 353.583 405.228C355.709 410.12 358.69 420.362 358.69 420.362" fill="#FB4A04"/>
<path d="M344.243 379.432C344.243 379.432 340.427 383.43 342.971 385.658C345.515 387.885 355.691 384.763 352.729 386.99C349.767 389.217 338.301 396.775 344.661 395.899C351.021 395.024 358.69 394.11 355.709 397.232C352.729 400.354 351.457 400.335 353.583 405.228C355.709 410.12 358.69 420.362 358.69 420.362" stroke="#263238" stroke-width="0.620217" stroke-linecap="round" stroke-linejoin="round"/>
<path d="M359.962 424.36L363.778 435.497" stroke="#263238" stroke-width="0.620217" stroke-linecap="round" stroke-linejoin="round"/>
<path d="M347.64 469.744C347.64 469.744 345.95 499.119 344.66 503.573C343.37 508.028 337.028 502.678 339.572 506.238C342.116 509.798 345.024 511.131 343.824 511.569C342.625 512.007 338.718 511.131 338.718 512.901C338.718 514.672 334.466 528.931 334.466 528.931" fill="#FB4A04"/>
<path d="M347.64 469.744C347.64 469.744 345.95 499.119 344.66 503.573C343.37 508.028 337.028 502.678 339.572 506.238C342.116 509.798 345.024 511.131 343.824 511.569C342.625 512.007 338.718 511.131 338.718 512.901C338.718 514.672 334.466 528.931 334.466 528.931" stroke="#263238" stroke-width="0.620217" stroke-linecap="round" stroke-linejoin="round"/>
<path d="M383.002 607.154C383.002 607.154 404.372 612.865 403.682 615.092C402.991 617.32 379.005 621.241 377.333 621.013C375.661 620.784 375.098 608.353 375.098 608.353L383.002 607.154Z" fill="white"/>
<mask id="mask1_415_1422" style="mask-type:alpha" maskUnits="userSpaceOnUse" x="375" y="607" width="29" height="15">
<path d="M383.003 607.154C383.003 607.154 404.373 612.865 403.683 615.092C402.992 617.32 379.006 621.241 377.334 621.013C375.662 620.784 375.099 608.353 375.099 608.353L383.003 607.154Z" fill="white"/>
</mask>
<g mask="url(#mask1_415_1422)">
<g style="mix-blend-mode:multiply">
<path d="M377.515 621.203C379.187 621.432 403.174 617.396 403.864 615.283C404.009 614.826 403.155 614.198 401.702 613.493L376.152 617.091C376.407 619.318 376.879 621.127 377.515 621.203Z" fill="#FB4A04"/>
</g>
</g>
<path d="M383.002 607.154C383.002 607.154 404.372 612.865 403.682 615.092C402.991 617.32 379.005 621.241 377.333 621.013C375.661 620.784 375.098 608.353 375.098 608.353L383.002 607.154Z" stroke="#263238" stroke-width="0.826956" stroke-miterlimit="10"/>
<path d="M313.333 599.882C314.398 601.627 315.675 603.221 317.131 604.622C318.821 605.954 325.181 608.62 325.181 610.333C325.181 612.046 312.461 612.998 309.917 612.56C307.373 612.122 304.465 606.849 301.867 604.946C299.268 603.042 306.428 595.713 306.428 595.713C308.655 597.233 310.96 598.625 313.333 599.882Z" fill="white"/>
<mask id="mask2_415_1422" style="mask-type:alpha" maskUnits="userSpaceOnUse" x="301" y="595" width="25" height="18">
<path d="M313.333 599.882C314.398 601.627 315.675 603.221 317.131 604.622C318.821 605.954 325.181 608.62 325.181 610.333C325.181 612.046 312.461 612.998 309.917 612.56C307.373 612.122 304.465 606.849 301.867 604.946C299.268 603.042 306.428 595.713 306.428 595.713C308.655 597.233 310.96 598.625 313.333 599.882Z" fill="white"/>
</mask>
<g mask="url(#mask2_415_1422)">
<g style="mix-blend-mode:multiply">
<path d="M325.272 610.39C325.272 609.952 324.89 609.457 324.272 608.943C320.22 609.362 314.787 609.723 312.497 608.943C310.207 608.162 305.228 604.069 302.248 601.328C301.394 602.87 301.012 604.298 301.957 604.964C304.501 606.735 307.409 612.065 310.007 612.579C312.606 613.093 325.272 612.122 325.272 610.39Z" fill="#FB4A04"/>
</g>
</g>
<path d="M313.333 599.882C314.398 601.627 315.675 603.221 317.131 604.622C318.821 605.954 325.181 608.62 325.181 610.333C325.181 612.046 312.461 612.998 309.917 612.56C307.373 612.122 304.465 606.849 301.867 604.946C299.268 603.042 306.428 595.713 306.428 595.713C308.655 597.233 310.96 598.625 313.333 599.882V599.882Z" stroke="#263238" stroke-width="0.826956" stroke-linecap="round" stroke-linejoin="round"/>
<path d="M433.012 275.319C433.012 275.319 439.372 273.092 440.28 270.864C440.952 268.378 441.378 265.827 441.552 263.25C441.552 263.25 433.43 272.197 433.012 275.319Z" stroke="#263238" stroke-width="0.620217" stroke-linecap="round" stroke-linejoin="round"/>
<path d="M420.074 261.688C420.074 261.688 413.241 273.339 413.241 274.672C413.241 276.004 382.04 304.674 382.04 304.674C382.04 304.674 374.772 309.148 373.5 311.832C372.228 314.516 372.646 331.079 374.354 331.516C376.062 331.954 415.803 280.935 417.966 280.116C420.128 279.298 427.36 276.537 427.36 276.537L434.211 267.59L420.074 261.688Z" fill="white" stroke="#263238" stroke-width="0.826956" stroke-linecap="round" stroke-linejoin="round"/>
<path d="M440.425 250.704L443.914 252.303C444.379 252.515 444.791 252.836 445.119 253.241C445.446 253.646 445.681 254.125 445.804 254.64C445.927 255.155 445.935 255.693 445.828 256.212C445.721 256.731 445.501 257.217 445.186 257.633L429.813 278.213C429.549 278.564 429.219 278.855 428.844 279.069C428.469 279.282 428.057 279.413 427.632 279.454C427.206 279.495 426.778 279.445 426.372 279.307C425.966 279.169 425.591 278.945 425.27 278.65L422.654 276.233C422.068 275.686 421.699 274.93 421.618 274.113C421.538 273.296 421.751 272.477 422.217 271.816L436.446 251.827C436.892 251.198 437.527 250.746 438.249 250.542C438.972 250.338 439.738 250.395 440.425 250.704Z" fill="#263238"/>
<path d="M423.907 258.033C423.907 258.033 430.758 265.648 430.322 267.438C429.886 269.227 427.76 270.579 426.469 269.227C425.179 267.876 420.491 263.859 420.073 261.612C419.934 261.073 419.941 260.504 420.093 259.969C420.245 259.434 420.537 258.953 420.935 258.582C421.333 258.21 421.822 257.962 422.347 257.865C422.872 257.769 423.412 257.827 423.907 258.033Z" fill="white" stroke="#263238" stroke-width="0.826956" stroke-linecap="round" stroke-linejoin="round"/>
<path d="M381.604 286.76C378.606 278.708 373.918 250.952 373.918 250.952C370.483 244.688 361.942 235.284 358.108 233.952C354.274 232.619 357.254 233.952 353.402 236.636C349.549 239.32 340.591 255.425 334.176 277.813C332.105 285.047 329.615 296.165 327.217 308.006C323.711 319.95 321.402 332.244 320.329 344.69C318.603 354.723 317.477 362.09 317.477 363.403C317.553 364.138 317.812 364.838 318.226 365.436C318.64 366.033 319.196 366.507 319.839 366.811C319.839 381.298 320.021 387.885 320.021 387.885C320.021 387.885 330.215 379.433 335.303 377.205C339.955 375.467 344.938 374.923 349.832 375.619C354.726 376.314 359.39 378.229 363.433 381.203C371.192 386.629 377.443 391.445 378.297 389.218C379.151 386.99 377.207 379.242 375.753 372.751C374.045 365.136 371.065 342.939 371.065 342.939C371.065 337.57 376.516 310.576 379.133 306.464C381.002 303.618 382.2 300.348 382.63 296.923C383.059 293.498 382.708 290.015 381.604 286.76Z" fill="white"/>
<mask id="mask3_415_1422" style="mask-type:alpha" maskUnits="userSpaceOnUse" x="317" y="233" width="66" height="157">
<path d="M381.603 286.76C378.605 278.708 373.917 250.952 373.917 250.952C370.482 244.688 361.941 235.284 358.107 233.952C354.273 232.619 357.253 233.952 353.401 236.636C349.548 239.32 340.59 255.425 334.175 277.813C332.104 285.047 329.614 296.165 327.216 308.006C323.71 319.95 321.401 332.244 320.329 344.69C318.602 354.723 317.476 362.09 317.476 363.403C317.552 364.138 317.811 364.838 318.225 365.436C318.639 366.033 319.195 366.507 319.838 366.811C319.838 381.298 320.02 387.885 320.02 387.885C320.02 387.885 330.214 379.433 335.302 377.205C339.954 375.467 344.937 374.923 349.831 375.619C354.725 376.314 359.389 378.229 363.432 381.203C371.191 386.629 377.442 391.445 378.296 389.218C379.15 386.99 377.206 379.242 375.752 372.751C374.044 365.136 371.064 342.939 371.064 342.939C371.064 337.57 376.515 310.576 379.132 306.464C381.001 303.618 382.199 300.348 382.629 296.923C383.058 293.498 382.707 290.015 381.603 286.76Z" fill="white"/>
</mask>
<g mask="url(#mask3_415_1422)">
<g style="mix-blend-mode:multiply" opacity="0.5">
<path d="M338.736 332.887L324.017 361.138C324.017 361.138 337.028 319.009 338.245 302.58C339.463 286.151 354.418 259.423 358.343 252.76C362.268 246.097 363.249 244.022 363.249 244.022L367.429 242.004C364.012 238.082 360.305 234.713 358.125 233.951C354.272 232.6 357.271 233.951 353.418 236.635C349.566 239.32 340.607 255.425 334.193 277.813C332.121 285.047 329.632 296.164 327.233 308.005C323.727 319.95 321.419 332.244 320.346 344.69C318.62 354.722 317.493 362.09 317.493 363.403C317.57 364.137 317.828 364.838 318.243 365.435C318.657 366.033 319.213 366.507 319.855 366.811C319.855 381.298 320.037 387.885 320.037 387.885C324.256 384.372 328.687 381.148 333.302 378.233C333.082 376.94 332.767 375.667 332.358 374.426C331.728 372.216 331.534 369.895 331.787 367.604C332.04 365.314 332.735 363.101 333.829 361.1C338.141 355.395 342.894 350.072 348.04 345.185C352.455 341.073 334.811 342.101 338.736 339.474C342.661 336.846 359.815 328.166 362.759 325.082C365.702 321.998 338.736 332.887 338.736 332.887Z" fill="#FB4A04"/>
</g>
</g>
<path d="M381.604 286.76C378.606 278.708 373.918 250.952 373.918 250.952C370.483 244.688 361.942 235.284 358.108 233.952C354.274 232.619 357.254 233.952 353.402 236.636C349.549 239.32 340.591 255.425 334.176 277.813C332.105 285.047 329.615 296.165 327.217 308.006C323.711 319.95 321.402 332.244 320.329 344.69C318.603 354.723 317.477 362.09 317.477 363.403C317.553 364.138 317.812 364.838 318.226 365.436C318.64 366.033 319.196 366.507 319.839 366.811C319.839 381.298 320.021 387.885 320.021 387.885C320.021 387.885 330.215 379.433 335.303 377.205C339.955 375.467 344.938 374.923 349.832 375.619C354.726 376.314 359.39 378.229 363.433 381.203C371.192 386.629 377.443 391.445 378.297 389.218C379.151 386.99 377.207 379.242 375.753 372.751C374.045 365.136 371.065 342.939 371.065 342.939C371.065 337.57 376.516 310.576 379.133 306.464C381.002 303.618 382.2 300.348 382.63 296.923C383.059 293.498 382.708 290.015 381.604 286.76V286.76Z" stroke="#263238" stroke-width="0.826956" stroke-linecap="round" stroke-linejoin="round"/>
<path d="M368.447 272.197C368.447 272.197 368.447 277.089 370.155 277.908C371.864 278.726 376.098 277.47 375.243 281.03C374.389 284.59 373.971 287.255 375.68 288.645C376.96 289.532 378.401 290.135 379.914 290.415" stroke="#263238" stroke-width="0.620217" stroke-linecap="round" stroke-linejoin="round"/>
<g style="mix-blend-mode:multiply" opacity="0.5">
<g style="mix-blend-mode:multiply">
<path d="M349.367 305.131C349.367 305.131 362.269 306.064 365.867 304.503C369.465 302.942 358.962 289.406 358.962 289.406L349.367 305.131Z" fill="#FB4A04"/>
</g>
</g>
<path d="M367.067 209.851C369.648 219.522 364.178 232.695 358.963 235.494C357.346 236.331 362.761 244.308 366.922 249.6L370.556 256.187L372.265 265.077L374.809 264.639C374.809 264.639 372.592 255.121 373.918 250.952C375.245 246.783 376.153 244.708 376.153 244.708C378.201 240.651 381.367 237.334 385.239 235.189C385.911 226.908 365.959 205.853 367.067 209.851Z" fill="white"/>
<mask id="mask4_415_1422" style="mask-type:alpha" maskUnits="userSpaceOnUse" x="358" y="209" width="28" height="57">
<path d="M367.067 209.851C369.647 219.522 364.177 232.695 358.962 235.494C357.345 236.331 362.76 244.308 366.921 249.6L370.555 256.187L372.264 265.077L374.808 264.639C374.808 264.639 372.591 255.121 373.917 250.952C375.244 246.783 376.152 244.708 376.152 244.708C378.2 240.651 381.366 237.334 385.238 235.189C385.91 226.908 365.958 205.853 367.067 209.851Z" fill="white"/>
</mask>
<g mask="url(#mask4_415_1422)">
<g style="mix-blend-mode:multiply" opacity="0.5">
<path d="M379.787 239.339L367.431 242.004L363.251 244.022L358.072 238.768L369.175 227.441L379.787 239.339Z" fill="#FB4A04"/>
</g>
</g>
<path d="M367.067 209.851C369.648 219.522 364.178 232.695 358.963 235.494C357.346 236.331 362.761 244.308 366.922 249.6L370.556 256.187L372.265 265.077L374.809 264.639C374.809 264.639 372.592 255.121 373.918 250.952C375.245 246.783 376.153 244.708 376.153 244.708C378.201 240.651 381.367 237.334 385.239 235.189C385.911 226.908 365.959 205.853 367.067 209.851Z" stroke="#263238" stroke-width="0.826956" stroke-linecap="round" stroke-linejoin="round"/>
<path d="M395.322 180.191C401.355 183.37 407.934 188.662 407.934 196.334C407.934 209.66 402.736 215.047 402.736 218.417C402.736 221.787 407.007 226.241 405.408 227.936C403.809 229.63 400.065 229.04 400.065 229.04C397.525 233.907 394.671 238.589 391.525 243.051C388.308 246.973 382.439 241.357 376.024 236.331C369.61 231.305 366.393 226.812 366.393 217.294C366.393 207.775 361.905 200.77 365.848 191.518C367.031 188.709 368.743 186.179 370.88 184.079C373.017 181.978 375.537 180.351 378.288 179.294C381.039 178.236 383.966 177.771 386.892 177.925C389.819 178.079 392.686 178.85 395.322 180.191Z" fill="white"/>
<mask id="mask5_415_1422" style="mask-type:alpha" maskUnits="userSpaceOnUse" x="364" y="177" width="44" height="68">
<path d="M395.323 180.191C401.356 183.37 407.935 188.662 407.935 196.334C407.935 209.66 402.737 215.047 402.737 218.417C402.737 221.787 407.008 226.241 405.409 227.936C403.81 229.63 400.066 229.04 400.066 229.04C397.526 233.907 394.672 238.589 391.526 243.051C388.309 246.973 382.44 241.357 376.025 236.331C369.611 231.305 366.394 226.812 366.394 217.294C366.394 207.775 361.906 200.77 365.849 191.518C367.032 188.709 368.744 186.179 370.881 184.079C373.018 181.978 375.538 180.351 378.289 179.294C381.04 178.236 383.967 177.771 386.893 177.925C389.82 178.079 392.687 178.85 395.323 180.191Z" fill="white"/>
</mask>
<g mask="url(#mask5_415_1422)">
<g style="mix-blend-mode:multiply" opacity="0.5">
<path d="M395.323 180.191C392.687 178.85 389.82 178.079 386.893 177.925C383.967 177.771 381.04 178.236 378.289 179.294C375.538 180.351 373.018 181.978 370.881 184.079C368.744 186.179 367.032 188.709 365.849 191.518C361.906 200.77 366.394 207.794 366.394 217.294C366.394 226.793 369.611 231.286 376.025 236.331L379.787 239.339C374.335 235.684 375.989 223.995 375.989 220.302C375.989 216.609 381.876 215.676 386.783 213.62C390.526 212.04 401.974 206.9 407.171 204.539C407.69 201.806 407.945 199.025 407.935 196.239C407.935 188.662 401.356 183.37 395.323 180.191Z" fill="#FB4A04"/>
</g>
</g>
<path d="M395.322 180.191C401.355 183.37 407.934 188.662 407.934 196.334C407.934 209.66 402.736 215.047 402.736 218.417C402.736 221.787 407.007 226.241 405.408 227.936C403.809 229.63 400.065 229.04 400.065 229.04C397.525 233.907 394.671 238.589 391.525 243.051C388.308 246.973 382.439 241.357 376.024 236.331C369.61 231.305 366.393 226.812 366.393 217.294C366.393 207.775 361.905 200.77 365.848 191.518C367.031 188.709 368.743 186.179 370.88 184.079C373.017 181.978 375.537 180.351 378.288 179.294C381.039 178.236 383.966 177.771 386.892 177.925C389.819 178.079 392.686 178.85 395.322 180.191V180.191Z" stroke="#263238" stroke-width="0.826956" stroke-linecap="round" stroke-linejoin="round"/>
<path d="M393.507 234.37C393.507 234.37 389.691 233.495 388.837 231.267L393.507 234.37Z" fill="white"/>
<path d="M393.507 234.37C393.507 234.37 389.691 233.495 388.837 231.267" stroke="#263238" stroke-width="0.826956" stroke-linecap="round" stroke-linejoin="round"/>
<path d="M399.029 217.028L397.757 219.255C397.066 219.377 396.356 219.319 395.691 219.086C395.026 218.854 394.425 218.454 393.941 217.922" fill="white"/>
<path d="M399.029 217.028L397.757 219.255C397.066 219.377 396.356 219.319 395.691 219.086C395.026 218.854 394.425 218.454 393.941 217.922" stroke="#263238" stroke-width="0.826956" stroke-linecap="round" stroke-linejoin="round"/>
<path d="M393.506 213.03C393.506 213.03 397.758 209.013 400.302 210.803L393.506 213.03Z" fill="white"/>
<path d="M393.506 213.03C393.506 213.03 397.758 209.013 400.302 210.803" stroke="#263238" stroke-width="0.826956" stroke-linecap="round" stroke-linejoin="round"/>
<path d="M257.602 463.081L296.67 417.24L303.467 467.536" stroke="#263238" stroke-width="0.826956" stroke-linecap="round" stroke-linejoin="round"/>
<path d="M310.698 467.974L247.825 462.187L225.328 534.718L322.583 544.941L310.698 467.974Z" fill="#FB4A04" stroke="#263238" stroke-width="0.826956" stroke-linecap="round" stroke-linejoin="round"/>
<path d="M296.252 413.68L273.319 467.974" stroke="#263238" stroke-width="0.826956" stroke-linecap="round" stroke-linejoin="round"/>
<path d="M299.231 419.03L308.99 472.429" stroke="#263238" stroke-width="0.826956" stroke-linecap="round" stroke-linejoin="round"/>
<path d="M317.058 473.761L261.416 467.079L241.882 546.73L323.218 554.307L317.058 473.761Z" fill="#263238"/>
<path d="M425.361 210.441C422.817 195.325 409.225 179.753 409.225 179.753C406.346 176.48 402.709 174.041 398.667 172.671C387.619 168.655 372.336 168.217 360.016 178.896C347.696 189.576 345.479 211.374 341.318 222.948C337.156 234.523 334.521 242.08 335.375 246.078C336.23 250.076 348.096 243.413 350.24 243.851C352.384 244.289 350.676 246.973 354.492 246.973C358.308 246.973 363.414 239.853 365.54 239.853C367.666 239.853 374.299 240.634 376.08 236.465C377.861 232.295 368.084 218.494 371.482 212.268C371.482 212.268 373.608 213.163 388.473 208.708C395.146 206.896 401.615 204.343 407.771 201.094C406.79 211.221 402.792 215.657 402.792 218.608C402.792 221.958 407.062 226.432 405.463 228.126C403.864 229.821 400.121 229.23 400.121 229.23C397.58 234.098 394.727 238.779 391.58 243.242C389 246.364 384.729 243.413 379.841 239.529C378.322 241.045 377.089 242.847 376.207 244.841C376.207 244.841 375.716 246.04 374.917 248.325C376.103 250.243 377.889 251.669 379.969 252.36C384.639 253.255 387.237 250.59 389.309 249.257C391.38 247.925 395.687 250.133 399.939 249.257C404.191 248.382 403.337 244.365 405.027 242.138C406.717 239.91 409.697 245.697 413.095 242.138C416.493 238.578 427.905 225.48 425.361 210.441Z" fill="#263238"/>
<path d="M407.626 181.733C409.788 184.931 417.184 191.765 414.586 195.059C412.738 197.15 410.523 198.85 408.062 200.066" stroke="white" stroke-width="0.620217" stroke-linecap="round" stroke-linejoin="round"/>
<path d="M405.445 190.852C405.445 190.852 388.036 203.626 378.896 204.977C369.756 206.329 358.907 202.712 358.907 202.712" stroke="white" stroke-width="0.620217" stroke-linecap="round" stroke-linejoin="round"/>
<path d="M400.229 178.078C396.135 184.489 390.798 189.925 384.565 194.031C378.967 197.775 372.489 199.824 365.849 199.951" stroke="white" stroke-width="0.620217" stroke-linecap="round" stroke-linejoin="round"/>
<path d="M374.825 214.8C374.825 214.8 371.845 204.121 368.883 205.453C365.921 206.786 365.485 212.135 366.757 216.59C368.029 221.045 370.991 220.588 372.699 219.255" fill="white"/>
<path d="M374.825 214.8C374.825 214.8 371.845 204.121 368.883 205.453C365.921 206.786 365.485 212.135 366.757 216.59C368.029 221.045 370.991 220.588 372.699 219.255" stroke="#263238" stroke-width="0.826956" stroke-linecap="round" stroke-linejoin="round"/>
<g style="mix-blend-mode:multiply">
<path d="M374.825 214.8C374.825 214.8 371.845 204.121 368.883 205.453C365.921 206.786 365.485 212.135 366.757 216.59C368.029 221.045 370.991 220.588 372.699 219.255" fill="white"/>
</g>
<mask id="mask6_415_1422" style="mask-type:alpha" maskUnits="userSpaceOnUse" x="366" y="205" width="9" height="16">
<path d="M374.825 214.8C374.825 214.8 371.845 204.121 368.883 205.453C365.921 206.786 365.485 212.135 366.757 216.59C368.029 221.045 370.991 220.588 372.699 219.255" fill="white"/>
</mask>
<g mask="url(#mask6_415_1422)">
<g style="mix-blend-mode:multiply" opacity="0.44">
<path d="M374.935 214.8C374.935 214.8 371.973 204.121 368.993 205.453C366.013 206.786 365.595 212.135 366.867 216.59C368.139 221.045 371.119 220.588 372.809 219.255" fill="#FB4A04"/>
</g>
</g>
<path d="M364.068 254.569C359.58 250.59 352.565 252.265 349.531 260.623C344.443 274.253 339.355 287.922 334.139 301.571C329.051 314.897 308.699 380.328 306.882 385.22C305.065 390.113 301.43 402.563 301.43 402.563C301.43 402.563 292.944 409.245 292.944 410.577C292.944 411.91 295.07 416.803 296.76 417.24C299.349 417.359 301.903 416.583 304.029 415.032C305.719 413.68 306.573 411.015 308.699 404.352C308.699 404.352 321.419 368.753 329.924 357.635C338.428 346.518 345.224 317.658 346.914 314.459C352.579 305.009 357.689 295.206 362.214 285.104C365.049 278.536 368.883 270.655 368.102 263.193C367.827 259.893 366.389 256.818 364.068 254.569Z" fill="white"/>
<mask id="mask7_415_1422" style="mask-type:alpha" maskUnits="userSpaceOnUse" x="292" y="252" width="77" height="166">
<path d="M364.069 254.569C359.581 250.59 352.566 252.265 349.532 260.622C344.444 274.253 339.356 287.922 334.14 301.571C329.052 314.897 308.7 380.327 306.883 385.22C305.066 390.112 301.431 402.563 301.431 402.563C301.431 402.563 292.945 409.245 292.945 410.577C292.945 411.91 295.071 416.802 296.761 417.24C299.35 417.359 301.904 416.583 304.03 415.032C305.72 413.68 306.574 411.015 308.7 404.352C308.7 404.352 321.42 368.753 329.924 357.635C338.429 346.518 345.225 317.657 346.915 314.459C352.58 305.009 357.69 295.206 362.215 285.104C365.05 278.536 368.884 270.655 368.103 263.192C367.828 259.892 366.39 256.818 364.069 254.569Z" fill="white"/>
</mask>
<g mask="url(#mask7_415_1422)">
<g style="mix-blend-mode:multiply" opacity="0.5">
<path d="M365.905 256.834C365.414 255.985 364.801 255.221 364.087 254.569C359.599 250.59 352.585 252.265 349.55 260.622C344.462 274.253 339.374 287.921 334.159 301.571C329.071 314.897 308.719 380.327 306.901 385.22C305.084 390.112 301.45 402.563 301.45 402.563C301.45 402.563 292.964 409.245 292.964 410.577C293.222 412.051 293.746 413.459 294.508 414.727C295.526 413.896 296.28 412.761 296.671 411.472C296.98 409.264 303.54 404.809 305.012 401.211C306.484 397.613 331.488 335.971 332.469 329.803C333.45 323.635 347.66 277.413 352.076 269.189C356.492 260.965 366.304 258.395 366.304 258.395L365.905 256.834Z" fill="#FB4A04"/>
</g>
</g>
<path d="M364.068 254.569C359.58 250.59 352.565 252.265 349.531 260.623C344.443 274.253 339.355 287.922 334.139 301.571C329.051 314.897 308.699 380.328 306.882 385.22C305.065 390.113 301.43 402.563 301.43 402.563C301.43 402.563 292.944 409.245 292.944 410.577C292.944 411.91 295.07 416.803 296.76 417.24C299.349 417.359 301.903 416.583 304.029 415.032C305.719 413.68 306.573 411.015 308.699 404.352C308.699 404.352 321.419 368.753 329.924 357.635C338.428 346.518 345.224 317.658 346.914 314.459C352.579 305.009 357.689 295.206 362.214 285.104C365.049 278.536 368.883 270.655 368.102 263.193C367.827 259.893 366.389 256.818 364.068 254.569V254.569Z" stroke="#263238" stroke-width="0.826956" stroke-linecap="round" stroke-linejoin="round"/>
<path d="M302.194 410.12C300.857 411.833 299.438 413.472 297.941 415.032C296.301 417.044 295.27 419.523 294.979 422.152C294.979 422.152 295.834 424.817 297.106 423.484C298.378 422.152 301.34 418.135 301.34 418.135C303.117 417.518 304.625 416.255 305.592 414.575C307.718 411.472 308.572 404.352 308.572 404.352" fill="white"/>
<path d="M302.194 410.12C300.857 411.833 299.438 413.472 297.941 415.032C296.301 417.044 295.27 419.523 294.979 422.152C294.979 422.152 295.834 424.817 297.106 423.484C298.378 422.152 301.34 418.135 301.34 418.135C303.117 417.518 304.625 416.255 305.592 414.575C307.718 411.472 308.572 404.352 308.572 404.352" stroke="#263238" stroke-width="0.826956" stroke-linecap="round" stroke-linejoin="round"/>
<path d="M379.786 239.339L380.004 239.51C380.204 239.625 380.15 239.568 379.786 239.339Z" fill="#FB4A04"/>
<path d="M343.244 329.308C343.244 329.308 359.599 324.187 365.868 318.152" stroke="#263238" stroke-width="0.620217" stroke-linecap="round" stroke-linejoin="round"/>
<path d="M344.116 334.429L352.548 332.087" stroke="#263238" stroke-width="0.620217" stroke-linecap="round" stroke-linejoin="round"/>
<path d="M519.981 188.948H447.131C443.066 188.948 439.771 192.4 439.771 196.658V227.536C439.771 231.794 443.066 235.246 447.131 235.246H519.981C524.045 235.246 527.34 231.794 527.34 227.536V196.658C527.34 192.4 524.045 188.948 519.981 188.948Z" fill="#FB4A04"/>
<path d="M439.771 223.139V248.001L453 232.048" fill="#FB4A04"/>
<path d="M470.3 212.954C470.303 212.012 470.04 211.089 469.543 210.304C469.046 209.519 468.338 208.906 467.508 208.543C466.678 208.18 465.764 208.083 464.882 208.264C463.999 208.446 463.188 208.898 462.551 209.563C461.914 210.227 461.479 211.075 461.302 211.999C461.126 212.923 461.215 213.881 461.558 214.751C461.901 215.622 462.483 216.367 463.231 216.89C463.978 217.414 464.857 217.694 465.757 217.694C466.958 217.694 468.111 217.195 468.963 216.307C469.814 215.418 470.295 214.213 470.3 212.954Z" fill="white"/>
<path d="M489.743 212.954C489.747 212.012 489.483 211.089 488.986 210.304C488.489 209.519 487.781 208.906 486.951 208.543C486.121 208.18 485.207 208.083 484.325 208.264C483.443 208.446 482.631 208.898 481.994 209.563C481.357 210.227 480.923 211.075 480.746 211.999C480.569 212.923 480.658 213.881 481.001 214.751C481.345 215.622 481.927 216.367 482.674 216.89C483.422 217.414 484.301 217.694 485.2 217.694C486.402 217.694 487.555 217.195 488.406 216.307C489.257 215.418 489.738 214.213 489.743 212.954Z" fill="white"/>
<path d="M509.186 212.954C509.19 212.012 508.927 211.089 508.43 210.304C507.933 209.519 507.224 208.906 506.395 208.543C505.565 208.18 504.651 208.083 503.768 208.264C502.886 208.446 502.075 208.898 501.438 209.563C500.8 210.227 500.366 211.075 500.189 211.999C500.012 212.923 500.101 213.881 500.445 214.751C500.788 215.622 501.37 216.367 502.118 216.89C502.865 217.414 503.744 217.694 504.643 217.694C505.845 217.694 506.998 217.195 507.849 216.307C508.701 215.418 509.182 214.213 509.186 212.954Z" fill="white"/>
<path d="M136.722 419.106L136.231 418.458C136.343 418.712 136.511 418.935 136.722 419.106Z" fill="#263238"/>
<path d="M120.677 615.225C120.677 615.225 98.1082 618.271 98.5443 620.556C98.9804 622.84 123.021 630.169 124.766 630.169C126.51 630.169 128.6 617.529 128.6 617.529L120.677 615.225Z" fill="white"/>
<mask id="mask8_415_1422" style="mask-type:alpha" maskUnits="userSpaceOnUse" x="98" y="615" width="31" height="16">
<path d="M120.677 615.225C120.677 615.225 98.1082 618.271 98.5443 620.556C98.9804 622.84 123.021 630.169 124.766 630.169C126.51 630.169 128.6 617.529 128.6 617.529L120.677 615.225Z" fill="white"/>
</mask>
<g mask="url(#mask8_415_1422)">
<g style="mix-blend-mode:multiply">
<path d="M126.221 627.847L101.271 618.918C99.4543 619.471 98.4549 620.042 98.5457 620.556C98.9819 622.84 123.023 630.169 124.767 630.169C125.258 630.169 125.749 629.256 126.221 627.847Z" fill="#FB4A04"/>
</g>
</g>
<path d="M120.677 615.225C120.677 615.225 98.1082 618.271 98.5443 620.556C98.9804 622.84 123.021 630.169 124.766 630.169C126.51 630.169 128.6 617.529 128.6 617.529L120.677 615.225Z" stroke="#263238" stroke-width="0.826956" stroke-miterlimit="10"/>
<path d="M209.99 610.219C208.896 612.015 207.583 613.653 206.083 615.092C204.266 616.463 197.778 619.204 197.778 621.051C197.778 622.897 210.88 623.792 213.515 623.335C216.15 622.878 219.184 617.377 221.819 615.549C224.454 613.721 217.113 606.031 217.113 606.031C214.814 607.564 212.436 608.962 209.99 610.219Z" fill="white"/>
<mask id="mask9_415_1422" style="mask-type:alpha" maskUnits="userSpaceOnUse" x="197" y="606" width="26" height="18">
<path d="M209.991 610.219C208.897 612.015 207.584 613.653 206.084 615.092C204.267 616.463 197.779 619.204 197.779 621.051C197.779 622.897 210.881 623.792 213.516 623.335C216.151 622.878 219.185 617.377 221.82 615.549C224.455 613.721 217.114 606.031 217.114 606.031C214.815 607.564 212.437 608.962 209.991 610.219Z" fill="white"/>
</mask>
<g mask="url(#mask9_415_1422)">
<g style="mix-blend-mode:multiply">
<path d="M221.82 615.511C222.711 614.883 222.42 613.607 221.675 612.065C218.849 614.921 215.756 617.472 212.444 619.68C209.282 621.203 199.106 619.433 199.106 619.433H198.906C198.215 619.985 197.779 620.537 197.779 621.013C197.779 622.916 210.881 623.754 213.516 623.297C216.151 622.84 219.185 617.339 221.82 615.511Z" fill="#FB4A04"/>
</g>
</g>
<path d="M209.99 610.219C208.896 612.015 207.583 613.653 206.083 615.092C204.266 616.463 197.778 619.204 197.778 621.051C197.778 622.897 210.88 623.792 213.515 623.335C216.15 622.878 219.184 617.377 221.819 615.549C224.454 613.721 217.113 606.031 217.113 606.031C214.814 607.564 212.436 608.962 209.99 610.219V610.219Z" stroke="#263238" stroke-width="0.826956" stroke-linecap="round" stroke-linejoin="round"/>
<path d="M162.799 443.778C162.799 443.778 168.468 516.937 170.667 522.648C172.866 528.359 209.99 610.219 209.99 610.219L217.114 606.031L190.492 505.134L195.544 392.283L162.799 443.778Z" fill="#FB4A04" stroke="#263238" stroke-width="0.826956" stroke-linecap="round" stroke-linejoin="round"/>
<path opacity="0.2" d="M162.799 443.778C162.799 443.778 168.468 516.937 170.667 522.648C172.866 528.359 209.99 610.219 209.99 610.219L217.114 606.031L190.492 505.134L195.544 392.283L162.799 443.778Z" fill="black"/>
<path d="M151.496 376.482C151.496 376.482 140.938 435.992 138.776 453.525C136.613 471.058 120.731 615.225 120.731 615.225L128.654 617.529L170.449 456.285C170.449 456.285 184.986 422.152 190.71 412.005C196.434 401.858 201.704 386.629 199.887 379.242C198.07 371.856 151.496 376.482 151.496 376.482Z" fill="#FB4A04" stroke="#263238" stroke-width="0.826956" stroke-linecap="round" stroke-linejoin="round"/>
<path opacity="0.1" d="M151.496 376.482C151.496 376.482 140.938 435.992 138.776 453.525C136.613 471.058 120.731 615.225 120.731 615.225L128.654 617.529L170.449 456.285C170.449 456.285 184.986 422.152 190.71 412.005C196.434 401.858 201.704 386.629 199.887 379.242C198.07 371.856 151.496 376.482 151.496 376.482Z" fill="black"/>
<path d="M173.338 388.856C167.389 402.577 162.669 416.846 159.236 431.48C154.457 453.43 147.189 482.67 147.189 488.896C147.189 495.121 147.589 503.668 145.571 507.057C143.554 510.446 139.92 511.283 139.52 519.298C139.121 527.312 142.337 538.716 137.503 551.794C132.67 564.872 129.853 571.212 129.853 580.083C129.853 588.954 125.383 614.711 125.383 614.711" stroke="#263238" stroke-width="0.620217" stroke-linecap="round" stroke-linejoin="round"/>
<path d="M172.63 458.075V490.59C172.63 511.702 181.897 505.82 181.08 508.313C180.262 510.807 175.446 516.766 177.064 518.879C178.681 520.992 181.08 519.717 181.08 522.686C181.08 525.656 201.141 575.952 201.141 575.952" stroke="#263238" stroke-width="0.620217" stroke-linecap="round" stroke-linejoin="round"/>
<path d="M203.157 580.502L206.374 589.792" stroke="#263238" stroke-width="0.620217" stroke-linecap="round" stroke-linejoin="round"/>
<path d="M78.8287 261.841C78.3771 263.854 78.2239 265.928 78.3744 267.99C78.8287 269.893 86.4971 272.711 86.4971 272.711L78.8287 261.841Z" fill="white" stroke="#263238" stroke-width="0.826956" stroke-linecap="round" stroke-linejoin="round"/>
<path d="M99.9435 261.612C99.9435 261.612 106.994 273.606 106.994 274.938C106.994 276.271 139.14 305.835 139.14 305.835C139.14 305.835 146.626 310.461 147.935 313.222C149.243 315.982 148.825 333.058 147.062 333.515C145.3 333.972 104.377 281.449 102.179 280.535C99.9799 279.621 92.4932 276.842 92.4932 276.842L85.4062 267.552L99.9435 261.612Z" fill="white" stroke="#263238" stroke-width="0.826956" stroke-linecap="round" stroke-linejoin="round"/>
<path d="M147.971 313.241C146.387 311.064 144.412 309.234 142.156 307.853C141.396 310.88 140.24 313.782 138.721 316.477C137.808 317.987 136.715 319.369 135.469 320.589C141.72 328.204 146.517 333.687 147.099 333.534C148.861 333.115 149.297 316.058 147.971 313.241Z" fill="white"/>
<mask id="mask10_415_1422" style="mask-type:alpha" maskUnits="userSpaceOnUse" x="135" y="307" width="14" height="27">
<path d="M147.971 313.241C146.387 311.064 144.412 309.234 142.156 307.853C141.396 310.88 140.24 313.782 138.721 316.477C137.808 317.987 136.715 319.369 135.469 320.589C141.72 328.204 146.517 333.687 147.099 333.534C148.861 333.115 149.297 316.058 147.971 313.241Z" fill="white"/>
</mask>
<g mask="url(#mask10_415_1422)">
<g style="mix-blend-mode:multiply" opacity="0.5">
<path d="M147.971 313.241C146.387 311.064 144.412 309.234 142.156 307.853C141.396 310.88 140.24 313.782 138.721 316.477C137.808 317.987 136.715 319.369 135.469 320.589C141.72 328.204 146.517 333.687 147.099 333.534C148.861 333.115 149.297 316.058 147.971 313.241Z" fill="#FB4A04"/>
</g>
</g>
<path d="M147.971 313.241C146.387 311.064 144.412 309.234 142.156 307.853C141.396 310.88 140.24 313.782 138.721 316.477C137.808 317.987 136.715 319.369 135.469 320.589C141.72 328.204 146.517 333.687 147.099 333.534C148.861 333.115 149.297 316.058 147.971 313.241Z" stroke="#263238" stroke-width="0.826956" stroke-linecap="round" stroke-linejoin="round"/>
<path d="M79.0094 250.285L75.3751 251.922C74.8946 252.14 74.4683 252.47 74.129 252.888C73.7898 253.305 73.5467 253.799 73.4185 254.331C73.2903 254.862 73.2804 255.418 73.3897 255.954C73.4989 256.491 73.7243 256.993 74.0485 257.424L89.9123 278.631C90.1834 278.993 90.5224 279.294 90.9084 279.513C91.2945 279.733 91.7194 279.867 92.157 279.908C92.5945 279.95 93.0355 279.896 93.4527 279.752C93.8698 279.607 94.2543 279.375 94.5824 279.069L97.2718 276.594C97.8777 276.029 98.2602 275.247 98.3443 274.402C98.4283 273.557 98.2079 272.709 97.7261 272.025L83.0616 251.427C82.6058 250.789 81.9586 250.33 81.2239 250.123C80.4892 249.915 79.7094 249.973 79.0094 250.285Z" fill="#263238"/>
<path d="M96.0188 257.919C96.0188 257.919 89.0409 265.762 89.4043 267.552C89.7678 269.341 92.0574 270.788 93.3658 269.456C94.6741 268.123 99.5441 263.916 99.9802 261.612C100.117 261.056 100.106 260.472 99.9462 259.922C99.7867 259.373 99.4857 258.88 99.0762 258.498C98.6667 258.117 98.1646 257.86 97.6252 257.758C97.0858 257.656 96.53 257.712 96.0188 257.919Z" fill="white" stroke="#263238" stroke-width="0.826956" stroke-linecap="round" stroke-linejoin="round"/>
<path d="M149.733 366.335L150.188 378.328C150.188 378.328 157.22 384.325 173.52 385.239C183.755 385.632 193.913 383.252 203.013 378.328L199.887 359.881L149.733 366.335Z" fill="white"/>
<mask id="mask11_415_1422" style="mask-type:alpha" maskUnits="userSpaceOnUse" x="149" y="359" width="55" height="27">
<path d="M149.732 366.335L150.187 378.328C150.187 378.328 157.219 384.325 173.519 385.239C183.754 385.632 193.912 383.252 203.012 378.328L199.886 359.881L149.732 366.335Z" fill="white"/>
</mask>
<g mask="url(#mask11_415_1422)">
<g style="mix-blend-mode:multiply" opacity="0.5">
<path d="M149.732 366.335L150.005 373.702C154.166 375.301 157.928 376.348 157.928 376.348L157.546 382.155C160.147 383.09 162.815 383.809 165.524 384.306L169.648 379.585C182.151 381.298 198.469 374.978 202.212 373.455L199.886 359.881L199.014 359.996L149.732 366.335Z" fill="#FB4A04"/>
</g>
</g>
<path d="M149.733 366.335L150.188 378.328C150.188 378.328 157.22 384.325 173.52 385.239C183.755 385.632 193.913 383.252 203.013 378.328L199.887 359.881L149.733 366.335Z" stroke="#263238" stroke-width="0.826956" stroke-linecap="round" stroke-linejoin="round"/>
<path d="M147.535 250.533C147.535 250.533 142.701 279.088 139.612 287.446C138.483 290.805 138.133 294.397 138.591 297.926C139.049 301.454 140.302 304.818 142.247 307.739C144.9 311.889 146.208 343.719 146.208 349.259C146.208 354.799 142.701 362.185 147.535 368.182C152.368 374.178 176.609 375.568 190.256 373.721C203.903 371.875 207.864 363.099 207.864 358.949C207.864 354.799 195.144 301.286 188.493 278.213C181.843 255.14 172.63 238.539 168.668 235.779C164.707 233.019 167.796 231.629 163.835 233.019C159.873 234.408 151.06 244.079 147.535 250.533Z" fill="white"/>
<mask id="mask12_415_1422" style="mask-type:alpha" maskUnits="userSpaceOnUse" x="138" y="232" width="70" height="143">
<path d="M147.535 250.533C147.535 250.533 142.701 279.088 139.612 287.446C138.483 290.805 138.133 294.397 138.591 297.926C139.049 301.454 140.302 304.818 142.247 307.739C144.9 311.889 146.208 343.719 146.208 349.259C146.208 354.799 142.701 362.185 147.535 368.182C152.368 374.178 176.609 375.568 190.256 373.721C203.903 371.875 207.864 363.099 207.864 358.949C207.864 354.799 195.144 301.286 188.493 278.213C181.843 255.14 172.63 238.539 168.668 235.779C164.707 233.019 167.796 231.629 163.835 233.019C159.873 234.408 151.06 244.079 147.535 250.533Z" fill="white"/>
</mask>
<g mask="url(#mask12_415_1422)">
<g style="mix-blend-mode:multiply" opacity="0.5">
<path d="M154.639 369.21C151.931 369.724 150.241 368.62 147.733 368.81C151.731 371.456 159.509 373.569 167.522 374.864C171.157 369.153 179.007 355.827 179.952 347.85C181.187 337.513 185.512 315.487 182.423 307.739C179.334 299.991 170.084 257.291 167.613 257.291C165.142 257.291 162.053 246.935 156.492 261.803C156.492 261.803 152.858 268.275 155.256 283.162C157.655 298.049 162.053 304.503 159.581 315.525C157.11 326.548 159.581 334.943 163.906 335.59C168.231 336.238 169.467 337.494 168.231 345.28C166.995 353.066 161.435 367.915 154.639 369.21Z" fill="#FB4A04"/>
</g>
<g style="mix-blend-mode:multiply" opacity="0.5">
<path d="M142.482 302.599C140.681 301.16 139.292 299.231 138.466 297.021C138.91 300.854 140.205 304.524 142.246 307.739C144.899 311.889 146.207 343.719 146.207 349.259C146.216 349.43 146.216 349.602 146.207 349.773C147.051 344.421 147.356 338.991 147.116 333.573C146.171 325.748 156.092 315.525 156.092 311.014C156.092 306.502 148.66 307.13 142.482 302.599Z" fill="#FB4A04"/>
</g>
</g>
<path d="M147.535 250.533C147.535 250.533 142.701 279.088 139.612 287.446C138.483 290.805 138.133 294.397 138.591 297.926C139.049 301.454 140.302 304.818 142.247 307.739C144.9 311.889 146.208 343.719 146.208 349.259C146.208 354.799 142.701 362.185 147.535 368.182C152.368 374.178 176.609 375.568 190.256 373.721C203.903 371.875 207.864 363.099 207.864 358.949C207.864 354.799 195.144 301.286 188.493 278.213C181.843 255.14 172.63 238.539 168.668 235.779C164.707 233.019 167.796 231.629 163.835 233.019C159.873 234.408 151.06 244.079 147.535 250.533Z" stroke="#263238" stroke-width="0.826956" stroke-linecap="round" stroke-linejoin="round"/>
<path d="M146.735 260.927C146.735 260.927 149.97 262.621 154.404 256.72" stroke="#263238" stroke-width="0.620217" stroke-linecap="round" stroke-linejoin="round"/>
<path d="M197.743 322.055L178.808 329.422C178.808 329.422 174.392 346.042 171.757 353.885C169.122 361.728 155.403 396.318 155.403 396.318C155.403 396.318 147.48 405.551 145.717 408.312C143.955 411.072 143.519 420.305 144.845 421.638C146.172 422.97 149.243 418.401 149.243 418.401C149.243 418.401 150.133 420.705 153.64 418.858C157.147 417.012 161.726 399.555 161.726 399.555C161.726 399.555 180.207 366.335 186.821 355.77C193.436 345.204 198.706 335 198.706 330.85C198.621 327.895 198.299 324.953 197.743 322.055Z" fill="white"/>
<mask id="mask13_415_1422" style="mask-type:alpha" maskUnits="userSpaceOnUse" x="144" y="322" width="55" height="100">
<path d="M197.743 322.055L178.808 329.422C178.808 329.422 174.392 346.042 171.757 353.885C169.122 361.728 155.403 396.318 155.403 396.318C155.403 396.318 147.48 405.551 145.717 408.312C143.955 411.072 143.519 420.305 144.845 421.638C146.172 422.97 149.243 418.401 149.243 418.401C149.243 418.401 150.133 420.705 153.64 418.858C157.147 417.012 161.726 399.555 161.726 399.555C161.726 399.555 180.207 366.335 186.821 355.77C193.436 345.204 198.706 335 198.706 330.85C198.621 327.895 198.299 324.953 197.743 322.055Z" fill="white"/>
</mask>
<g mask="url(#mask13_415_1422)">
<g style="mix-blend-mode:multiply" opacity="0.5">
<path d="M198.306 325.919C198.179 324.872 198.051 324.016 197.942 323.292L193.963 323.521L178.808 329.422C178.808 329.422 174.392 346.042 171.757 353.885C169.122 361.728 155.403 396.318 155.403 396.318C155.403 396.318 147.48 405.551 145.717 408.312C143.955 411.072 143.519 420.305 144.845 421.638C146.172 422.97 149.243 418.401 149.243 418.401C147.889 416.446 146.998 414.182 146.644 411.795C146.644 409.035 156.638 399.117 156.638 399.117L187.748 334.181L198.306 325.919Z" fill="#FB4A04"/>
</g>
</g>
<path d="M197.743 322.055L178.808 329.422C178.808 329.422 174.392 346.042 171.757 353.885C169.122 361.728 155.403 396.318 155.403 396.318C155.403 396.318 147.48 405.551 145.717 408.312C143.955 411.072 143.519 420.305 144.845 421.638C146.172 422.97 149.243 418.401 149.243 418.401C149.243 418.401 150.133 420.705 153.64 418.858C157.147 417.012 161.726 399.555 161.726 399.555C161.726 399.555 180.207 366.335 186.821 355.77C193.436 345.204 198.706 335 198.706 330.85C198.621 327.895 198.299 324.953 197.743 322.055V322.055Z" stroke="#263238" stroke-width="0.826956" stroke-linecap="round" stroke-linejoin="round"/>
<path d="M178.807 329.422C178.807 329.422 177.517 334.277 175.918 339.95C179.277 341.163 182.759 341.968 186.294 342.348C188.957 342.626 191.637 342.677 194.308 342.501C196.942 337.38 198.614 333.154 198.614 330.812C198.557 327.873 198.266 324.943 197.742 322.055L178.807 329.422Z" fill="white" stroke="#263238" stroke-width="0.826956" stroke-linecap="round" stroke-linejoin="round"/>
<path d="M165.598 251.009C161.929 254.292 159.568 258.898 158.983 263.916C158.111 272.216 165.143 292.471 165.143 301.742C165.143 311.013 166.96 322.512 168.669 327.119C170.377 331.726 178.354 334.505 186.731 332.202C195.108 329.898 202.141 328.508 202.141 318.362C202.141 308.215 193.327 290.682 187.167 275.452C181.007 260.222 175.719 246.858 165.598 251.009Z" fill="white"/>
<mask id="mask14_415_1422" style="mask-type:alpha" maskUnits="userSpaceOnUse" x="158" y="250" width="45" height="84">
<path d="M165.598 251.009C161.929 254.292 159.568 258.898 158.983 263.916C158.111 272.216 165.143 292.471 165.143 301.742C165.143 311.013 166.96 322.512 168.669 327.119C170.377 331.726 178.354 334.505 186.731 332.202C195.108 329.898 202.141 328.508 202.141 318.362C202.141 308.215 193.327 290.682 187.167 275.452C181.007 260.222 175.719 246.858 165.598 251.009Z" fill="white"/>
</mask>
<g mask="url(#mask14_415_1422)">
<g style="mix-blend-mode:multiply" opacity="0.5">
<path d="M165.597 251.009C165.597 251.009 162.09 253.883 163.78 263.84C165.47 273.796 167.723 287.179 168.377 293.709C169.032 300.238 180.825 279.983 179.517 286.836C178.208 293.69 172.63 313.964 172.63 318.438C172.63 322.911 178.208 328.737 183.533 329.86C188.857 330.983 198.742 327.956 198.742 327.956C196.221 329.452 193.536 330.621 190.747 331.44C187.356 332.4 183.889 333.037 180.389 333.344L178.081 332.849C178.081 332.849 169.886 332.849 167.178 324.948C164.471 317.048 166.524 301.952 163.235 290.682C159.946 279.412 158.656 272.482 158.329 267.323C158.001 262.164 162.199 252.931 165.597 251.009Z" fill="#FB4A04"/>
</g>
</g>
<path d="M165.598 251.009C161.929 254.292 159.568 258.898 158.983 263.916C158.111 272.216 165.143 292.471 165.143 301.742C165.143 311.013 166.96 322.512 168.669 327.119C170.377 331.726 178.354 334.505 186.731 332.202C195.108 329.898 202.141 328.508 202.141 318.362C202.141 308.215 193.327 290.682 187.167 275.452C181.007 260.222 175.719 246.858 165.598 251.009Z" stroke="#263238" stroke-width="0.826956" stroke-linecap="round" stroke-linejoin="round"/>
<path d="M183.405 271.074C182.181 280.081 179.456 288.792 175.355 296.812" stroke="#263238" stroke-width="0.620217" stroke-linecap="round" stroke-linejoin="round"/>
<path d="M173.737 298.506L170.121 303.151" stroke="#263238" stroke-width="0.620217" stroke-linecap="round" stroke-linejoin="round"/>
<path d="M135.851 234.199C139.859 236.411 143.134 239.842 145.246 244.041C147.935 250.38 148.608 255.311 150.697 253.902C152.787 252.494 165.471 235.874 163.072 234.599C157.621 231.8 152.06 218.151 154.731 208.175C155.749 204.044 135.179 225.766 135.851 234.199Z" fill="white" stroke="#263238" stroke-width="0.826956" stroke-linecap="round" stroke-linejoin="round"/>
<path d="M125.474 177.602C119.259 180.876 112.481 186.321 112.481 194.24C112.481 208.08 117.842 213.544 117.842 216.99C117.842 220.435 113.426 225.08 115.08 226.813C116.734 228.545 120.531 227.955 120.531 227.955C123.157 232.966 126.102 237.787 129.345 242.385C132.652 246.421 138.721 240.653 145.336 235.455C151.95 230.258 155.239 225.651 155.239 215.847C155.239 206.043 159.873 198.714 155.803 189.195C154.567 186.322 152.795 183.736 150.592 181.59C148.388 179.445 145.797 177.783 142.971 176.703C140.144 175.622 137.14 175.145 134.136 175.3C131.131 175.454 128.186 176.237 125.474 177.602Z" fill="white"/>
<mask id="mask15_415_1422" style="mask-type:alpha" maskUnits="userSpaceOnUse" x="112" y="175" width="46" height="69">
<path d="M125.474 177.602C119.259 180.876 112.481 186.321 112.481 194.24C112.481 208.08 117.842 213.544 117.842 216.99C117.842 220.435 113.426 225.08 115.08 226.813C116.734 228.545 120.531 227.955 120.531 227.955C123.157 232.966 126.102 237.787 129.345 242.385C132.652 246.421 138.721 240.653 145.336 235.455C151.95 230.258 155.239 225.651 155.239 215.847C155.239 206.043 159.873 198.714 155.803 189.195C154.567 186.322 152.795 183.736 150.592 181.59C148.388 179.445 145.797 177.783 142.971 176.703C140.144 175.622 137.14 175.145 134.136 175.3C131.131 175.454 128.186 176.237 125.474 177.602Z" fill="white"/>
</mask>
<g mask="url(#mask15_415_1422)">
<g style="mix-blend-mode:multiply" opacity="0.5">
<path d="M126.366 175.736C120.151 179.011 113.373 184.474 113.373 192.375C116.517 191.213 120.878 190.052 122.949 191.499C126.402 193.898 122.386 207.738 133.852 213.144C145.319 218.551 147.627 217.961 149.353 222.168C150.443 224.833 148.626 230.182 145.21 234.428L146.245 233.609C152.86 228.412 156.167 223.805 156.167 213.982C156.167 204.159 160.801 196.963 156.73 187.33C155.495 184.451 153.722 181.861 151.516 179.712C149.309 177.564 146.714 175.9 143.884 174.819C141.053 173.738 138.045 173.263 135.036 173.42C132.027 173.578 129.079 174.365 126.366 175.736Z" fill="#FB4A04"/>
</g>
</g>
<path d="M125.474 177.602C119.259 180.876 112.481 186.321 112.481 194.24C112.481 208.08 117.842 213.544 117.842 216.99C117.842 220.435 113.426 225.08 115.08 226.813C116.734 228.545 120.531 227.955 120.531 227.955C123.157 232.966 126.102 237.787 129.345 242.385C132.652 246.421 138.721 240.653 145.336 235.455C151.95 230.258 155.239 225.651 155.239 215.847C155.239 206.043 159.873 198.714 155.803 189.195C154.567 186.322 152.795 183.736 150.592 181.59C148.388 179.445 145.797 177.783 142.971 176.703C140.144 175.622 137.14 175.145 134.136 175.3C131.131 175.454 128.186 176.237 125.474 177.602Z" stroke="#263238" stroke-width="0.826956" stroke-linecap="round" stroke-linejoin="round"/>
<g style="mix-blend-mode:multiply" opacity="0.5">
<path d="M119.769 219.007L118.37 222.282C118.37 222.282 121.496 225.556 121.496 223.005C121.496 220.454 122.531 216.818 119.769 219.007Z" fill="#FB4A04"/>
</g>
<path d="M128.199 230.125C129.468 229.611 130.585 228.753 131.434 227.64C132.283 226.526 132.835 225.196 133.033 223.786" fill="white"/>
<path d="M128.199 230.125C129.468 229.611 130.585 228.753 131.434 227.64C132.283 226.526 132.835 225.196 133.033 223.786" stroke="#263238" stroke-width="0.826956" stroke-linecap="round" stroke-linejoin="round"/>
<path d="M122.567 211.545L123.367 215.353C124.401 215.683 125.508 215.655 126.526 215.275C127.544 214.894 128.418 214.181 129.018 213.239" fill="white"/>
<path d="M122.567 211.545L123.367 215.353C124.401 215.683 125.508 215.655 126.526 215.275C127.544 214.894 128.418 214.181 129.018 213.239" stroke="#263238" stroke-width="0.826956" stroke-linecap="round" stroke-linejoin="round"/>
<path d="M119.333 208.175C120.029 206.875 121.134 205.868 122.459 205.326C123.785 204.785 125.249 204.742 126.602 205.206" fill="white"/>
<path d="M119.333 208.175C120.029 206.875 121.134 205.868 122.459 205.326C123.785 204.785 125.249 204.742 126.602 205.206" stroke="#263238" stroke-width="0.826956" stroke-linecap="round" stroke-linejoin="round"/>
<path d="M141.501 238.559C139.957 239.777 138.503 240.9 137.104 241.795C141.665 255.502 126.837 271.131 133.106 285.923C134.522 289.129 136.271 292.161 138.321 294.965C138.321 294.42 138.321 293.868 138.321 293.309C138.312 293.144 138.312 292.979 138.321 292.814C138.321 292.395 138.321 291.996 138.467 291.577C138.612 291.158 138.467 291.196 138.467 290.987C138.467 290.777 138.63 290.168 138.739 289.768C138.848 289.368 138.739 289.407 138.866 289.216C139.03 288.626 139.212 288.036 139.43 287.446C142.519 279.146 147.353 250.533 147.353 250.533C147.356 250.482 147.356 250.431 147.353 250.381C146.735 248.667 146.008 246.459 144.972 244.041C144.146 242.006 142.97 240.147 141.501 238.559Z" fill="#263238"/>
<path d="M251.294 323.73C236.321 310.404 238.974 304.35 242.935 294.204C246.897 284.057 246.024 262.374 230.215 247.601C214.406 232.828 194.108 241.147 184.786 222.244C175.464 203.34 184.35 200.085 179.062 183.941C173.774 167.798 154.458 156.261 139.92 157.137C136.295 157.396 132.737 158.297 129.399 159.802C105.776 160.411 97.7805 173.128 102.723 185.312C103.744 187.642 105.569 189.479 107.832 190.454C110.095 191.429 112.626 191.469 114.916 190.566C118.914 189.043 124.275 188.11 126.837 192.47C131.253 199.856 129.526 211.316 142.737 214.077C149.261 215.447 153.186 217.047 155.148 219.35C155.148 219.902 155.039 220.473 154.948 220.987C155.345 222.574 155.855 224.126 156.475 225.632C156.255 226.886 155.927 228.116 155.493 229.306C152.422 238.063 145.808 246.44 155.948 251.903C166.087 257.367 163.325 250.457 170.358 250.457C177.39 250.457 181.115 259.975 181.115 259.975C184.022 265.83 186.5 271.908 188.529 278.155L188.911 279.488C194.871 293.671 202.176 309.053 202.176 318.305C202.268 320.679 201.706 323.032 200.559 325.082C202.085 331.44 203.503 337.494 204.666 342.672C204.848 343.491 205.029 344.29 205.193 345.071V345.185C205.356 345.984 205.538 346.765 205.702 347.507C205.847 348.155 205.974 348.764 206.101 349.411V349.773C206.21 350.287 206.301 350.763 206.392 351.22C206.483 351.677 206.483 351.6 206.519 351.772C206.519 352.229 206.701 352.647 206.774 353.066L206.883 353.561C206.883 353.942 207.028 354.285 207.083 354.627L207.192 355.122C207.192 355.427 207.301 355.712 207.337 355.979C207.376 356.136 207.406 356.294 207.428 356.455C207.428 356.702 207.428 356.912 207.537 357.121C207.646 357.33 207.537 357.407 207.537 357.521C207.537 357.635 207.537 357.864 207.537 358.016C207.527 358.123 207.527 358.232 207.537 358.339C207.537 358.568 207.537 358.739 207.537 358.873C207.562 359.202 207.562 359.533 207.537 359.862V360.148C207.498 360.43 207.443 360.71 207.373 360.986C207.373 361.1 207.373 361.195 207.373 361.309C207.373 361.423 207.155 362.014 207.01 362.375V362.509C206.63 363.469 206.148 364.382 205.574 365.231V365.364C205.268 365.818 204.934 366.25 204.575 366.659C203.698 367.672 202.71 368.573 201.631 369.343L203.103 378.157C203.103 378.157 202.013 378.804 200.087 379.699C203.5 381.392 207.14 382.528 210.88 383.069C233.777 386.762 244.789 380.289 253.148 367.839C261.507 355.389 266.267 337.113 251.294 323.73Z" fill="#263238"/>
<path d="M104.923 185.902C104.923 185.902 111.247 190.966 121.659 186.683C132.071 182.399 141.012 181.619 147.699 190.185C154.386 198.752 158.493 202.655 162.963 202.655C167.433 202.655 178.954 212.402 180.062 224.09C181.171 235.779 187.131 239.682 195.327 242.804" stroke="white" stroke-width="0.620217" stroke-linecap="round" stroke-linejoin="round"/>
<path d="M200.523 243.984C204.068 244.915 207.677 245.551 211.317 245.888C216.533 246.268 220.258 246.268 224.037 250.571" stroke="white" stroke-width="0.620217" stroke-linecap="round" stroke-linejoin="round"/>
<path d="M130.962 191.404C134.57 194.843 137.369 199.111 139.139 203.873C141.374 210.878 152.913 212.839 158.855 212.439" stroke="white" stroke-width="0.620217" stroke-linecap="round" stroke-linejoin="round"/>
<path d="M163.708 182.399C163.708 182.399 158.856 173.033 150.315 169.073C141.775 165.114 134.688 170.615 123.058 175.698C111.428 180.781 104.45 177.259 104.45 177.259" stroke="white" stroke-width="0.620217" stroke-linecap="round" stroke-linejoin="round"/>
<path d="M188.984 257.615C188.984 257.615 195.672 268.923 204.612 275.547C213.552 282.172 223.583 287.236 218.749 303.608C213.916 319.98 209.809 328.946 221.348 339.474C232.887 350.001 236.976 366.754 232.505 373.379" stroke="white" stroke-width="0.620217" stroke-linecap="round" stroke-linejoin="round"/>
<path d="M160.436 217.028C160.436 217.028 167.814 223.805 165.67 230.563C163.525 237.321 153.368 241.205 159.201 246.687C165.034 252.17 177.045 247.335 179.825 248.305C181.591 248.969 183.175 250.073 184.441 251.523" stroke="white" stroke-width="0.620217" stroke-linecap="round" stroke-linejoin="round"/>
<path d="M163.689 213.544C163.689 213.544 172.121 217.351 172.63 225.175C173.139 233 167.287 237.188 168.65 240.405C170.013 243.622 174.52 239.948 179.553 241.833" stroke="white" stroke-width="0.620217" stroke-linecap="round" stroke-linejoin="round"/>
<path d="M14.191 244.765H87.0409C91.1054 244.765 94.4004 241.313 94.4004 237.055V206.177C94.4004 201.918 91.1054 198.467 87.0409 198.467H14.191C10.1264 198.467 6.83148 201.918 6.83148 206.177V237.055C6.83148 241.313 10.1264 244.765 14.191 244.765Z" fill="#FB4A04"/>
<path d="M94.4008 232.638V257.519L81.1719 241.547" fill="#FB4A04"/>
<path d="M68.415 227.212C70.9239 227.212 72.9579 225.082 72.9579 222.453C72.9579 219.825 70.9239 217.694 68.415 217.694C65.906 217.694 63.8721 219.825 63.8721 222.453C63.8721 225.082 65.906 227.212 68.415 227.212Z" fill="white"/>
<path d="M44.4297 222.453C44.4297 221.512 44.6961 220.592 45.1953 219.809C45.6945 219.026 46.404 218.416 47.2341 218.056C48.0642 217.696 48.9776 217.602 49.8589 217.785C50.7401 217.969 51.5496 218.422 52.1849 219.088C52.8202 219.753 53.2529 220.601 53.4282 221.525C53.6035 222.448 53.5135 223.405 53.1697 224.274C52.8258 225.144 52.2436 225.887 51.4965 226.41C50.7494 226.933 49.8711 227.212 48.9726 227.212C47.7677 227.212 46.6122 226.711 45.7603 225.818C44.9083 224.926 44.4297 223.715 44.4297 222.453Z" fill="white"/>
<path d="M29.5282 227.212C32.0372 227.212 34.0711 225.082 34.0711 222.453C34.0711 219.825 32.0372 217.694 29.5282 217.694C27.0193 217.694 24.9854 219.825 24.9854 222.453C24.9854 225.082 27.0193 227.212 29.5282 227.212Z" fill="white"/>
<path d="M234.759 330.107L239.974 336.352" stroke="white" stroke-width="0.620217" stroke-linecap="round" stroke-linejoin="round"/>
<path d="M243.681 339.074C246.344 342.44 248.123 346.476 248.843 350.782C249.564 355.089 249.2 359.518 247.787 363.632" stroke="white" stroke-width="0.620217" stroke-linecap="round" stroke-linejoin="round"/>
</svg>
