<svg width="100" height="100" viewBox="0 0 100 100" fill="none" xmlns="http://www.w3.org/2000/svg">
<path d="M79.1667 12.5H20.8333C16.231 12.5 12.5 16.231 12.5 20.8333V79.1667C12.5 83.769 16.231 87.5 20.8333 87.5H79.1667C83.769 87.5 87.5 83.769 87.5 79.1667V20.8333C87.5 16.231 83.769 12.5 79.1667 12.5Z" stroke="black" stroke-width="2" stroke-linecap="round" stroke-linejoin="round"/>
<path d="M35.416 41.6665C38.8678 41.6665 41.666 38.8683 41.666 35.4165C41.666 31.9647 38.8678 29.1665 35.416 29.1665C31.9642 29.1665 29.166 31.9647 29.166 35.4165C29.166 38.8683 31.9642 41.6665 35.416 41.6665Z" stroke="black" stroke-width="2" stroke-linecap="round" stroke-linejoin="round"/>
<path d="M87.5006 62.4998L66.6673 41.6665L20.834 87.4998" stroke="black" stroke-width="2" stroke-linecap="round" stroke-linejoin="round"/>
</svg>
