<svg width="60" height="60" viewBox="0 0 60 60" fill="none" xmlns="http://www.w3.org/2000/svg">
<path d="M30 58.125C14.467 58.125 1.875 45.533 1.875 30C1.875 14.467 14.467 1.875 30 1.875C45.533 1.875 58.125 14.467 58.125 30C58.125 45.533 45.533 58.125 30 58.125Z" fill="#FFDD67"/>
<path d="M21.5624 46.5937C26.9999 42.0937 32.9999 42.0937 38.4374 46.5937C39.0936 47.1562 39.6561 46.2188 39.1874 45.375C37.4999 42.1875 34.2186 39.2812 29.9999 39.2812C25.7811 39.2812 22.4061 42.1875 20.8124 45.375C20.3436 46.125 20.9061 47.0625 21.5624 46.5937Z" fill="#664E27"/>
<path d="M50.4374 23.3438C51.8437 27.75 49.8749 32.7188 45.4687 34.6875C41.1562 36.75 36.0937 35.1562 33.5624 31.2187L40.0312 24L50.4374 23.3438Z" fill="white"/>
<path d="M46.6878 24.1873C48.0003 26.906 46.7815 30.1873 44.0628 31.406C41.344 32.7185 38.0628 31.4998 36.844 28.781C35.9065 26.9998 45.844 22.406 46.6878 24.1873Z" fill="#664E27"/>
<path d="M50.4375 23.3438C48.9375 22.4062 47.1562 21.9375 45.375 21.9375C43.5937 21.9375 41.8125 22.4063 40.125 23.1563C38.5312 23.9063 37.0313 25.0313 35.8125 26.3438C34.6875 27.75 33.75 29.3438 33.5625 31.125C34.7812 29.9063 36 28.875 37.3125 27.9375C38.625 27 39.9375 26.25 41.25 25.6875C42.6562 25.0312 44.0625 24.5625 45.5625 24.0938C47.25 23.8125 48.75 23.5312 50.4375 23.3438Z" fill="#664E27"/>
<path d="M9.5625 23.3438C8.15625 27.75 10.125 32.7188 14.5312 34.6875C18.8437 36.75 23.9062 35.1562 26.4375 31.2187L19.9687 24L9.5625 23.3438Z" fill="white"/>
<path d="M13.3127 24.1873C12.0002 26.906 13.2189 30.1873 15.9377 31.406C18.6564 32.7185 21.9377 31.4998 23.1564 28.781C24.0939 26.9998 14.1564 22.406 13.3127 24.1873Z" fill="#664E27"/>
<path d="M9.5625 23.3438C11.0625 22.4062 12.8437 21.9375 14.625 21.9375C16.4062 21.9375 18.1875 22.4063 19.875 23.1563C21.4688 23.9063 22.9687 25.0313 24.1875 26.3438C25.3125 27.75 26.25 29.3438 26.4375 31.125C25.2188 29.9063 24 28.875 22.6875 27.9375C21.375 27 20.0625 26.25 18.75 25.6875C17.3437 25.0312 15.9375 24.5625 14.4375 24.0938C12.75 23.8125 11.25 23.5312 9.5625 23.3438Z" fill="#664E27"/>
</svg>
