<svg width="809" height="861" viewBox="0 0 809 861" fill="none" xmlns="http://www.w3.org/2000/svg">
<path d="M404.5 860.642C627.899 860.642 809 749.791 809 613.05C809 476.309 627.899 365.458 404.5 365.458C181.101 365.458 0 476.309 0 613.05C0 749.791 181.101 860.642 404.5 860.642Z" fill="#F5F5F5"/>
<path d="M417.292 499.887L188.552 639.951C182.112 643.887 170.957 643.402 163.443 638.85L82.2056 589.134C74.7627 584.582 73.9534 577.698 80.4461 573.762L309.186 433.699C315.626 429.762 326.781 430.266 334.294 434.799L415.515 484.515C422.922 489.067 423.784 495.951 417.292 499.887Z" fill="#E0E0E0"/>
<path d="M543.046 686.234C631.554 686.234 703.304 642.318 703.304 588.145C703.304 533.972 631.554 490.056 543.046 490.056C454.537 490.056 382.787 533.972 382.787 588.145C382.787 642.318 454.537 686.234 543.046 686.234Z" fill="#E0E0E0"/>
<path d="M395.298 734.552C437.162 734.552 471.099 713.78 471.099 688.156C471.099 662.532 437.162 641.76 395.298 641.76C353.434 641.76 319.497 662.532 319.497 688.156C319.497 713.78 353.434 734.552 395.298 734.552Z" fill="#E0E0E0"/>
<path d="M722.571 617.788C740.307 628.646 740.307 646.256 722.571 657.113C704.835 667.971 676.049 667.971 658.313 657.113C640.577 646.256 640.577 628.646 658.313 617.788C676.049 606.931 704.817 606.987 722.571 617.788Z" fill="#E0E0E0"/>
<path d="M691.884 527.889C681.714 597.454 615.609 671.105 514.347 650.547C513.344 650.36 512.341 650.155 511.356 649.931C509.262 649.465 507.151 648.98 505.039 648.42C398.517 621.277 391.021 548.13 395.684 516.285C400.347 484.441 428.095 458.827 444.494 448.679C460.893 438.53 481.215 427.039 499.901 395.026C516.846 365.924 544.048 348.5 584.606 351.429L588.213 351.728C591.116 352.026 594.125 352.436 597.186 352.921C597.186 352.921 715.181 368.611 691.884 527.889Z" fill="#FB4A04"/>
<path opacity="0.6" d="M691.884 527.889C681.714 597.454 615.609 671.105 514.347 650.547C513.344 650.36 512.341 650.155 511.356 649.931C509.262 649.465 507.151 648.98 505.039 648.42C398.517 621.277 391.021 548.13 395.684 516.285C400.347 484.441 428.095 458.827 444.494 448.679C460.893 438.53 481.215 427.039 499.901 395.026C516.846 365.924 544.048 348.5 584.606 351.429L588.213 351.728C591.116 352.026 594.125 352.436 597.186 352.921C597.186 352.921 715.181 368.611 691.884 527.889Z" fill="white"/>
<path d="M666.847 523.785C657.117 590.384 600.354 661.423 514.348 650.64C513.345 650.453 512.342 650.248 511.356 650.024C595.55 658.736 651.028 588.611 660.636 522.852C679.885 391.295 609.609 358.835 584.606 351.522C582.301 350.832 580.383 350.384 578.94 350.067L582.283 350.571C584.28 350.873 586.259 351.29 588.213 351.821C610.489 357.492 686.817 387.322 666.847 523.785Z" fill="#FB4A04"/>
<path opacity="0.4" d="M666.847 523.785C657.117 590.384 600.354 661.423 514.348 650.64C513.345 650.453 512.342 650.248 511.356 650.024C595.55 658.736 651.028 588.611 660.636 522.852C679.885 391.295 609.609 358.835 584.606 351.522C582.301 350.832 580.383 350.384 578.94 350.067L582.283 350.571C584.28 350.873 586.259 351.29 588.213 351.821C610.489 357.492 686.817 387.322 666.847 523.785Z" fill="white"/>
<path d="M608.043 519.755C608.043 519.755 664.63 380.96 572.958 380.96C572.958 380.96 523.445 367.547 501.943 432.132C480.442 496.716 419.245 479.945 419.245 531.266C419.245 562.326 431.826 597.678 442.277 620.699C451.005 626.894 460.288 632.161 469.99 636.425L470.395 636.126C470.395 636.126 474.055 604.002 496.137 588.295C518.219 572.587 567.556 557.178 583.779 544.212C599.105 531.993 630.706 536.135 635.809 544.623C633.17 538.746 623.246 518.02 608.043 519.755Z" fill="#FB4A04"/>
<path opacity="0.4" d="M608.043 519.755C608.043 519.755 664.63 380.96 572.958 380.96C572.958 380.96 523.445 367.547 501.943 432.132C480.442 496.716 419.245 479.945 419.245 531.266C419.245 562.326 431.826 597.678 442.277 620.699C451.005 626.894 460.288 632.161 469.99 636.425L470.395 636.126C470.395 636.126 474.055 604.002 496.137 588.295C518.219 572.587 567.556 557.178 583.779 544.212C599.105 531.993 630.706 536.135 635.809 544.623C633.17 538.746 623.246 518.02 608.043 519.755Z" fill="white"/>
<path d="M635.738 544.623C636.143 545.593 636.372 546.171 636.372 546.171C636.247 545.62 636.033 545.096 635.738 544.623Z" fill="#FB4A04"/>
<path d="M419.685 553.409L424.048 624.523C424.048 624.523 451.55 627.676 448.259 604.972C448.259 604.972 446.887 602.584 447.204 596.988C447.52 591.391 453.696 562.214 453.925 553.111L419.685 553.409Z" fill="#FFA8A7"/>
<path d="M423.257 611.725L426.688 614.43L451.849 558.521L448.295 553.167L444.864 553.204L438.53 558.521L422.236 595.141L423.257 611.725Z" fill="#F28F8F"/>
<path d="M422.377 624.784C422.377 624.784 416.694 613.087 424.84 610.028C432.987 606.968 438.125 610.028 438.67 613.255C439.216 616.482 439.567 621.202 439.567 621.202C443.918 616.825 446.943 611.176 448.26 604.972C448.26 604.972 460.893 616.762 459.873 622.881C458.852 629 449.175 642.096 447.978 646.2C446.782 650.304 443.843 675.657 431.949 679.313C420.054 682.97 403.127 683.044 407.315 668.68C408.74 663.717 416.113 657.897 417.784 653.009C419.456 648.122 422.377 624.784 422.377 624.784Z" fill="#FB4A04"/>
<path d="M443.438 664.501C441.391 659.514 437.814 655.407 433.288 652.847C428.762 650.287 423.552 649.424 418.506 650.398C418.259 651.517 418.03 652.412 417.837 653.009C416.165 657.897 408.793 663.717 407.368 668.68C403.215 683.119 420.142 682.97 432.001 679.313C437.509 677.615 441.098 671.254 443.491 664.501H443.438Z" fill="#EBEBEB"/>
<path d="M458.465 617.471C458.637 618.171 458.673 618.901 458.57 619.617C457.426 625.997 447.116 639.54 445.813 643.868C444.511 648.196 441.08 674.594 428.588 678.25C422.854 680.032 416.839 680.572 410.904 679.836C416.042 682.447 424.875 681.515 432.019 679.351C443.913 675.62 446.869 650.36 448.048 646.238C449.227 642.115 458.94 629.037 459.943 622.919C460.039 620.979 459.519 619.06 458.465 617.471Z" fill="#263238"/>
<path d="M436.805 628.347C436.586 628.345 436.378 628.251 436.224 628.086C430.611 622.154 423.01 625.437 422.693 625.567C422.495 625.656 422.271 625.658 422.072 625.573C421.872 625.487 421.713 625.321 421.629 625.11C421.545 624.9 421.543 624.663 421.624 624.451C421.705 624.24 421.862 624.071 422.06 623.982C422.148 623.982 430.963 620.101 437.385 626.855C437.499 626.977 437.577 627.133 437.608 627.302C437.639 627.471 437.623 627.645 437.561 627.805C437.499 627.964 437.394 628.1 437.26 628.197C437.125 628.293 436.967 628.345 436.805 628.347Z" fill="#EBEBEB"/>
<path d="M436.101 634.97C435.997 634.971 435.893 634.95 435.797 634.908C435.7 634.866 435.612 634.805 435.538 634.727C429.907 628.795 422.306 632.059 421.989 632.209C421.89 632.254 421.783 632.279 421.675 632.28C421.567 632.281 421.46 632.259 421.36 632.216C421.26 632.172 421.169 632.108 421.093 632.027C421.017 631.945 420.956 631.849 420.916 631.742C420.834 631.529 420.834 631.291 420.916 631.078C420.999 630.865 421.156 630.695 421.356 630.604C421.356 630.604 430.277 626.724 436.681 633.496C436.833 633.657 436.918 633.875 436.918 634.102C436.918 634.33 436.833 634.548 436.681 634.708C436.608 634.794 436.518 634.861 436.418 634.906C436.318 634.951 436.21 634.973 436.101 634.97Z" fill="#EBEBEB"/>
<path d="M435.186 641.499C435.079 641.501 434.973 641.481 434.873 641.439C434.773 641.398 434.682 641.336 434.605 641.256C428.975 635.305 421.391 638.589 421.075 638.738C420.878 638.806 420.665 638.794 420.477 638.704C420.289 638.614 420.139 638.452 420.058 638.251C419.976 638.05 419.968 637.824 420.036 637.617C420.104 637.41 420.242 637.238 420.424 637.134C420.512 637.134 429.344 633.253 435.749 640.025C435.829 640.102 435.892 640.196 435.936 640.3C435.979 640.405 436.001 640.517 436.001 640.632C436.001 640.746 435.979 640.858 435.936 640.963C435.892 641.067 435.829 641.161 435.749 641.238C435.678 641.321 435.591 641.387 435.494 641.432C435.397 641.477 435.292 641.5 435.186 641.499Z" fill="#EBEBEB"/>
<path d="M433.901 648.122C433.683 648.12 433.474 648.026 433.321 647.861C427.69 641.928 420.107 645.212 419.79 645.342C419.692 645.386 419.586 645.409 419.48 645.41C419.373 645.411 419.267 645.39 419.168 645.347C419.07 645.305 418.98 645.242 418.904 645.163C418.828 645.084 418.767 644.989 418.725 644.885C418.684 644.781 418.662 644.669 418.661 644.556C418.66 644.443 418.68 644.331 418.72 644.226C418.761 644.121 418.82 644.026 418.894 643.945C418.969 643.865 419.058 643.801 419.157 643.756C419.244 643.756 428.06 639.858 434.482 646.629C434.596 646.752 434.674 646.907 434.705 647.076C434.736 647.245 434.72 647.42 434.658 647.579C434.596 647.739 434.491 647.875 434.357 647.971C434.222 648.068 434.064 648.12 433.901 648.122Z" fill="#EBEBEB"/>
<path d="M538.418 494.179L511.849 508.767L463.726 535.239C461.578 536.427 459.675 538.056 458.129 540.033C456.582 542.009 455.422 544.292 454.717 546.749C454.213 548.491 453.947 550.3 453.925 552.122V553.111C452.851 553.898 451.728 554.609 450.564 555.237C446.827 557.251 442.719 558.372 438.529 558.521C431.928 558.646 425.418 556.88 419.685 553.409C419.685 553.409 419.509 544.977 419.174 531.265C418.84 517.554 429.925 511.118 440.078 503.096C450.23 495.074 504.723 470.561 504.723 470.561L538.418 494.179Z" fill="#455A64"/>
<path d="M504.723 503.824L534.195 494.421L538.418 498.824L507.151 511.36L504.723 503.824Z" fill="#37474F"/>
<path d="M514.313 511.099L454.717 546.749L454.066 547.141L450.547 555.237C446.81 557.251 442.702 558.372 438.512 558.521L445.04 543.97C446.621 540.443 449.181 537.514 452.377 535.575L504.705 503.861C504.705 503.861 504.318 494.533 506.078 490.504C506.078 490.504 506.377 502.219 511.832 508.804C512.553 509.689 513.388 510.462 514.313 511.099Z" fill="#37474F"/>
<path d="M434.342 577.138L396.248 662.225C396.248 662.225 393.257 679.444 403.814 679.444C414.371 679.444 416.131 673.716 416.131 673.716C416.131 673.716 417.133 666.497 426.142 653.196C435.151 639.895 462.987 614.02 468.969 595.551L434.342 577.138Z" fill="#FFA8A7"/>
<path d="M589.445 505.129C589.445 505.129 584.166 529.605 574.26 538.075C564.354 546.544 556.242 552.271 522.97 559.733C501.081 564.621 486.811 568.725 479.615 570.926C477.976 571.431 476.499 572.401 475.345 573.734C474.191 575.066 473.404 576.708 473.069 578.482C472.009 584.152 470.658 589.757 469.022 595.272C469.022 595.272 447.222 596.036 434.43 576.896L447.081 551.227C450.355 544.555 455.252 538.933 461.263 534.941C476.05 524.964 491.372 515.907 507.151 507.816C532.999 495.074 536.518 492.742 536.518 492.742L589.445 505.129Z" fill="#455A64"/>
<path d="M505.18 410.865L480.547 451.682L499.216 470.561L527.034 425.08C527.034 425.08 518.799 409.876 505.18 410.865Z" fill="#FFA8A7"/>
<path d="M505.181 410.865C505.181 410.865 519.961 414.95 523.427 425.08L553.181 386.949L548.395 368.424C544.092 367.684 539.681 368.156 535.605 369.793C531.528 371.43 527.929 374.175 525.169 377.752C518.694 385.867 505.181 410.865 505.181 410.865Z" fill="#FB4A04"/>
<path opacity="0.2" d="M505.181 410.865C505.181 410.865 519.961 414.95 523.427 425.08L553.181 386.949L548.395 368.424C544.092 367.684 539.681 368.156 535.605 369.793C531.528 371.43 527.929 374.175 525.169 377.752C518.694 385.867 505.181 410.865 505.181 410.865Z" fill="black"/>
<path d="M555.362 278.375C555.362 278.375 548.324 272.219 540.142 281.733C531.96 291.247 539.491 319.044 527.544 317.551C527.544 317.551 535.391 326.468 543.221 320.2C543.503 319.974 543.827 319.815 544.172 319.734C547.251 319.1 550.084 324.976 551.315 327.065C554.729 332.811 557.685 338.818 561.098 344.545C564.512 350.272 568.805 358.257 574.4 361.839C581.034 366.111 591.01 365.458 597.802 362.137C608.817 356.764 616.489 344.34 620.324 332.531C622.084 327.308 623.597 321.096 622.946 315.574C621.908 306.843 615.802 303.765 615.767 304.175C615.767 304.175 618.389 282.013 591.134 276.547C565.779 271.435 555.362 278.375 555.362 278.375Z" fill="#263238"/>
<path d="M591.521 349.433L588.653 376.334L596.94 380.065C596.94 380.065 556.471 401.63 547.128 398.347C537.784 395.064 557.069 369.095 557.069 369.095L561.749 369.711L562.365 357.249L591.521 349.433Z" fill="#FFA8A7"/>
<path d="M584.026 354.563L573.046 354.395L562.366 357.268L561.908 366.204C579.31 362.063 584.026 354.563 584.026 354.563Z" fill="#FF9090"/>
<path d="M555.31 289.251C555.31 289.251 543.661 294.848 540.705 321.338C537.749 347.829 541.955 360.085 557.65 360.085C570.266 360.085 585.151 358.22 591.521 349.433C593.069 347.269 596.236 295.184 582.934 287.871C569.632 280.558 555.31 289.251 555.31 289.251Z" fill="#FFA8A7"/>
<path d="M555.31 286.919C555.31 286.919 554.765 315.201 585.082 323.987C585.082 323.987 582.882 338.911 591.416 338.911H599.739V312.794C599.739 304.917 596.787 297.363 591.534 291.794C586.281 286.224 579.156 283.095 571.727 283.095H559.058C558.075 283.1 557.133 283.516 556.438 284.253C555.743 284.99 555.35 285.989 555.345 287.031L555.31 286.919Z" fill="#263238"/>
<path d="M557.298 320.2V336.318L548.395 333.427L557.298 320.2Z" fill="#FF9090"/>
<path d="M566.5 328.147C567.773 328.147 568.805 327.053 568.805 325.704C568.805 324.354 567.773 323.26 566.5 323.26C565.227 323.26 564.195 324.354 564.195 325.704C564.195 327.053 565.227 328.147 566.5 328.147Z" fill="#263238"/>
<path d="M551.369 321.562C551.372 322.051 551.239 322.529 550.985 322.937C550.731 323.345 550.368 323.663 549.943 323.852C549.518 324.041 549.05 324.091 548.597 323.997C548.145 323.902 547.73 323.667 547.404 323.322C547.078 322.976 546.856 322.536 546.767 322.057C546.678 321.577 546.726 321.08 546.904 320.63C547.082 320.179 547.382 319.795 547.767 319.525C548.151 319.256 548.603 319.115 549.064 319.118C549.675 319.118 550.261 319.376 550.694 319.834C551.126 320.292 551.369 320.914 551.369 321.562Z" fill="#263238"/>
<path d="M546.178 312.458L551.932 310.705C551.932 310.705 550.542 308.074 548.325 308.839C546.108 309.604 546.178 312.458 546.178 312.458Z" fill="#263238"/>
<path d="M591.186 336.486C591.086 333.818 591.549 331.161 592.541 328.707C593.027 327.179 593.924 325.834 595.121 324.84C596.319 323.846 597.764 323.244 599.28 323.11C607.04 322.886 608.078 330.815 607.99 333.632C607.708 341.094 602.043 349.06 591.521 349.358L591.186 336.486Z" fill="#FFAAA8"/>
<path d="M557.069 369.114L548.394 368.424C548.394 368.424 515.931 394.038 518.007 411.816C519.239 422.263 522.248 428.121 524.218 430.919C524.78 431.748 525.17 432.693 525.361 433.694C525.552 434.694 525.54 435.726 525.327 436.721C524.148 442.317 521.561 452.764 517.919 457.671C514.026 462.515 509.595 466.843 504.723 470.561C504.723 470.561 514.541 489.608 533.438 499.496C552.336 509.383 582.793 510.278 589.444 505.092L598.242 451.682L602.606 382.826L595.321 379.281C595.321 379.281 560.465 396.649 549.573 395.642C543.978 395.157 557.069 369.114 557.069 369.114Z" fill="#FB4A04"/>
<path opacity="0.2" d="M542.905 434.967C547.786 438.771 553.724 440.741 559.779 440.564C565.979 440.695 572.006 438.397 576.706 434.109C576.706 434.109 572.078 443.269 559.533 443.269C546.987 443.269 542.905 434.967 542.905 434.967Z" fill="black"/>
<path d="M583.216 444.966L578.025 469.106C567.347 466.558 556.545 464.633 545.667 463.342C526.137 460.935 522.23 459.611 522.23 459.611L523.445 482.109C523.445 482.109 547.11 492.183 568.788 495.503C590.465 498.824 596.219 497.966 601.797 479.273C607.374 460.581 609.398 453.156 609.398 453.156L583.216 444.966Z" fill="#FFA8A7"/>
<path d="M602.536 382.863C602.536 382.863 586.401 395.157 588.195 422.487C588.195 422.487 583.744 443.007 583.216 444.873C583.216 444.873 592.682 452.745 609.398 453.007L620.096 412.077C621.269 407.675 621.101 402.993 619.616 398.698C618.131 394.404 615.405 390.716 611.826 388.161C608.874 386.123 605.766 384.351 602.536 382.863Z" fill="#FB4A04"/>
<path opacity="0.2" d="M602.536 382.863C602.536 382.863 586.401 395.157 588.195 422.487C588.195 422.487 583.744 443.007 583.216 444.873C583.216 444.873 592.682 452.745 609.398 453.007L620.096 412.077C621.269 407.675 621.101 402.993 619.616 398.698C618.131 394.404 615.405 390.716 611.826 388.161C608.874 386.123 605.766 384.351 602.536 382.863Z" fill="black"/>
<path d="M518.676 490.28L518.183 487.873L508.436 439.668C508.436 439.668 509.157 438.12 509.667 436.982C509.947 437.169 510.201 437.395 510.424 437.654C510.934 438.253 511.297 438.977 511.48 439.762L521.421 485.411L521.579 486.082C522.195 488.918 518.676 490.28 518.676 490.28Z" fill="#37474F"/>
<path d="M510.424 437.654L508.435 439.668L484.629 431.217L482.658 430.527L483.732 429.427C483.9 429.234 484.096 429.07 484.312 428.942C484.685 428.691 485.101 428.522 485.536 428.445C485.971 428.368 486.417 428.384 486.846 428.494L508.629 436.404C509.315 436.658 509.931 437.087 510.424 437.654Z" fill="#455A64"/>
<path d="M482.324 431.777L493.163 477.706C493.388 478.652 493.826 479.526 494.438 480.254C495.051 480.982 495.821 481.541 496.682 481.885L517.304 490.336C517.606 490.472 517.938 490.516 518.263 490.463C518.588 490.409 518.892 490.261 519.141 490.033C519.39 489.806 519.574 489.51 519.672 489.178C519.77 488.845 519.779 488.49 519.697 488.153L509.58 441.832C509.416 441.058 509.068 440.341 508.569 439.75C508.07 439.159 507.437 438.714 506.729 438.456L483.978 430.21C483.764 430.124 483.532 430.101 483.307 430.146C483.082 430.19 482.873 430.299 482.702 430.46C482.531 430.622 482.406 430.83 482.339 431.063C482.273 431.295 482.267 431.542 482.324 431.777Z" fill="#263238"/>
<path d="M416.095 673.679C414.345 674.808 412.383 675.518 410.347 675.76C408.31 676.002 406.249 675.769 404.306 675.078C404.306 675.078 407.174 667.262 401.755 663.885C396.336 660.509 391.022 660.509 389.632 665.34L388.224 670.172C388.224 670.172 374.605 681.496 369.485 684.966C364.365 688.436 359.473 691.047 355.655 693.659C351.837 696.271 342.019 703.845 350.517 713.378C359.016 722.91 384.283 718.004 390.688 707.128C397.092 696.252 415.567 701.532 415.567 688.361C415.567 675.19 416.095 673.679 416.095 673.679Z" fill="#FB4A04"/>
<path d="M367.127 686.495C362.887 689.219 358.875 691.42 355.655 693.622C351.854 696.215 342.019 703.807 350.517 713.34C357.045 720.69 373.514 719.459 383.684 713.545C384.019 691.626 371.42 687.783 367.127 686.495Z" fill="#EBEBEB"/>
<path d="M391.18 703.752C384.424 715.206 357.749 720.392 348.863 710.337C348.459 709.889 348.107 709.441 347.772 708.994C348.419 710.614 349.35 712.09 350.517 713.34C359.016 722.892 384.283 717.967 390.688 707.091C396.793 696.756 413.773 701.065 415.427 690.133C410.324 696.383 396.635 694.517 391.18 703.752Z" fill="#263238"/>
<path d="M398.606 681.962C398.414 681.962 398.229 681.891 398.081 681.762C397.934 681.632 397.833 681.453 397.796 681.253C396.389 672.933 388.136 670.993 388.049 670.974C387.837 670.925 387.653 670.79 387.534 670.598C387.416 670.407 387.373 670.173 387.415 669.948C387.462 669.725 387.589 669.529 387.77 669.403C387.951 669.278 388.171 669.232 388.383 669.277C388.488 669.277 397.796 671.497 399.415 680.936C399.451 681.164 399.401 681.397 399.276 681.585C399.151 681.774 398.96 681.903 398.746 681.944L398.606 681.962Z" fill="#EBEBEB"/>
<path d="M394.066 685.749C393.874 685.749 393.689 685.678 393.541 685.548C393.394 685.419 393.293 685.239 393.256 685.04C391.849 676.739 383.596 674.799 383.508 674.78C383.297 674.731 383.113 674.596 382.994 674.404C382.876 674.212 382.833 673.979 382.875 673.754C382.896 673.642 382.938 673.535 382.998 673.441C383.058 673.346 383.136 673.265 383.226 673.202C383.316 673.14 383.417 673.097 383.523 673.076C383.629 673.056 383.738 673.058 383.843 673.082C383.948 673.082 393.256 675.284 394.875 684.723C394.895 684.836 394.894 684.952 394.871 685.064C394.848 685.177 394.804 685.283 394.742 685.377C394.679 685.471 394.6 685.55 394.508 685.611C394.416 685.672 394.313 685.713 394.206 685.73L394.066 685.749Z" fill="#EBEBEB"/>
<path d="M388.876 690.021C388.684 690.021 388.499 689.95 388.351 689.821C388.204 689.691 388.103 689.512 388.066 689.313C386.659 681.03 378.67 679.127 378.318 679.052C378.106 678.999 377.921 678.86 377.803 678.665C377.685 678.47 377.643 678.235 377.685 678.008C377.708 677.897 377.751 677.793 377.812 677.7C377.873 677.607 377.951 677.529 378.041 677.468C378.131 677.407 378.231 677.366 378.336 677.347C378.441 677.327 378.549 677.33 378.653 677.355C378.758 677.355 388.066 679.556 389.685 688.995C389.705 689.108 389.704 689.224 389.681 689.337C389.658 689.449 389.614 689.555 389.552 689.649C389.489 689.743 389.41 689.823 389.318 689.884C389.226 689.944 389.123 689.985 389.016 690.003L388.876 690.021Z" fill="#EBEBEB"/>
<path d="M384.441 693.566C384.249 693.564 384.064 693.489 383.919 693.356C383.774 693.223 383.678 693.039 383.649 692.838C382.241 684.574 374.235 682.652 373.901 682.578C373.69 682.528 373.505 682.393 373.387 682.202C373.269 682.01 373.226 681.777 373.268 681.552C373.289 681.44 373.33 681.333 373.391 681.238C373.451 681.144 373.528 681.063 373.618 681C373.708 680.938 373.809 680.895 373.915 680.874C374.021 680.854 374.13 680.856 374.235 680.88C374.235 680.88 383.649 683.1 385.25 692.54C385.27 692.651 385.27 692.766 385.248 692.877C385.226 692.988 385.184 693.094 385.123 693.188C385.063 693.281 384.985 693.361 384.895 693.423C384.805 693.485 384.704 693.527 384.599 693.547L384.441 693.566Z" fill="#EBEBEB"/>
<path d="M555.31 340.217C558.424 340.435 561.519 339.549 564.107 337.699C564.107 337.699 564.706 342.642 560.817 343.575C556.928 344.508 555.31 340.217 555.31 340.217Z" fill="#FF9090"/>
<path d="M485.492 453.697C485.069 453.025 485.263 452.111 485.069 451.029C484.662 449.109 483.967 447.269 483.011 445.582C482.64 444.636 482.031 443.817 481.251 443.213C480.845 442.924 480.354 442.8 479.869 442.865C479.384 442.931 478.937 443.18 478.612 443.567C478.348 444.061 478.22 444.623 478.242 445.19C478.048 447.771 478.256 450.367 478.858 452.876C479.421 454.742 478.313 457.185 478.067 459.014C477.662 461.868 478.717 463.062 479.351 465.897C480.811 472.315 485.72 475.225 491.668 474.05C503.984 471.662 503.527 454.163 501.873 451.757C500.219 449.35 497.404 447.914 492.635 452.111C491.087 453.473 488.518 455.227 486.354 454.369C486.004 454.252 485.701 454.016 485.492 453.697Z" fill="#FFA8A7"/>
<path d="M526.963 461.364C524.043 455.784 519.28 451.545 513.591 449.462L515.35 457.223C515.35 457.223 506.781 458.976 501.362 457.95C495.943 456.924 486.001 450.264 487.585 457.838C489.168 465.412 490.77 470.412 494.852 473.845C499.163 477.72 504.458 480.16 510.072 480.859C515.931 481.344 523.515 482.127 523.515 482.127L526.963 461.364Z" fill="#FFA8A7"/>
<path d="M494.781 474.273C494.692 474.271 494.606 474.238 494.535 474.18C490.418 470.71 488.746 465.804 487.11 457.931C486.758 456.234 486.934 455.077 487.655 454.424C489.133 453.044 492.476 454.424 496.031 455.749C497.741 456.517 499.506 457.141 501.309 457.614C502.096 457.748 502.889 457.835 503.685 457.876C503.792 457.876 503.895 457.921 503.971 458.001C504.047 458.082 504.089 458.191 504.089 458.305C504.089 458.418 504.047 458.528 503.971 458.608C503.895 458.688 503.792 458.734 503.685 458.734C502.852 458.706 502.023 458.612 501.204 458.454C499.334 457.993 497.504 457.369 495.732 456.588C492.705 455.394 489.292 454.051 488.166 455.096C487.708 455.525 487.62 456.42 487.884 457.764C489.485 465.431 491.086 470.225 495.01 473.509C495.084 473.592 495.126 473.702 495.126 473.816C495.126 473.931 495.084 474.041 495.01 474.124C494.954 474.203 494.873 474.256 494.781 474.273Z" fill="#FF9090"/>
<path d="M614.905 304.772C618.498 302.604 622.591 301.543 626.722 301.708C630.854 301.873 634.86 303.257 638.289 305.705C641.665 308.239 644.465 311.54 646.483 315.368C648.501 319.196 649.687 323.454 649.955 327.83C651.239 345.907 644.799 351.168 638.307 372.827C636.178 379.916 638.307 388.292 655.321 396.631C655.321 396.631 611.157 405.697 618.723 358.649C624.213 324.51 612.459 325.778 612.459 325.778L614.905 304.772Z" fill="#263238"/>
<path d="M698.536 586.615C698.536 586.615 676.419 563.707 689.017 525.333C696.055 503.824 719.457 488.023 732.777 486.549C728.359 492.116 724.839 498.419 722.36 505.204L705.592 517.031L721.006 511.92L717.733 525.911C717.733 525.911 703.393 535.09 701.264 537.104L716.712 532.814C716.712 532.814 715.533 572.381 698.536 586.615Z" fill="#FB4A04"/>
<path opacity="0.4" d="M698.536 586.615C698.536 586.615 676.419 563.707 689.017 525.333C696.055 503.824 719.457 488.023 732.777 486.549C728.359 492.116 724.839 498.419 722.36 505.204L705.592 517.031L721.006 511.92L717.733 525.911C717.733 525.911 703.393 535.09 701.264 537.104L716.712 532.814C716.712 532.814 715.533 572.381 698.536 586.615Z" fill="black"/>
<path d="M698.537 586.616C698.537 586.616 687.082 538.672 704.044 510.726C704.044 510.726 684.196 535.388 698.537 586.616Z" fill="white"/>
<path d="M723.874 593.107L696.794 592.753H696.513L669.451 593.107C669.451 593.107 669.152 628.459 679.41 642.861C682.261 646.592 688.912 649.372 696.654 649.372C704.395 649.372 711.082 646.667 713.915 642.842C724.173 628.44 723.874 593.107 723.874 593.107Z" fill="#37474F"/>
<path d="M696.654 608.591C711.677 608.591 723.856 601.659 723.856 593.107C723.856 584.556 711.677 577.624 696.654 577.624C681.63 577.624 669.451 584.556 669.451 593.107C669.451 601.659 681.63 608.591 696.654 608.591Z" fill="#455A64"/>
<path d="M696.653 589.003C706.014 589.003 713.95 592.175 716.73 596.596C717.418 595.577 717.798 594.36 717.821 593.107C717.821 586.988 708.354 582.026 696.706 582.026C685.058 582.026 675.592 586.988 675.592 593.107C675.614 594.36 675.995 595.577 676.683 596.596C679.357 592.175 687.293 589.003 696.653 589.003Z" fill="#263238"/>
<path d="M696.653 589.003C687.293 589.003 679.357 592.175 676.577 596.596C679.357 600.999 687.293 604.189 696.653 604.189C706.014 604.189 713.95 600.999 716.73 596.596C713.95 592.175 706.014 589.003 696.653 589.003Z" fill="#E0E0E0"/>
<path d="M696.988 598.499C696.988 598.499 686.431 598.07 677.51 583.313C673.797 577.213 672.003 573.986 672.003 573.986L686.624 572.829L670.243 568.482L662.519 555.946L676.102 554.864C676.102 554.864 665.985 551.133 658.753 551.133C658.753 551.133 646.225 527.665 642.548 524.307C652.031 524.932 661.299 527.565 669.806 532.051C678.314 536.536 685.887 542.784 692.079 550.424C712.683 576.187 700.032 599.17 696.988 598.499Z" fill="#FB4A04"/>
<path d="M696.988 598.499C696.988 598.499 703.551 556.618 661.691 531.433C661.691 531.433 705.134 553.558 696.988 598.499Z" fill="white"/>
<path d="M696.988 598.499C696.988 598.499 706.489 599.152 715.92 586.727C719.809 581.616 721.692 578.911 721.692 578.911L708.618 576.411L723.768 574.116L731.862 563.576L719.703 561.263C719.703 561.263 729.17 558.875 735.698 559.547C735.698 559.547 749.088 539.623 752.695 536.974C744.082 536.592 735.485 538.047 727.413 541.251C719.34 544.456 711.956 549.345 705.698 555.629C684.812 576.803 694.173 598.797 696.988 598.499Z" fill="#FB4A04"/>
<path opacity="0.2" d="M696.988 598.499C696.988 598.499 706.489 599.152 715.92 586.727C719.809 581.616 721.692 578.911 721.692 578.911L708.618 576.411L723.768 574.116L731.862 563.576L719.703 561.263C719.703 561.263 729.17 558.875 735.698 559.547C735.698 559.547 749.088 539.623 752.695 536.974C744.082 536.592 735.485 538.047 727.413 541.251C719.34 544.456 711.956 549.345 705.698 555.629C684.812 576.803 694.173 598.797 696.988 598.499Z" fill="black"/>
<path d="M696.988 598.499C696.988 598.499 694.754 560.05 734.783 541.507C734.783 541.507 693.627 557.14 696.988 598.499Z" fill="white"/>
<path d="M148.224 597.305L327.292 487.705C339.925 479.963 350.166 459.219 350.166 441.366V34.8126C350.166 16.9595 339.925 8.69526 327.292 16.4931L148.224 126.093C135.59 133.834 125.35 154.579 125.35 172.432V579.004C125.35 596.838 135.59 605.121 148.224 597.305Z" fill="#455A64"/>
<path d="M127.602 113.351L306.67 3.73297C312.071 0.430992 317.033 0.00192279 320.939 2.07265C321.423 2.31934 321.888 2.60629 322.329 2.93079L342.388 15.2805C338.359 12.7434 333.063 12.9113 327.274 16.4745L148.223 126.093C135.59 133.834 125.349 154.579 125.349 172.432V579.004C125.349 588.443 128.217 595.178 132.775 598.293L112.98 586.074C107.93 583.22 104.728 576.243 104.728 566.244V159.691C104.728 141.838 114.968 121.093 127.602 113.351Z" fill="#37474F"/>
<path d="M125.349 172.432V579.004C125.349 588.443 128.217 595.178 132.775 598.293L112.98 586.074C107.93 583.22 104.728 576.243 104.728 566.244V159.69L125.349 172.32V172.432Z" fill="#263238"/>
<path d="M104.728 191.255L125.349 203.885V213.735L104.728 201.105V191.255Z" fill="#37474F"/>
<path d="M113.754 256.847C115.514 257.966 117.097 256.847 117.097 254.161V232.968C117.078 231.641 116.766 230.337 116.185 229.161C115.605 227.985 114.772 226.969 113.754 226.196C111.995 225.077 110.429 226.197 110.429 228.883V250.075C110.448 251.4 110.759 252.702 111.337 253.878C111.914 255.053 112.742 256.07 113.754 256.847Z" fill="#37474F"/>
<path d="M117.097 254.161V232.968C117.078 231.641 116.766 230.337 116.185 229.161C115.605 227.985 114.772 226.969 113.754 226.196C113.452 225.973 113.1 225.837 112.733 225.801C112.366 225.765 111.996 225.83 111.66 225.991L114.106 224.555C114.447 224.372 114.829 224.292 115.21 224.321C115.591 224.351 115.958 224.49 116.27 224.723C117.289 225.495 118.122 226.51 118.703 227.686C119.284 228.862 119.596 230.167 119.613 231.495V252.687C119.668 253.222 119.593 253.763 119.396 254.259C119.199 254.755 118.886 255.19 118.487 255.522L115.865 256.959C116.285 256.649 116.62 256.227 116.836 255.735C117.052 255.244 117.142 254.701 117.097 254.161Z" fill="#455A64"/>
<path d="M113.754 308.167C115.514 309.305 117.097 308.167 117.097 305.5V284.251C117.08 282.926 116.768 281.625 116.187 280.451C115.606 279.278 114.773 278.266 113.754 277.498C111.995 276.36 110.429 277.498 110.429 280.166V301.414C110.448 302.737 110.759 304.036 111.337 305.209C111.914 306.381 112.742 307.394 113.754 308.167Z" fill="#37474F"/>
<path d="M117.097 305.5V284.251C117.08 282.926 116.768 281.625 116.187 280.451C115.606 279.278 114.773 278.266 113.754 277.498C113.453 277.271 113.101 277.133 112.733 277.097C112.365 277.061 111.995 277.128 111.66 277.293L114.159 275.931C114.5 275.749 114.882 275.668 115.263 275.698C115.644 275.727 116.01 275.866 116.323 276.099C117.341 276.872 118.173 277.887 118.754 279.064C119.335 280.24 119.647 281.544 119.666 282.871V304.063C119.722 304.599 119.649 305.14 119.451 305.637C119.254 306.133 118.94 306.568 118.54 306.899L115.918 308.354C116.339 308.035 116.671 307.602 116.879 307.099C117.086 306.597 117.162 306.044 117.097 305.5Z" fill="#455A64"/>
<path d="M154.452 137.528L330.529 29.7755C331.267 29.3495 332.096 29.1337 332.936 29.1492C333.776 29.1647 334.598 29.4111 335.322 29.8641C336.045 30.3171 336.645 30.9613 337.063 31.7338C337.482 32.5063 337.704 33.3807 337.708 34.2714V441.366C337.708 454.947 328.629 471.643 317.526 478.434L145.778 583.537C144.969 584.06 144.042 584.342 143.095 584.354C142.148 584.366 141.215 584.107 140.394 583.605C139.574 583.104 138.896 582.377 138.431 581.502C137.967 580.626 137.733 579.635 137.754 578.631V168.104C137.789 156.892 145.285 143.143 154.452 137.528Z" fill="#FB4A04"/>
<path opacity="0.5" d="M154.452 137.528L330.529 29.7755C331.267 29.3495 332.096 29.1337 332.936 29.1492C333.776 29.1647 334.598 29.4111 335.322 29.8641C336.045 30.3171 336.645 30.9613 337.063 31.7338C337.482 32.5063 337.704 33.3807 337.708 34.2714V441.366C337.708 454.947 328.629 471.643 317.526 478.434L145.778 583.537C144.969 584.06 144.042 584.342 143.095 584.354C142.148 584.366 141.215 584.107 140.394 583.605C139.574 583.104 138.896 582.377 138.431 581.502C137.967 580.626 137.733 579.635 137.754 578.631V168.104C137.789 156.892 145.285 143.143 154.452 137.528Z" fill="white"/>
<path d="M277.813 57.9077L275.086 70.0896L216.757 105.74L206.692 100.05L277.813 57.9077Z" fill="#455A64"/>
<path d="M260.675 69.7167C260.675 71.7314 262.012 72.5523 263.648 71.5822C264.519 70.982 265.243 70.1725 265.763 69.2195C266.283 68.2664 266.583 67.1968 266.64 66.0976C266.64 64.0828 265.302 63.262 263.648 64.232C262.783 64.8365 262.064 65.6474 261.547 66.5998C261.031 67.5523 260.732 68.6198 260.675 69.7167Z" fill="#263238"/>
<path d="M221.438 95.4232C221.757 95.4252 222.072 95.3418 222.353 95.1807L252.142 77.5142C252.357 77.3897 252.547 77.2209 252.7 77.0178C252.853 76.8147 252.967 76.5814 253.034 76.3313C253.101 76.0813 253.12 75.8196 253.091 75.5615C253.062 75.3033 252.984 75.054 252.863 74.8279C252.623 74.3707 252.221 74.0334 251.746 73.89C251.271 73.7467 250.761 73.8089 250.33 74.063L220.523 91.7109C220.094 91.9732 219.779 92.4027 219.644 92.9079C219.509 93.4132 219.566 93.9542 219.802 94.4159C219.966 94.722 220.204 94.9764 220.492 95.1533C220.779 95.3303 221.106 95.4234 221.438 95.4232Z" fill="#263238"/>
<path d="M373.057 507.349C334.594 531.601 234.511 595.029 184.98 626.631C183.504 627.572 181.818 628.081 180.095 628.105C178.373 628.13 176.675 627.669 175.175 626.769C173.675 625.87 172.428 624.565 171.56 622.987C170.692 621.409 170.235 619.615 170.235 617.788V178.98C170.235 173.985 171.467 169.078 173.81 164.745C176.153 160.411 179.525 156.804 183.59 154.281L373.954 35.9878C375.432 35.0723 377.112 34.5862 378.823 34.5787C380.535 34.5712 382.218 35.0425 383.703 35.9452C385.188 36.8478 386.422 38.1497 387.281 39.7195C388.14 41.2894 388.592 43.0716 388.594 44.8864V478.266C388.602 484.125 387.174 489.886 384.451 494.985C381.727 500.083 377.801 504.344 373.057 507.349Z" fill="#F5F5F5"/>
<path d="M372.282 505.95C342.101 525.053 311.913 544.168 281.719 563.296L228.124 597.286L203.649 612.845L192.951 619.672C189.695 621.743 186.229 624.672 182.657 626.034C176.992 628.16 171.924 623.31 171.766 617.415C171.766 616.389 171.766 615.382 171.766 614.356V212.018C171.766 201.31 171.766 190.602 171.766 179.876C171.696 174.918 172.876 170.03 175.184 165.718C177.491 161.405 180.843 157.824 184.892 155.344C189.256 152.602 193.69 149.897 198.018 147.192L259.514 108.892L332.394 63.6162C346.206 55.0348 360.001 46.3787 373.866 37.8533C377.878 35.3722 382.91 35.5401 385.743 40.0173C386.758 41.8137 387.225 43.8986 387.08 45.987C387.08 49.718 387.08 53.6356 387.08 57.4599V476.643C387.08 488.675 382.153 499.533 372.282 505.95C370.611 507.051 372.142 509.849 373.831 508.748C378.932 505.409 383.122 500.713 385.983 495.127C388.844 489.541 390.278 483.259 390.142 476.904V76.6748C390.142 66.2466 390.247 55.8183 390.142 45.4087C390.172 43.2184 389.643 41.0604 388.61 39.163C387.578 37.2656 386.081 35.6996 384.278 34.6308C382.474 33.5619 380.432 33.0302 378.367 33.0917C376.301 33.1533 374.29 33.8059 372.546 34.9804C367.972 37.7787 363.432 40.577 358.857 43.4872L295.672 82.7751L222.141 128.443C209.138 136.521 196.083 144.543 183.132 152.695C178.676 155.451 174.989 159.409 172.445 164.167C169.901 168.925 168.592 174.313 168.651 179.782C168.651 183.364 168.651 186.964 168.651 190.546V615.699C168.651 616.389 168.651 617.079 168.651 617.769C168.67 619.648 169.103 621.496 169.915 623.165C170.726 624.835 171.895 626.28 173.328 627.386C174.76 628.492 176.417 629.227 178.165 629.533C179.913 629.839 181.705 629.708 183.396 629.149C186.915 627.881 190.434 625.026 193.637 622.956L204.546 616.016L228.951 600.495C264.517 577.909 300.1 555.355 335.702 532.832L373.761 508.748C374.048 508.509 374.245 508.17 374.317 507.79C374.388 507.41 374.33 507.016 374.151 506.679C373.973 506.341 373.686 506.082 373.344 505.948C373.001 505.815 372.625 505.815 372.282 505.95Z" fill="#E0E0E0"/>
<path d="M273.978 556.972L286.294 549.51C287.532 548.572 288.545 547.339 289.251 545.91C289.957 544.481 290.337 542.896 290.359 541.283V527.814C290.359 524.642 288.599 523.187 286.294 524.568L273.978 532.03C272.741 532.969 271.729 534.202 271.023 535.631C270.317 537.06 269.937 538.644 269.913 540.257V553.707C269.913 556.897 271.743 558.352 273.978 556.972Z" fill="#E0E0E0"/>
<path d="M280.101 547.122C280.47 546.867 280.778 546.522 280.998 546.117C281.218 545.712 281.345 545.257 281.368 544.79V535.164C281.368 534.306 280.805 533.97 280.101 534.399C279.731 534.654 279.424 534.999 279.204 535.404C278.983 535.809 278.857 536.264 278.834 536.731V546.357C278.834 547.29 279.397 547.551 280.101 547.122Z" fill="white"/>
<path d="M276.177 544.716L284.025 539.903C284.396 539.648 284.707 539.305 284.93 538.9C285.153 538.494 285.283 538.039 285.309 537.571C285.309 536.713 284.728 536.377 284.025 536.806L276.177 541.694C275.805 541.948 275.495 542.292 275.272 542.697C275.049 543.102 274.919 543.557 274.893 544.025C274.893 544.809 275.473 545.145 276.177 544.716Z" fill="white"/>
<path d="M241.865 555.442C242.328 555 242.911 554.723 243.531 554.653C244.151 554.583 244.776 554.722 245.317 555.051C245.858 555.38 246.286 555.882 246.542 556.485C246.797 557.088 246.866 557.761 246.739 558.408C246.681 560.207 246.191 561.96 245.314 563.501C244.477 565.086 243.264 566.411 241.795 567.344C241.297 567.743 240.706 567.989 240.085 568.055C239.464 568.121 238.838 568.004 238.276 567.717C236.376 566.561 236.376 562.774 238.276 559.285C239.111 557.699 240.324 556.374 241.795 555.442M241.795 552.327C239.592 553.769 237.775 555.786 236.516 558.185C233.613 563.501 233.613 569.247 236.516 571.001C237.363 571.412 238.297 571.579 239.224 571.484C240.151 571.389 241.038 571.036 241.795 570.46C244.001 569.021 245.819 567.004 247.074 564.602C249.959 559.285 249.959 553.539 247.074 551.767C246.225 551.358 245.29 551.195 244.363 551.293C243.436 551.391 242.55 551.748 241.795 552.327Z" fill="#E0E0E0"/>
<path d="M231.097 582.735C231.472 582.486 231.781 582.139 231.994 581.728L237.537 571.561C238.029 570.646 238.029 569.695 237.537 569.359C237.044 569.023 236.235 569.546 235.777 570.46L230.235 580.627C229.742 581.541 229.742 582.492 230.235 582.828C230.375 582.888 230.526 582.911 230.677 582.894C230.827 582.878 230.971 582.823 231.097 582.735Z" fill="#E0E0E0"/>
<path d="M310.875 509.438C313.936 507.573 316.417 509.625 316.417 514.046C316.437 511.822 316.948 509.634 317.911 507.657C318.874 505.681 320.26 503.971 321.96 502.667C325.021 500.801 327.502 502.853 327.502 507.256C327.502 518.449 316.417 530.09 316.417 530.09C316.417 530.09 305.35 532.067 305.35 520.762C305.378 518.55 305.892 516.374 306.851 514.409C307.81 512.443 309.188 510.742 310.875 509.438Z" fill="#E0E0E0"/>
<path d="M349.303 489.552C349.303 492.873 351.502 494.216 354.212 492.556C355.641 491.569 356.83 490.239 357.683 488.673C358.536 487.108 359.029 485.351 359.121 483.545C359.121 480.225 356.922 478.881 354.212 480.542C352.783 481.528 351.593 482.859 350.74 484.424C349.887 485.99 349.395 487.747 349.303 489.552Z" fill="#E0E0E0"/>
<path d="M354.212 492.555C358.224 490.112 361.479 492.705 361.479 498.376V500.129L346.945 509.028V507.256C346.945 501.603 350.2 495.055 354.212 492.555Z" fill="#E0E0E0"/>
<path d="M203.402 575.851L213.203 579.284V593.928L205.602 598.48V590.551C205.602 589.059 204.616 588.462 203.402 589.208C202.761 589.652 202.228 590.25 201.846 590.954C201.464 591.657 201.244 592.446 201.203 593.256V601.166L193.619 605.811V591.26L203.402 575.851Z" fill="#E0E0E0"/>
<path d="M170.235 584.003C170.056 584.007 169.88 583.958 169.725 583.862C169.57 583.767 169.442 583.629 169.356 583.462C169.286 583.339 169.241 583.202 169.222 583.06C169.203 582.918 169.211 582.773 169.245 582.634C169.28 582.495 169.34 582.365 169.422 582.251C169.505 582.137 169.608 582.041 169.725 581.97L388.031 448.417C388.269 448.275 388.551 448.239 388.814 448.316C389.078 448.393 389.302 448.577 389.438 448.828C389.508 448.951 389.553 449.088 389.572 449.23C389.591 449.372 389.583 449.517 389.549 449.656C389.514 449.795 389.454 449.925 389.372 450.039C389.289 450.153 389.186 450.249 389.069 450.32L170.763 583.854C170.604 583.956 170.421 584.007 170.235 584.003Z" fill="#E0E0E0"/>
<path d="M183.59 154.281L373.954 35.9878C375.432 35.0723 377.112 34.5862 378.823 34.5787C380.535 34.5712 382.218 35.0425 383.703 35.9452C385.188 36.8478 386.422 38.1497 387.281 39.7195C388.14 41.2894 388.592 43.0716 388.594 44.8864V63.9334L170.235 197.561V178.905C170.247 173.924 171.485 169.031 173.828 164.712C176.17 160.393 179.535 156.798 183.59 154.281Z" fill="#E0E0E0"/>
<path d="M222.802 220.586C228.983 209.237 228.985 196.971 222.808 193.189C216.631 189.408 206.613 195.544 200.433 206.893C194.252 218.243 194.25 230.509 200.427 234.29C206.604 238.071 216.622 231.936 222.802 220.586Z" fill="#FB4A04"/>
<path d="M236.217 210.358C235.828 210.361 235.448 210.227 235.138 209.976C234.828 209.726 234.606 209.373 234.505 208.974C234.404 208.575 234.432 208.152 234.582 207.771C234.733 207.39 234.998 207.073 235.337 206.869L261.484 190.863C261.89 190.616 262.372 190.55 262.824 190.679C263.276 190.808 263.661 191.123 263.895 191.553C264.128 191.984 264.19 192.495 264.068 192.974C263.946 193.454 263.65 193.862 263.244 194.109L237.097 210.097C236.833 210.271 236.528 210.361 236.217 210.358Z" fill="#455A64"/>
<path d="M236.305 194.352C235.915 194.355 235.536 194.22 235.226 193.97C234.916 193.719 234.694 193.367 234.593 192.968C234.492 192.569 234.519 192.146 234.67 191.765C234.821 191.384 235.086 191.067 235.425 190.863L307.302 146.874C307.704 146.651 308.172 146.601 308.608 146.735C309.044 146.87 309.414 147.177 309.641 147.594C309.868 148.01 309.935 148.504 309.827 148.971C309.719 149.438 309.445 149.843 309.062 150.101L237.273 194.109C236.979 194.287 236.643 194.371 236.305 194.352Z" fill="#455A64"/>
<path d="M227.437 514.382C227.437 525.09 220.399 538.093 211.601 543.447C202.804 548.801 195.766 544.454 195.766 533.765C195.766 523.076 202.804 510.054 211.601 504.7C220.399 499.346 227.437 503.693 227.437 514.382Z" fill="#FB4A04"/>
<path d="M236.217 520.706C235.828 520.709 235.448 520.575 235.138 520.325C234.828 520.074 234.606 519.722 234.505 519.323C234.404 518.924 234.432 518.5 234.582 518.12C234.733 517.739 234.998 517.421 235.337 517.218L261.484 501.212C261.684 501.077 261.908 500.986 262.142 500.945C262.377 500.904 262.616 500.914 262.847 500.974C263.077 501.034 263.294 501.142 263.484 501.293C263.674 501.444 263.833 501.635 263.951 501.852C264.07 502.07 264.146 502.311 264.175 502.561C264.203 502.811 264.184 503.064 264.118 503.306C264.052 503.547 263.94 503.772 263.79 503.967C263.64 504.162 263.454 504.322 263.244 504.439L237.097 520.445C236.83 520.613 236.527 520.703 236.217 520.706Z" fill="#455A64"/>
<path d="M236.305 504.7C235.915 504.703 235.536 504.569 235.226 504.318C234.916 504.068 234.694 503.716 234.593 503.317C234.492 502.918 234.519 502.494 234.67 502.114C234.821 501.733 235.086 501.415 235.425 501.212L307.302 457.223C307.704 457 308.172 456.95 308.608 457.084C309.044 457.218 309.414 457.526 309.641 457.942C309.868 458.359 309.935 458.852 309.827 459.32C309.719 459.787 309.445 460.192 309.062 460.45L237.273 504.383C236.986 504.587 236.65 504.697 236.305 504.7Z" fill="#455A64"/>
<path d="M227.437 417.618C227.437 428.326 220.399 441.328 211.601 446.682C202.804 452.036 195.766 447.69 195.766 437C195.766 426.311 202.804 413.29 211.601 407.936C220.399 402.581 227.437 406.928 227.437 417.618Z" fill="#FB4A04"/>
<path d="M236.217 423.923C235.833 423.919 235.461 423.782 235.157 423.532C234.854 423.283 234.636 422.935 234.536 422.542C234.436 422.149 234.461 421.732 234.605 421.355C234.75 420.977 235.007 420.661 235.337 420.453L261.484 404.447C261.684 404.312 261.908 404.221 262.142 404.18C262.377 404.14 262.616 404.149 262.847 404.209C263.077 404.269 263.294 404.378 263.484 404.529C263.674 404.68 263.833 404.87 263.951 405.088C264.07 405.306 264.146 405.547 264.175 405.796C264.203 406.046 264.184 406.299 264.118 406.541C264.052 406.783 263.94 407.008 263.79 407.202C263.64 407.397 263.454 407.558 263.244 407.674L237.097 423.68C236.829 423.842 236.525 423.925 236.217 423.923Z" fill="#455A64"/>
<path d="M236.306 407.917C235.999 407.915 235.697 407.828 235.432 407.664C235.166 407.5 234.946 407.266 234.792 406.984C234.562 406.558 234.499 406.052 234.617 405.577C234.736 405.102 235.026 404.696 235.426 404.447L307.303 360.458C307.705 360.213 308.182 360.146 308.63 360.272C309.078 360.398 309.461 360.706 309.696 361.129C309.813 361.341 309.889 361.576 309.921 361.819C309.952 362.062 309.938 362.309 309.88 362.547C309.821 362.784 309.718 363.007 309.578 363.202C309.438 363.398 309.263 363.562 309.062 363.685L237.273 407.674C236.979 407.852 236.643 407.936 236.306 407.917Z" fill="#455A64"/>
<path d="M263.858 428.743V429.529L261.917 430.712V429.926L263.858 428.743ZM262.358 428.753L263.252 428.208V431.727C263.252 431.824 263.265 431.892 263.29 431.93C263.315 431.967 263.35 431.983 263.395 431.977C263.441 431.97 263.494 431.948 263.554 431.912C263.596 431.886 263.638 431.856 263.68 431.823C263.722 431.787 263.754 431.76 263.777 431.742L263.917 432.435C263.872 432.479 263.81 432.536 263.728 432.607C263.647 432.679 263.549 432.753 263.432 432.829C263.217 432.97 263.028 433.051 262.866 433.073C262.705 433.094 262.58 433.051 262.49 432.943C262.401 432.836 262.357 432.658 262.358 432.41V428.753ZM265.875 431.362C265.544 431.565 265.258 431.66 265.019 431.648C264.781 431.634 264.598 431.522 264.469 431.31C264.34 431.097 264.276 430.791 264.276 430.393C264.276 430.005 264.34 429.625 264.469 429.253C264.598 428.881 264.779 428.542 265.013 428.236C265.248 427.929 265.523 427.679 265.84 427.487C266.052 427.357 266.25 427.276 266.434 427.245C266.618 427.211 266.779 427.232 266.916 427.307C267.055 427.382 267.162 427.516 267.239 427.71C267.316 427.902 267.355 428.159 267.355 428.48V428.768L264.633 430.426V429.777L266.513 428.632C266.513 428.481 266.485 428.364 266.429 428.282C266.373 428.2 266.296 428.156 266.196 428.151C266.098 428.144 265.984 428.18 265.854 428.259C265.719 428.342 265.598 428.452 265.493 428.59C265.39 428.725 265.309 428.872 265.25 429.03C265.191 429.187 265.161 429.341 265.16 429.491V430.108C265.16 430.295 265.189 430.438 265.248 430.538C265.308 430.637 265.393 430.691 265.502 430.698C265.611 430.705 265.74 430.663 265.89 430.572C265.989 430.511 266.08 430.44 266.163 430.357C266.245 430.274 266.316 430.181 266.375 430.08C266.434 429.979 266.478 429.871 266.509 429.757L267.336 429.317C267.294 429.576 267.208 429.831 267.078 430.084C266.949 430.335 266.783 430.57 266.578 430.792C266.375 431.01 266.141 431.2 265.875 431.362ZM269.126 429.369C268.881 429.519 268.659 429.58 268.461 429.554C268.264 429.525 268.107 429.401 267.991 429.184C267.876 428.964 267.819 428.643 267.819 428.222C267.819 427.79 267.878 427.394 267.997 427.035C268.116 426.674 268.274 426.362 268.471 426.099C268.67 425.834 268.888 425.629 269.124 425.485C269.304 425.375 269.455 425.32 269.575 425.318C269.697 425.315 269.795 425.344 269.869 425.405C269.945 425.464 270.002 425.532 270.041 425.61L270.068 425.593V423.701L270.96 423.157V428.19L270.079 428.727V428.123L270.041 428.146C269.999 428.276 269.94 428.417 269.863 428.567C269.787 428.714 269.689 428.859 269.567 429C269.446 429.141 269.3 429.264 269.126 429.369ZM269.409 428.364C269.554 428.276 269.675 428.156 269.775 428.003C269.875 427.849 269.952 427.672 270.005 427.472C270.06 427.272 270.087 427.059 270.087 426.835C270.087 426.61 270.061 426.432 270.008 426.299C269.954 426.165 269.877 426.085 269.777 426.056C269.676 426.027 269.554 426.057 269.409 426.144C269.262 426.234 269.139 426.356 269.038 426.511C268.937 426.666 268.861 426.842 268.809 427.039C268.757 427.236 268.732 427.443 268.732 427.661C268.732 427.88 268.757 428.059 268.809 428.196C268.862 428.331 268.939 428.415 269.038 428.45C269.139 428.482 269.262 428.453 269.409 428.364Z" fill="#455A64"/>
<path d="M357.449 278.655L202.751 373.349C202.047 373.782 201.248 374.011 200.434 374.012C199.62 374.013 198.82 373.786 198.115 373.355C197.41 372.923 196.825 372.302 196.419 371.554C196.012 370.807 195.799 369.958 195.801 369.095V265.317C195.799 263.23 196.315 261.18 197.297 259.373C198.279 257.565 199.693 256.064 201.396 255.019L356.095 160.325C356.799 159.898 357.598 159.674 358.41 159.676C359.221 159.678 360.019 159.905 360.722 160.335C361.425 160.766 362.009 161.384 362.417 162.128C362.825 162.873 363.041 163.718 363.045 164.578V268.413C363.041 270.491 362.522 272.531 361.54 274.328C360.558 276.126 359.147 277.618 357.449 278.655Z" fill="#FB4A04"/>
<path opacity="0.5" d="M357.449 278.655L202.751 373.349C202.047 373.782 201.248 374.011 200.434 374.012C199.62 374.013 198.82 373.786 198.115 373.355C197.41 372.923 196.825 372.302 196.419 371.554C196.012 370.807 195.799 369.958 195.801 369.095V265.317C195.799 263.23 196.315 261.18 197.297 259.373C198.279 257.565 199.693 256.064 201.396 255.019L356.095 160.325C356.799 159.898 357.598 159.674 358.41 159.676C359.221 159.678 360.019 159.905 360.722 160.335C361.425 160.766 362.009 161.384 362.417 162.128C362.825 162.873 363.041 163.718 363.045 164.578V268.413C363.041 270.491 362.522 272.531 361.54 274.328C360.558 276.126 359.147 277.618 357.449 278.655Z" fill="white"/>
<path d="M302.976 295.565C315.045 273.401 315.046 249.445 302.978 242.058C290.91 234.671 271.343 246.65 259.273 268.814C247.204 290.977 247.203 314.933 259.271 322.321C271.339 329.708 290.907 317.729 302.976 295.565Z" fill="white"/>
<path d="M363.062 229.442V268.413C363.055 270.492 362.533 272.532 361.548 274.33C360.563 276.127 359.149 277.619 357.45 278.655L202.733 373.349C202.031 373.783 201.232 374.013 200.419 374.014C199.605 374.016 198.806 373.789 198.102 373.357C197.398 372.925 196.814 372.303 196.41 371.555C196.006 370.806 195.796 369.958 195.801 369.095V331.785L363.062 229.442Z" fill="#FB4A04"/>
<path d="M241.989 333.538C241.119 333.49 240.296 333.112 239.666 332.475C238.945 331.878 238.681 331.673 237.731 332.233C237.617 332.352 237.479 332.442 237.328 332.496C237.176 332.55 237.015 332.567 236.857 332.546C236.698 332.525 236.546 332.465 236.412 332.373C236.278 332.28 236.166 332.157 236.084 332.011C236.002 331.866 235.952 331.703 235.938 331.534C235.924 331.365 235.946 331.195 236.003 331.037C236.06 330.879 236.15 330.736 236.266 330.62C236.383 330.504 236.522 330.417 236.675 330.367C237.321 329.887 238.107 329.666 238.892 329.741C239.678 329.816 240.413 330.183 240.968 330.777C241.69 331.374 241.953 331.598 242.904 331.02C244.126 330.078 245.067 328.783 245.613 327.289C246.331 325.423 247.556 323.825 249.132 322.7C249.776 322.221 250.558 322 251.341 322.075C252.124 322.151 252.856 322.517 253.408 323.11C254.147 323.726 254.411 323.931 255.361 323.353C256.585 322.417 257.521 321.119 258.053 319.622C258.774 317.753 259.998 316.15 261.572 315.014C262.22 314.538 263.004 314.318 263.789 314.393C264.574 314.468 265.309 314.833 265.866 315.424C266.587 316.021 266.868 316.245 267.801 315.667C268.045 315.523 268.332 315.486 268.601 315.562C268.87 315.639 269.101 315.823 269.244 316.077C269.313 316.204 269.358 316.345 269.376 316.491C269.394 316.637 269.385 316.785 269.349 316.927C269.313 317.069 269.251 317.202 269.167 317.319C269.082 317.436 268.977 317.533 268.857 317.607C268.21 318.086 267.425 318.308 266.639 318.233C265.854 318.158 265.118 317.791 264.563 317.196C263.842 316.599 263.561 316.376 262.628 316.954C261.396 317.885 260.453 319.184 259.918 320.685C259.195 322.547 257.971 324.143 256.399 325.274C255.753 325.754 254.968 325.976 254.182 325.901C253.396 325.825 252.661 325.458 252.106 324.864C251.385 324.267 251.103 324.043 250.17 324.621C248.94 325.554 247.997 326.853 247.461 328.352C246.748 330.227 245.523 331.831 243.942 332.96C243.35 333.333 242.676 333.532 241.989 333.538Z" fill="#FB4A04"/>
<g opacity="0.5">
<path d="M241.989 333.538C241.119 333.49 240.296 333.112 239.666 332.475C238.945 331.878 238.681 331.673 237.731 332.233C237.617 332.352 237.479 332.442 237.328 332.496C237.176 332.55 237.015 332.567 236.857 332.546C236.698 332.525 236.546 332.465 236.412 332.373C236.278 332.28 236.166 332.157 236.084 332.011C236.002 331.866 235.952 331.703 235.938 331.534C235.924 331.365 235.946 331.195 236.003 331.037C236.06 330.879 236.15 330.736 236.266 330.62C236.383 330.504 236.522 330.417 236.675 330.367C237.321 329.887 238.107 329.666 238.892 329.741C239.678 329.816 240.413 330.183 240.968 330.777C241.69 331.374 241.953 331.598 242.904 331.02C244.126 330.078 245.067 328.783 245.613 327.289C246.331 325.423 247.556 323.825 249.132 322.7C249.776 322.221 250.558 322 251.341 322.075C252.124 322.151 252.856 322.517 253.408 323.11C254.147 323.726 254.411 323.931 255.361 323.353C256.585 322.417 257.521 321.119 258.053 319.622C258.774 317.753 259.998 316.15 261.572 315.014C262.22 314.538 263.004 314.318 263.789 314.393C264.574 314.468 265.309 314.833 265.866 315.424C266.587 316.021 266.868 316.245 267.801 315.667C268.045 315.523 268.332 315.486 268.601 315.562C268.87 315.639 269.101 315.823 269.244 316.077C269.313 316.204 269.358 316.345 269.376 316.491C269.394 316.637 269.385 316.785 269.349 316.927C269.313 317.069 269.251 317.202 269.167 317.319C269.082 317.436 268.977 317.533 268.857 317.607C268.21 318.086 267.425 318.308 266.639 318.233C265.854 318.158 265.118 317.791 264.563 317.196C263.842 316.599 263.561 316.376 262.628 316.954C261.396 317.885 260.453 319.184 259.918 320.685C259.195 322.547 257.971 324.143 256.399 325.274C255.753 325.754 254.968 325.976 254.182 325.901C253.396 325.825 252.661 325.458 252.106 324.864C251.385 324.267 251.103 324.043 250.17 324.621C248.94 325.554 247.997 326.853 247.461 328.352C246.748 330.227 245.523 331.831 243.942 332.96C243.35 333.333 242.676 333.532 241.989 333.538Z" fill="white"/>
</g>
<path d="M319.584 287.012C318.716 286.959 317.894 286.582 317.262 285.949C316.523 285.352 316.259 285.128 315.326 285.706C315.212 285.825 315.075 285.915 314.923 285.97C314.772 286.024 314.611 286.041 314.452 286.02C314.294 285.999 314.142 285.939 314.008 285.847C313.874 285.754 313.762 285.631 313.68 285.485C313.598 285.34 313.547 285.177 313.533 285.008C313.519 284.839 313.542 284.669 313.598 284.511C313.655 284.353 313.745 284.21 313.862 284.094C313.978 283.978 314.118 283.891 314.271 283.841C314.915 283.361 315.699 283.141 316.483 283.22C317.267 283.298 317.998 283.671 318.546 284.27C319.268 284.867 319.549 285.091 320.482 284.513C321.71 283.577 322.652 282.28 323.191 280.781C323.909 278.915 325.134 277.318 326.71 276.192C327.358 275.716 328.143 275.497 328.927 275.572C329.712 275.647 330.447 276.012 331.004 276.603C331.725 277.2 332.007 277.424 332.939 276.845C334.162 275.903 335.103 274.608 335.649 273.114C336.366 271.248 337.591 269.65 339.168 268.525C339.814 268.045 340.6 267.823 341.385 267.899C342.171 267.974 342.906 268.341 343.461 268.935C344.183 269.532 344.464 269.756 345.397 269.178C345.517 269.104 345.65 269.057 345.787 269.037C345.925 269.018 346.064 269.028 346.198 269.066C346.332 269.104 346.458 269.17 346.568 269.26C346.678 269.349 346.77 269.461 346.84 269.588C346.911 269.715 346.958 269.856 346.978 270.002C346.997 270.149 346.988 270.298 346.952 270.44C346.916 270.583 346.853 270.717 346.767 270.833C346.682 270.95 346.574 271.046 346.452 271.118C345.808 271.593 345.026 271.812 344.244 271.737C343.463 271.662 342.731 271.297 342.177 270.708C341.438 270.111 341.174 269.887 340.224 270.465C339.001 271.407 338.06 272.702 337.514 274.196C336.797 276.062 335.572 277.66 333.995 278.785C333.347 279.261 332.563 279.481 331.778 279.406C330.993 279.331 330.258 278.966 329.702 278.375C328.98 277.778 328.716 277.554 327.766 278.132C326.541 279.072 325.6 280.368 325.056 281.863C324.344 283.738 323.118 285.343 321.537 286.471C320.939 286.822 320.268 287.008 319.584 287.012Z" fill="#FB4A04"/>
<g opacity="0.5">
<path d="M319.584 287.012C318.716 286.959 317.894 286.582 317.262 285.949C316.523 285.352 316.259 285.128 315.326 285.706C315.212 285.825 315.075 285.915 314.923 285.97C314.772 286.024 314.611 286.041 314.452 286.02C314.294 285.999 314.142 285.939 314.008 285.847C313.874 285.754 313.762 285.631 313.68 285.485C313.598 285.34 313.547 285.177 313.533 285.008C313.519 284.839 313.542 284.669 313.598 284.511C313.655 284.353 313.745 284.21 313.862 284.094C313.978 283.978 314.118 283.891 314.271 283.841C314.915 283.361 315.699 283.141 316.483 283.22C317.267 283.298 317.998 283.671 318.546 284.27C319.268 284.867 319.549 285.091 320.482 284.513C321.71 283.577 322.652 282.28 323.191 280.781C323.909 278.915 325.134 277.318 326.71 276.192C327.358 275.716 328.143 275.497 328.927 275.572C329.712 275.647 330.447 276.012 331.004 276.603C331.725 277.2 332.007 277.424 332.939 276.845C334.162 275.903 335.103 274.608 335.649 273.114C336.366 271.248 337.591 269.65 339.168 268.525C339.814 268.045 340.6 267.823 341.385 267.899C342.171 267.974 342.906 268.341 343.461 268.935C344.183 269.532 344.464 269.756 345.397 269.178C345.517 269.104 345.65 269.057 345.787 269.037C345.925 269.018 346.064 269.028 346.198 269.066C346.332 269.104 346.458 269.17 346.568 269.26C346.678 269.349 346.77 269.461 346.84 269.588C346.911 269.715 346.958 269.856 346.978 270.002C346.997 270.149 346.988 270.298 346.952 270.44C346.916 270.583 346.853 270.717 346.767 270.833C346.682 270.95 346.574 271.046 346.452 271.118C345.808 271.593 345.026 271.812 344.244 271.737C343.463 271.662 342.731 271.297 342.177 270.708C341.438 270.111 341.174 269.887 340.224 270.465C339.001 271.407 338.06 272.702 337.514 274.196C336.797 276.062 335.572 277.66 333.995 278.785C333.347 279.261 332.563 279.481 331.778 279.406C330.993 279.331 330.258 278.966 329.702 278.375C328.98 277.778 328.716 277.554 327.766 278.132C326.541 279.072 325.6 280.368 325.056 281.863C324.344 283.738 323.118 285.343 321.537 286.471C320.939 286.822 320.268 287.008 319.584 287.012Z" fill="white"/>
</g>
<path d="M270.334 306.376C269.469 306.325 268.648 305.955 268.012 305.332C267.29 304.735 267.009 304.511 266.076 305.089C265.833 305.233 265.546 305.27 265.277 305.194C265.007 305.117 264.777 304.932 264.634 304.679C264.562 304.552 264.515 304.411 264.495 304.265C264.476 304.119 264.485 303.97 264.521 303.827C264.557 303.684 264.62 303.55 264.706 303.434C264.792 303.318 264.899 303.221 265.021 303.149C265.667 302.669 266.452 302.448 267.238 302.523C268.024 302.598 268.759 302.965 269.314 303.559C270.035 304.156 270.299 304.38 271.249 303.802C272.47 302.862 273.405 301.566 273.942 300.071C274.666 298.204 275.889 296.602 277.461 295.463C278.108 294.982 278.895 294.761 279.682 294.84C280.468 294.918 281.203 295.292 281.754 295.892C282.475 296.489 282.757 296.713 283.689 296.135C284.918 295.199 285.86 293.902 286.399 292.404C287.117 290.533 288.342 288.929 289.918 287.796C290.565 287.315 291.353 287.094 292.139 287.173C292.926 287.251 293.661 287.624 294.211 288.225C294.95 288.822 295.214 289.046 296.164 288.467C296.278 288.348 296.416 288.258 296.567 288.204C296.719 288.15 296.88 288.133 297.038 288.154C297.197 288.175 297.349 288.234 297.483 288.327C297.617 288.42 297.729 288.543 297.811 288.689C297.893 288.834 297.943 288.997 297.957 289.166C297.971 289.335 297.949 289.505 297.892 289.663C297.835 289.821 297.745 289.964 297.629 290.08C297.513 290.196 297.373 290.282 297.22 290.333C296.576 290.82 295.789 291.046 295.002 290.971C294.214 290.896 293.478 290.524 292.927 289.922C292.206 289.326 291.924 289.102 290.974 289.68C289.756 290.622 288.821 291.918 288.282 293.411C287.561 295.275 286.337 296.872 284.763 298C284.12 298.482 283.337 298.706 282.554 298.63C281.77 298.555 281.037 298.186 280.487 297.59C279.748 296.993 279.484 296.769 278.534 297.347C277.312 298.286 276.376 299.583 275.842 301.078C275.118 302.941 273.895 304.536 272.323 305.668C271.734 306.092 271.046 306.338 270.334 306.376Z" fill="#FB4A04"/>
<g opacity="0.5">
<path d="M270.334 306.376C269.469 306.325 268.648 305.955 268.012 305.332C267.29 304.735 267.009 304.511 266.076 305.089C265.833 305.233 265.546 305.27 265.277 305.194C265.007 305.117 264.777 304.932 264.634 304.679C264.562 304.552 264.515 304.411 264.495 304.265C264.476 304.119 264.485 303.97 264.521 303.827C264.557 303.684 264.62 303.55 264.706 303.434C264.792 303.318 264.899 303.221 265.021 303.149C265.667 302.669 266.452 302.448 267.238 302.523C268.024 302.598 268.759 302.965 269.314 303.559C270.035 304.156 270.299 304.38 271.249 303.802C272.47 302.862 273.405 301.566 273.942 300.071C274.666 298.204 275.889 296.602 277.461 295.463C278.108 294.982 278.895 294.761 279.682 294.84C280.468 294.918 281.203 295.292 281.754 295.892C282.475 296.489 282.757 296.713 283.689 296.135C284.918 295.199 285.86 293.902 286.399 292.404C287.117 290.533 288.342 288.929 289.918 287.796C290.565 287.315 291.353 287.094 292.139 287.173C292.926 287.251 293.661 287.624 294.211 288.225C294.95 288.822 295.214 289.046 296.164 288.467C296.278 288.348 296.416 288.258 296.567 288.204C296.719 288.15 296.88 288.133 297.038 288.154C297.197 288.175 297.349 288.234 297.483 288.327C297.617 288.42 297.729 288.543 297.811 288.689C297.893 288.834 297.943 288.997 297.957 289.166C297.971 289.335 297.949 289.505 297.892 289.663C297.835 289.821 297.745 289.964 297.629 290.08C297.513 290.196 297.373 290.282 297.22 290.333C296.576 290.82 295.789 291.046 295.002 290.971C294.214 290.896 293.478 290.524 292.927 289.922C292.206 289.326 291.924 289.102 290.974 289.68C289.756 290.622 288.821 291.918 288.282 293.411C287.561 295.275 286.337 296.872 284.763 298C284.12 298.482 283.337 298.706 282.554 298.63C281.77 298.555 281.037 298.186 280.487 297.59C279.748 296.993 279.484 296.769 278.534 297.347C277.312 298.286 276.376 299.583 275.842 301.078C275.118 302.941 273.895 304.536 272.323 305.668C271.734 306.092 271.046 306.338 270.334 306.376Z" fill="white"/>
</g>
<path d="M219.255 336.729C218.607 337.206 217.821 337.425 217.035 337.346C216.249 337.268 215.515 336.897 214.962 336.299C214.223 335.721 213.977 335.497 213.027 336.076C211.803 337.021 210.857 338.315 210.299 339.807C209.58 341.676 208.355 343.279 206.78 344.415C206.13 344.885 205.345 345.099 204.561 345.021C203.777 344.942 203.043 344.576 202.487 343.985C201.748 343.388 201.502 343.165 200.534 343.743C199.318 344.692 198.379 345.985 197.824 347.474C197.304 348.688 196.616 349.814 195.783 350.813V346.821L195.959 346.448C196.679 344.583 197.904 342.987 199.478 341.859C200.122 341.372 200.909 341.145 201.697 341.221C202.484 341.296 203.22 341.668 203.772 342.269C204.493 342.866 204.774 343.109 205.707 342.512C206.941 341.583 207.885 340.283 208.417 338.781C209.135 336.91 210.359 335.306 211.936 334.173C212.587 333.694 213.376 333.475 214.165 333.553C214.954 333.632 215.691 334.003 216.247 334.602C216.95 335.18 217.232 335.404 218.182 334.826C218.423 334.683 218.707 334.646 218.974 334.723C219.24 334.799 219.468 334.984 219.607 335.236C219.744 335.484 219.784 335.779 219.718 336.058C219.652 336.337 219.486 336.578 219.255 336.729Z" fill="#FB4A04"/>
<g opacity="0.5">
<path d="M219.255 336.729C218.607 337.206 217.821 337.425 217.035 337.346C216.249 337.268 215.515 336.897 214.962 336.299C214.223 335.721 213.977 335.497 213.027 336.076C211.803 337.021 210.857 338.315 210.299 339.807C209.58 341.676 208.355 343.279 206.78 344.415C206.13 344.885 205.345 345.099 204.561 345.021C203.777 344.942 203.043 344.576 202.487 343.985C201.748 343.388 201.502 343.165 200.534 343.743C199.318 344.692 198.379 345.985 197.824 347.474C197.304 348.688 196.616 349.814 195.783 350.813V346.821L195.959 346.448C196.679 344.583 197.904 342.987 199.478 341.859C200.122 341.372 200.909 341.145 201.697 341.221C202.484 341.296 203.22 341.668 203.772 342.269C204.493 342.866 204.774 343.109 205.707 342.512C206.941 341.583 207.885 340.283 208.417 338.781C209.135 336.91 210.359 335.306 211.936 334.173C212.587 333.694 213.376 333.475 214.165 333.553C214.954 333.632 215.691 334.003 216.247 334.602C216.95 335.18 217.232 335.404 218.182 334.826C218.423 334.683 218.707 334.646 218.974 334.723C219.24 334.799 219.468 334.984 219.607 335.236C219.744 335.484 219.784 335.779 219.718 336.058C219.652 336.337 219.486 336.578 219.255 336.729Z" fill="white"/>
</g>
<path d="M363.062 242.314V245.075C362.248 245.974 361.587 247.015 361.109 248.154C360.381 250.018 359.159 251.619 357.59 252.761C356.944 253.237 356.161 253.455 355.378 253.377C354.595 253.298 353.864 252.928 353.314 252.332C352.575 251.754 352.311 251.511 351.361 252.09C350.141 253.034 349.201 254.329 348.652 255.821C347.944 257.698 346.717 259.304 345.132 260.429C344.547 260.823 343.872 261.043 343.179 261.063C342.314 261.014 341.491 260.645 340.857 260.018C340.135 259.421 339.854 259.179 338.904 259.776C338.679 259.844 338.44 259.831 338.223 259.739C338.006 259.647 337.824 259.481 337.705 259.268C337.586 259.055 337.538 258.806 337.567 258.56C337.596 258.314 337.701 258.086 337.866 257.91C338.513 257.441 339.296 257.228 340.076 257.306C340.857 257.385 341.588 257.75 342.141 258.339C342.863 258.955 343.144 259.16 344.094 258.582C345.316 257.644 346.252 256.346 346.786 254.851C347.521 252.995 348.742 251.402 350.305 250.262C350.954 249.789 351.738 249.571 352.522 249.646C353.306 249.721 354.04 250.084 354.599 250.672C355.32 251.269 355.602 251.511 356.534 250.933C357.757 249.992 358.698 248.696 359.244 247.202C359.962 245.331 361.186 243.728 362.763 242.594L363.062 242.314Z" fill="#FB4A04"/>
<g opacity="0.5">
<path d="M363.062 242.314V245.075C362.248 245.974 361.587 247.015 361.109 248.154C360.381 250.018 359.159 251.619 357.59 252.761C356.944 253.237 356.161 253.455 355.378 253.377C354.595 253.298 353.864 252.928 353.314 252.332C352.575 251.754 352.311 251.511 351.361 252.09C350.141 253.034 349.201 254.329 348.652 255.821C347.944 257.698 346.717 259.304 345.132 260.429C344.547 260.823 343.872 261.043 343.179 261.063C342.314 261.014 341.491 260.645 340.857 260.018C340.135 259.421 339.854 259.179 338.904 259.776C338.679 259.844 338.44 259.831 338.223 259.739C338.006 259.647 337.824 259.481 337.705 259.268C337.586 259.055 337.538 258.806 337.567 258.56C337.596 258.314 337.701 258.086 337.866 257.91C338.513 257.441 339.296 257.228 340.076 257.306C340.857 257.385 341.588 257.75 342.141 258.339C342.863 258.955 343.144 259.16 344.094 258.582C345.316 257.644 346.252 256.346 346.786 254.851C347.521 252.995 348.742 251.402 350.305 250.262C350.954 249.789 351.738 249.571 352.522 249.646C353.306 249.721 354.04 250.084 354.599 250.672C355.32 251.269 355.602 251.511 356.534 250.933C357.757 249.992 358.698 248.696 359.244 247.202C359.962 245.331 361.186 243.728 362.763 242.594L363.062 242.314Z" fill="white"/>
</g>
<path d="M233.543 265.689L229.215 268.301V266.678C229.215 266.566 229.215 266.454 229.215 266.342C229.215 266.23 229.215 266.118 229.215 266.007C229.056 263.861 227.455 263.04 225.695 264.141C224.85 264.695 224.124 265.432 223.566 266.305C223.144 263.395 220.892 262.331 218.182 263.992C216.589 265.094 215.263 266.579 214.313 268.326C213.362 270.073 212.813 272.033 212.71 274.047V277.517C212.711 277.793 212.643 278.064 212.513 278.303C212.383 278.542 212.196 278.741 211.971 278.879L209.42 280.464C208.879 280.817 208.433 281.311 208.125 281.899C207.817 282.487 207.657 283.149 207.66 283.822C207.662 284.103 207.733 284.379 207.866 284.621C207.999 284.864 208.191 285.065 208.42 285.205C208.65 285.345 208.911 285.418 209.176 285.418C209.44 285.417 209.701 285.343 209.93 285.203L233.578 270.726C234.196 270.346 234.711 269.802 235.071 269.148C235.432 268.495 235.627 267.753 235.637 266.995C235.662 266.726 235.615 266.454 235.499 266.212C235.383 265.97 235.205 265.769 234.984 265.631C234.764 265.494 234.511 265.426 234.256 265.437C234 265.447 233.753 265.535 233.543 265.689Z" fill="white"/>
<path d="M339.326 205.116L334.998 207.727V205.395C334.839 203.231 333.238 202.411 331.479 203.53C330.626 204.074 329.899 204.814 329.35 205.694C328.927 202.765 326.675 201.72 323.948 203.381C322.359 204.482 321.038 205.965 320.09 207.708C319.143 209.452 318.596 211.408 318.493 213.417V216.906C318.491 217.181 318.421 217.451 318.292 217.689C318.162 217.928 317.977 218.127 317.754 218.268L315.203 219.835C314.661 220.186 314.214 220.679 313.906 221.268C313.598 221.856 313.438 222.519 313.443 223.193C313.442 223.475 313.511 223.753 313.643 223.998C313.775 224.243 313.966 224.447 314.196 224.589C314.426 224.731 314.688 224.806 314.954 224.807C315.221 224.807 315.483 224.733 315.713 224.592L339.361 210.097C339.979 209.716 340.494 209.173 340.855 208.519C341.215 207.865 341.41 207.123 341.42 206.366C341.435 206.1 341.379 205.836 341.259 205.603C341.139 205.37 340.959 205.178 340.741 205.048C340.523 204.917 340.275 204.855 340.025 204.867C339.774 204.879 339.532 204.965 339.326 205.116Z" fill="white"/>
<path d="M242.2 283.281L239.227 285.147V283.561C239.121 282.087 238.065 281.509 236.781 282.293C236.194 282.674 235.691 283.183 235.303 283.785C235.021 281.789 233.543 281.061 231.608 282.199C230.515 282.957 229.607 283.976 228.956 285.176C228.305 286.375 227.929 287.72 227.86 289.102V291.49C227.857 291.678 227.809 291.863 227.72 292.027C227.631 292.19 227.503 292.326 227.35 292.422L225.59 293.504C225.21 293.741 224.895 294.079 224.676 294.485C224.457 294.891 224.341 295.35 224.341 295.818C224.342 296.009 224.39 296.197 224.481 296.363C224.572 296.529 224.702 296.667 224.858 296.763C225.015 296.859 225.192 296.91 225.373 296.911C225.554 296.912 225.732 296.863 225.889 296.769L242.13 286.826C242.562 286.561 242.922 286.18 243.172 285.722C243.422 285.264 243.554 284.744 243.555 284.214C243.569 284.039 243.539 283.863 243.466 283.705C243.393 283.546 243.281 283.412 243.142 283.316C243.003 283.221 242.841 283.167 242.676 283.16C242.51 283.154 242.345 283.196 242.2 283.281Z" fill="white"/>
<path d="M196.293 402.824C196.112 402.828 195.932 402.78 195.774 402.685C195.616 402.59 195.485 402.451 195.396 402.283C195.261 402.032 195.224 401.736 195.293 401.456C195.362 401.177 195.532 400.938 195.766 400.79L362.042 299.008C362.278 298.864 362.558 298.825 362.821 298.898C363.084 298.971 363.31 299.151 363.449 299.399C363.519 299.524 363.565 299.662 363.584 299.806C363.603 299.95 363.595 300.096 363.561 300.236C363.527 300.377 363.466 300.509 363.384 300.624C363.301 300.74 363.198 300.837 363.08 300.91L196.804 402.693C196.646 402.78 196.471 402.825 196.293 402.824Z" fill="#E0E0E0"/>
<path d="M196.294 499.253C196.065 499.254 195.843 499.176 195.66 499.029C195.478 498.882 195.347 498.676 195.287 498.442C195.226 498.208 195.241 497.959 195.328 497.735C195.414 497.511 195.568 497.323 195.766 497.201L362.042 395.418C362.281 395.276 362.562 395.24 362.826 395.317C363.089 395.393 363.314 395.577 363.45 395.828C363.519 395.952 363.565 396.089 363.584 396.231C363.603 396.373 363.595 396.518 363.56 396.657C363.526 396.796 363.466 396.926 363.383 397.04C363.301 397.154 363.198 397.249 363.081 397.321L196.804 499.104C196.648 499.196 196.473 499.248 196.294 499.253Z" fill="#E0E0E0"/>
<path d="M476.412 298.97C506.653 298.97 531.169 272.978 531.169 240.915C531.169 208.852 506.653 182.86 476.412 182.86C446.171 182.86 421.655 208.852 421.655 240.915C421.655 272.978 446.171 298.97 476.412 298.97Z" fill="#FB4A04"/>
<path d="M438.951 270.354C438.951 270.354 444.899 298.971 423.784 298.971C423.784 298.971 448.646 310.425 457.638 286.975L438.951 270.354Z" fill="#FB4A04"/>
<path d="M480.617 242.576C483.604 241.517 486.139 239.367 487.767 236.509C489.396 233.651 490.012 230.272 489.507 226.976C489.001 223.681 487.406 220.683 485.007 218.52C482.608 216.357 479.561 215.169 476.412 215.169C473.263 215.169 470.216 216.357 467.817 218.52C465.418 220.683 463.823 223.681 463.317 226.976C462.811 230.272 463.428 233.651 465.057 236.509C466.685 239.367 469.22 241.517 472.207 242.576C467.007 243.647 462.319 246.598 458.943 250.926C455.568 255.254 453.713 260.689 453.696 266.305C453.696 266.417 453.696 266.529 453.696 266.641H499.233C499.233 266.529 499.233 266.417 499.233 266.305C499.212 260.673 497.342 255.225 493.945 250.895C490.548 246.565 485.836 243.624 480.617 242.576Z" fill="white"/>
<path d="M419.156 164.019C442.906 164.019 462.159 143.606 462.159 118.425C462.159 93.2449 442.906 72.832 419.156 72.832C395.406 72.832 376.153 93.2449 376.153 118.425C376.153 143.606 395.406 164.019 419.156 164.019Z" fill="#FB4A04"/>
<path d="M389.755 141.539C389.755 141.539 394.418 163.925 377.772 163.925C377.772 163.925 397.286 172.917 404.341 154.598L389.755 141.539Z" fill="#FB4A04"/>
<path d="M430.699 101.654C427.638 101.654 424.702 102.944 422.537 105.239C420.373 107.534 419.156 110.646 419.156 113.892C419.156 110.646 417.94 107.534 415.776 105.239C413.611 102.944 410.675 101.654 407.614 101.654C404.553 101.654 401.617 102.944 399.452 105.239C397.287 107.534 396.071 110.646 396.071 113.892C396.071 133.872 419.156 141.651 419.156 141.651C419.156 141.651 442.242 133.872 442.242 113.892C442.242 110.646 441.025 107.534 438.861 105.239C436.696 102.944 433.76 101.654 430.699 101.654Z" fill="white"/>
<path d="M138.787 492.718C159.519 470.738 159.519 435.102 138.788 413.122C118.056 391.142 84.4447 391.142 63.7137 413.122C42.9826 435.102 42.9826 470.738 63.7137 492.718C84.4447 514.698 118.056 514.698 138.787 492.718Z" fill="#FB4A04"/>
<path d="M137.543 481.437C137.543 481.437 131.789 509.196 152.341 509.196C152.341 509.196 128.235 520.277 119.525 497.555L137.543 481.437Z" fill="#FB4A04"/>
<path d="M121.566 432.859H80.921C79.0695 432.859 77.2925 433.632 75.9751 435.012C74.6577 436.391 73.906 438.265 73.8828 440.228V465.599C73.8828 467.578 74.6243 469.476 75.9442 470.876C77.2641 472.275 79.0543 473.061 80.921 473.061H95.8242L101.56 486.642L106.839 473.061H121.478C123.345 473.061 125.135 472.275 126.455 470.876C127.775 469.476 128.516 467.578 128.516 465.599V440.228C128.494 438.281 127.754 436.421 126.456 435.044C125.157 433.667 123.402 432.883 121.566 432.859ZM115.654 459.965H86.6219C86.1365 459.965 85.6711 459.761 85.3279 459.397C84.9847 459.033 84.7919 458.54 84.7919 458.025C84.7919 457.51 84.9847 457.017 85.3279 456.653C85.6711 456.289 86.1365 456.085 86.6219 456.085H115.654C116.14 456.085 116.605 456.289 116.948 456.653C117.291 457.017 117.484 457.51 117.484 458.025C117.484 458.54 117.291 459.033 116.948 459.397C116.605 459.761 116.14 459.965 115.654 459.965ZM115.654 447.336H86.6219C86.3815 447.336 86.1436 447.285 85.9216 447.188C85.6996 447.09 85.4978 446.947 85.3279 446.767C85.158 446.587 85.0232 446.373 84.9312 446.138C84.8393 445.902 84.7919 445.65 84.7919 445.395C84.7919 445.141 84.8393 444.888 84.9312 444.653C85.0232 444.418 85.158 444.204 85.3279 444.024C85.4978 443.843 85.6996 443.7 85.9216 443.603C86.1436 443.505 86.3815 443.455 86.6219 443.455H115.654C116.14 443.455 116.605 443.66 116.948 444.024C117.291 444.387 117.484 444.881 117.484 445.395C117.484 445.91 117.291 446.403 116.948 446.767C116.605 447.131 116.14 447.336 115.654 447.336Z" fill="white"/>
</svg>
