<svg width="1079" height="58" viewBox="0 0 1079 58" fill="none" xmlns="http://www.w3.org/2000/svg">
<rect width="1079" height="58" fill="#F5F5F5"/>
<path d="M146.977 29.5703L143 22.4688H145.445L148.148 27.4219L150.844 22.4688H153.188L149.289 29.5703V34H146.977V29.5703ZM157.703 34.1797C156.38 34.1797 155.443 33.9349 154.891 33.4453C154.339 32.9557 154.062 32.2943 154.062 31.4609V28.1562C154.062 27.3021 154.38 26.6354 155.016 26.1562C155.656 25.6719 156.552 25.4297 157.703 25.4297C158.849 25.4297 159.742 25.6719 160.383 26.1562C161.023 26.6354 161.344 27.3021 161.344 28.1562V31.4609C161.344 32.013 161.229 32.4948 161 32.9062C160.771 33.3125 160.391 33.6276 159.859 33.8516C159.333 34.0703 158.615 34.1797 157.703 34.1797ZM157.703 32.7031C158.156 32.7031 158.521 32.6198 158.797 32.4531C159.078 32.2812 159.219 31.9818 159.219 31.5547V28.0625C159.219 27.6354 159.086 27.3385 158.82 27.1719C158.555 27 158.182 26.9141 157.703 26.9141C157.245 26.9141 156.878 27 156.602 27.1719C156.326 27.3385 156.188 27.6354 156.188 28.0625V31.5547C156.188 31.9818 156.318 32.2812 156.578 32.4531C156.839 32.6198 157.214 32.7031 157.703 32.7031ZM166.102 34.1797C165.299 34.1797 164.664 33.9479 164.195 33.4844C163.732 33.0208 163.5 32.4349 163.5 31.7266V25.6094H165.625V31.3828C165.625 31.6745 165.698 31.9089 165.844 32.0859C165.99 32.2578 166.172 32.3828 166.391 32.4609C166.609 32.5391 166.828 32.5781 167.047 32.5781C167.307 32.5781 167.565 32.5339 167.82 32.4453C168.076 32.3568 168.286 32.2161 168.453 32.0234C168.625 31.8307 168.711 31.5781 168.711 31.2656V25.6094H170.836V34H168.836L168.773 33.0781C168.607 33.4271 168.266 33.6979 167.75 33.8906C167.234 34.0833 166.685 34.1797 166.102 34.1797ZM177.609 22.4688H179.938V27.375H185V22.4688H187.328V34H185V29.1953H179.938V34H177.609V22.4688ZM192.117 34.1797C191.398 34.1797 190.812 33.9714 190.359 33.5547C189.911 33.138 189.688 32.5833 189.688 31.8906C189.688 31.4948 189.768 31.1432 189.93 30.8359C190.091 30.5286 190.385 30.2448 190.812 29.9844C191.24 29.7188 191.852 29.4609 192.648 29.2109C193.299 29.0026 193.779 28.8099 194.086 28.6328C194.398 28.4557 194.555 28.2214 194.555 27.9297C194.555 27.5911 194.453 27.3385 194.25 27.1719C194.052 27 193.714 26.9141 193.234 26.9141C192.703 26.9141 192.352 27.0182 192.18 27.2266C192.013 27.4349 191.93 27.7005 191.93 28.0234V28.3516H189.938V28.1016C189.938 27.2891 190.208 26.6406 190.75 26.1562C191.292 25.6719 192.135 25.4297 193.281 25.4297C194.12 25.4297 194.784 25.5469 195.273 25.7812C195.763 26.0156 196.115 26.3464 196.328 26.7734C196.542 27.1953 196.648 27.6953 196.648 28.2734V31.5938C196.648 31.974 196.695 32.224 196.789 32.3438C196.888 32.4583 197.068 32.5156 197.328 32.5156L197.242 34.0625H196.797C196.214 34.0625 195.76 33.9818 195.438 33.8203C195.115 33.6589 194.878 33.4089 194.727 33.0703C194.503 33.3672 194.164 33.6276 193.711 33.8516C193.263 34.0703 192.732 34.1797 192.117 34.1797ZM192.828 32.7656C193.089 32.7656 193.393 32.6927 193.742 32.5469C194.091 32.401 194.362 32.1771 194.555 31.875V29.75C194.414 29.8646 194.19 29.9922 193.883 30.1328C193.576 30.2682 193.245 30.401 192.891 30.5312C192.427 30.7031 192.122 30.8932 191.977 31.1016C191.831 31.3099 191.758 31.5339 191.758 31.7734C191.758 32.112 191.857 32.362 192.055 32.5234C192.253 32.6849 192.51 32.7656 192.828 32.7656ZM198.219 25.6094H200.336L202.328 31.9219L204.297 25.6094H206.305L203.461 34H201.203L198.219 25.6094ZM207.547 31.375V28.1016C207.547 27.2474 207.87 26.5885 208.516 26.125C209.167 25.6615 210.036 25.4297 211.125 25.4297C212.417 25.4297 213.333 25.6771 213.875 26.1719C214.422 26.6667 214.695 27.3359 214.695 28.1797V30.2109H209.672V31.5781C209.672 32.0729 209.799 32.3854 210.055 32.5156C210.31 32.6406 210.69 32.7031 211.195 32.7031C211.799 32.7031 212.203 32.6198 212.406 32.4531C212.615 32.2812 212.719 31.9375 212.719 31.4219H214.688C214.688 32.4583 214.396 33.1771 213.812 33.5781C213.229 33.9792 212.344 34.1797 211.156 34.1797C210.474 34.1797 209.859 34.0964 209.312 33.9297C208.766 33.7578 208.333 33.4688 208.016 33.0625C207.703 32.6562 207.547 32.0938 207.547 31.375ZM212.688 28.9141V27.9297C212.688 27.6172 212.62 27.3906 212.484 27.25C212.354 27.1042 212.174 27.013 211.945 26.9766C211.721 26.9349 211.466 26.9141 211.18 26.9141C210.753 26.9141 210.393 26.9792 210.102 27.1094C209.815 27.2344 209.672 27.5208 209.672 27.9688V28.9141H212.688ZM220.844 25.6094H222.969V26.3516C223.292 26.0755 223.648 25.8516 224.039 25.6797C224.43 25.5078 224.93 25.4219 225.539 25.4219C226.169 25.4219 226.68 25.5391 227.07 25.7734C227.461 26.0026 227.747 26.3099 227.93 26.6953C228.112 27.0807 228.203 27.5104 228.203 27.9844V34H226.078V28.1016C226.078 27.8047 226 27.5781 225.844 27.4219C225.693 27.2656 225.503 27.1589 225.273 27.1016C225.049 27.0443 224.826 27.0156 224.602 27.0156C224.346 27.0156 224.094 27.0625 223.844 27.1562C223.594 27.25 223.385 27.388 223.219 27.5703C223.052 27.7526 222.969 27.9818 222.969 28.2578V34H220.844V25.6094ZM234 34.1797C232.677 34.1797 231.74 33.9349 231.188 33.4453C230.635 32.9557 230.359 32.2943 230.359 31.4609V28.1562C230.359 27.3021 230.677 26.6354 231.312 26.1562C231.953 25.6719 232.849 25.4297 234 25.4297C235.146 25.4297 236.039 25.6719 236.68 26.1562C237.32 26.6354 237.641 27.3021 237.641 28.1562V31.4609C237.641 32.013 237.526 32.4948 237.297 32.9062C237.068 33.3125 236.688 33.6276 236.156 33.8516C235.63 34.0703 234.911 34.1797 234 34.1797ZM234 32.7031C234.453 32.7031 234.818 32.6198 235.094 32.4531C235.375 32.2812 235.516 31.9818 235.516 31.5547V28.0625C235.516 27.6354 235.383 27.3385 235.117 27.1719C234.852 27 234.479 26.9141 234 26.9141C233.542 26.9141 233.174 27 232.898 27.1719C232.622 27.3385 232.484 27.6354 232.484 28.0625V31.5547C232.484 31.9818 232.615 32.2812 232.875 32.4531C233.135 32.6198 233.51 32.7031 234 32.7031ZM243.875 32.2656H245.977V24.1953H243.875V22.4688H250.375V24.1953H248.289V32.2656H250.375V34H243.875V32.2656ZM252.859 25.6094H254.984V26.3516C255.307 26.0755 255.664 25.8516 256.055 25.6797C256.445 25.5078 256.945 25.4219 257.555 25.4219C258.185 25.4219 258.695 25.5391 259.086 25.7734C259.477 26.0026 259.763 26.3099 259.945 26.6953C260.128 27.0807 260.219 27.5104 260.219 27.9844V34H258.094V28.1016C258.094 27.8047 258.016 27.5781 257.859 27.4219C257.708 27.2656 257.518 27.1589 257.289 27.1016C257.065 27.0443 256.841 27.0156 256.617 27.0156C256.362 27.0156 256.109 27.0625 255.859 27.1562C255.609 27.25 255.401 27.388 255.234 27.5703C255.068 27.7526 254.984 27.9818 254.984 28.2578V34H252.859V25.6094ZM261.641 25.6094H263.758L265.75 31.9219L267.719 25.6094H269.727L266.883 34H264.625L261.641 25.6094ZM274.609 34.1797C273.286 34.1797 272.349 33.9349 271.797 33.4453C271.245 32.9557 270.969 32.2943 270.969 31.4609V28.1562C270.969 27.3021 271.286 26.6354 271.922 26.1562C272.562 25.6719 273.458 25.4297 274.609 25.4297C275.755 25.4297 276.648 25.6719 277.289 26.1562C277.93 26.6354 278.25 27.3021 278.25 28.1562V31.4609C278.25 32.013 278.135 32.4948 277.906 32.9062C277.677 33.3125 277.297 33.6276 276.766 33.8516C276.24 34.0703 275.521 34.1797 274.609 34.1797ZM274.609 32.7031C275.062 32.7031 275.427 32.6198 275.703 32.4531C275.984 32.2812 276.125 31.9818 276.125 31.5547V28.0625C276.125 27.6354 275.992 27.3385 275.727 27.1719C275.461 27 275.089 26.9141 274.609 26.9141C274.151 26.9141 273.784 27 273.508 27.1719C273.232 27.3385 273.094 27.6354 273.094 28.0625V31.5547C273.094 31.9818 273.224 32.2812 273.484 32.4531C273.745 32.6198 274.12 32.7031 274.609 32.7031ZM280.188 25.6094H282.305V34H280.188V25.6094ZM280.172 22.1641H282.312V24.2344H280.172V22.1641ZM287.758 34.1797C286.805 34.1797 286.076 34.0547 285.57 33.8047C285.065 33.5495 284.719 33.2135 284.531 32.7969C284.344 32.3802 284.25 31.9297 284.25 31.4453V28.0859C284.25 27.2474 284.555 26.5964 285.164 26.1328C285.773 25.6641 286.628 25.4297 287.727 25.4297C288.482 25.4297 289.112 25.5234 289.617 25.7109C290.128 25.8932 290.513 26.2109 290.773 26.6641C291.034 27.112 291.164 27.737 291.164 28.5391L289.164 28.6953C289.164 28.1849 289.125 27.8047 289.047 27.5547C288.974 27.2995 288.839 27.1302 288.641 27.0469C288.448 26.9583 288.169 26.9141 287.805 26.9141C287.352 26.9141 287 27.0026 286.75 27.1797C286.5 27.3568 286.375 27.6615 286.375 28.0938V31.4844C286.375 31.9323 286.492 32.2448 286.727 32.4219C286.961 32.599 287.32 32.6875 287.805 32.6875C288.174 32.6875 288.458 32.6484 288.656 32.5703C288.854 32.4922 288.99 32.3359 289.062 32.1016C289.135 31.862 289.172 31.5052 289.172 31.0312H291.156C291.156 31.8021 291.057 32.4193 290.859 32.8828C290.667 33.3411 290.323 33.6719 289.828 33.875C289.339 34.0781 288.648 34.1797 287.758 34.1797ZM292.938 31.375V28.1016C292.938 27.2474 293.26 26.5885 293.906 26.125C294.557 25.6615 295.427 25.4297 296.516 25.4297C297.807 25.4297 298.724 25.6771 299.266 26.1719C299.812 26.6667 300.086 27.3359 300.086 28.1797V30.2109H295.062V31.5781C295.062 32.0729 295.19 32.3854 295.445 32.5156C295.701 32.6406 296.081 32.7031 296.586 32.7031C297.19 32.7031 297.594 32.6198 297.797 32.4531C298.005 32.2812 298.109 31.9375 298.109 31.4219H300.078C300.078 32.4583 299.786 33.1771 299.203 33.5781C298.62 33.9792 297.734 34.1797 296.547 34.1797C295.865 34.1797 295.25 34.0964 294.703 33.9297C294.156 33.7578 293.724 33.4688 293.406 33.0625C293.094 32.6562 292.938 32.0938 292.938 31.375ZM298.078 28.9141V27.9297C298.078 27.6172 298.01 27.3906 297.875 27.25C297.745 27.1042 297.565 27.013 297.336 26.9766C297.112 26.9349 296.857 26.9141 296.57 26.9141C296.143 26.9141 295.784 26.9792 295.492 27.1094C295.206 27.2344 295.062 27.5208 295.062 27.9688V28.9141H298.078ZM308.961 29.5703L304.984 22.4688H307.43L310.133 27.4219L312.828 22.4688H315.172L311.273 29.5703V34H308.961V29.5703ZM316.047 31.375V28.1016C316.047 27.2474 316.37 26.5885 317.016 26.125C317.667 25.6615 318.536 25.4297 319.625 25.4297C320.917 25.4297 321.833 25.6771 322.375 26.1719C322.922 26.6667 323.195 27.3359 323.195 28.1797V30.2109H318.172V31.5781C318.172 32.0729 318.299 32.3854 318.555 32.5156C318.81 32.6406 319.19 32.7031 319.695 32.7031C320.299 32.7031 320.703 32.6198 320.906 32.4531C321.115 32.2812 321.219 31.9375 321.219 31.4219H323.188C323.188 32.4583 322.896 33.1771 322.312 33.5781C321.729 33.9792 320.844 34.1797 319.656 34.1797C318.974 34.1797 318.359 34.0964 317.812 33.9297C317.266 33.7578 316.833 33.4688 316.516 33.0625C316.203 32.6562 316.047 32.0938 316.047 31.375ZM321.188 28.9141V27.9297C321.188 27.6172 321.12 27.3906 320.984 27.25C320.854 27.1042 320.674 27.013 320.445 26.9766C320.221 26.9349 319.966 26.9141 319.68 26.9141C319.253 26.9141 318.893 26.9792 318.602 27.1094C318.315 27.2344 318.172 27.5208 318.172 27.9688V28.9141H321.188ZM325.672 31.2891V26.9609H324.562V25.6094H325.734L325.93 22.9141H327.797V25.6094H329.789V26.9609H327.797V31.1328C327.797 31.6536 327.909 32.0156 328.133 32.2188C328.362 32.4167 328.797 32.5156 329.438 32.5156H329.844L329.766 34.0938H329.188C328.344 34.0938 327.664 34.0104 327.148 33.8438C326.633 33.6771 326.258 33.3906 326.023 32.9844C325.789 32.5729 325.672 32.0078 325.672 31.2891Z" fill="#231414" fill-opacity="0.83"/>
<path d="M86 44C94.2843 44 101 37.2843 101 29C101 20.7157 94.2843 14 86 14C77.7157 14 71 20.7157 71 29C71 37.2843 77.7157 44 86 44Z" stroke="black" stroke-width="2" stroke-linecap="round" stroke-linejoin="round"/>
<path d="M86 23V29" stroke="black" stroke-width="2" stroke-linecap="round" stroke-linejoin="round"/>
<path d="M86 35H86.015" stroke="black" stroke-width="2" stroke-linecap="round" stroke-linejoin="round"/>
</svg>
