<svg width="800" height="749" viewBox="0 0 800 749" fill="none" xmlns="http://www.w3.org/2000/svg">
<path d="M714.991 230.544C717.363 226.756 718.792 222.495 719.168 218.09C719.544 213.686 718.856 209.258 717.158 205.15C715.46 201.042 712.798 197.366 709.378 194.406C705.958 191.446 701.873 189.284 697.44 188.086C693.007 186.888 688.346 186.687 683.819 187.499C679.292 188.311 675.021 190.114 671.339 192.767C667.656 195.421 664.661 198.854 662.586 202.799C660.511 206.744 659.413 211.096 659.376 215.515V215.647C659.376 217.815 659.894 219.653 660.101 222.053L663.171 249.596C663.262 250.395 663.544 251.163 663.997 251.839C664.449 252.516 665.058 253.082 665.777 253.494C666.496 253.907 667.304 254.153 668.139 254.215C668.974 254.277 669.813 254.152 670.589 253.85L696.895 243.621C699.176 242.876 701.41 242.009 703.589 241.022H703.692C708.367 238.562 712.269 234.944 714.991 230.544ZM682.595 226.522C680.355 225.236 678.563 223.341 677.446 221.077C676.329 218.813 675.936 216.282 676.318 213.804C676.7 211.326 677.839 209.013 679.592 207.156C681.344 205.3 683.631 203.984 686.163 203.374C688.695 202.765 691.359 202.89 693.817 203.734C696.275 204.578 698.417 206.102 699.972 208.114C701.527 210.125 702.425 212.535 702.553 215.037C702.681 217.538 702.033 220.02 700.69 222.169C698.888 225.044 695.972 227.117 692.58 227.933C689.188 228.749 685.598 228.242 682.595 226.522Z" fill="#EBEBEB"/>
<path d="M287.862 257.631L222.734 271.554L268.714 469.584L333.841 455.661L287.862 257.631Z" fill="#F5F5F5"/>
<path d="M287.862 257.646L255.298 264.607L301.154 462.104L333.717 455.143L287.862 257.646Z" fill="#EBEBEB"/>
<path d="M248.662 245.613L225.662 250.53L230.175 269.966L253.175 265.049L248.662 245.613Z" fill="#F5F5F5"/>
<path d="M248.658 245.621L243.169 246.794L247.682 266.231L253.171 265.057L248.658 245.621Z" fill="#EBEBEB"/>
<path d="M217.321 272.687L217.062 271.562L289.514 256.068L289.773 257.194" fill="#E0E0E0"/>
<path d="M243.055 276.118L237.549 277.295L240.137 288.443L245.643 287.266L243.055 276.118Z" fill="#FAFAFA"/>
<path d="M260.894 288.66C260.894 288.776 253.649 290.431 244.661 292.352C235.674 294.272 228.36 295.662 228.325 295.662C228.291 295.662 235.57 293.891 244.558 291.971C253.545 290.051 260.859 288.462 260.894 288.66Z" fill="#E0E0E0"/>
<path d="M275.943 269.022L270.438 270.2L273.028 281.348L278.534 280.17L275.943 269.022Z" fill="#E0E0E0"/>
<path d="M293.74 281.559C293.74 281.675 286.494 283.331 277.507 285.251C268.52 287.171 261.206 288.644 261.171 288.561C261.137 288.478 268.416 286.79 277.404 284.87C286.391 282.95 293.705 281.444 293.74 281.559Z" fill="#E0E0E0"/>
<path d="M281.086 291.171L275.58 292.349L278.17 303.496L283.676 302.318L281.086 291.171Z" fill="#E0E0E0"/>
<path d="M298.879 303.707C298.879 303.823 291.634 305.478 282.647 307.398C273.659 309.318 266.345 310.709 266.311 310.709C266.276 310.709 273.556 308.937 282.543 307.017C291.531 305.097 298.845 303.558 298.879 303.707Z" fill="#E0E0E0"/>
<path d="M286.39 313.98L280.885 315.158L283.475 326.305L288.981 325.127L286.39 313.98Z" fill="#E0E0E0"/>
<path d="M304.174 326.516C304.174 326.632 296.929 328.287 287.942 330.208C278.954 332.128 271.64 333.518 271.606 333.518C271.571 333.518 278.851 331.747 287.838 329.827C296.826 327.907 304.14 326.384 304.174 326.516Z" fill="#E0E0E0"/>
<path d="M291.696 336.791L286.19 337.969L288.781 349.117L294.286 347.939L291.696 336.791Z" fill="#E0E0E0"/>
<path d="M309.471 349.326C309.471 349.442 302.226 351.097 293.239 353.017C284.251 354.937 276.937 356.328 276.902 356.328C276.868 356.328 284.148 354.557 293.135 352.637C302.122 350.717 309.437 349.21 309.471 349.326Z" fill="#E0E0E0"/>
<path d="M296.781 359.026L291.275 360.203L293.864 371.351L299.37 370.174L296.781 359.026Z" fill="#E0E0E0"/>
<path d="M314.611 371.424C314.611 371.54 307.383 373.195 298.378 375.115C289.374 377.035 282.077 378.509 282.06 378.426C282.042 378.343 289.287 376.655 298.292 374.735C307.297 372.814 314.594 371.424 314.611 371.424Z" fill="#E0E0E0"/>
<path d="M302.02 381.195L296.515 382.373L299.105 393.521L304.611 392.343L302.02 381.195Z" fill="#E0E0E0"/>
<path d="M307.184 403.802L301.678 404.979L304.266 416.127L309.772 414.95L307.184 403.802Z" fill="#E0E0E0"/>
<path d="M319.786 393.72C319.786 393.836 312.541 395.491 303.554 397.428C294.567 399.365 287.252 400.739 287.218 400.739C287.183 400.739 294.463 398.968 303.45 397.047C312.438 395.127 319.752 393.604 319.786 393.72Z" fill="#E0E0E0"/>
<path d="M248.333 298.547L242.827 299.725L245.418 310.873L250.923 309.695L248.333 298.547Z" fill="#FAFAFA"/>
<path d="M266.104 311.056C266.104 311.172 258.876 312.827 249.872 314.747C240.867 316.667 233.57 318.141 233.553 318.058C233.536 317.975 240.781 316.287 249.785 314.367C258.79 312.446 266.087 310.94 266.104 311.056Z" fill="#E0E0E0"/>
<path d="M253.548 321.017L248.042 322.195L250.632 333.343L256.138 332.165L253.548 321.017Z" fill="#FAFAFA"/>
<path d="M271.331 333.535C271.331 333.651 264.086 335.306 255.099 337.243C246.111 339.179 238.797 340.553 238.763 340.553C238.728 340.553 246.008 338.782 254.995 336.862C263.983 334.942 271.297 333.353 271.331 333.535Z" fill="#E0E0E0"/>
<path d="M258.763 343.508L253.258 344.686L255.848 355.834L261.354 354.656L258.763 343.508Z" fill="#FAFAFA"/>
<path d="M276.558 356.03C276.558 356.146 269.313 357.801 260.325 359.721C251.338 361.641 244.024 363.032 243.989 363.032C243.955 363.032 251.235 361.261 260.222 359.341C269.209 357.42 276.523 355.898 276.558 356.03Z" fill="#E0E0E0"/>
<path d="M263.948 366.026L258.442 367.203L261.031 378.351L266.537 377.174L263.948 366.026Z" fill="#FAFAFA"/>
<path d="M281.768 378.508C281.768 378.624 274.54 380.279 265.553 382.199C256.565 384.12 249.234 385.51 249.217 385.51C249.2 385.51 256.445 383.739 265.449 381.819C274.454 379.899 281.751 378.392 281.768 378.508Z" fill="#E0E0E0"/>
<path d="M269.226 388.448L263.721 389.626L266.311 400.774L271.817 399.596L269.226 388.448Z" fill="#FAFAFA"/>
<path d="M286.994 400.986C286.994 401.102 279.749 402.758 270.761 404.678C261.774 406.598 254.46 408.071 254.442 407.988C254.425 407.906 261.67 406.217 270.658 404.297C279.645 402.377 286.959 400.871 286.994 400.986Z" fill="#E0E0E0"/>
<path d="M274.439 410.939L268.934 412.117L271.524 423.264L277.03 422.087L274.439 410.939Z" fill="#FAFAFA"/>
<path d="M393.117 348.165L296.165 357.074L308.411 479.78L405.362 470.871L393.117 348.165Z" fill="#EBEBEB"/>
<path d="M393.124 348.153L347.67 352.329L359.916 475.036L405.369 470.859L393.124 348.153Z" fill="#E0E0E0"/>
<path d="M326.885 371.009L318.162 371.811L320.19 392.127L328.913 391.326L326.885 371.009Z" fill="#F5F5F5"/>
<path d="M334.822 450.566L326.099 451.367L328.126 471.684L336.849 470.882L334.822 450.566Z" fill="#F5F5F5"/>
<path d="M352.149 397.246C352.149 397.478 340.66 398.719 326.446 400.027C312.231 401.335 300.691 402.212 300.57 401.98C300.45 401.748 312.059 400.507 326.273 399.199C340.487 397.892 352.131 397.014 352.149 397.246Z" fill="#F5F5F5"/>
<path d="M330.882 411.082L322.159 411.884L324.187 432.2L332.91 431.399L330.882 411.082Z" fill="#F5F5F5"/>
<path d="M356.15 437.32C356.15 437.551 344.662 438.793 330.447 440.1C316.233 441.408 304.675 442.285 304.572 442.054C304.468 441.822 316.061 440.58 330.275 439.273C344.489 437.965 356.133 437.088 356.15 437.32Z" fill="#F5F5F5"/>
<path d="M367.712 367.26L358.988 368.062L361.016 388.378L369.739 387.577L367.712 367.26Z" fill="#F5F5F5"/>
<path d="M386.601 365.538L377.878 366.34L379.905 386.656L388.629 385.855L386.601 365.538Z" fill="#F5F5F5"/>
<path d="M371.541 405.83L362.817 406.632L364.845 426.948L373.568 426.147L371.541 405.83Z" fill="#F5F5F5"/>
<path d="M390.464 404.075L381.741 404.877L383.769 425.193L392.492 424.392L390.464 404.075Z" fill="#F5F5F5"/>
<path d="M375.389 444.4L366.666 445.201L368.694 465.518L377.417 464.716L375.389 444.4Z" fill="#F5F5F5"/>
<path d="M394.313 442.644L385.59 443.445L387.617 463.762L396.341 462.96L394.313 442.644Z" fill="#F5F5F5"/>
<path d="M399.98 343.225L288.449 353.474L288.892 357.906L400.422 347.658L399.98 343.225Z" fill="#E0E0E0"/>
<path d="M393.86 348.664C393.86 348.896 372.245 351.064 345.559 353.514C318.873 355.964 297.137 357.784 297.12 357.553C297.103 357.321 318.752 355.153 345.421 352.703C372.09 350.253 393.843 348.432 393.86 348.664Z" fill="#EBEBEB"/>
<path d="M308.092 483.352L218.287 521.44L155.186 385.427L244.973 347.339L308.092 483.352Z" fill="#EBEBEB"/>
<path d="M244.958 347.354L200.053 366.395L262.769 502.582L307.674 483.542L244.958 347.354Z" fill="#E0E0E0"/>
<path d="M184.783 340.842L153.068 354.289L165.416 381.103L197.131 367.655L184.783 340.842Z" fill="#EBEBEB"/>
<path d="M184.788 340.836L177.23 344.041L189.578 370.855L197.136 367.65L184.788 340.836Z" fill="#E0E0E0"/>
<path d="M246.878 344.687L146.969 387.05L147.687 388.61L247.596 346.247L246.878 344.687Z" fill="#E0E0E0"/>
<path d="M185.861 386.395L178.256 389.62L185.34 405.002L192.945 401.778L185.861 386.395Z" fill="white"/>
<path d="M215.319 399.563C215.405 399.729 205.4 404.132 193.014 409.379C180.628 414.626 170.589 418.781 170.416 418.615C170.244 418.45 180.335 414.063 192.738 408.8C205.141 403.536 215.25 399.332 215.319 399.563Z" fill="#E0E0E0"/>
<path d="M231.164 367.194L223.559 370.419L230.642 385.802L238.248 382.577L231.164 367.194Z" fill="#F5F5F5"/>
<path d="M260.617 380.279C260.617 380.445 250.698 384.831 238.295 390.095C225.892 395.359 215.87 399.481 215.715 399.315C215.559 399.149 225.634 394.763 238.037 389.499C250.44 384.236 260.531 380.114 260.617 380.279Z" fill="#EBEBEB"/>
<path d="M245.218 397.715L237.612 400.94L244.696 416.322L252.301 413.098L245.218 397.715Z" fill="#F5F5F5"/>
<path d="M274.678 410.819C274.678 410.985 264.759 415.371 252.356 420.635C239.953 425.899 229.93 430.02 229.775 429.855C229.62 429.689 239.694 425.303 252.097 420.039C264.5 414.775 274.609 410.653 274.678 410.819Z" fill="#EBEBEB"/>
<path d="M259.719 429.186L252.114 432.411L259.198 447.793L266.803 444.568L259.719 429.186Z" fill="#F5F5F5"/>
<path d="M289.168 442.269C289.168 442.435 279.249 446.821 266.846 452.085C254.443 457.348 244.334 461.47 244.265 461.305C244.196 461.139 254.184 456.753 266.587 451.489C278.99 446.225 289.081 442.103 289.168 442.269Z" fill="#EBEBEB"/>
<path d="M274.181 460.649L266.576 463.874L273.66 479.256L281.265 476.031L274.181 460.649Z" fill="#F5F5F5"/>
<path d="M303.657 473.719C303.657 473.885 293.738 478.288 281.335 483.535C268.932 488.782 258.823 492.92 258.754 492.771C258.685 492.622 268.673 488.203 281.076 482.956C293.479 477.708 303.571 473.554 303.657 473.719Z" fill="#EBEBEB"/>
<path d="M200.151 417.391L192.546 420.615L199.63 435.998L207.235 432.773L200.151 417.391Z" fill="white"/>
<path d="M229.603 430.484C229.603 430.649 219.684 435.036 207.281 440.299C194.878 445.563 184.855 449.685 184.7 449.536C184.545 449.387 194.619 444.967 207.022 439.72C219.425 434.473 229.534 430.318 229.603 430.484Z" fill="#E0E0E0"/>
<path d="M214.408 448.409L206.803 451.634L213.887 467.016L221.492 463.791L214.408 448.409Z" fill="white"/>
<path d="M243.885 461.487C243.885 461.652 233.966 466.038 221.563 471.302C209.16 476.566 199.052 480.688 198.983 480.522C198.914 480.357 208.902 475.97 221.287 470.706C233.673 465.443 243.799 461.321 243.885 461.487Z" fill="#E0E0E0"/>
<path d="M228.698 479.421L221.093 482.646L228.177 498.029L235.782 494.804L228.698 479.421Z" fill="white"/>
<path d="M258.15 492.49C258.15 492.656 248.249 497.042 235.846 502.306C223.443 507.57 213.334 511.691 213.265 511.526C213.196 511.36 223.167 506.974 235.57 501.71C247.973 496.446 258.081 492.258 258.15 492.49Z" fill="#E0E0E0"/>
<path d="M632.292 451.356L595.497 492.738C595.307 492.95 595.163 493.195 595.072 493.46C594.981 493.726 594.946 494.006 594.968 494.284C594.991 494.563 595.07 494.834 595.203 495.083C595.335 495.332 595.517 495.553 595.739 495.734L686.354 569.807C686.576 569.991 686.834 570.131 687.113 570.218C687.392 570.305 687.686 570.338 687.978 570.315C688.271 570.292 688.555 570.213 688.815 570.083C689.076 569.953 689.306 569.775 689.494 569.559L702.759 554.214C703.052 553.865 703.227 553.437 703.26 552.99L705.071 525.727C705.094 525.401 705.037 525.074 704.906 524.772C704.774 524.47 704.571 524.202 704.312 523.989L689.442 511.641C689.002 511.274 688.732 510.754 688.69 510.196C688.648 509.638 688.838 509.086 689.218 508.662L694.772 502.388C694.962 502.178 695.106 501.934 695.197 501.67C695.287 501.406 695.322 501.127 695.3 500.85C695.277 500.573 695.198 500.303 695.066 500.056C694.934 499.808 694.752 499.588 694.531 499.409L635.5 451.125C635.278 450.929 635.016 450.78 634.732 450.685C634.447 450.591 634.145 450.553 633.844 450.575C633.543 450.597 633.251 450.677 632.984 450.811C632.717 450.946 632.481 451.131 632.292 451.356Z" fill="#F5F5F5"/>
<path d="M688.685 517.335L676.886 530.577C676.682 530.818 676.584 531.126 676.613 531.435C676.642 531.744 676.796 532.03 677.041 532.232L697.328 548.239C697.505 548.377 697.718 548.466 697.944 548.498C698.17 548.53 698.401 548.503 698.612 548.42C698.824 548.337 699.008 548.201 699.146 548.027C699.284 547.852 699.371 547.645 699.398 547.428L701.882 526.671C701.905 526.47 701.877 526.266 701.798 526.079C701.72 525.891 701.595 525.725 701.433 525.595L690.531 517.17C690.402 517.058 690.25 516.973 690.084 516.92C689.919 516.867 689.744 516.848 689.57 516.864C689.397 516.879 689.229 516.929 689.076 517.01C688.924 517.091 688.791 517.202 688.685 517.335Z" fill="#EBEBEB"/>
<path d="M688.677 573.907L591.155 494.153L588.593 497.038L686.115 576.792L688.677 573.907Z" fill="#F5F5F5"/>
<path d="M622.391 521.655C620.766 523.488 618.61 524.816 616.197 525.473C613.785 526.129 611.223 526.085 608.837 525.344C606.451 524.604 604.347 523.202 602.792 521.314C601.236 519.426 600.299 517.139 600.099 514.74C599.899 512.341 600.444 509.939 601.667 507.838C602.889 505.737 604.733 504.031 606.966 502.936C609.199 501.84 611.721 501.405 614.211 501.685C616.702 501.964 619.051 502.946 620.96 504.507C622.229 505.542 623.273 506.806 624.032 508.229C624.791 509.651 625.25 511.203 625.383 512.796C625.516 514.389 625.32 515.992 624.807 517.512C624.294 519.032 623.473 520.44 622.391 521.655Z" fill="#EBEBEB"/>
<path d="M618.424 518.411C617.467 519.492 616.197 520.275 614.776 520.663C613.354 521.051 611.845 521.025 610.439 520.59C609.032 520.154 607.792 519.328 606.875 518.216C605.958 517.104 605.406 515.756 605.288 514.343C605.169 512.929 605.491 511.514 606.211 510.276C606.931 509.038 608.018 508.032 609.333 507.387C610.649 506.742 612.135 506.485 613.603 506.65C615.07 506.815 616.454 507.394 617.578 508.314C619.085 509.546 620.02 511.302 620.178 513.195C620.337 515.088 619.706 516.964 618.424 518.411Z" fill="#FAFAFA"/>
<path d="M656.374 545.375C656.133 545.177 664.827 535.013 675.781 522.682C686.735 510.35 695.808 500.518 696.05 500.716C696.291 500.915 687.614 511.078 676.66 523.41C665.706 535.742 656.633 545.574 656.374 545.375Z" fill="#EBEBEB"/>
<path d="M674.935 564.643C673.307 566.473 671.151 567.8 668.737 568.455C666.324 569.109 663.762 569.062 661.377 568.32C658.991 567.578 656.889 566.173 655.335 564.284C653.782 562.395 652.847 560.106 652.649 557.707C652.451 555.308 652.999 552.907 654.224 550.807C655.448 548.707 657.294 547.002 659.528 545.909C661.762 544.816 664.284 544.383 666.775 544.665C669.265 544.947 671.613 545.932 673.52 547.494C674.79 548.529 675.835 549.794 676.594 551.217C677.352 552.64 677.811 554.193 677.942 555.786C678.074 557.38 677.876 558.982 677.359 560.502C676.843 562.022 676.019 563.429 674.935 564.643Z" fill="#EBEBEB"/>
<path d="M670.969 561.398C670.01 562.472 668.742 563.248 667.324 563.631C665.906 564.013 664.402 563.983 663.001 563.545C661.601 563.107 660.367 562.281 659.455 561.171C658.544 560.06 657.996 558.716 657.88 557.307C657.765 555.898 658.087 554.488 658.806 553.254C659.525 552.021 660.609 551.02 661.921 550.377C663.233 549.734 664.714 549.479 666.177 549.644C667.64 549.808 669.019 550.385 670.141 551.301C670.887 551.911 671.501 552.657 671.947 553.495C672.393 554.333 672.662 555.247 672.739 556.185C672.816 557.123 672.699 558.066 672.395 558.961C672.091 559.856 671.607 560.684 670.969 561.398Z" fill="#FAFAFA"/>
<path d="M680.492 539.698C680.285 539.93 678.767 538.986 677.042 537.596C675.317 536.205 674.109 534.881 674.316 534.649C674.523 534.418 676.041 535.361 677.766 536.751C679.491 538.142 680.699 539.466 680.492 539.698Z" fill="#EBEBEB"/>
<path d="M91.2201 440.1C88.4457 436.571 84.86 433.703 80.7421 431.721C76.6241 429.738 72.0849 428.694 67.4777 428.669C62.8704 428.645 58.3195 429.641 54.1789 431.579C50.0382 433.518 46.4197 436.347 43.6047 439.847C40.7898 443.347 38.8543 447.423 37.949 451.758C37.0437 456.093 37.193 460.569 38.3852 464.84C39.5774 469.11 41.7803 473.059 44.8227 476.379C47.865 479.699 51.6647 482.301 55.926 483.982H56.064C58.1512 484.809 60.135 485.024 62.5156 485.753L90.2886 493.317C91.0917 493.537 91.9369 493.575 92.758 493.429C93.5792 493.283 94.3541 492.957 95.0222 492.476C95.6902 491.996 96.2334 491.373 96.6092 490.658C96.9851 489.942 97.1834 489.153 97.1887 488.351V461.106C97.3227 458.796 97.3227 456.48 97.1887 454.17V454.071C96.5333 448.987 94.4726 444.163 91.2201 440.1ZM75.2635 467.429C73.1839 468.937 70.6849 469.819 68.0825 469.965C65.4802 470.11 62.8914 469.511 60.6436 468.245C58.3958 466.978 56.5899 465.1 55.4544 462.849C54.3189 460.597 53.9047 458.073 54.2642 455.596C54.6237 453.118 55.7408 450.799 57.4742 448.93C59.2076 447.062 61.4794 445.729 64.0023 445.1C66.5253 444.471 69.186 444.574 71.648 445.396C74.11 446.218 76.2627 447.722 77.8338 449.718C79.9402 452.393 80.8528 455.763 80.3708 459.084C79.8888 462.405 78.0517 465.407 75.2635 467.429Z" fill="#F5F5F5"/>
<path d="M177.471 98.1891C175.671 92.4309 172.511 87.1486 168.237 82.7533C163.963 78.3579 158.69 74.968 152.828 72.8472C146.965 70.7264 140.672 69.9319 134.438 70.5254C128.204 71.119 122.196 73.0847 116.882 76.2695C111.569 79.4544 107.093 83.7725 103.802 88.8881C100.511 94.0037 98.4949 99.7787 97.9096 105.764C97.3243 111.749 98.1858 117.784 100.427 123.397C102.669 129.011 106.23 134.053 110.833 138.131L110.988 138.246C113.248 140.233 115.663 141.425 118.354 143.411L150.06 165.625C150.982 166.267 152.047 166.695 153.171 166.875C154.295 167.054 155.447 166.981 156.536 166.659C157.626 166.338 158.622 165.779 159.447 165.024C160.272 164.27 160.903 163.342 161.29 162.314L174.642 127.553C175.962 124.671 177.113 121.72 178.092 118.714V118.582C179.785 111.853 179.571 104.812 177.471 98.1891ZM143.54 125.782C140.146 126.767 136.525 126.763 133.134 125.772C129.742 124.782 126.733 122.848 124.487 120.216C122.241 117.585 120.859 114.373 120.515 110.987C120.171 107.602 120.882 104.194 122.556 101.196C124.231 98.1979 126.794 95.7435 129.922 94.1433C133.051 92.5431 136.603 91.869 140.131 92.2063C143.658 92.5435 147.002 93.8769 149.74 96.0379C152.478 98.1989 154.486 101.09 155.511 104.347C156.886 108.713 156.396 113.424 154.151 117.443C151.906 121.463 148.089 124.463 143.54 125.782Z" fill="#EBEBEB"/>
<path d="M391.462 72.8139C392.273 67.2192 384.027 62.601 377.834 62.1209C374.885 61.9058 371.814 62.3361 369.019 61.3926C362.965 59.3732 360.532 51.8583 354.615 49.4582C350.199 47.6705 345.111 49.2595 340.815 51.3286C336.52 53.3977 332.294 56.013 327.498 56.2944C323.341 56.5427 318.873 55.0695 315.164 57.0062C312.456 58.4628 311.024 61.4754 308.523 63.2465C305.932 64.7752 302.938 65.5567 299.897 65.4977C296.848 65.4338 293.813 65.9108 290.945 66.9047C288.185 68.113 285.89 70.927 286.459 73.7906L391.462 72.8139Z" fill="#EBEBEB"/>
<path d="M148.578 292.385C148.009 288.76 142.006 287.336 138.055 288.114C136.238 288.711 134.348 289.078 132.432 289.207C128.274 289.008 125.342 284.754 121.202 284.241C118.114 283.893 115.233 285.78 112.973 287.816C110.714 289.852 108.557 292.219 105.625 293.246C103.089 294.14 99.9839 294.007 98.0863 295.861C96.6718 297.235 96.3613 299.354 95.1365 300.91C93.8108 302.323 92.0844 303.336 90.1684 303.823C88.2583 304.312 86.4615 305.144 84.8726 306.273C84.0878 306.849 83.519 307.655 83.2516 308.568C82.9841 309.481 83.0323 310.453 83.3891 311.338L148.578 292.385Z" fill="#F5F5F5"/>
<path d="M638.055 352.405C639.487 347.737 633.087 342.804 627.878 341.646C625.394 341.083 622.703 341.083 620.477 339.991C615.596 337.524 614.526 330.837 609.817 328.089C606.367 326.02 601.761 326.748 597.828 327.99C593.895 329.231 589.962 330.92 585.856 330.589C582.285 330.291 578.628 328.486 575.264 329.695C572.763 330.605 571.159 333.005 568.795 334.181C566.373 335.18 563.699 335.479 561.102 335.041C558.519 334.61 555.875 334.644 553.305 335.141C552.027 335.422 550.877 336.091 550.026 337.048C549.175 338.004 548.667 339.199 548.578 340.454L638.055 352.405Z" fill="#F5F5F5"/>
<path d="M566.861 721.76C566.568 717.903 569.949 714.477 573.675 712.822C577.401 711.166 581.593 710.604 585.423 709.114C586.941 708.501 588.631 707.459 588.683 705.903C588.683 703.585 585.319 702.592 584.439 700.49C583.508 698.057 586.164 695.806 587.234 693.422C589.614 688.009 583.68 682.547 577.919 680.329C572.157 678.111 565.291 676.522 562.618 671.225C561.639 668.677 561.012 666.017 560.755 663.313C559.409 656.692 554.234 650.17 547.144 649.061C540.054 647.952 532.067 654.027 533.223 660.648C533.93 664.356 536.828 667.269 538.398 670.579C539.968 673.89 539.571 679.087 535.845 680.196C529.739 681.968 523.856 671.357 518.733 674.999C520.837 681.802 522.873 688.589 524.96 695.441C516.939 699.315 507.33 692.296 503.898 684.335C500.465 676.373 500.344 667.385 496.273 659.754C492.202 652.123 481.196 646.396 474.21 651.809C473.865 661.641 487.544 665.614 493.599 673.575C497.964 679.319 497.325 688.655 490.856 692.296C484.388 695.938 474.279 689.598 476.711 682.911C477.591 680.594 479.626 678.657 479.851 676.158C480.092 673.079 477.349 670.579 474.848 668.593C470.95 665.448 467.051 662.353 463.152 659.257C460.757 657.082 457.929 655.393 454.838 654.292C446.799 652.074 438.778 658.264 434.517 665.067C430.256 671.87 427.893 679.965 422.01 685.609C413.575 693.885 397.567 694.399 389.649 685.725C381.731 677.051 385.75 660.896 397.446 657.668C401.879 656.51 407.451 656.609 409.797 652.901C413.868 646.28 402.224 638.004 406.244 631.383C409.314 626.301 417.474 628.618 423.408 626.897C429.342 625.175 432.602 619.548 436.087 614.698C439.571 609.848 444.936 605.031 450.991 606.289C450.525 602.978 450.059 599.287 451.629 596.241C453.199 593.196 457.632 591.16 460.53 593.146C457.563 597.797 461.117 604.253 466.292 606.57C471.467 608.888 477.522 608.341 483.232 607.729C488.942 607.117 496.1 605.081 496.566 599.668C496.739 597.897 496.031 596.026 496.739 594.371C499.24 587.899 511.815 596.788 516.646 591.607C519.44 588.892 516.352 584.092 512.454 583.198C508.555 582.304 504.588 583.645 500.637 583.761C496.687 583.877 491.84 581.94 491.667 578.183C491.495 574.425 495.859 571.826 496.325 568.251C497.084 562.06 485.975 560.455 482.128 565.487C478.281 570.519 479.626 577.421 480.782 583.546C481.938 589.67 482.593 596.92 477.815 601.224C475.78 604.154 470.484 602.614 468.741 599.569C466.999 596.523 467.344 592.716 467.016 589.24C466.689 585.764 465.102 581.725 461.496 580.781C458.995 580.119 456.321 581.278 453.751 581.609C443.625 582.768 436.587 570.337 439.778 561.166C442.97 551.996 452.112 546.037 461.031 541.303C467.551 537.877 475.642 534.682 482.093 538.158C485.112 539.814 487.268 542.512 490.184 544.183C495.359 547.047 501.655 546.004 507.52 546.104C516.817 546.348 525.747 549.636 532.826 555.423C535.448 557.69 537.881 561.448 535.845 564.162C533.81 566.877 527.306 567.638 528.41 571.015C535.31 573.167 543.47 568.135 544.229 561.348C545.911 562.065 547.363 563.199 548.437 564.633C549.51 566.068 550.166 567.751 550.335 569.509C557.736 562.391 571.933 563.434 577.936 571.677C579.557 573.829 580.73 576.428 583.111 577.918C585.492 579.407 589.511 578.629 589.804 576.031C589.856 575.195 589.696 574.361 589.338 573.597C587.941 569.84 586.492 566.149 585.095 562.441C590.494 559.677 596.894 563.997 600.62 568.632C614.231 585.929 623.96 575.534 643.159 578.348C656.149 580.235 661.841 588.131 669.173 597.682C691.598 627.079 721.32 651.163 741.745 681.885C743.901 685.079 745.885 688.34 747.748 691.651C747.403 690.823 747.11 689.996 746.747 689.168C738.762 669.217 728.827 650.035 717.077 631.879C714.576 628.023 712.005 624.199 709.4 620.441C707.762 618.124 706.071 615.757 704.381 613.489C702.242 610.51 699.965 607.63 697.688 604.766C695.962 602.432 694.082 600.181 692.219 597.963C690.943 596.424 689.597 594.868 688.269 593.328C686.941 591.789 685.354 589.852 683.732 588.131L678.833 582.768C678.367 582.221 677.85 581.675 677.263 581.112C675.538 579.242 673.813 577.421 671.967 575.6C671.842 575.377 671.665 575.185 671.45 575.038C670.984 574.541 670.467 574.044 669.932 573.548C668.483 572.008 666.913 570.502 665.395 569.012C662.894 566.596 660.323 564.162 657.719 561.845C655.562 559.793 653.354 557.856 651.077 555.919C649.093 554.264 647.127 552.509 645.091 550.838C643.056 549.166 641.124 547.527 639.088 545.988C636.639 544.001 634.137 542.065 631.584 540.128C624.546 534.765 617.295 529.7 609.832 524.933C607.969 523.724 606.157 522.566 604.294 521.407C602.431 520.248 600.517 519.073 598.654 517.981C596.79 516.888 594.876 515.713 592.944 514.67C591.012 513.627 589.114 512.469 587.182 511.36C585.612 510.466 584.112 509.704 582.525 508.86C581.757 508.397 580.962 507.977 580.144 507.602C576.832 505.831 573.451 504.109 570.07 502.52C568.345 501.693 566.706 500.865 564.895 500.087C562.756 499.028 560.53 498.035 558.322 497.108C558.01 496.929 557.681 496.78 557.339 496.661C555.355 495.767 553.389 494.89 551.336 494.062C548.49 492.903 545.643 491.745 542.711 490.636C539.451 489.361 536.19 488.103 532.861 486.928C529.204 485.604 525.529 484.346 521.803 483.187C518.077 482.028 514.3 480.803 510.522 479.694C506.744 478.585 502.949 477.592 499.102 476.599C491.546 474.679 483.87 472.957 476.125 471.468C475.984 471.437 475.846 471.398 475.711 471.352C472.744 470.806 469.777 470.259 466.809 469.812C466.619 469.755 466.422 469.716 466.223 469.697C464.946 469.481 463.618 469.266 462.273 469.101C456.735 468.207 451.163 467.445 445.505 466.883C444.832 466.775 444.152 466.703 443.47 466.667C441.848 466.436 440.209 466.336 438.519 466.171C434.81 465.84 431.084 465.558 427.289 465.343C423.494 465.128 419.44 464.896 415.473 464.78C411.505 464.665 407.21 464.565 403.087 464.565C392.15 464.565 381.323 465.023 370.605 465.939C368.051 466.105 365.55 466.336 363.049 466.601C360.548 466.866 357.874 467.164 355.183 467.495C352.492 467.826 350.008 468.157 347.386 468.538C344.764 468.919 342.211 469.316 339.588 469.763C337.38 470.094 335.103 470.474 332.895 470.921C327.427 471.915 322.01 473.007 316.663 474.232C314.162 474.778 311.66 475.391 309.159 476.053C306.658 476.715 304.139 477.327 301.707 477.989C297.567 479.098 293.547 480.307 289.545 481.515C286.285 482.574 282.973 483.617 279.782 484.677C279.692 484.685 279.608 484.72 279.54 484.776C276.228 485.885 273.02 487.044 269.759 488.269L269.242 488.434C266.275 489.527 263.308 490.685 260.392 491.861C256.718 493.284 253.113 494.84 249.559 496.379C246.54 497.704 243.573 499.028 240.658 500.418C237.743 501.809 234.379 503.398 231.291 504.937L230.946 505.119C227.979 506.609 225.012 508.148 222.097 509.754C219.181 511.36 216.111 513.064 213.144 514.72C210.349 516.375 207.624 517.914 204.881 519.57C203.829 520.182 202.845 520.844 201.793 521.506C198.895 523.277 196.101 525.098 193.168 526.969C189.718 529.236 186.268 531.62 182.939 533.987C179.954 536.089 177.056 538.241 174.193 540.393C157.748 552.862 142.448 566.663 128.462 581.642C123.511 586.823 118.854 592.136 114.317 597.549C110.47 602.184 106.744 606.885 103.19 611.751C104.122 611.635 105.071 611.52 105.985 611.47C111.16 611.089 116.766 611.255 121.51 609.086C125.875 607.05 128.962 603.343 132.913 600.694C143.039 593.841 159.633 592.567 162.359 581.079C163.29 577.222 162.186 573.018 163.704 569.31C166.551 562.408 176.28 561.415 184.077 561.531C187.389 561.531 191.288 561.977 192.806 564.725C193.91 566.662 193.271 569.095 192.443 571.148C187.544 584.171 178.112 595.174 165.74 602.3C155.614 608.159 142.4 612.678 139.606 623.62C141.003 627.327 148.11 627.046 148.679 630.919C149.093 633.998 144.902 635.604 143.384 638.368C141.176 642.407 146.247 647.323 151.077 647.091C155.907 646.859 159.927 643.565 163.463 640.47C174.055 631.134 185.181 621.07 189.011 607.828C190.736 602.349 191.236 595.944 195.911 592.302C201.448 587.982 211.35 590.978 213.161 597.549C217.75 595.116 224.909 593.295 227.289 597.831C228.117 599.486 227.876 601.307 228.29 603.012C229.79 610.079 239.985 613.291 241.038 620.408C242.245 628.685 231.136 632.906 222.459 634.18C214.61 635.339 206.744 636.497 198.895 637.706C195.435 637.943 192.083 638.964 189.114 640.685C186.32 642.672 184.577 646.429 186.199 649.359C187.387 650.844 188.76 652.184 190.287 653.348C196.808 659.522 191.443 672.284 182.249 672.566C179.109 672.682 176.021 671.573 172.882 671.457C163.566 671.076 156.183 678.856 151.75 686.652C147.317 694.448 144.005 703.337 136.57 708.634C124.495 717.192 103.915 715.255 98.1015 728.365C95.7727 733.662 96.9803 739.62 97.9118 745.315C98.067 746.208 98.1878 747.135 98.3085 748.062H354.13C359.461 746.026 365.24 744.52 369.794 741.276C380.282 733.827 381.679 719.625 388.286 708.899C394.893 698.173 415.524 693.654 418.629 705.787C440.503 661.36 488.838 727.305 517.577 722.339C525.926 720.899 534.068 717.092 542.469 718.218C556.942 720.138 564.584 734.92 569.639 748.013H581.714C580.334 743.411 580.403 738.346 577.591 734.439C574.227 729.937 567.327 727.305 566.861 721.76ZM371.76 524.535C369.501 529.501 370.518 535.758 367.051 540.095C364.291 543.521 359.513 544.746 355.096 545.739L327.289 552.013C323.121 552.744 319.091 554.072 315.335 555.952C308.055 560.091 304.174 567.903 298.55 573.928C292.926 579.954 282.852 584.274 276.211 579.258C274.705 577.953 273.487 576.37 272.63 574.605C271.774 572.839 271.296 570.926 271.226 568.979C270.723 563.379 272.114 557.772 275.193 552.989C278.35 548.024 283.197 544.233 285.871 539.085C288.545 533.937 288.01 526.373 282.421 523.956C279.454 522.648 275.711 523.162 273.071 521.324C268.327 518.014 271.726 510.168 277.229 508.181C282.732 506.195 288.855 507.751 294.738 508.099C316.042 509.39 331.722 496.148 347.748 485.14C360.22 476.582 386.768 466.469 401.224 475.209C406.968 478.701 409.228 487.673 403.811 491.612C401.379 493.367 398.033 493.764 395.773 495.717C393.064 498.068 392.685 501.908 391.132 505.069C387.148 513.247 375.504 516.226 371.76 524.535Z" fill="#455A64"/>
<g opacity="0.3">
<path d="M367.05 540.095C370.5 535.758 369.5 529.551 371.76 524.536C375.503 516.259 387.147 513.247 391.184 505.07C392.736 501.908 393.116 498.068 395.824 495.717C398.084 493.764 401.43 493.367 403.863 491.612C409.279 487.673 407.019 478.701 401.275 475.209C386.854 466.469 360.306 476.583 347.799 485.14C331.774 496.148 316.093 509.39 294.789 508.099C288.906 507.751 282.8 506.212 277.28 508.181C271.76 510.151 268.379 517.997 273.122 521.324C275.762 523.162 279.505 522.648 282.472 523.956C287.975 526.373 288.527 533.888 285.922 539.085C283.317 544.283 278.401 548.09 275.244 552.99C272.165 557.772 270.774 563.379 271.277 568.979C271.347 570.926 271.825 572.839 272.682 574.605C273.538 576.37 274.756 577.953 276.262 579.259C282.903 584.224 292.995 579.97 298.601 573.929C304.208 567.887 308.106 560.091 315.386 555.952C319.142 554.072 323.172 552.744 327.34 552.013L355.148 545.739C359.512 544.746 364.29 543.571 367.05 540.095Z" fill="black"/>
<path d="M542.471 718.234C534.07 717.109 525.928 720.916 517.578 722.356C488.839 727.322 440.504 661.31 418.631 705.803C415.577 693.72 394.894 698.272 388.287 708.998C381.681 719.724 380.283 733.926 369.795 741.375C365.241 744.686 359.445 746.126 354.132 748.162H569.64C564.585 734.936 556.978 720.155 542.471 718.234Z" fill="black"/>
<path d="M241.021 620.441C239.968 613.324 229.773 610.113 228.273 603.045C227.859 601.389 228.1 599.453 227.272 597.864C224.892 593.328 217.733 595.149 213.144 597.582C211.281 590.961 201.379 588.015 195.894 592.335C191.253 595.977 190.719 602.382 188.994 607.861C185.164 621.104 174.038 631.168 163.446 640.503C159.996 643.599 155.89 646.909 151.06 647.124C146.23 647.339 141.159 642.44 143.367 638.401C144.885 635.637 149.077 634.031 148.663 630.952C148.093 627.079 140.986 627.36 139.589 623.653C142.383 612.711 155.597 608.192 165.723 602.333C178.095 595.207 187.527 584.204 192.427 571.181C193.255 569.128 193.893 566.695 192.789 564.758C191.271 562.011 187.372 561.564 184.06 561.564C176.263 561.448 166.534 562.441 163.688 569.343C162.17 573.051 163.274 577.256 162.342 581.112C159.616 592.6 143.022 593.874 132.896 600.727C128.945 603.376 125.858 607.083 121.493 609.119C116.784 611.288 111.247 611.122 105.968 611.503C105.054 611.503 104.105 611.669 103.173 611.784C99.9994 615.967 96.9231 620.265 93.9446 624.679C90.966 629.093 88.091 633.535 85.3194 638.004C72.1823 659.339 61.4937 681.977 53.4408 705.522C50.5888 713.787 48.0703 722.179 45.8852 730.699C44.4132 736.437 43.1022 742.236 41.9521 748.095H43.6772C44.8329 744.255 45.6955 740.415 46.42 737.071C46.6097 736.227 46.7822 735.416 46.9547 734.638C48.8868 726.362 51.7331 717.572 58.5469 711.977C65.3608 706.383 77.298 705.787 82.5939 712.706C86.3717 717.672 85.5092 724.475 84.5259 730.55C83.5426 736.624 82.5939 742.203 81.6106 748.095H98.2916C98.1709 747.168 98.0501 746.241 97.8949 745.348C96.9634 739.654 95.7558 733.761 98.0846 728.398C103.898 715.156 124.564 717.225 136.553 708.667C143.988 703.37 147.317 694.465 151.733 686.685C156.149 678.905 163.55 671.109 172.865 671.49C176.004 671.606 179.092 672.715 182.232 672.599C191.426 672.317 196.791 659.555 190.27 653.381C188.743 652.217 187.37 650.877 186.182 649.392C184.56 646.462 186.303 642.771 189.097 640.718C192.066 638.997 195.418 637.976 198.878 637.739C206.727 636.531 214.593 635.372 222.442 634.213C231.119 632.955 242.228 628.685 241.021 620.441Z" fill="black"/>
<path d="M757.08 718.615C755.7 714.063 754.251 709.544 752.698 705.059C751.146 700.573 749.507 696.137 747.765 691.717C745.902 688.407 743.918 685.096 741.762 681.951C721.337 651.229 691.736 627.145 669.19 597.748C661.858 588.197 656.166 580.301 643.176 578.414C623.977 575.6 614.248 585.995 600.637 568.698C596.963 564.063 590.563 559.743 585.112 562.507C586.509 566.215 587.958 569.906 589.355 573.664C589.713 574.427 589.873 575.262 589.821 576.097C589.528 578.696 585.457 579.407 583.128 577.984C580.799 576.56 579.678 573.895 577.953 571.744C571.898 563.467 557.701 562.458 550.352 569.575C550.183 567.817 549.527 566.134 548.454 564.699C547.38 563.265 545.928 562.131 544.246 561.415C543.487 568.201 535.293 573.233 528.427 571.081C527.323 567.771 533.602 567.092 535.862 564.229C538.122 561.365 535.465 557.757 532.843 555.489C525.761 549.693 516.825 546.398 507.52 546.153C501.655 546.054 495.307 547.097 490.183 544.233C487.216 542.578 485.112 539.814 482.093 538.208C475.641 534.732 467.551 537.927 461.03 541.353C452.112 546.054 442.918 551.963 439.778 561.216C436.638 570.469 443.625 582.735 453.751 581.659C456.304 581.328 458.926 580.169 461.496 580.831C465.101 581.775 466.671 585.797 467.016 589.289C467.361 592.782 466.895 596.523 468.741 599.618C470.587 602.714 475.779 604.253 477.815 601.273C482.593 596.97 482.007 589.687 480.782 583.595C479.557 577.504 478.281 570.552 482.127 565.536C485.974 560.521 497.083 562.11 496.324 568.301C495.859 571.942 491.494 574.591 491.667 578.232C491.839 581.874 496.669 583.976 500.637 583.81C504.605 583.645 508.607 582.321 512.454 583.248C516.3 584.175 519.44 588.942 516.645 591.656C511.815 596.837 499.24 587.949 496.738 594.421C496.031 596.076 496.739 597.946 496.566 599.718C496.1 605.13 488.941 607.117 483.231 607.779C477.522 608.441 471.484 608.937 466.292 606.62C461.099 604.303 457.563 597.847 460.53 593.196C457.632 591.21 453.199 593.196 451.629 596.291C450.059 599.387 450.525 602.912 450.991 606.339C444.936 605.081 439.519 609.931 436.086 614.747C432.654 619.564 429.29 625.242 423.407 626.947C417.525 628.652 409.314 626.351 406.243 631.432C402.224 638.053 413.868 646.446 409.797 652.951C407.451 656.659 401.879 656.559 397.446 657.718C385.75 660.863 381.679 677.101 389.649 685.775C397.618 694.448 413.575 693.952 422.01 685.659C427.893 679.965 430.273 671.97 434.517 665.117C438.76 658.264 446.799 652.123 454.838 654.341C457.929 655.443 460.757 657.132 463.152 659.307C467.051 662.402 470.949 665.498 474.848 668.643C477.349 670.629 480.023 673.129 479.85 676.207C479.626 678.707 477.591 680.643 476.711 682.961C474.279 689.582 484.456 695.988 490.856 692.346C497.256 688.705 497.963 679.369 493.599 673.625C487.544 665.663 473.865 661.691 474.21 651.858C481.196 646.446 492.202 652.123 496.273 659.804C500.344 667.484 500.465 676.489 503.897 684.384C507.33 692.28 516.939 699.364 524.96 695.491C522.873 688.638 520.837 681.852 518.733 675.049C523.908 671.407 529.738 682.017 535.845 680.246C539.571 679.137 540.037 674.055 538.398 670.629C536.759 667.203 533.93 664.339 533.223 660.698C532.067 653.961 539.985 647.935 547.144 649.111C554.303 650.286 559.409 656.692 560.754 663.362C561.012 666.067 561.638 668.727 562.617 671.275C565.291 676.571 572.226 678.177 577.918 680.379C583.611 682.58 589.614 688.059 587.234 693.472C586.13 695.855 583.508 698.106 584.439 700.54C585.319 702.692 588.683 703.635 588.683 705.952C588.683 707.508 586.958 708.551 585.422 709.164C581.593 710.653 577.401 711.15 573.675 712.871C569.949 714.593 566.568 717.953 566.861 721.81C567.327 727.338 574.261 729.987 577.522 734.572C580.333 738.478 580.264 743.543 581.644 748.145H624.253C622.717 745.199 621.199 742.269 619.647 739.323C623.097 736.558 628.548 737.667 632.102 740.432C634.69 742.706 636.952 745.3 638.829 748.145H764.342C762.364 738.136 759.944 728.293 757.08 718.615Z" fill="black"/>
</g>
<path d="M391.185 505.07C392.737 501.908 393.117 498.068 395.825 495.717C398.085 493.764 401.431 493.367 403.864 491.612C409.28 487.673 407.02 478.701 401.276 475.209C386.855 466.469 360.306 476.583 347.8 485.14C331.774 496.148 316.094 509.39 294.79 508.099C288.907 507.751 282.801 506.212 277.281 508.181C271.761 510.151 268.38 517.997 273.123 521.324C275.763 523.162 279.506 522.648 282.473 523.956C287.976 526.373 288.528 533.888 285.923 539.085C283.318 544.283 278.402 548.09 275.245 552.99C272.166 557.772 270.775 563.379 271.278 568.979C271.348 570.926 271.826 572.839 272.683 574.605C273.539 576.37 274.757 577.953 276.263 579.259C282.904 584.224 292.996 579.97 298.602 573.929C304.208 567.887 308.107 560.091 315.387 555.952C319.143 554.072 323.173 552.744 327.341 552.013L355.149 545.739C359.565 544.746 364.343 543.521 367.103 540.095C370.553 535.758 369.553 529.551 371.812 524.536C375.504 516.226 387.148 513.247 391.185 505.07Z" fill="#263238"/>
<path d="M542.471 718.234C534.07 717.109 525.928 720.916 517.578 722.356C488.839 727.322 440.504 661.31 418.631 705.803C415.577 693.72 394.894 698.272 388.287 708.998C381.681 719.724 380.283 733.926 369.795 741.375C365.241 744.686 359.445 746.126 354.132 748.162H569.64C564.585 734.936 556.978 720.155 542.471 718.234Z" fill="#263238"/>
<path d="M752.682 705.059C751.129 700.573 749.491 696.137 747.748 691.717C745.885 688.407 743.901 685.096 741.745 681.951C721.321 651.229 691.719 627.145 669.173 597.748C661.842 588.197 656.149 580.301 643.16 578.414C623.96 575.6 614.231 585.995 600.62 568.698C596.946 564.063 590.546 559.743 585.095 562.507C586.492 566.215 587.941 569.906 589.339 573.664C589.697 574.427 589.856 575.262 589.804 576.097C589.511 578.696 585.44 579.407 583.111 577.984C580.783 576.56 579.661 573.895 577.936 571.744C571.881 563.467 557.684 562.458 550.336 569.575C550.166 567.817 549.51 566.134 548.437 564.699C547.364 563.265 545.911 562.131 544.229 561.415C543.47 568.201 535.276 573.233 528.411 571.081C527.307 567.771 533.586 567.092 535.846 564.229C538.105 561.365 535.449 557.757 532.827 555.489C525.745 549.693 516.808 546.398 507.503 546.153C501.638 546.054 495.29 547.097 490.167 544.233C487.2 542.578 485.095 539.814 482.076 538.208C475.625 534.732 467.534 537.927 461.014 541.353C452.095 546.054 442.901 551.963 439.761 561.216C436.622 570.469 443.608 582.735 453.734 581.659C456.287 581.328 458.909 580.169 461.48 580.831C465.085 581.775 466.655 585.797 467 589.289C467.345 592.782 466.879 596.523 468.725 599.618C470.57 602.714 475.763 604.253 477.798 601.273C482.577 596.97 481.99 589.687 480.765 583.595C479.541 577.504 478.264 570.552 482.111 565.536C485.958 560.521 497.067 562.11 496.308 568.301C495.842 571.942 491.478 574.591 491.65 578.232C491.823 581.874 496.653 583.976 500.62 583.81C504.588 583.645 508.59 582.321 512.437 583.248C516.284 584.175 519.423 588.942 516.629 591.656C511.799 596.837 499.223 587.949 496.722 594.421C496.015 596.076 496.722 597.946 496.549 599.718C496.084 605.13 488.925 607.117 483.215 607.779C477.505 608.441 471.467 608.937 466.275 606.62C461.083 604.303 457.546 597.847 460.513 593.196C457.615 591.21 453.182 593.196 451.612 596.291C450.043 599.387 450.508 602.912 450.974 606.339C444.919 605.081 439.503 609.931 436.07 614.747C432.637 619.564 429.273 625.242 423.391 626.947C417.508 628.652 409.297 626.351 406.227 631.432C402.207 638.053 413.851 646.446 409.78 652.951C407.434 656.659 401.862 656.559 397.429 657.718C385.733 660.863 381.662 677.101 389.632 685.775C397.602 694.448 413.558 693.952 421.994 685.659C427.876 679.965 430.256 671.97 434.5 665.117C438.744 658.264 446.782 652.123 454.821 654.341C457.913 655.443 460.741 657.132 463.136 659.307C467.034 662.402 470.933 665.498 474.831 668.643C477.333 670.629 480.006 673.129 479.834 676.207C479.61 678.707 477.574 680.643 476.694 682.961C474.262 689.582 484.44 695.988 490.84 692.346C497.239 688.705 497.947 679.369 493.582 673.625C487.527 665.663 473.848 661.691 474.193 651.858C481.179 646.446 492.185 652.123 496.256 659.804C500.327 667.484 500.448 676.489 503.881 684.384C507.314 692.28 516.922 699.364 524.943 695.491C522.856 688.638 520.821 681.852 518.716 675.049C523.891 671.407 529.722 682.017 535.828 680.246C539.554 679.137 540.02 674.055 538.381 670.629C536.743 667.203 533.914 664.339 533.206 660.698C532.05 653.961 539.968 647.935 547.127 649.111C554.286 650.286 559.392 656.692 560.738 663.362C560.996 666.067 561.622 668.727 562.601 671.275C565.275 676.571 572.209 678.177 577.902 680.379C583.594 682.58 589.597 688.059 587.217 693.472C586.113 695.855 583.491 698.106 584.422 700.54C585.302 702.692 588.666 703.635 588.666 705.952C588.666 707.508 586.941 708.551 585.406 709.164C581.576 710.653 577.384 711.15 573.658 712.871C569.932 714.593 566.551 717.953 566.844 721.81C567.31 727.338 574.245 729.987 577.505 734.572C580.317 738.478 580.248 743.543 581.628 748.145H624.253C622.718 745.199 621.2 742.269 619.647 739.323C623.098 736.558 628.549 737.667 632.102 740.432C634.69 742.706 636.953 745.3 638.83 748.145H764.343C762.365 738.214 759.938 728.387 757.063 718.665C755.683 714.063 754.234 709.544 752.682 705.059Z" fill="#263238"/>
<path d="M632.102 740.382C628.549 737.667 623.08 736.509 619.647 739.273C621.2 742.219 622.718 745.149 624.253 748.095H638.83C636.953 745.25 634.69 742.656 632.102 740.382Z" fill="#455A64"/>
<path d="M98.1191 728.398C103.932 715.156 124.598 717.225 136.587 708.667C144.022 703.37 147.351 694.465 151.768 686.685C156.184 678.905 163.584 671.109 172.899 671.49C176.039 671.606 179.127 672.715 182.266 672.599C191.461 672.317 196.825 659.555 190.305 653.381C188.777 652.217 187.404 650.877 186.216 649.392C184.595 646.462 186.337 642.771 189.132 640.718C192.101 638.997 195.453 637.976 198.913 637.739C206.762 636.531 214.628 635.372 222.477 634.213C231.102 632.939 242.263 628.685 241.055 620.441C240.003 613.324 229.808 610.113 228.307 603.045C227.893 601.389 228.135 599.453 227.307 597.864C224.926 593.328 217.767 595.149 213.179 597.582C211.316 590.961 201.414 588.015 195.928 592.335C191.288 595.977 190.753 602.382 189.028 607.861C185.199 621.104 174.072 631.168 163.481 640.503C160.03 643.599 155.925 646.909 151.095 647.124C146.265 647.339 141.193 642.44 143.401 638.401C144.919 635.637 149.111 634.031 148.697 630.952C148.128 627.079 141.021 627.36 139.623 623.653C142.418 612.711 155.632 608.192 165.758 602.333C178.13 595.207 187.562 584.204 192.461 571.181C193.289 569.128 193.927 566.695 192.823 564.758C191.305 562.011 187.407 561.564 184.095 561.564C176.297 561.448 166.568 562.441 163.722 569.343C162.204 573.051 163.308 577.256 162.377 581.112C159.651 592.6 143.056 593.874 132.93 600.727C128.98 603.376 125.892 607.083 121.528 609.119C116.818 611.288 111.281 611.122 106.003 611.503C105.088 611.503 104.139 611.669 103.208 611.784C100.011 615.967 96.9231 620.265 93.9446 624.679C90.966 629.093 88.091 633.535 85.3194 638.004C72.1823 659.339 61.4937 681.977 53.4408 705.522C50.5888 713.787 48.0703 722.179 45.8852 730.699C44.4132 736.437 43.1022 742.236 41.9521 748.095H43.6772C44.8329 744.255 45.6955 740.415 46.42 737.071C46.6097 736.227 46.7822 735.416 46.9547 734.638C48.8868 726.362 51.7331 717.572 58.5469 711.977C65.3608 706.383 77.298 705.787 82.5939 712.706C86.3717 717.672 85.5092 724.475 84.5259 730.55C83.5426 736.624 82.5939 742.203 81.6106 748.095H98.2916C98.1709 747.168 98.0501 746.241 97.8949 745.348C96.9634 739.654 95.7558 733.695 98.1191 728.398Z" fill="#263238"/>
<path d="M82.5928 712.706C77.2969 705.737 65.3425 706.399 58.5631 711.978C51.7837 717.556 48.9029 726.296 46.9709 734.638C46.7984 735.4 46.6259 736.294 46.4362 737.071C45.7116 740.382 44.8491 744.255 43.6934 748.096H81.644C82.61 742.236 83.5818 736.387 84.5593 730.55C85.5081 724.475 86.3706 717.672 82.5928 712.706Z" fill="#455A64"/>
<path d="M317.578 687.298C318.388 681.72 310.194 677.151 304.036 676.671C301.104 676.439 298.067 676.87 295.29 675.943C289.27 673.923 286.855 666.475 280.99 664.091C276.591 662.32 271.537 663.892 267.276 665.945C263.015 667.997 258.806 670.596 254.062 670.911C249.922 671.159 245.437 669.686 241.797 671.622C239.106 673.062 237.691 676.059 235.207 677.813C232.618 679.344 229.623 680.125 226.582 680.064C223.556 679.987 220.542 680.458 217.698 681.455C214.938 682.663 212.661 685.444 213.23 688.291L317.578 687.298Z" fill="#FAFAFA"/>
<path d="M344.42 647.588C344.955 643.781 339.348 640.653 335.139 640.322C333.125 640.39 331.109 640.223 329.136 639.825C325.013 638.435 323.374 633.336 319.355 631.698C316.336 630.489 312.886 631.565 309.971 632.972C307.056 634.379 304.158 636.15 300.915 636.365C298.068 636.531 294.998 635.521 292.514 636.846C290.668 637.839 289.702 639.891 287.994 641.083C286.229 642.144 284.176 642.68 282.094 642.622C280.02 642.579 277.956 642.904 276.005 643.582C275.04 643.945 274.221 644.597 273.672 645.44C273.122 646.284 272.869 647.275 272.952 648.267L344.42 647.588Z" fill="#FAFAFA"/>
<path d="M205.881 468.604C205.881 468.604 205.743 468.72 205.433 468.902L204.087 469.697L198.912 472.693L195.134 474.828L190.701 477.493C187.544 479.446 183.801 481.548 180.006 484.114L173.882 488.12C171.76 489.527 169.639 491.099 167.379 492.655C162.859 495.751 158.253 499.276 153.337 503.05C143.694 510.648 133.413 519.404 123.235 529.203C113.728 538.516 104.718 548.283 96.2385 558.469C92.4262 563.219 88.7346 567.672 85.5606 572.058C83.9563 574.227 82.352 576.296 80.903 578.348L76.7974 584.274C74.1064 587.998 71.9501 591.541 69.8973 594.603L67.1545 598.874L64.9637 602.532L61.9104 607.58C61.5827 608.127 61.3067 608.557 61.0996 608.888C60.8926 609.219 60.8064 609.335 60.7891 609.318C60.7719 609.302 60.7891 609.153 61.0134 608.855L61.7552 607.497L64.6532 602.366C65.3087 601.241 66.016 600.016 66.775 598.658C67.534 597.301 68.5 595.894 69.466 594.338C71.4153 591.259 73.5371 587.717 76.1937 583.927L80.2647 577.968C81.6965 575.898 83.3008 573.829 84.8878 571.644C88.0446 567.241 91.7879 562.756 95.514 557.972C112.323 537.473 131.502 518.871 152.681 502.521C157.615 498.829 162.255 495.254 166.809 492.192C169.069 490.636 171.208 489.063 173.347 487.673L179.523 483.717C183.422 481.118 187.113 479.049 190.304 477.096C191.909 476.152 193.375 475.258 194.772 474.464L198.602 472.395L203.932 469.548L205.329 468.836L205.881 468.604Z" fill="#263238"/>
<path d="M248.351 433.811C248.032 433.978 247.689 434.101 247.333 434.175L244.349 435.069C243.055 435.433 241.468 435.88 239.64 436.475C237.811 437.071 235.707 437.651 233.43 438.445C228.858 439.952 223.476 441.938 217.577 444.321C211.677 446.705 205.329 449.602 198.791 452.912C192.253 456.223 186.25 459.749 180.868 463.059C175.486 466.37 170.794 469.68 166.93 472.411C164.98 473.785 163.273 475.109 161.755 476.251C160.237 477.394 158.96 478.37 157.908 479.214L155.475 481.085C155.213 481.327 154.917 481.534 154.596 481.697C154.831 481.427 155.091 481.178 155.372 480.952L157.684 478.95C158.701 478.089 159.943 477.029 161.444 475.871C162.945 474.712 164.618 473.338 166.619 471.931C170.431 469.051 175.141 465.807 180.419 462.397C185.698 458.987 191.839 455.511 198.377 452.151C204.915 448.791 211.332 445.977 217.249 443.577C223.166 441.176 228.617 439.306 233.24 437.882C235.534 437.105 237.639 436.542 239.484 436.012C241.33 435.482 242.935 435.052 244.246 434.737L247.282 434.009C247.633 433.921 247.991 433.855 248.351 433.811Z" fill="#263238"/>
<path d="M36.2271 611.57C33.0615 610.038 29.5705 609.228 26.0256 609.203C22.4806 609.178 18.9774 609.937 15.7883 611.423C12.5992 612.908 9.8102 615.08 7.63832 617.768C5.46643 620.457 3.97018 623.59 3.26595 626.924C2.56173 630.258 2.6685 633.702 3.57798 636.99C4.48746 640.278 6.17511 643.32 8.50968 645.88C10.8442 648.44 13.7628 650.449 17.0383 651.75C20.3137 653.051 23.8579 653.609 27.3949 653.382C29.12 653.266 30.569 652.786 32.4665 652.488L54.3227 648.664C54.9728 648.565 55.5891 648.318 56.1207 647.946C56.6524 647.573 57.0842 647.085 57.3806 646.521C57.6771 645.957 57.8297 645.333 57.8259 644.701C57.8221 644.07 57.6619 643.448 57.3587 642.887L47.6985 624.1C46.9725 622.464 46.1548 620.867 45.249 619.316C43.0253 616 39.9078 613.323 36.2271 611.57ZM34.8471 635.654C33.9467 637.374 32.5346 638.8 30.7895 639.751C29.0443 640.701 27.0446 641.134 25.0433 640.993C23.042 640.853 21.129 640.146 19.5464 638.963C17.9637 637.779 16.7826 636.171 16.1524 634.343C15.5222 632.515 15.4712 630.549 16.0059 628.693C16.5406 626.837 17.637 625.175 19.1564 623.917C20.6757 622.659 22.5497 621.862 24.5413 621.627C26.5329 621.391 28.5525 621.727 30.3447 622.594C32.7422 623.757 34.5618 625.784 35.4055 628.232C36.2493 630.679 36.0485 633.348 34.8471 635.654Z" fill="#FB4A04"/>
<path d="M597.501 464.83C599.263 461.881 600.293 458.581 600.509 455.187C600.726 451.794 600.125 448.398 598.752 445.264C597.379 442.129 595.271 439.341 592.593 437.116C589.914 434.89 586.737 433.287 583.308 432.431C579.879 431.575 576.29 431.489 572.821 432.181C569.352 432.872 566.096 434.321 563.305 436.416C560.514 438.511 558.265 441.195 556.731 444.26C555.197 447.325 554.421 450.688 554.461 454.088V454.187C554.461 455.842 554.91 457.266 555.117 459.153L557.929 480.291C558.01 480.903 558.239 481.489 558.596 482.002C558.954 482.515 559.43 482.942 559.989 483.249C560.547 483.555 561.172 483.733 561.815 483.768C562.457 483.804 563.099 483.695 563.69 483.452L583.77 475.176C585.534 474.568 587.262 473.867 588.945 473.074C592.509 471.103 595.462 468.258 597.501 464.83ZM572.505 462.215C570.759 461.263 569.346 459.835 568.446 458.112C567.546 456.389 567.2 454.448 567.451 452.536C567.701 450.624 568.538 448.826 569.855 447.371C571.172 445.915 572.91 444.868 574.848 444.361C576.785 443.854 578.837 443.911 580.741 444.524C582.645 445.137 584.317 446.279 585.544 447.805C586.771 449.331 587.499 451.172 587.634 453.095C587.77 455.018 587.307 456.936 586.306 458.607C584.972 460.839 582.77 462.472 580.183 463.149C577.596 463.825 574.835 463.49 572.505 462.215Z" fill="#FB4A04"/>
<path d="M253.908 454.005C252.697 452.302 251.092 450.89 249.219 449.879C247.347 448.868 245.256 448.285 243.11 448.175C240.964 448.066 238.821 448.433 236.847 449.248C234.873 450.062 233.121 451.303 231.728 452.873C230.336 454.443 229.339 456.301 228.816 458.301C228.293 460.301 228.257 462.389 228.713 464.405C229.168 466.42 230.101 468.307 231.441 469.92C232.78 471.532 234.488 472.827 236.434 473.702C237.383 474.133 238.297 474.282 239.401 474.663L252.166 478.768C252.537 478.885 252.931 478.919 253.317 478.867C253.704 478.815 254.072 478.677 254.395 478.466C254.717 478.255 254.984 477.975 255.175 477.648C255.366 477.321 255.475 476.957 255.495 476.583L256.099 463.887C256.213 462.814 256.265 461.737 256.254 460.659C256.103 458.28 255.294 455.983 253.908 454.005ZM245.818 466.386C244.817 467.046 243.634 467.406 242.42 467.42C241.205 467.435 240.013 467.104 238.995 466.468C237.977 465.833 237.178 464.922 236.699 463.851C236.22 462.78 236.083 461.597 236.305 460.451C236.527 459.305 237.098 458.248 237.946 457.414C238.794 456.58 239.88 456.005 241.068 455.763C242.257 455.522 243.493 455.623 244.621 456.056C245.749 456.488 246.718 457.232 247.405 458.193C247.862 458.831 248.183 459.549 248.35 460.306C248.517 461.063 248.527 461.844 248.38 462.605C248.233 463.366 247.931 464.091 247.491 464.74C247.051 465.389 246.483 465.948 245.818 466.386Z" fill="#FB4A04"/>
<path d="M430.88 655.301C430.881 653.241 430.387 651.209 429.436 649.361C428.486 647.514 427.104 645.902 425.399 644.65C423.694 643.398 421.711 642.539 419.605 642.142C417.498 641.744 415.324 641.817 413.252 642.356C411.18 642.895 409.265 643.885 407.656 645.249C406.047 646.613 404.787 648.315 403.974 650.222C403.162 652.129 402.818 654.19 402.97 656.245C403.121 658.3 403.765 660.294 404.849 662.071C405.384 662.949 406.057 663.561 406.747 664.472L414.854 674.784C415.087 675.085 415.39 675.33 415.739 675.499C416.088 675.667 416.473 675.755 416.864 675.755C417.255 675.755 417.64 675.667 417.989 675.499C418.338 675.33 418.641 675.085 418.874 674.784L426.861 664.637C427.586 663.811 428.265 662.949 428.896 662.055C430.172 660.013 430.857 657.682 430.88 655.301ZM416.907 661.095C415.689 661.098 414.496 660.754 413.481 660.107C412.466 659.46 411.674 658.538 411.205 657.458C410.737 656.379 410.612 655.19 410.848 654.043C411.084 652.896 411.669 651.841 412.529 651.013C413.39 650.185 414.487 649.62 415.682 649.391C416.877 649.162 418.116 649.278 419.243 649.725C420.369 650.171 421.332 650.929 422.009 651.901C422.687 652.873 423.048 654.016 423.048 655.186C423.048 656.75 422.402 658.25 421.251 659.358C420.1 660.466 418.538 661.09 416.907 661.095Z" fill="#FB4A04"/>
<path d="M749.321 612.314C750.971 610.998 752.282 609.334 753.154 607.453C754.026 605.572 754.434 603.523 754.348 601.466C754.262 599.409 753.683 597.398 752.656 595.59C751.629 593.782 750.182 592.225 748.428 591.041C746.673 589.856 744.657 589.075 742.537 588.758C740.417 588.441 738.249 588.597 736.202 589.213C734.155 589.83 732.283 590.891 730.732 592.313C729.181 593.736 727.992 595.482 727.258 597.417C726.895 598.377 726.826 599.271 726.533 600.347L723.463 612.927C723.371 613.292 723.369 613.672 723.458 614.038C723.546 614.403 723.722 614.744 723.971 615.033C724.22 615.323 724.537 615.552 724.894 615.703C725.252 615.855 725.642 615.924 726.033 615.906L739.264 615.31C740.387 615.315 741.51 615.265 742.628 615.161C745.084 614.804 747.395 613.821 749.321 612.314ZM735.71 605.693C734.93 604.798 734.445 603.701 734.315 602.541C734.186 601.381 734.419 600.21 734.983 599.176C735.548 598.143 736.42 597.294 737.488 596.737C738.557 596.179 739.773 595.939 740.984 596.046C742.195 596.153 743.346 596.602 744.29 597.337C745.235 598.072 745.93 599.06 746.289 600.174C746.648 601.289 746.654 602.481 746.306 603.599C745.958 604.717 745.272 605.711 744.335 606.455C743.089 607.451 741.482 607.934 739.866 607.797C738.25 607.661 736.756 606.916 735.71 605.726V605.693Z" fill="#FB4A04"/>
<path d="M377.678 165.427L456.34 143.345L466.983 169.019L375.66 183.419L377.678 165.427Z" fill="#FFBE9D"/>
<path d="M377.678 165.427C377.678 165.427 362.497 166.403 360.979 167.33C359.461 168.257 343.729 168.986 343.729 171.171C343.729 173.355 344.471 172.197 346.972 172.346C349.473 172.495 355.442 171.617 355.511 172.644C355.58 173.67 337.122 176.484 336.536 177.245C335.949 178.007 334.345 178.752 336.639 179.381C336.639 179.381 333.793 180.705 334.397 182.327C334.584 183.111 335.042 183.811 335.697 184.313C336.351 184.815 337.164 185.089 338.002 185.091C339.727 184.942 353.372 184.462 353.372 184.462C353.372 184.462 338.278 185.191 338.347 186.631C338.416 188.071 337.881 187.905 339.744 188.948C341.607 189.991 351.543 189.991 351.543 189.991L363.101 187.756C363.101 187.756 354.993 191.563 353.993 193.086C352.992 194.609 352.44 197.406 353.993 198.367C355.545 199.327 356.218 197.953 357.443 196.711C358.668 195.47 368.604 190.852 370.398 189.577C372.192 188.303 381.059 180.142 381.059 180.142L377.678 165.427Z" fill="#FFBE9D"/>
<path d="M528.964 43.3508C529.491 42.7554 530.168 42.2995 530.931 42.0266C533.42 40.9767 536.233 40.8761 538.797 41.7452C537.354 39.8129 536.312 37.6326 535.726 35.3228C535.443 34.1599 535.479 32.9466 535.83 31.8009C536.18 30.6552 536.834 29.616 537.727 28.7845C538.72 28.1193 539.847 27.662 541.036 27.4424C542.225 27.2228 543.448 27.2458 544.627 27.51C548.002 27.9235 551.136 29.4095 553.529 31.7309C554.7 32.9065 555.559 34.3355 556.034 35.8971C556.508 37.4587 556.584 39.1069 556.254 40.7024L549.354 45.8834C547.356 48.3409 544.713 50.2434 541.695 51.3954C541.047 51.7362 540.316 51.9024 539.577 51.8761C538.839 51.8499 538.123 51.6323 537.503 51.2465C537.086 50.8034 536.822 50.2484 536.745 49.6563C536.667 49.0642 536.782 48.4637 537.072 47.9359C537.686 46.8797 538.527 45.9601 539.539 45.2378C536.957 46.3667 534.124 46.867 531.293 46.6945C530.805 46.7173 530.317 46.6322 529.869 46.4457C529.42 46.2591 529.022 45.9761 528.705 45.6186C528.521 45.2558 528.447 44.8502 528.493 44.4488C528.539 44.0474 528.702 43.6667 528.964 43.3508Z" fill="#263238"/>
<path d="M536.397 28.917C536.397 28.9998 537.639 29.0329 539.537 29.5295C542.001 30.1933 544.27 31.4007 546.161 33.0552C548.039 34.7246 549.491 36.7862 550.405 39.0804C551.095 40.8515 551.233 42.0267 551.319 42.0267C551.364 41.747 551.364 41.4623 551.319 41.1825C551.206 40.434 551.021 39.697 550.767 38.981C549.923 36.5856 548.47 34.4296 546.541 32.7076C544.586 31.0048 542.211 29.8084 539.641 29.2315C538.875 29.056 538.096 28.9397 537.312 28.8839C537.007 28.8448 536.698 28.856 536.397 28.917Z" fill="#455A64"/>
<path d="M549.094 44.7746C549.345 44.1958 549.708 43.6679 550.163 43.2187C551.691 41.1722 553.816 39.6055 556.27 38.7163C556.488 38.637 556.722 38.6048 556.954 38.6219C557.187 38.6391 557.413 38.7052 557.616 38.8156C558.202 39.246 557.995 40.1564 557.512 40.7026C556.962 41.1968 556.475 41.7525 556.063 42.3579L552.354 46.0657C552.018 46.5269 551.533 46.8699 550.974 47.0423C550.699 47.1287 550.405 47.142 550.122 47.0808C549.84 47.0196 549.58 46.8862 549.37 46.6947C549.13 46.4371 548.976 46.117 548.927 45.775C548.878 45.433 548.936 45.0848 549.094 44.7746Z" fill="#455A64"/>
<path d="M534.553 77.4327C535.528 71.6639 537.023 65.9871 539.021 60.4662C541.028 54.9218 544.443 49.9442 548.957 45.9826C549.647 45.4033 554.856 41.7948 555.615 42.2914C556.374 42.788 552.062 46.4296 552.079 47.0586C552.026 53.1434 550.04 59.068 546.386 64.0416C542.972 68.913 539.003 73.4043 534.553 77.4327Z" fill="#263238"/>
<path d="M520.287 102.477L545.248 57.619C552.148 44.559 565.845 37.5406 579.266 44.5258L580.68 45.37C586.451 48.8078 590.662 54.2044 592.474 60.486C594.287 66.7676 593.568 73.4736 590.461 79.2698C584.372 90.6084 577.472 103.122 573.642 108.883C565.759 120.734 552.114 115.173 552.114 115.173C552.114 115.173 547.198 123.449 545.093 126.958C545.093 126.958 543.178 127.984 531.293 121.678C519.407 115.371 520.287 102.477 520.287 102.477Z" fill="#FFBE9D"/>
<path d="M552.114 115.173C546.373 111.735 541.781 106.788 538.883 100.921C538.883 100.921 537.158 111.962 550.32 118.285L552.114 115.173Z" fill="#EB996E"/>
<path d="M581.801 86.4704C581.524 86.9199 581.074 87.2466 580.547 87.3798C580.021 87.513 579.461 87.442 578.989 87.1822C578.751 87.0654 578.54 86.9039 578.367 86.7073C578.195 86.5107 578.066 86.283 577.987 86.0376C577.908 85.7922 577.882 85.5342 577.909 85.2787C577.936 85.0232 578.016 84.7755 578.144 84.5503C578.424 84.0996 578.878 83.7726 579.407 83.6395C579.936 83.5064 580.498 83.5778 580.973 83.8385C581.21 83.9568 581.42 84.1193 581.59 84.3165C581.761 84.5138 581.888 84.7417 581.965 84.987C582.042 85.2323 582.068 85.4899 582.04 85.7446C582.011 85.9994 581.93 86.2461 581.801 86.4704Z" fill="#263238"/>
<path d="M584.872 82.1999C584.51 82.1999 583.786 80.5446 581.871 79.386C579.956 78.2273 577.955 78.3432 577.886 77.9955C577.817 77.6479 578.335 77.5652 579.232 77.499C580.445 77.4249 581.653 77.7204 582.682 78.3432C583.677 78.9357 584.451 79.8169 584.89 80.8591C585.114 81.6371 585.045 82.1502 584.872 82.1999Z" fill="#263238"/>
<path d="M563.742 76.9199C563.605 77.1427 563.423 77.3375 563.208 77.493C562.992 77.6486 562.747 77.7618 562.486 77.8264C562.225 77.891 561.953 77.9055 561.686 77.8693C561.419 77.833 561.162 77.7466 560.93 77.6151C560.692 77.4999 560.481 77.3401 560.309 77.145C560.137 76.9499 560.008 76.7236 559.929 76.4795C559.85 76.2355 559.823 75.9787 559.85 75.7244C559.877 75.4702 559.956 75.2237 560.085 74.9997C560.365 74.5491 560.818 74.222 561.347 74.0889C561.877 73.9558 562.439 74.0273 562.914 74.288C563.15 74.4062 563.36 74.5688 563.531 74.766C563.701 74.9632 563.829 75.1912 563.906 75.4364C563.983 75.6817 564.008 75.9393 563.98 76.1941C563.952 76.4488 563.871 76.6956 563.742 76.9199Z" fill="#263238"/>
<path d="M565.465 72.1031C565.085 72.1031 564.361 70.4478 562.446 69.3057C560.531 68.1636 558.53 68.2463 558.478 67.8987C558.427 67.5511 558.927 67.4683 559.807 67.4021C560.992 67.3455 562.166 67.6402 563.17 68.2463C564.167 68.838 564.94 69.7195 565.378 70.7623C565.689 71.5403 565.603 72.07 565.465 72.1031Z" fill="#263238"/>
<path d="M562.997 90.6086C564.201 90.8996 565.361 91.3392 566.447 91.9163C566.965 92.1645 567.499 92.3466 567.775 92.0818C568.152 91.6062 568.352 91.0237 568.345 90.4265C568.621 89.0251 568.914 87.5519 569.224 86.007C569.838 82.1835 570.773 78.4138 572.019 74.7346C571.718 78.5933 571.101 82.4233 570.173 86.189C569.845 87.7284 569.535 89.2016 569.224 90.6086C569.166 91.355 568.836 92.058 568.293 92.5949C568.116 92.7178 567.912 92.7997 567.696 92.8342C567.481 92.8686 567.26 92.8547 567.051 92.7935C566.733 92.713 566.43 92.5845 566.154 92.4128C565.023 91.9477 563.962 91.341 562.997 90.6086Z" fill="#263238"/>
<path d="M569.191 67.9646C568.639 68.2791 567.069 66.7231 564.809 65.3658C562.55 64.0085 560.428 63.2802 560.428 62.6677C560.428 62.3698 561.118 62.1546 562.153 62.2373C563.508 62.3668 564.81 62.8098 565.948 63.5285C567.106 64.2139 568.077 65.1562 568.777 66.2762C569.363 67.1535 569.45 67.799 569.191 67.9646Z" fill="#263238"/>
<path d="M587.545 78.4425C586.89 78.6245 585.648 77.2672 583.819 76.1416C581.991 75.0161 580.248 74.3871 580.162 73.7415C580.162 73.427 580.662 73.1622 581.611 73.1787C582.849 73.2603 584.041 73.6606 585.061 74.3374C586.115 74.9814 586.963 75.8922 587.511 76.9693C587.925 77.7472 587.856 78.2935 587.545 78.4425Z" fill="#263238"/>
<path d="M540.556 67.0706C540.401 66.8554 533.57 59.5557 528.481 67.8817C523.392 76.2076 533.225 79.3195 533.38 79.0878C533.535 78.8561 540.556 67.0706 540.556 67.0706Z" fill="#FFBE9D"/>
<path d="M532.689 74.4699C532.689 74.4699 532.482 74.4699 532.154 74.4699C531.705 74.4167 531.297 74.1968 531.015 73.8575C530.66 73.2075 530.491 72.4781 530.528 71.7448C530.564 71.0115 530.804 70.3008 531.222 69.6862C531.639 68.9521 532.23 68.3226 532.947 67.8488C533.177 67.6467 533.452 67.4971 533.751 67.4111C534.049 67.3251 534.365 67.305 534.673 67.3523C534.871 67.4081 535.044 67.5269 535.163 67.6893C535.282 67.8516 535.34 68.0479 535.328 68.2461C535.328 68.5441 535.138 68.6765 535.19 68.7261C535.242 68.7758 535.449 68.7261 535.587 68.3123C535.672 68.0822 535.672 67.8307 535.587 67.6006C535.445 67.2992 535.194 67.0579 534.879 66.9219C534.481 66.7919 534.055 66.7617 533.642 66.8341C533.228 66.9065 532.841 67.0792 532.516 67.3357C531.709 67.8487 531.051 68.5491 530.601 69.3717C530.103 70.0839 529.837 70.9223 529.837 71.7801C529.837 72.6379 530.103 73.4763 530.601 74.1885C530.797 74.3806 531.035 74.529 531.297 74.6234C531.559 74.7178 531.84 74.7558 532.119 74.7348C532.568 74.652 532.723 74.4865 532.689 74.4699Z" fill="#EB996E"/>
<path d="M592.876 62.5521C594.722 62.5521 593.083 55.931 590.496 52.4881C586.614 47.3567 579.438 41.5964 573.815 40.2888C567.07 38.6335 560.601 38.8652 554.684 42.3578C548.802 45.9979 544.038 51.0776 540.884 57.0731C539.78 58.822 539.185 60.8223 539.159 62.8666C539.297 65.366 540.884 67.8324 539.331 70.2987C538.718 71.1971 538.5 72.2925 538.728 73.3444C539.366 75.8438 542.178 75.3804 544.023 74.321C547.87 72.0864 550.389 68.2958 552.769 64.6211C554.618 62.0995 556.023 59.3035 556.927 56.3448C557.323 54.6896 557.41 53.0343 557.893 51.379C558.091 50.5641 558.469 49.7995 559.002 49.137C559.534 48.4744 560.209 47.9294 560.98 47.5388C561.34 47.4133 561.709 47.3137 562.084 47.2409C563.908 46.8867 565.798 47.0069 567.557 47.5889C569.316 48.171 570.881 49.1938 572.09 50.5514C576.023 54.8882 582.94 61.9396 586.062 61.5258C588.212 61.3845 590.308 60.8211 592.221 59.8705L592.876 62.5521Z" fill="#263238"/>
<path d="M574.953 39.4114C577.818 39.8942 580.555 40.9184 583.004 42.4244C585.453 43.9304 587.566 45.8883 589.219 48.1843C590.128 49.3831 590.773 50.7469 591.114 52.1927C591.455 53.6384 591.485 55.1357 591.203 56.5931C590.872 58.0429 590.021 59.3349 588.797 60.2428C587.573 61.1506 586.056 61.6165 584.51 61.5589H584.286C579.852 60.7478 577.713 58.9601 574.729 55.6992C572.228 52.968 570.537 49.6244 568.019 46.8932C565.304 43.9917 561.748 41.9341 557.807 40.9839C563.277 39.0147 569.193 38.4721 574.953 39.4114Z" fill="#263238"/>
<path d="M559.53 40.2725C559.53 40.2725 560.013 40.2725 560.876 40.4214C562.093 40.6201 563.262 41.0296 564.326 41.6298C565.898 42.5125 567.276 43.6822 568.38 45.0727C569.736 46.7886 570.931 48.6166 571.95 50.5351C572.988 52.4685 574.17 54.3273 575.487 56.0968C576.589 57.5466 577.957 58.7918 579.523 59.7715C580.576 60.4239 581.746 60.8841 582.973 61.1288C583.302 61.1971 583.637 61.2359 583.974 61.2447C584.215 61.2447 584.336 61.2447 584.336 61.2447C582.677 61.0233 581.088 60.4585 579.679 59.5894C578.177 58.5972 576.869 57.3589 575.815 55.9313C574.535 54.1657 573.382 52.3185 572.365 50.4027C571.341 48.4559 570.122 46.6098 568.725 44.8906C567.571 43.4783 566.134 42.302 564.498 41.4311C563.391 40.839 562.171 40.4674 560.91 40.3387C560.572 40.3081 560.231 40.3081 559.893 40.3387L559.53 40.2725Z" fill="#455A64"/>
<path d="M564.827 39.5441C566.348 39.753 567.809 40.254 569.123 41.0173C570.525 41.8708 571.763 42.9518 572.78 44.2119C574.011 45.7531 575.063 47.4181 575.919 49.1777C576.868 51.0482 577.644 52.9021 578.593 54.5077C579.374 55.9545 580.311 57.3191 581.387 58.5796C582.117 59.4298 582.958 60.1864 583.889 60.8308C584.141 61.0044 584.406 61.1593 584.682 61.2943C584.855 61.3936 584.958 61.4432 584.976 61.4267C583.734 60.5527 582.615 59.5291 581.646 58.381C580.625 57.1152 579.736 55.757 578.99 54.3256C578.11 52.6703 577.265 50.8661 576.333 48.9791C575.479 47.1629 574.402 45.4513 573.125 43.8809C572.059 42.5988 570.762 41.511 569.295 40.6697C568.305 40.1091 567.218 39.7223 566.086 39.5275C565.777 39.4947 565.464 39.4947 565.155 39.5275C564.931 39.511 564.827 39.5275 564.827 39.5441Z" fill="#455A64"/>
<path d="M549.458 45.3374C549.335 45.5654 549.253 45.8117 549.216 46.0657C549.036 46.7229 548.909 47.3925 548.837 48.0686C548.312 52.5739 549.355 57.1192 551.804 60.9962C552.164 61.5793 552.573 62.1329 553.028 62.6515C553.339 63.0322 553.529 63.2308 553.563 63.2143C553.598 63.1977 552.959 62.3204 552.097 60.8141C549.848 56.9063 548.835 52.4541 549.182 48.0024C549.302 46.314 549.544 45.3374 549.458 45.3374Z" fill="#455A64"/>
<path d="M544.903 50.5679C544.745 50.7535 544.628 50.9673 544.558 51.1969C544.33 51.7997 544.185 52.4285 544.127 53.0673C543.977 55.1987 544.475 57.3259 545.558 59.1918C546.638 61.0177 547.979 62.6893 549.543 64.1576C550.136 64.8096 550.801 65.3979 551.527 65.9122C551.006 65.2136 550.429 64.555 549.802 63.9424C548.342 62.429 547.063 60.7634 545.99 58.9766C544.954 57.1801 544.43 55.1532 544.472 53.1004C544.552 52.2474 544.696 51.4011 544.903 50.5679Z" fill="#455A64"/>
<path d="M586.786 47.9854C586.866 48.6954 587.004 49.3983 587.2 50.0875C587.579 51.7497 587.725 53.4534 587.631 55.1526C587.509 56.8403 586.913 58.4648 585.906 59.8536C585.436 60.3934 584.935 60.9073 584.405 61.393C584.598 61.3355 584.779 61.2458 584.94 61.1282C585.397 60.8244 585.809 60.4624 586.165 60.0522C587.263 58.6683 587.911 57.0042 588.028 55.2685C588.144 53.522 587.945 51.7694 587.441 50.0875C587.337 49.3585 587.116 48.6494 586.786 47.9854Z" fill="#455A64"/>
<path d="M590.478 55.2686C590.008 56.7023 589.253 58.0347 588.253 59.1915C587.143 60.258 585.831 61.1119 584.389 61.7075C584.869 61.7133 585.343 61.6053 585.769 61.393C586.849 60.9778 587.816 60.3326 588.598 59.506C589.386 58.6789 589.975 57.6956 590.323 56.6259C590.492 56.193 590.545 55.7263 590.478 55.2686Z" fill="#455A64"/>
<path d="M528.447 76.1418C528.55 76.1418 528.24 76.7708 528.05 77.6977C527.929 78.2151 527.989 78.7564 528.223 79.2371C528.389 79.4989 528.618 79.7184 528.891 79.8769C529.165 80.0354 529.474 80.1282 529.792 80.1475C530.115 80.1588 530.437 80.1024 530.735 79.9823C531.033 79.8623 531.3 79.6814 531.517 79.4523C531.917 79.0777 532.183 78.5908 532.276 78.0619C532.466 77.1349 532.276 76.5059 532.363 76.4066C532.449 76.3073 532.846 76.9529 532.777 78.0619C532.732 78.716 532.466 79.3382 532.018 79.833C531.733 80.1453 531.38 80.3923 530.983 80.5556C530.585 80.7189 530.155 80.7944 529.723 80.7765C529.282 80.7523 528.856 80.6172 528.486 80.3847C528.117 80.1523 527.818 79.8308 527.619 79.4523C527.344 78.8445 527.313 78.1605 527.533 77.5322C527.895 76.5722 528.395 76.1087 528.447 76.1418Z" fill="#263238"/>
<path d="M526.912 72.2851C526.912 72.3844 526.515 72.5169 526.308 73.0631C526.188 73.3556 526.188 73.681 526.308 73.9735C526.397 74.1372 526.525 74.279 526.68 74.3881C526.836 74.4971 527.015 74.5705 527.205 74.6025C527.575 74.657 527.954 74.5945 528.284 74.4243C528.614 74.254 528.877 73.9854 529.033 73.659C529.309 73.1128 529.309 72.6989 529.413 72.6824C529.516 72.6658 529.723 73.1128 529.516 73.8411C529.38 74.273 529.109 74.6543 528.74 74.9335C528.499 75.1129 528.218 75.2374 527.919 75.2976C527.621 75.3578 527.311 75.3522 527.015 75.2812C526.742 75.2362 526.484 75.1287 526.264 74.968C526.043 74.8072 525.866 74.5978 525.748 74.3575C525.629 74.1172 525.573 73.853 525.583 73.5874C525.594 73.3218 525.671 73.0624 525.808 72.8314C526.308 72.1362 526.946 72.1858 526.912 72.2851Z" fill="#263238"/>
<path d="M529.688 66.4583C529.688 66.5576 529.257 66.4583 528.688 66.6238C528.343 66.7214 528.044 66.9282 527.837 67.2105C527.631 67.4927 527.531 67.8337 527.553 68.1778C527.575 68.5218 527.718 68.8485 527.959 69.1044C528.199 69.3603 528.523 69.5304 528.878 69.5867C529.447 69.7026 529.844 69.5867 529.878 69.5867C529.913 69.5867 529.585 70.0171 528.826 70.0171C528.373 70.0153 527.934 69.8633 527.584 69.5867C527.365 69.4113 527.186 69.1943 527.058 68.9494C526.93 68.7044 526.857 68.4367 526.842 68.1632C526.802 67.6725 526.958 67.1856 527.278 66.8013C527.599 66.417 528.06 66.1641 528.567 66.0941C529.378 66.061 529.74 66.3921 529.688 66.4583Z" fill="#263238"/>
<path d="M558.185 90.1122C558.478 90.2777 557.305 92.0985 558.082 94.3662C558.858 96.634 561.031 97.6768 560.876 97.9085C560.721 98.1402 560.186 97.9085 559.324 97.5112C558.218 96.8475 557.389 95.8349 556.978 94.6476C556.574 93.5015 556.648 92.2499 557.185 91.155C557.564 90.3605 558.064 90.0295 558.185 90.1122Z" fill="#263238"/>
<path d="M456.667 402.874L446.076 430.418C446.076 430.418 476.471 445.017 476.177 450.678L414.956 444.256L429.326 398.637L456.667 402.874Z" fill="#455A64"/>
<path d="M427.446 425.899C426.837 426.014 426.293 426.338 425.916 426.81C425.538 427.283 425.352 427.871 425.393 428.465C425.487 429.05 425.812 429.579 426.299 429.942C426.787 430.305 427.401 430.475 428.015 430.418C428.661 430.301 429.239 429.959 429.637 429.458C430.035 428.957 430.226 428.331 430.172 427.703C430.008 427.1 429.608 426.581 429.055 426.254C428.503 425.927 427.839 425.818 427.205 425.949" fill="white"/>
<path d="M414.956 444.256L416.422 439.604L474.176 447.45C474.176 447.45 476.764 448.874 476.246 450.761L414.956 444.256Z" fill="white"/>
<path d="M446.127 430.799C446.127 431.08 444.574 431.063 442.987 431.825C441.4 432.586 440.503 433.712 440.227 433.579C439.951 433.447 440.607 431.825 442.539 430.914C444.471 430.004 446.213 430.534 446.127 430.799Z" fill="#263238"/>
<path d="M452.666 434.175C452.666 434.473 451.355 434.821 450.199 435.93C449.043 437.039 448.612 438.28 448.302 438.247C447.991 438.214 448.008 436.592 449.475 435.202C450.941 433.811 452.683 433.91 452.666 434.175Z" fill="#263238"/>
<path d="M455.512 441.955C455.236 441.955 454.977 440.515 455.926 439.025C456.875 437.536 458.341 437.056 458.445 437.37C458.548 437.685 457.582 438.38 456.823 439.605C456.064 440.83 455.805 441.955 455.512 441.955Z" fill="#263238"/>
<path d="M448.474 424.641C448.301 424.889 447.025 424.227 445.334 424.012C443.644 423.797 442.246 424.012 442.143 423.764C442.039 423.516 443.506 422.738 445.489 423.019C447.473 423.3 448.663 424.393 448.474 424.641Z" fill="#263238"/>
<path d="M264.241 345.056L232.672 350.816C232.672 350.816 233.483 383.425 228.153 385.825L205.365 330.92L254.046 321.651L264.241 345.056Z" fill="#455A64"/>
<path d="M228.102 332.906C227.717 332.44 227.166 332.126 226.555 332.026C225.944 331.925 225.316 332.044 224.79 332.36C224.29 332.712 223.951 333.236 223.845 333.822C223.739 334.409 223.874 335.012 224.221 335.505C224.628 335.984 225.203 336.305 225.838 336.405C226.474 336.506 227.126 336.38 227.671 336.051C228.146 335.633 228.434 335.056 228.475 334.439C228.517 333.823 228.309 333.214 227.895 332.741" fill="white"/>
<path d="M205.365 330.92L210.247 330.043L230.085 382.614C230.085 382.614 229.981 385.494 228.084 385.924L205.365 330.92Z" fill="white"/>
<path d="M232.362 351.031C232.069 351.131 231.396 349.839 229.947 348.863C228.498 347.886 227.032 347.621 227.049 347.34C227.066 347.059 228.774 346.827 230.499 348.035C232.224 349.244 232.673 350.982 232.362 351.031Z" fill="#263238"/>
<path d="M232.309 358.182C232.068 358.348 231.102 357.354 229.549 356.908C227.997 356.461 226.634 356.659 226.53 356.394C226.427 356.13 227.945 355.335 229.877 355.947C231.809 356.56 232.568 358.05 232.309 358.182Z" fill="#263238"/>
<path d="M226.497 364.224C226.325 363.992 227.567 363.098 229.395 363.197C231.224 363.297 232.328 364.323 232.138 364.522C231.949 364.72 230.827 364.257 229.326 364.191C227.826 364.124 226.635 364.472 226.497 364.224Z" fill="#263238"/>
<path d="M239.124 350.138C238.814 350.138 238.831 348.714 238.244 347.175C237.658 345.635 236.761 344.576 236.968 344.361C237.175 344.146 238.555 345.023 239.228 346.844C239.9 348.664 239.383 350.204 239.124 350.138Z" fill="#263238"/>
<path d="M401.241 163.308C401.241 163.308 380.54 173.14 370.432 188.402C360.323 203.663 331.584 278.564 331.584 278.564C331.584 278.564 319.75 285.715 317.922 291.028C316.093 296.342 237.087 321.071 237.087 321.071L244.832 351.197C244.832 351.197 340.399 331.334 346.764 325.739C353.13 320.144 410.056 255.788 410.056 255.788L452.112 325.309C452.112 325.309 437.501 355.252 433.965 366.144C430.428 377.036 417.335 413.915 417.335 413.915L451.75 416.249C451.75 416.249 483.231 351.031 491.184 338.451C499.136 325.871 498.084 317.761 495.203 310.395C492.322 303.029 453.043 211.774 453.043 211.774L467.637 199.111L418.715 152.929L401.241 163.308Z" fill="#263238"/>
<path d="M337.072 310.031C336.515 308.896 336.104 307.701 335.847 306.472C335.093 303.549 334.603 300.57 334.381 297.566C334.033 293.588 334.219 289.582 334.933 285.649H335.192C335.054 286.178 334.968 286.427 334.916 286.427C334.864 286.427 334.916 286.145 334.916 285.599H335.192C334.921 289.54 334.921 293.493 335.192 297.434C335.416 300.402 335.831 303.354 336.434 306.273C336.746 307.508 336.96 308.764 337.072 310.031Z" fill="#455A64"/>
<path d="M335.777 308.955C333.672 306.601 331.929 303.97 330.602 301.142C329.01 298.419 327.847 295.485 327.152 292.435C327.377 292.352 328.877 296.242 331.275 300.794C333.673 305.346 335.984 308.822 335.777 308.955Z" fill="#455A64"/>
<path d="M474.556 324.382C471.741 323.671 468.841 323.315 465.931 323.322C463.064 323.586 460.245 324.209 457.547 325.176C458.186 324.601 458.944 324.161 459.772 323.885C461.719 323.108 463.79 322.654 465.896 322.544C468.003 322.448 470.112 322.711 472.123 323.322C473.004 323.503 473.834 323.865 474.556 324.382Z" fill="#455A64"/>
<path d="M469.123 327.163C469.019 327.378 466.173 326.186 462.447 325.822C458.721 325.458 455.668 326.02 455.547 325.822C457.769 325.104 460.126 324.856 462.457 325.093C464.788 325.33 467.038 326.047 469.054 327.196L469.123 327.163Z" fill="#455A64"/>
<path d="M426.394 236.354C425.684 237.618 424.852 238.815 423.909 239.93C422.288 242.065 419.942 244.896 417.234 248.057C414.525 251.219 411.955 253.884 410.058 255.787C409.08 256.879 407.994 257.877 406.814 258.767C407.65 257.587 408.591 256.479 409.626 255.456L416.526 247.594L423.426 239.615C424.32 238.452 425.313 237.361 426.394 236.354Z" fill="#455A64"/>
<path d="M336.294 287.089C336.427 286.719 336.588 286.36 336.777 286.013C337.087 285.318 337.639 284.358 338.243 282.968C339.52 280.319 341.245 276.446 343.177 271.579C345.109 266.713 347.213 260.853 349.421 254.298C351.629 247.744 353.975 240.51 356.718 232.995C359.27 225.91 362.277 218.983 365.723 212.255C368.544 206.757 371.869 201.511 375.659 196.579C378.207 193.252 381.04 190.135 384.129 187.26C385.199 186.217 386.13 185.522 386.734 185.009C387.032 184.74 387.349 184.492 387.683 184.264C387.43 184.576 387.147 184.864 386.837 185.125C386.285 185.671 385.388 186.416 384.353 187.475C381.365 190.42 378.609 193.574 376.108 196.91C372.416 201.858 369.168 207.096 366.396 212.569C363 219.286 360.022 226.189 357.477 233.243C354.735 240.742 352.302 247.975 350.129 254.514C347.955 261.052 345.73 266.928 343.712 271.778C341.693 276.628 339.899 280.485 338.536 283.1C337.881 284.424 337.294 285.401 336.915 286.079C336.749 286.438 336.541 286.777 336.294 287.089Z" fill="#455A64"/>
<path d="M332.725 289.174C332.725 289.406 331.241 289.82 329.637 290.829C328.033 291.839 327.015 293.031 326.825 292.899C326.636 292.766 327.429 291.243 329.189 290.184C329.68 289.801 330.245 289.514 330.852 289.341C331.459 289.168 332.095 289.111 332.725 289.174Z" fill="#455A64"/>
<path d="M325.617 295.282C325.383 295.467 325.121 295.617 324.841 295.729L322.529 296.838C320.528 297.798 317.578 299.122 313.904 300.695C306.59 303.873 296.361 307.962 284.837 311.918C273.314 315.874 262.671 318.919 254.925 320.922C251.061 321.915 247.922 322.693 245.731 323.173L243.212 323.703C242.918 323.777 242.618 323.826 242.315 323.852C242.588 323.716 242.878 323.616 243.178 323.554L245.645 322.875L254.787 320.393C262.481 318.274 273.055 315.129 284.561 311.189C296.067 307.25 306.314 303.227 313.663 300.198L322.288 296.557L324.668 295.58C324.972 295.446 325.29 295.346 325.617 295.282Z" fill="#455A64"/>
<path d="M400.001 200.121C399.346 200.982 398.512 201.703 397.552 202.239C395.299 203.668 392.729 204.569 390.048 204.871C387.365 205.187 384.642 204.898 382.095 204.027C381.071 203.735 380.12 203.244 379.301 202.587C379.301 202.471 380.474 203.05 382.389 203.58C384.868 204.29 387.473 204.51 390.044 204.225C392.614 203.94 395.098 203.158 397.345 201.925C398.196 201.279 399.083 200.677 400.001 200.121Z" fill="#455A64"/>
<path d="M425.737 414.246C425.78 413.927 425.849 413.611 425.944 413.302C426.117 412.607 426.358 411.73 426.652 410.637C427.29 408.337 428.273 405.009 429.55 400.921C432.103 392.744 435.932 381.538 440.745 369.372C445.558 357.205 450.509 346.38 454.269 338.65C456.15 334.777 457.719 331.665 458.841 329.546C459.393 328.536 459.824 327.742 460.152 327.096C460.293 326.803 460.466 326.526 460.669 326.269C460.578 326.582 460.457 326.887 460.307 327.179L459.134 329.678C458.064 331.93 456.598 335.058 454.787 338.865C451.164 346.645 446.334 357.487 441.504 369.636C436.674 381.786 432.775 392.959 430.084 401.087C428.791 405.076 427.721 408.353 426.962 410.72C426.6 411.796 426.324 412.657 426.1 413.335C426.016 413.651 425.894 413.957 425.737 414.246Z" fill="#455A64"/>
<path d="M541.454 114.014L522.893 96.7989C522.893 96.7989 504.97 96.534 495.292 99.4804C485.615 102.427 385.805 170.657 385.805 170.657C399.156 175.772 410.887 187.209 421.927 201.263C431.242 211.873 434.382 227.631 447.94 232.431C450.821 233.441 461.102 230.528 461.102 230.528L463.466 220.265L544.663 145.911C544.663 145.911 548.354 124.541 541.454 114.014Z" fill="#FB4A04"/>
<g opacity="0.3">
<path d="M482.301 169.78C471.724 170.136 461.351 166.933 452.975 160.725C465.516 154.469 476.384 145.596 487.148 136.79C495.29 130.169 508.763 119.096 519.527 112.094C497.567 114.709 466.189 124.459 447.076 135.267C430.653 144.603 415.594 156.902 397.222 161.917L394.479 161.752C394.773 166.916 399.068 171.303 404.088 173.206C409.23 174.865 414.73 175.23 420.062 174.265C425.36 173.306 430.71 172.632 436.087 172.246C444.298 172.064 452.285 174.431 460.358 175.788C468.432 177.146 477.246 177.344 484.285 173.305C484.992 172.892 485.734 172.345 485.785 171.551C485.941 170.111 483.819 169.713 482.301 169.78Z" fill="black"/>
</g>
<path d="M524.202 159.087C493.429 164.972 461.651 163.912 431.378 155.992L432.189 166.337C447.852 169.847 463.653 173.356 479.731 173.968C495.808 174.581 512.403 172.065 526.306 164.252C525.496 162.53 524.806 160.809 524.202 159.087Z" fill="#455A64"/>
<g opacity="0.3">
<path d="M510.074 169.912C509.486 156.108 509.89 142.281 511.282 128.531L511.61 127.14C508.436 130.451 507.487 135.052 506.883 139.472C505.017 152.934 505.075 166.578 507.056 180.026L510.506 177.808C510.54 177.195 510.143 172.676 510.074 169.912Z" fill="black"/>
</g>
<path d="M537.157 107.277C528.963 100.656 513.369 104.083 503.398 107.939L496.05 122.572C505.865 119.626 522.477 109.462 531.913 113.402C541.349 117.341 544.678 125.585 546.904 135.251C548.022 130.178 547.709 124.91 545.995 119.992C544.282 115.075 541.231 110.685 537.157 107.277Z" fill="#263238"/>
<path d="M503.673 84.2192C495.048 78.3762 484.043 79.0714 473.813 80.1307C453.993 82.1833 440.744 91.3534 420.337 98.0076C407.634 101.994 397.019 110.525 390.701 121.827C383.042 135.996 384.112 149.089 394.031 162L397.481 165.178C401.008 168.478 405.461 170.721 410.295 171.632C415.129 172.544 420.135 172.084 424.702 170.31C451.008 159.964 467.655 143.296 494.565 127.273C502.431 122.588 510.453 117.341 512.764 107.856C513.85 103.495 513.566 98.9236 511.948 94.7172C510.33 90.5108 507.451 86.858 503.673 84.2192Z" fill="#455A64"/>
<path d="M510.834 93.0588C510.829 93.526 510.777 93.9916 510.679 94.4493C510.388 95.7571 509.942 97.0288 509.351 98.2398C506.955 102.614 503.565 106.416 499.432 109.363C486.253 119.387 472.482 128.672 458.186 137.172C449.837 142.137 441.678 146.64 434.174 150.53C430.413 152.483 426.825 154.271 423.427 155.926C420.305 157.503 417.091 158.907 413.801 160.13C409.021 162.017 403.779 162.556 398.69 161.686C397.325 161.405 396 160.971 394.74 160.395C394.411 160.246 394.094 160.074 393.791 159.882C393.678 159.831 393.573 159.764 393.48 159.683C395.166 160.433 396.938 160.989 398.759 161.338C403.777 162.068 408.908 161.444 413.577 159.534C416.832 158.283 420.011 156.857 423.099 155.264C426.463 153.608 429.999 151.788 433.777 149.818C441.247 145.895 449.302 141.409 457.721 136.41C472.008 127.922 485.826 118.728 499.121 108.867C503.226 106.008 506.639 102.332 509.127 98.0908C509.908 96.4867 510.481 94.7968 510.834 93.0588Z" fill="#263238"/>
<path d="M454.753 137.916C454.546 138.032 448.163 128.779 440.521 117.242C432.879 105.705 426.825 96.22 427.032 96.0876C427.239 95.9552 433.621 105.225 441.28 116.778C448.939 128.332 454.96 137.784 454.753 137.916Z" fill="#263238"/>
<path d="M448.043 127.753C447.408 128.056 446.867 128.512 446.473 129.077C446.082 129.768 445.65 130.437 445.179 131.08C444.829 131.506 444.354 131.823 443.816 131.99C443.498 132.072 443.164 132.079 442.842 132.01C442.521 131.941 442.222 131.798 441.971 131.593C441.688 131.366 441.489 131.059 441.401 130.716C441.373 130.536 441.383 130.352 441.431 130.176C441.478 129.999 441.562 129.834 441.677 129.689C442.067 129.287 442.581 129.014 443.144 128.912L445.49 128.299C446.835 127.968 447.68 127.819 447.715 127.935C447.749 128.051 446.973 128.398 445.679 128.878L443.385 129.673C442.488 129.905 441.902 130.434 442.54 130.931C442.682 131.043 442.849 131.124 443.028 131.167C443.207 131.21 443.394 131.214 443.575 131.179C443.957 131.071 444.295 130.851 444.541 130.55C445.11 129.971 445.49 129.243 445.973 128.713C446.33 128.257 446.823 127.917 447.387 127.736C447.801 127.62 448.043 127.703 448.043 127.753Z" fill="#263238"/>
<path d="M484.388 463.54C484.388 465.817 483.684 468.043 482.364 469.936C481.044 471.829 479.169 473.303 476.975 474.173C474.781 475.042 472.368 475.267 470.041 474.819C467.714 474.371 465.578 473.27 463.903 471.656C462.229 470.043 461.091 467.988 460.634 465.753C460.178 463.518 460.422 461.204 461.338 459.103C462.253 457.001 463.798 455.208 465.776 453.95C467.754 452.692 470.078 452.026 472.451 452.036C475.622 452.049 478.658 453.266 480.895 455.422C483.132 457.578 484.388 460.497 484.388 463.54Z" fill="#263238"/>
<path d="M483.198 463.539C483.112 463.539 483.198 462.613 482.698 461.057C482.064 458.845 480.68 456.9 478.765 455.528C477.455 454.596 475.937 453.967 474.332 453.691C472.393 453.351 470.395 453.541 468.564 454.241C466.733 454.941 465.145 456.121 463.982 457.647C462.67 459.354 461.963 461.419 461.963 463.539C461.963 465.66 462.67 467.725 463.982 469.432C465.189 471.036 466.872 472.253 468.812 472.925C470.558 473.549 472.447 473.709 474.28 473.388C475.886 473.112 477.403 472.483 478.713 471.551C480.629 470.179 482.013 468.234 482.646 466.022C483.095 464.466 483.06 463.539 483.147 463.539C483.172 463.759 483.172 463.982 483.147 464.202C483.154 464.843 483.079 465.482 482.922 466.105C482.378 468.441 480.999 470.52 479.024 471.981C477.663 473.007 476.066 473.705 474.366 474.017C472.755 474.32 471.093 474.276 469.501 473.89C467.909 473.503 466.426 472.783 465.158 471.782C463.89 470.78 462.869 469.522 462.168 468.097C461.467 466.672 461.104 465.115 461.104 463.539C461.104 461.964 461.467 460.407 462.168 458.982C462.869 457.557 463.89 456.299 465.158 455.297C466.426 454.296 467.909 453.576 469.501 453.189C471.093 452.803 472.755 452.759 474.366 453.062C476.066 453.374 477.663 454.072 479.024 455.098C480.999 456.559 482.378 458.638 482.922 460.974C483.08 461.597 483.155 462.236 483.147 462.877C483.19 463.096 483.207 463.318 483.198 463.539Z" fill="#455A64"/>
<path d="M321.045 467.529C321.045 469.805 320.342 472.03 319.024 473.922C317.705 475.814 315.832 477.289 313.64 478.159C311.449 479.029 309.037 479.256 306.711 478.811C304.385 478.366 302.249 477.268 300.573 475.658C298.897 474.047 297.756 471.996 297.296 469.763C296.835 467.531 297.075 465.217 297.985 463.115C298.895 461.013 300.434 459.218 302.408 457.956C304.382 456.694 306.702 456.022 309.074 456.025C312.25 456.029 315.295 457.243 317.54 459.4C319.785 461.557 321.045 464.481 321.045 467.529Z" fill="#263238"/>
<path d="M319.855 467.529C319.855 467.529 319.855 466.602 319.372 465.029C318.722 462.826 317.333 460.889 315.421 459.517C314.021 458.515 312.382 457.864 310.652 457.625C308.923 457.385 307.159 457.563 305.52 458.144C303.585 458.815 301.907 460.033 300.707 461.636C299.396 463.343 298.688 465.408 298.688 467.529C298.688 469.65 299.396 471.715 300.707 473.422C301.526 474.498 302.559 475.408 303.747 476.099C304.935 476.789 306.255 477.246 307.628 477.443C309.002 477.64 310.403 477.573 311.75 477.247C313.096 476.92 314.362 476.34 315.473 475.54C317.386 474.163 318.774 472.221 319.424 470.012C319.855 468.456 319.82 467.529 319.907 467.529C319.993 467.529 319.907 467.761 319.907 468.191C319.898 468.832 319.817 469.47 319.665 470.095C319.121 472.43 317.741 474.509 315.766 475.971C314.41 476.993 312.819 477.691 311.126 478.007C308.926 478.421 306.647 478.187 304.588 477.335C302.529 476.484 300.787 475.054 299.591 473.234C298.394 471.415 297.8 469.291 297.885 467.141C297.97 464.991 298.732 462.916 300.069 461.189C301.362 459.475 303.166 458.176 305.244 457.465C307.125 456.824 309.151 456.681 311.109 457.051C313.192 457.425 315.116 458.372 316.647 459.777C318.179 461.182 319.251 462.984 319.734 464.963C319.887 465.587 319.968 466.226 319.976 466.867C319.907 467.297 319.889 467.529 319.855 467.529Z" fill="#455A64"/>
<path d="M510.178 460.974C510.092 461.255 506.831 460.577 501.053 459.153L496.257 457.928L490.495 456.654C486.373 455.76 481.715 454.568 476.454 453.674L468.26 452.135C465.413 451.589 462.412 451.225 459.324 450.728C453.166 449.685 446.507 449.073 439.538 448.229C424.365 446.8 409.121 446.193 393.876 446.408C378.608 446.775 363.374 447.98 348.249 450.016C341.349 451.092 334.691 452.003 328.567 453.327C325.514 453.939 322.529 454.419 319.7 455.065L311.575 456.935C306.4 458.028 301.76 459.402 297.672 460.444L291.979 461.951L287.235 463.358C281.525 465.013 278.299 465.807 278.196 465.526C278.092 465.245 281.094 463.871 286.666 461.769L291.306 459.997C293.031 459.385 294.911 458.806 296.93 458.144C300.984 456.869 305.555 455.28 310.73 453.989L318.855 451.82C321.684 451.092 324.686 450.513 327.773 449.818C333.914 448.377 340.59 447.318 347.594 446.126C378.118 441.39 409.183 440.782 439.883 444.322C446.938 445.233 453.683 445.977 459.842 447.252C462.947 447.815 465.965 448.278 468.829 448.907L477.04 450.745C482.215 451.837 486.942 453.261 491.047 454.37C493.083 454.949 494.998 455.462 496.74 456.025L501.449 457.68C507.211 459.484 510.281 460.693 510.178 460.974Z" fill="#FB4A04"/>
<path d="M567.156 258.75C567.467 259.594 569.347 263.335 569.347 263.335L576.351 278.68L577.041 300.099C576.608 300.294 576.134 300.391 575.657 300.381C575.179 300.371 574.71 300.255 574.287 300.041C573.864 299.828 573.498 299.523 573.219 299.151C572.939 298.779 572.753 298.35 572.676 297.897C572.071 294.544 571.72 291.153 571.624 287.75L561.032 300.777C561.032 300.777 557.582 298.344 559.738 295.249L555.34 297.517C554.22 296.031 553.761 294.179 554.063 292.369C554.719 289.671 562.309 281.941 562.309 281.941L549.061 281.427C549.061 281.427 546.783 279.772 548.974 278.398C552.247 277.025 555.635 275.918 559.1 275.088C557.727 274.768 556.439 274.174 555.321 273.344C554.203 272.514 553.281 271.467 552.614 270.271C551.291 267.555 550.749 264.549 551.044 261.564L567.156 258.75Z" fill="#FFBE9D"/>
<path d="M516.543 150.447C516.543 150.447 525.254 207.57 525.341 211.311C525.686 215.421 526.262 219.51 527.066 223.56C527.066 223.56 526.807 223.163 530.05 228.526C533.293 233.889 553.873 268.798 553.873 268.798L569.398 263.303C569.398 263.303 553.355 217.8 551.941 210.864C550.526 203.928 553.027 169.251 549.232 154.767C545.437 140.284 516.543 150.447 516.543 150.447Z" fill="#FFBE9D"/>
<path d="M524.083 113.054C523.395 113.224 522.734 113.48 522.116 113.815C519.097 115.471 510.593 121.347 510.041 139.141C509.282 161.503 510.507 177.758 510.507 177.758L553.633 174.448C553.426 174.183 550.976 106.764 524.083 113.054Z" fill="#FB4A04"/>
<path d="M553.614 174.448C553.345 174.527 553.067 174.572 552.786 174.58L550.388 174.845L541.418 175.656L510.505 178.189H510.074V177.758C509.781 173.14 509.557 168.158 509.453 163.01C509.263 155.23 509.332 147.815 509.66 141.078C509.988 134.341 510.764 128.183 513.11 123.466C514.773 119.69 517.603 116.495 521.218 114.312C522.208 113.744 523.261 113.283 524.357 112.938C524.734 112.823 525.121 112.739 525.513 112.69C524.082 113.192 522.707 113.83 521.407 114.593C517.948 116.833 515.259 120.007 513.679 123.714C511.54 128.349 510.798 134.407 510.557 141.111C510.315 147.815 510.229 155.23 510.419 162.993C510.523 168.125 510.729 173.091 511.023 177.709L510.54 177.328L541.452 175.11L550.457 174.547L552.872 174.431C553.119 174.41 553.368 174.416 553.614 174.448Z" fill="#263238"/>
<path d="M800 748.095C800 748.327 620.907 748.526 400.017 748.526C179.127 748.526 0 748.327 0 748.095C0 747.864 179.058 747.665 400.017 747.665C620.976 747.665 800 747.847 800 748.095Z" fill="#263238"/>
</svg>
