<svg width="48" height="48" viewBox="0 0 48 48" fill="none" xmlns="http://www.w3.org/2000/svg">
<g clip-path="url(#clip0_196_344)">
<path d="M15.9431 7.68L14.606 7.98858C14.7271 8.51558 14.7422 9.0614 14.6505 9.5943C14.5588 10.1272 14.3621 10.6366 14.0718 11.0928C13.7815 11.549 13.4034 11.9429 12.9595 12.2517C12.5156 12.5605 12.0147 12.7779 11.486 12.8914C10.4139 13.1169 9.29616 12.9129 8.37295 12.323C7.44974 11.7332 6.79479 10.8047 6.54886 9.73715L3.87457 10.2857C3.50783 10.3657 3.16111 10.5193 2.85537 10.7371C2.54963 10.9548 2.29122 11.2323 2.09574 11.5528C1.90026 11.8733 1.77178 12.23 1.71805 12.6015C1.66432 12.973 1.68646 13.3516 1.78314 13.7143C1.78314 13.7143 3.01743 19.44 4.45743 25.8857" stroke="black" stroke-width="3.42857" stroke-linecap="round" stroke-linejoin="round"/>
<path d="M41.6578 7.64572C41.4529 8.22302 41.133 8.75273 40.7173 9.20273C40.3017 9.65274 39.799 10.0137 39.2398 10.2637C38.6805 10.5137 38.0764 10.6476 37.4639 10.6572C36.8514 10.6669 36.2433 10.552 35.6764 10.3197C35.1096 10.0874 34.5958 9.74248 34.1663 9.30576C33.7367 8.86904 33.4002 8.34966 33.1773 7.77908C32.9544 7.20851 32.8496 6.59861 32.8693 5.98634C32.8891 5.37408 33.0329 4.77219 33.2921 4.21715L30.5149 2.91429C29.7734 2.60525 28.9398 2.60112 28.1953 2.90281C27.4507 3.2045 26.8551 3.78765 26.5378 4.52572L15.0178 31.6457L13.5092 35.0743C13.2002 35.8159 13.196 36.6494 13.4977 37.394C13.7994 38.1386 14.3826 38.7341 15.1206 39.0514L29.0406 44.9829C29.7822 45.2919 30.6157 45.296 31.3603 44.9943C32.1049 44.6927 32.7005 44.1095 33.0178 43.3714L46.0464 12.72C46.3336 12.0072 46.3414 11.2123 46.0681 10.4941C45.7948 9.77586 45.2605 9.1872 44.5721 8.84572L41.6578 7.64572Z" stroke="black" stroke-width="3.42857" stroke-linecap="round" stroke-linejoin="round"/>
</g>
<defs>
<clipPath id="clip0_196_344">
<rect width="48" height="48" fill="white"/>
</clipPath>
</defs>
</svg>
