<svg width="60" height="60" viewBox="0 0 60 60" fill="none" xmlns="http://www.w3.org/2000/svg">
<path d="M11.6574 48.014C20.9058 57.2625 36.6839 61.439 49.4105 48.7078C62.1371 35.9765 57.9652 20.2031 48.7167 10.9547C43.5933 5.81717 37.148 2.77029 30.5527 2.34373C23.3574 1.91248 16.5652 4.66404 10.9636 10.2656C5.36206 15.8672 2.6433 22.6265 3.07455 29.8219C3.50581 36.4125 6.56206 42.9094 11.6574 48.014Z" fill="url(#paint0_radial_420_1966)"/>
<path d="M25.3125 2.59668C20.7 3.67949 16.4062 6.15449 12.6047 9.92793C6.97969 15.5529 4.28437 22.2936 4.71563 29.4842C5.15625 36.0936 8.2125 42.5764 13.3172 47.6811C19.3031 53.667 28.0266 57.5248 36.8906 56.0482C27.4688 58.3357 18.0188 54.3748 11.6578 48.0139C6.5625 42.9092 3.50625 36.4123 3.075 29.817C2.64375 22.6217 5.3625 15.8623 10.9641 10.2607C15.1875 6.0373 20.0906 3.43574 25.3125 2.59668Z" fill="#EB8F00"/>
<path d="M14.6674 18.544C15.9659 18.169 17.344 18.8112 17.8924 20.0487C20.3067 24.4391 23.3392 28.4599 26.8971 31.9877C30.4221 35.5456 34.444 38.5784 38.8362 40.9877C39.432 41.2556 39.9117 41.7286 40.1879 42.3206C40.4641 42.9126 40.5184 43.5841 40.3409 44.2127C39.9565 45.5018 38.6674 46.1346 37.4534 46.5893C30.6518 49.1346 23.1659 47.2409 17.4143 41.5221L17.3581 41.4706C11.644 35.719 9.75024 28.2331 12.2956 21.4268C12.7456 20.2174 13.3831 18.9237 14.6674 18.544Z" fill="#422B0D"/>
<path d="M17.775 41.0531L17.8031 41.0812V41.1094L17.775 41.0531ZM26.4328 32.3438L26.4844 32.3906L26.5312 32.4422L26.4328 32.3438Z" fill="#422B0D"/>
<path d="M26.4328 32.3438L26.4844 32.3906L26.5312 32.4422L26.4328 32.3438ZM17.775 41.0531L17.8031 41.0812V41.1094L17.775 41.0531Z" fill="#422B0D"/>
<path d="M13.4062 34.8657C13.6453 34.8657 13.875 34.8985 14.1 34.9173C16.6453 35.0813 19.0359 36.1923 20.8031 38.0298C22.6968 39.8485 23.8968 42.2767 24.1968 44.8876C24.225 45.1173 24.2531 45.3563 24.2671 45.5813C24.2812 45.8063 24.2296 45.9938 24.2015 46.1813C21.6672 45.067 19.3648 43.4864 17.414 41.522L17.3578 41.4704C15.4781 39.6001 13.95 37.4064 12.8484 34.997C13.0312 34.9407 13.2187 34.8985 13.4062 34.8657Z" fill="#ED7770"/>
<path d="M17.8924 20.0487C20.3067 24.4391 23.3392 28.4599 26.8971 31.9877C30.4221 35.5456 34.444 38.5784 38.8362 40.9877C39.432 41.2556 39.9117 41.7286 40.1879 42.3206C40.4641 42.9126 40.5184 43.5841 40.3409 44.2127C40.2799 44.4049 40.2002 44.5877 40.0971 44.7612C39.9049 44.6956 39.7221 44.6206 39.5393 44.5315C33.5523 42.5458 28.1266 39.1579 23.7143 34.6502C19.3883 30.4189 16.0869 25.2545 14.0627 19.5518C13.9831 19.3596 13.9127 19.1627 13.8518 18.9612C14.0956 18.7737 14.3721 18.6284 14.6674 18.544C15.9659 18.169 17.344 18.8112 17.8924 20.0487Z" fill="white"/>
<path d="M26.5315 32.6904C23.7799 30.0279 21.9799 27.4123 19.8143 24.2248C19.2752 23.4279 18.7643 22.6123 18.2721 21.7732L17.9158 21.1404C17.8221 20.9763 17.719 20.8169 17.5971 20.6716C17.3815 20.4044 17.1049 20.1982 16.7862 20.0669C16.0455 19.7951 15.2346 19.781 14.4846 20.0294C12.9612 20.7607 11.6346 23.3669 11.8033 22.8794C11.8033 22.8794 12.0799 21.7873 12.0893 21.7732C12.4643 20.8357 12.8487 19.7763 13.819 18.9607C14.3287 18.5717 14.9343 18.3279 15.5714 18.2553C16.2086 18.1826 16.8535 18.2839 17.4377 18.5482C17.9939 18.8006 18.4776 19.1892 18.844 19.6779C19.0221 19.9029 19.1815 20.1466 19.3127 20.4044L19.6268 21.0232C20.0627 21.8435 20.5268 22.6544 21.033 23.4466C22.833 26.4513 24.9565 29.2498 27.3658 31.7904L27.4408 31.8654C29.9281 34.2461 32.6732 36.3419 35.6252 38.1138C36.4221 38.5826 37.2283 39.0513 38.0487 39.5201L38.6862 39.8435C38.944 39.9748 39.1877 40.1294 39.4127 40.3123C39.9041 40.6771 40.2945 41.1611 40.5471 41.7185C40.7937 42.2994 40.8803 42.9357 40.7978 43.5613C40.7154 44.187 40.467 44.7791 40.0783 45.2763C38.8174 46.9216 35.9393 47.1513 35.9252 47.1513C35.4565 47.3201 38.2971 46.1107 39.0283 44.5873C39.2862 43.8642 39.2862 43.0743 39.0283 42.3513C38.9065 42.0232 38.7049 41.7326 38.4377 41.5076C38.2924 41.3857 38.133 41.2826 37.969 41.1935L37.3362 40.8373C36.5018 40.3685 35.6862 39.8294 34.8846 39.2904C31.7018 37.1248 29.2596 35.5404 26.6112 32.7654" fill="#EB8F00"/>
<path d="M6.03252 14.6905C5.47002 18.2718 8.76064 21.6655 11.7466 22.0686C13.8466 22.3499 16.1903 21.8671 19.7153 20.9905C20.2356 20.8921 20.7653 20.7374 21.3466 20.5921C23.4935 19.9968 25.6028 19.2796 27.67 18.4452C27.8658 18.3733 28.0281 18.2316 28.1259 18.0473C28.2236 17.8631 28.2499 17.6492 28.1997 17.4468C28.1388 17.2686 28.0169 17.114 27.8622 17.0108C26.2807 15.3897 24.5029 13.9725 22.57 12.7921C17.6903 9.77333 15.8341 9.36552 13.7341 9.08427C10.8372 8.61083 6.6419 10.7811 6.03252 14.6905Z" fill="url(#paint1_radial_420_1966)"/>
<path d="M10.5372 11.3391C9.17311 11.986 9.16373 13.8563 11.245 14.1516C12.5809 14.3297 19.4575 14.9766 18.6559 13.7063C17.3434 11.6204 12.4637 10.4251 10.5372 11.3391Z" fill="#81D4FA"/>
<path d="M25.9456 14.578L30.2722 18.4592L28.6691 12.2952C28.655 12.2202 28.641 12.1499 28.6363 12.0749C28.5941 11.8206 28.6024 11.5605 28.6609 11.3094C28.7194 11.0584 28.8268 10.8214 28.977 10.6119C29.1272 10.4025 29.3173 10.2247 29.5364 10.0889C29.7554 9.95301 29.9991 9.8617 30.2535 9.82016C30.5066 9.77798 30.7691 9.78735 31.0222 9.8436C31.5786 9.99674 32.0744 10.3172 32.4425 10.7616C32.8106 11.206 33.0331 11.7528 33.08 12.328C33.3472 15.0514 33.9753 21.4686 34.2191 23.967C34.2941 24.2155 34.1535 24.478 33.905 24.553C33.741 24.6045 33.5628 24.5577 33.441 24.4358L23.7425 18.3045L23.5503 18.1686C22.3785 17.2686 22.0925 15.553 23.0394 14.5592C23.7613 13.7998 25.0081 13.8608 25.9456 14.578Z" fill="#422B0D"/>
<path d="M47.8595 48.7499C48.0282 46.7296 48.0329 44.9109 46.2095 39.7218C45.497 37.6687 44.5314 35.714 43.3361 33.8999C43.2704 33.7312 43.1486 33.5905 42.9939 33.4968C42.6236 33.3093 42.1736 33.4359 41.9486 33.7827C40.7439 35.5452 39.6423 37.3734 38.6392 39.2577C38.3861 39.7734 38.1329 40.2327 37.9314 40.7015C36.3845 43.8374 35.4517 45.9327 35.2829 47.953C35.0439 50.8265 37.5423 54.6046 41.0064 54.8202C44.7798 55.0359 47.6814 51.5624 47.8595 48.7499Z" fill="url(#paint2_radial_420_1966)"/>
<path d="M44.5317 43.2048C43.5145 42.1876 42.7036 48.7501 42.5958 50.0392C42.4317 52.0454 44.1848 52.4204 45.0661 51.2813C46.3223 49.6876 46.2051 44.8548 44.5317 43.2048Z" fill="#81D4FA"/>
<path d="M45.8582 36.9189L42.7363 32.0111L48.5535 34.608L48.7504 34.6876C49.7769 35.0345 50.8925 34.4861 51.2441 33.4595C51.3285 33.2158 51.3613 32.958 51.3425 32.7001C51.2835 32.1258 51.0489 31.5836 50.6706 31.1474C50.2923 30.7112 49.7887 30.4023 49.2285 30.2626L37.9691 27.2111C37.7347 27.0986 37.4535 27.197 37.341 27.4314C37.266 27.5861 37.28 27.7689 37.3832 27.9048L41.8222 38.4751C41.8504 38.5501 41.8832 38.6205 41.9207 38.6908C42.6144 39.9939 44.2644 40.5658 45.3988 39.7876C46.266 39.197 46.4066 37.9689 45.8582 36.9189Z" fill="#422B0D"/>
<defs>
<radialGradient id="paint0_radial_420_1966" cx="0" cy="0" r="1" gradientUnits="userSpaceOnUse" gradientTransform="translate(30.8783 28.6185) rotate(-135) scale(26.8092)">
<stop offset="0.5" stop-color="#FDE030"/>
<stop offset="0.92" stop-color="#F7C02B"/>
<stop offset="1" stop-color="#F4A223"/>
</radialGradient>
<radialGradient id="paint1_radial_420_1966" cx="0" cy="0" r="1" gradientUnits="userSpaceOnUse" gradientTransform="translate(23.679 14.2985) rotate(-82.5191) scale(14.7903 22.8752)">
<stop offset="0.46" stop-color="#29B6F6"/>
<stop offset="1" stop-color="#1E88E5"/>
</radialGradient>
<radialGradient id="paint2_radial_420_1966" cx="0" cy="0" r="1" gradientUnits="userSpaceOnUse" gradientTransform="translate(41.5116 34.5433) rotate(4.57392) scale(14.2297 21.78)">
<stop offset="0.46" stop-color="#29B6F6"/>
<stop offset="1" stop-color="#1E88E5"/>
</radialGradient>
</defs>
</svg>
