<svg width="107" height="107" viewBox="0 0 107 107" fill="none" xmlns="http://www.w3.org/2000/svg">
<path d="M84.7083 13.375H22.2917C17.3671 13.375 13.375 17.3671 13.375 22.2917V84.7083C13.375 89.6329 17.3671 93.625 22.2917 93.625H84.7083C89.6329 93.625 93.625 89.6329 93.625 84.7083V22.2917C93.625 17.3671 89.6329 13.375 84.7083 13.375Z" stroke="#A3A3A3" stroke-width="2" stroke-linecap="round" stroke-linejoin="round"/>
<path d="M37.8945 44.5833C41.5879 44.5833 44.582 41.5892 44.582 37.8958C44.582 34.2024 41.5879 31.2083 37.8945 31.2083C34.2011 31.2083 31.207 34.2024 31.207 37.8958C31.207 41.5892 34.2011 44.5833 37.8945 44.5833Z" stroke="#A3A3A3" stroke-width="2" stroke-linecap="round" stroke-linejoin="round"/>
<path d="M93.6263 66.875L71.3346 44.5833L22.293 93.625" stroke="#A3A3A3" stroke-width="2" stroke-linecap="round" stroke-linejoin="round"/>
</svg>
