<svg width="64" height="64" viewBox="0 0 64 64" fill="none" xmlns="http://www.w3.org/2000/svg">
<g clip-path="url(#clip0_339_987)">
<path d="M0.0078125 12C0.0078125 9.87827 0.850667 7.84344 2.35096 6.34315C3.85125 4.84285 5.88608 4 8.00781 4H56.0078C58.1295 4 60.1644 4.84285 61.6647 6.34315C63.165 7.84344 64.0078 9.87827 64.0078 12V52C64.0078 54.1217 63.165 56.1566 61.6647 57.6569C60.1644 59.1571 58.1295 60 56.0078 60H8.00781C5.88608 60 3.85125 59.1571 2.35096 57.6569C0.850667 56.1566 0.0078125 54.1217 0.0078125 52V12ZM4.00781 48V52C4.00781 53.0609 4.42924 54.0783 5.17939 54.8284C5.92953 55.5786 6.94695 56 8.00781 56H56.0078C57.0687 56 58.0861 55.5786 58.8362 54.8284C59.5864 54.0783 60.0078 53.0609 60.0078 52V38L44.8998 30.212C44.5247 30.0241 44.1 29.9589 43.6858 30.0257C43.2716 30.0924 42.8889 30.2878 42.5918 30.584L27.7518 45.424L17.1118 38.336C16.7277 38.0802 16.2669 37.9652 15.8076 38.0104C15.3483 38.0556 14.9187 38.2583 14.5918 38.584L4.00781 48ZM24.0078 22C24.0078 20.4087 23.3757 18.8826 22.2505 17.7574C21.1252 16.6321 19.5991 16 18.0078 16C16.4165 16 14.8904 16.6321 13.7652 17.7574C12.64 18.8826 12.0078 20.4087 12.0078 22C12.0078 23.5913 12.64 25.1174 13.7652 26.2426C14.8904 27.3679 16.4165 28 18.0078 28C19.5991 28 21.1252 27.3679 22.2505 26.2426C23.3757 25.1174 24.0078 23.5913 24.0078 22Z" fill="#D9D9D9"/>
</g>
<defs>
<clipPath id="clip0_339_987">
<rect width="64" height="64" fill="white"/>
</clipPath>
</defs>
</svg>
