<svg width="48" height="48" viewBox="0 0 48 48" fill="none" xmlns="http://www.w3.org/2000/svg">
<path d="M32.625 22.5H25.5V15.375C25.5 15.1687 25.3313 15 25.125 15H22.875C22.6687 15 22.5 15.1687 22.5 15.375V22.5H15.375C15.1687 22.5 15 22.6687 15 22.875V25.125C15 25.3313 15.1687 25.5 15.375 25.5H22.5V32.625C22.5 32.8312 22.6687 33 22.875 33H25.125C25.3313 33 25.5 32.8312 25.5 32.625V25.5H32.625C32.8312 25.5 33 25.3313 33 25.125V22.875C33 22.6687 32.8312 22.5 32.625 22.5Z" fill="#666666"/>
<path d="M24 3C12.4031 3 3 12.4031 3 24C3 35.5969 12.4031 45 24 45C35.5969 45 45 35.5969 45 24C45 12.4031 35.5969 3 24 3ZM24 41.4375C14.3719 41.4375 6.5625 33.6281 6.5625 24C6.5625 14.3719 14.3719 6.5625 24 6.5625C33.6281 6.5625 41.4375 14.3719 41.4375 24C41.4375 33.6281 33.6281 41.4375 24 41.4375Z" fill="#666666"/>
</svg>
