<svg width="274" height="283" viewBox="0 0 274 283" fill="none" xmlns="http://www.w3.org/2000/svg">
<path d="M251.291 191.826C247.87 191.836 244.593 193.194 242.175 195.603C239.756 198.012 238.393 201.276 238.383 204.683C238.383 211.783 251.291 225.164 251.291 225.164C251.291 225.164 264.198 211.753 264.198 204.683C264.188 201.276 262.825 198.012 260.407 195.603C257.988 193.194 254.711 191.836 251.291 191.826ZM251.291 209.272C250.214 209.274 249.161 208.957 248.264 208.363C247.368 207.768 246.669 206.922 246.256 205.931C245.842 204.941 245.733 203.85 245.941 202.798C246.15 201.746 246.667 200.779 247.428 200.019C248.188 199.259 249.157 198.742 250.213 198.531C251.269 198.32 252.364 198.426 253.36 198.835C254.355 199.244 255.207 199.938 255.806 200.829C256.406 201.72 256.726 202.768 256.728 203.841C256.729 204.553 256.589 205.259 256.316 205.917C256.044 206.576 255.643 207.174 255.139 207.679C254.634 208.183 254.034 208.583 253.374 208.857C252.714 209.13 252.006 209.271 251.291 209.272Z" fill="#231414" fill-opacity="0.83"/>
<path d="M251.291 225.574C251.239 225.575 251.189 225.565 251.141 225.546C251.094 225.526 251.052 225.497 251.016 225.46C250.483 224.906 238.002 211.851 238.002 204.683C238.002 201.172 239.402 197.806 241.894 195.323C244.386 192.841 247.766 191.446 251.291 191.446C254.815 191.446 258.195 192.841 260.687 195.323C263.179 197.806 264.579 201.172 264.579 204.683C264.579 211.851 252.098 224.906 251.565 225.46C251.529 225.496 251.487 225.525 251.439 225.545C251.392 225.565 251.342 225.574 251.291 225.574ZM251.291 192.197C247.969 192.201 244.785 193.517 242.437 195.856C240.089 198.196 238.768 201.367 238.763 204.675C238.763 210.971 249.425 222.646 251.291 224.633C253.149 222.646 263.818 210.979 263.818 204.675C263.814 201.368 262.492 198.197 260.144 195.859C257.795 193.521 254.611 192.207 251.291 192.205V192.197ZM251.291 209.644C250.138 209.645 249.012 209.307 248.053 208.67C247.094 208.034 246.346 207.129 245.904 206.069C245.461 205.009 245.344 203.842 245.568 202.716C245.791 201.59 246.345 200.556 247.158 199.743C247.972 198.931 249.009 198.376 250.139 198.151C251.269 197.926 252.44 198.039 253.505 198.477C254.57 198.915 255.481 199.657 256.123 200.611C256.764 201.564 257.107 202.686 257.109 203.833C257.111 204.596 256.962 205.352 256.67 206.057C256.379 206.762 255.951 207.404 255.41 207.944C254.87 208.484 254.228 208.913 253.521 209.206C252.814 209.499 252.056 209.651 251.291 209.652V209.644ZM251.291 198.804C250.289 198.803 249.309 199.097 248.476 199.65C247.642 200.203 246.992 200.99 246.607 201.911C246.223 202.832 246.121 203.847 246.315 204.825C246.509 205.804 246.99 206.704 247.697 207.41C248.404 208.117 249.305 208.598 250.288 208.795C251.27 208.991 252.288 208.892 253.214 208.512C254.14 208.132 254.932 207.486 255.489 206.657C256.047 205.829 256.346 204.854 256.347 203.856C256.341 202.524 255.806 201.248 254.858 200.307C253.911 199.366 252.628 198.837 251.291 198.835V198.804Z" fill="#231414" fill-opacity="0.83"/>
<path d="M91.5076 19.4065C85.5601 16.2812 77.6707 15.682 70.421 17.8135C63.1713 19.945 56.7135 24.7922 53.4695 30.7089C53.2787 31.0488 53.1945 31.4379 53.2278 31.8259C53.261 32.2139 53.4102 32.5831 53.656 32.8859C53.9018 33.1887 54.233 33.4112 54.607 33.5248C54.9809 33.6384 55.3804 33.6378 55.754 33.5232C55.9996 33.4523 56.2286 33.3333 56.4273 33.173C56.6261 33.0128 56.7907 32.8146 56.9115 32.5901C59.6987 27.5533 65.1665 23.4268 71.5404 21.5608C77.9144 19.6947 84.6234 20.1954 89.6952 22.8579C90.1547 23.0993 90.6916 23.149 91.1879 22.9961C91.6842 22.8432 92.0991 22.5001 92.3415 22.0424C92.5838 21.5848 92.6338 21.0499 92.4802 20.5556C92.3267 20.0612 91.9823 19.6479 91.5228 19.4065H91.5076Z" fill="#231414" fill-opacity="0.83"/>
<path d="M87.9735 26.3319C83.1042 24.3431 77.6985 24.0728 72.6537 25.5657C67.6089 27.0586 63.2282 30.225 60.2388 34.5394C60.017 34.8734 59.9039 35.2674 59.9148 35.6677C59.9257 36.068 60.0601 36.4553 60.2997 36.7768C60.5393 37.0984 60.8725 37.3386 61.254 37.4649C61.6355 37.5912 62.0468 37.5974 62.432 37.4826C62.8722 37.3672 63.256 37.098 63.5134 36.7241C65.997 33.1798 69.6144 30.5799 73.774 29.3494C77.9336 28.1189 82.3893 28.3307 86.4124 29.9502C86.6484 30.0523 86.9023 30.1071 87.1596 30.1115C87.4169 30.1158 87.6725 30.0697 87.9118 29.9756C88.1512 29.8816 88.3696 29.7415 88.5547 29.5634C88.7397 29.3853 88.8877 29.1726 88.9902 28.9375C89.0927 28.7024 89.1477 28.4495 89.1521 28.1932C89.1565 27.937 89.1101 27.6824 89.0157 27.4439C88.9213 27.2055 88.7807 26.9879 88.6019 26.8036C88.4231 26.6193 88.2095 26.4719 87.9735 26.3698V26.3319Z" fill="#231414" fill-opacity="0.83"/>
<path d="M84.3866 33.2047C81.2959 31.9131 77.8475 31.7456 74.6453 32.7316C71.4432 33.7177 68.6912 35.7944 66.8715 38.5981C66.5839 39.029 66.4794 39.5558 66.5807 40.0632C66.682 40.5707 66.981 41.0176 67.4122 41.3061C67.8429 41.5897 68.3674 41.6952 68.8748 41.6003C69.3822 41.5055 69.8327 41.2177 70.1308 40.7979C71.4452 38.7374 73.45 37.2075 75.7894 36.4798C78.1287 35.7521 80.6513 35.8737 82.9092 36.823C83.3909 37.0172 83.9303 37.0128 84.4087 36.8108C84.8872 36.6088 85.2654 36.2257 85.4603 35.7459C85.6552 35.2661 85.6508 34.7288 85.448 34.2522C85.2452 33.7757 84.8607 33.3989 84.379 33.2047H84.3866Z" fill="#231414" fill-opacity="0.83"/>
<path d="M76.7713 39.2806C75.8776 39.5389 75.0809 40.0554 74.4819 40.7647C73.8828 41.474 73.5083 42.3443 73.4057 43.2655C73.303 44.1868 73.4769 45.1177 73.9052 45.9405C74.3336 46.7634 74.9972 47.4413 75.8123 47.8886C76.6273 48.3359 77.5572 48.5324 78.4843 48.4534C79.4115 48.3744 80.2943 48.0234 81.0212 47.4447C81.7482 46.866 82.2866 46.0857 82.5684 45.2023C82.8502 44.3189 82.8628 43.3722 82.6046 42.4816C82.4329 41.8897 82.1458 41.3373 81.7596 40.856C81.3735 40.3747 80.8959 39.9739 80.3541 39.6766C79.8123 39.3793 79.217 39.1913 78.6022 39.1233C77.9875 39.0554 77.3653 39.1088 76.7713 39.2806Z" fill="#231414" fill-opacity="0.83"/>
<path d="M250.969 61.8174H216.937C215.6 61.8174 214.318 62.3464 213.372 63.2882C212.427 64.2299 211.896 65.5072 211.896 66.839V84.9609C211.896 86.2927 212.427 87.5699 213.372 88.5117C214.318 89.4534 215.6 89.9825 216.937 89.9825H217.995C216.937 92.3188 214.904 95.8764 211.637 97.9928C211.637 97.9928 218.536 97.5149 225.725 89.9825H250.954C252.291 89.9825 253.574 89.4534 254.519 88.5117C255.464 87.5699 255.996 86.2927 255.996 84.9609V66.839C255.996 65.5098 255.466 64.2348 254.524 63.2935C253.582 62.3522 252.304 61.8214 250.969 61.8174Z" fill="#231414" fill-opacity="0.83"/>
<path d="M211.652 98.3717C211.572 98.3727 211.493 98.3483 211.427 98.302C211.361 98.2556 211.312 98.1898 211.286 98.1138C211.261 98.0339 211.261 97.9478 211.289 97.8685C211.316 97.7891 211.369 97.7208 211.439 97.6738C214.348 95.7926 216.267 92.7584 217.409 90.3614H216.937C215.502 90.3554 214.128 89.7839 213.115 88.7719C212.102 87.7599 211.532 86.3897 211.53 84.9605V66.8386C211.532 65.4102 212.102 64.0407 213.116 63.0299C214.129 62.0191 215.503 61.4493 216.937 61.4453H250.954C251.666 61.4453 252.371 61.585 253.029 61.8564C253.687 62.1279 254.285 62.5257 254.788 63.0272C255.292 63.5287 255.691 64.1241 255.964 64.7794C256.236 65.4346 256.376 66.137 256.376 66.8462V84.9605C256.376 86.3929 255.805 87.7666 254.788 88.7795C253.771 89.7924 252.392 90.3614 250.954 90.3614H225.908C218.734 97.8028 211.964 98.3489 211.675 98.3717H211.652ZM216.937 62.2039C215.701 62.2039 214.516 62.693 213.642 63.5636C212.767 64.4342 212.276 65.615 212.276 66.8462V84.9605C212.276 86.1917 212.767 87.3725 213.642 88.2431C214.516 89.1137 215.701 89.6028 216.937 89.6028H217.996C218.06 89.6012 218.124 89.6163 218.181 89.6465C218.237 89.6768 218.285 89.7212 218.32 89.7754C218.355 89.8297 218.374 89.8919 218.378 89.956C218.381 90.0202 218.367 90.084 218.338 90.1414C217.164 92.8823 215.401 95.3341 213.175 97.3249C215.589 96.7257 220.47 94.943 225.451 89.7394C225.485 89.701 225.528 89.6703 225.575 89.6494C225.622 89.6285 225.673 89.6178 225.725 89.618H250.954C252.19 89.618 253.376 89.1289 254.25 88.2583C255.124 87.3877 255.615 86.2069 255.615 84.9757V66.8386C255.615 65.6074 255.124 64.4266 254.25 63.556C253.376 62.6854 252.19 62.1963 250.954 62.1963L216.937 62.2039Z" fill="#231414" fill-opacity="0.83"/>
<path d="M228.11 75.2512C228.11 74.7396 227.957 74.2395 227.672 73.8141C227.387 73.3888 226.981 73.0572 226.507 72.8614C226.032 72.6657 225.51 72.6144 225.006 72.7143C224.502 72.8141 224.04 73.0604 223.677 73.4222C223.313 73.7839 223.066 74.2448 222.966 74.7466C222.866 75.2483 222.917 75.7684 223.114 76.2411C223.31 76.7137 223.643 77.1177 224.07 77.4019C224.497 77.6862 224.999 77.8379 225.513 77.8379C225.853 77.8379 226.19 77.7712 226.504 77.6416C226.818 77.512 227.103 77.322 227.344 77.0825C227.584 76.843 227.775 76.5587 227.905 76.2458C228.035 75.9329 228.102 75.5975 228.102 75.2588L228.11 75.2512Z" fill="white"/>
<path d="M234.339 77.8379C235.773 77.8379 236.936 76.6798 236.936 75.2512C236.936 73.8226 235.773 72.6646 234.339 72.6646C232.905 72.6646 231.742 73.8226 231.742 75.2512C231.742 76.6798 232.905 77.8379 234.339 77.8379Z" fill="white"/>
<path d="M245.754 75.2512C245.754 74.7396 245.602 74.2395 245.317 73.8141C245.031 73.3888 244.626 73.0572 244.151 72.8614C243.677 72.6657 243.154 72.6144 242.651 72.7143C242.147 72.8141 241.684 73.0604 241.321 73.4222C240.958 73.7839 240.711 74.2448 240.61 74.7466C240.51 75.2483 240.562 75.7684 240.758 76.2411C240.955 76.7137 241.288 77.1177 241.715 77.4019C242.142 77.6862 242.644 77.8379 243.157 77.8379C243.846 77.8379 244.507 77.5654 244.994 77.0803C245.481 76.5952 245.754 75.9372 245.754 75.2512Z" fill="white"/>
<path d="M16.8473 173.746C24.2432 173.021 29.6488 166.461 28.921 159.094C28.1932 151.727 21.6077 146.343 14.2118 147.068C6.81587 147.793 1.41029 154.353 2.13807 161.72C2.86586 169.087 9.4514 174.471 16.8473 173.746Z" fill="#231414" fill-opacity="0.83"/>
<path d="M15.5459 174.182C12.8092 174.182 10.134 173.373 7.85852 171.859C5.58306 170.344 3.80954 168.192 2.76226 165.673C1.71498 163.155 1.44096 160.383 1.97486 157.71C2.50876 155.036 3.8266 152.58 5.76173 150.653C7.69685 148.725 10.1624 147.412 12.8464 146.881C15.5305 146.349 18.3127 146.622 20.841 147.665C23.3694 148.708 25.5304 150.475 27.0509 152.741C28.5713 155.008 29.3828 157.673 29.3828 160.399C29.3838 162.209 29.0266 164.002 28.3316 165.674C27.6365 167.347 26.6174 168.867 25.3323 170.147C24.0472 171.427 22.5215 172.442 20.8422 173.134C19.163 173.827 17.3633 174.183 15.5459 174.182ZM15.5459 147.374C12.9598 147.374 10.4318 148.138 8.2816 149.569C6.13137 151 4.45546 153.035 3.46582 155.414C2.47617 157.794 2.21724 160.413 2.72175 162.94C3.22627 165.466 4.47158 167.787 6.30021 169.608C8.12883 171.43 10.4586 172.67 12.995 173.173C15.5314 173.675 18.1604 173.417 20.5496 172.432C22.9388 171.446 24.9809 169.776 26.4177 167.635C27.8544 165.493 28.6213 162.975 28.6213 160.399C28.6213 156.944 27.2437 153.632 24.7916 151.189C22.3395 148.747 19.0137 147.374 15.5459 147.374Z" fill="#231414" fill-opacity="0.83"/>
<path d="M9.47656 152.047L23.9912 160.399L9.47656 168.751V152.047Z" fill="white"/>
<path d="M9.47652 169.16C9.40909 169.163 9.3426 169.144 9.28614 169.107C9.22753 169.075 9.17879 169.028 9.14523 168.971C9.11167 168.913 9.09456 168.847 9.09576 168.781V152.093C9.09456 152.026 9.11167 151.961 9.14523 151.903C9.17879 151.846 9.22753 151.798 9.28614 151.767C9.34403 151.733 9.40969 151.716 9.47652 151.716C9.54336 151.716 9.60902 151.733 9.66691 151.767L24.1816 160.111C24.2681 160.157 24.3326 160.236 24.3611 160.33C24.3896 160.424 24.3798 160.525 24.3339 160.611C24.2996 160.676 24.2465 160.729 24.1816 160.763L9.66691 169.107C9.61006 169.143 9.54384 169.162 9.47652 169.16ZM9.85729 152.738V168.121L23.2297 160.429L9.85729 152.738Z" fill="#231414" fill-opacity="0.83"/>
<path d="M47.6201 261.954C45.259 261.999 42.9331 261.379 40.911 260.164C31.2853 254.414 25.612 245.873 23.2132 235.071C22.6188 232.859 22.551 230.539 23.0152 228.297C23.395 226.447 24.2968 224.743 25.6147 223.386C26.9326 222.029 28.6118 221.075 30.4553 220.635C31.1355 220.398 31.8816 220.434 32.5356 220.736C33.1895 221.038 33.6998 221.581 33.9583 222.251C34.8555 224.737 35.6181 227.269 36.2429 229.837C36.35 230.399 36.2565 230.982 35.9784 231.483C35.7003 231.985 35.2552 232.373 34.7198 232.583C33.5939 233.152 32.4371 233.658 31.2549 234.1C31.1046 234.132 30.9622 234.194 30.8359 234.281C30.7097 234.369 30.602 234.48 30.5192 234.609C30.4364 234.738 30.38 234.882 30.3534 235.033C30.3267 235.184 30.3303 235.338 30.3639 235.488C30.3875 235.608 30.4313 235.724 30.4934 235.829C32.6746 241.924 36.2489 247.429 40.9339 251.911C41.6345 252.586 42.1371 252.472 42.7768 251.774C43.5844 250.856 44.4796 250.017 45.4497 249.271C45.9391 248.852 46.5608 248.619 47.2057 248.612C47.8506 248.605 48.4773 248.825 48.9756 249.233C50.8086 250.584 52.5629 252.038 54.2301 253.587C56.1567 255.468 56.0273 257.274 54.093 259.147C52.3785 260.878 50.06 261.883 47.6201 261.954Z" fill="#231414" fill-opacity="0.83"/>
<path d="M47.6197 262.333C45.2077 262.365 42.8345 261.727 40.766 260.49C31.3993 254.9 25.3832 246.374 22.8854 235.155C22.272 232.886 22.2042 230.506 22.6874 228.206C23.078 226.294 24.0074 224.532 25.3669 223.127C26.7263 221.722 28.4595 220.731 30.3636 220.272C31.1367 220.006 31.9834 220.05 32.7241 220.396C33.4648 220.741 34.0412 221.361 34.3311 222.123C35.2364 224.629 35.9992 227.184 36.6157 229.776C36.7489 230.422 36.6484 231.094 36.332 231.673C36.0156 232.252 35.5037 232.7 34.887 232.94C33.7752 233.501 32.6025 234.024 31.3993 234.495C30.7291 234.752 30.592 235.056 30.8433 235.739C33.0145 241.772 36.5564 247.224 41.1925 251.668C41.3493 251.849 41.5648 251.97 41.8017 252.01C41.9844 252.01 42.2053 251.858 42.4871 251.547C43.3107 250.611 44.2238 249.758 45.2133 248.998C45.7681 248.526 46.472 248.264 47.2016 248.257C47.9312 248.25 48.64 248.499 49.2037 248.96L49.8891 249.499C51.4891 250.687 53.0149 251.972 54.4582 253.345C54.902 253.709 55.2661 254.16 55.528 254.671C55.79 255.181 55.9442 255.739 55.9813 256.311C55.9358 256.913 55.7679 257.5 55.4877 258.036C55.2076 258.572 54.8211 259.046 54.3516 259.428C52.561 261.207 50.1551 262.235 47.6273 262.303L47.6197 262.333ZM31.3916 220.886C31.1085 220.886 30.8267 220.924 30.554 221C28.7771 221.425 27.1588 222.346 25.8883 223.655C24.6179 224.963 23.7479 226.605 23.3804 228.388C22.9329 230.574 23.0006 232.833 23.5784 234.988C26.0305 245.994 31.9552 254.361 41.0935 259.838C43.0518 261.02 45.3075 261.623 47.5969 261.575C49.9323 261.515 52.1547 260.561 53.8033 258.912C54.1974 258.594 54.5236 258.201 54.7629 257.755C55.0023 257.31 55.1498 256.821 55.1969 256.318C55.1624 255.849 55.0326 255.392 54.8153 254.975C54.5979 254.558 54.2977 254.189 53.9328 253.891C52.4984 252.539 50.9854 251.273 49.4017 250.098L48.7163 249.559C48.2843 249.209 47.7421 249.021 47.1849 249.03C46.6278 249.038 46.0915 249.242 45.6702 249.605C44.718 250.336 43.8405 251.16 43.0506 252.063C42.9079 252.258 42.7259 252.422 42.5161 252.543C42.3063 252.665 42.0733 252.741 41.8321 252.768C41.6078 252.768 41.3863 252.718 41.1836 252.622C40.9809 252.526 40.8019 252.387 40.6594 252.214C35.9399 247.687 32.3353 242.134 30.1275 235.989C30.0307 235.814 29.9695 235.622 29.9474 235.424C29.9252 235.225 29.9426 235.025 29.9985 234.833C30.0544 234.641 30.1477 234.462 30.273 234.307C30.3984 234.151 30.5534 234.022 30.7291 233.926C30.8522 233.862 30.9826 233.814 31.1175 233.782C32.2979 233.319 33.4554 232.811 34.5444 232.264C35.0055 232.098 35.3925 231.775 35.6365 231.351C35.8805 230.927 35.9657 230.431 35.877 229.951C35.2533 227.383 34.4907 224.851 33.5924 222.365C33.426 221.921 33.1245 221.54 32.7299 221.275C32.3353 221.009 31.8675 220.874 31.3916 220.886Z" fill="#231414" fill-opacity="0.83"/>
<path d="M61.13 239.759C60.9701 240.965 60.8787 242.186 60.635 243.385C60.6112 243.617 60.5417 243.842 60.4305 244.048C60.3192 244.253 60.1683 244.434 59.9866 244.582C59.8048 244.729 59.5956 244.839 59.3711 244.906C59.1465 244.972 58.911 244.994 58.6779 244.97C58.5673 244.955 58.458 244.932 58.3505 244.902C57.3529 244.667 56.8274 243.734 57.0559 242.505C57.763 238.733 57.0026 234.835 54.9292 231.602C52.8557 228.368 49.6246 226.042 45.8919 225.096C45.5486 225.028 45.2122 224.929 44.8867 224.8C44.4878 224.648 44.1584 224.356 43.9607 223.978C43.7629 223.601 43.7104 223.165 43.8129 222.752C43.8357 222.538 43.9007 222.33 44.0042 222.141C44.1076 221.952 44.2475 221.785 44.4159 221.649C44.5842 221.514 44.7777 221.413 44.9853 221.352C45.1928 221.292 45.4103 221.272 45.6254 221.296H45.8081C47.4837 221.659 49.1152 222.2 50.6743 222.911C53.8065 224.487 56.4406 226.894 58.2857 229.867C60.1308 232.84 61.1152 236.264 61.13 239.759Z" fill="#231414" fill-opacity="0.83"/>
<path d="M58.8762 245.365C58.6609 245.362 58.4465 245.336 58.2366 245.289C57.041 245.001 56.4013 243.863 56.6602 242.452C57.351 238.774 56.6106 234.973 54.5893 231.82C52.5681 228.667 49.4177 226.398 45.778 225.475L45.5115 225.415C45.23 225.363 44.9562 225.277 44.6967 225.157C44.221 224.968 43.8297 224.615 43.5947 224.162C43.3596 223.709 43.2966 223.187 43.4173 222.691C43.4667 222.386 43.5779 222.095 43.7441 221.834C43.9104 221.573 44.1283 221.349 44.3844 221.174C44.6078 221.032 44.859 220.937 45.1215 220.898C45.384 220.859 45.6519 220.876 45.9075 220.947C47.6085 221.317 49.2652 221.866 50.8498 222.585C54.0437 224.18 56.7311 226.626 58.6133 229.651C60.4954 232.676 61.4985 236.162 61.5111 239.721V239.774C61.4654 240.146 61.4197 240.533 61.3817 240.882C61.2903 241.716 61.1913 242.581 61.0161 243.43C60.9723 243.745 60.8654 244.047 60.7019 244.319C60.5383 244.592 60.3215 244.828 60.0642 245.016C59.7134 245.25 59.2988 245.372 58.8762 245.365ZM45.3896 221.675C45.1796 221.672 44.9732 221.73 44.7956 221.842C44.6284 221.958 44.4862 222.107 44.3776 222.279C44.269 222.451 44.1963 222.643 44.1636 222.843C44.0786 223.175 44.1203 223.526 44.2808 223.829C44.4412 224.132 44.7088 224.364 45.0317 224.482C45.2388 224.571 45.4563 224.635 45.679 224.671L45.9684 224.74C49.7895 225.718 53.0949 228.105 55.2156 231.419C57.3363 234.732 58.114 238.725 57.3913 242.588C57.2009 243.605 57.5893 244.356 58.3889 244.545C58.587 244.605 58.7952 244.623 59.0008 244.6C59.2063 244.576 59.4049 244.511 59.5845 244.409C59.7615 244.278 59.9105 244.113 60.023 243.924C60.1354 243.736 60.209 243.526 60.2394 243.309C60.4069 242.497 60.4983 241.648 60.5973 240.821C60.6354 240.464 60.6734 240.062 60.7267 239.736C60.7075 236.318 59.7372 232.972 57.9237 230.07C56.1101 227.168 53.5244 224.824 50.4538 223.298C48.9213 222.601 47.318 222.069 45.6714 221.713C45.5778 221.702 45.4832 221.702 45.3896 221.713V221.675Z" fill="#231414" fill-opacity="0.83"/>
<path d="M54.8179 240.699C54.757 241.154 54.6961 242.034 54.5209 242.884C54.4918 243.122 54.4155 243.353 54.2966 243.561C54.1777 243.77 54.0184 243.954 53.828 244.101C53.6376 244.249 53.4198 244.357 53.1871 244.42C52.9545 244.483 52.7116 244.5 52.4724 244.469H52.4039C52.153 244.421 51.9141 244.324 51.7012 244.183C51.4884 244.042 51.3058 243.861 51.164 243.649C51.0223 243.437 50.9243 243.199 50.8756 242.95C50.827 242.7 50.8288 242.443 50.8808 242.193C51.0328 241.09 51.0558 239.972 50.9494 238.863C50.2335 234.669 47.7434 231.991 43.6235 230.823C42.2832 230.443 41.5979 229.602 41.8415 228.547C42.0852 227.493 43.1057 226.916 44.4993 227.212C50.3706 228.502 54.8332 234.138 54.8179 240.699Z" fill="#231414" fill-opacity="0.83"/>
<path d="M52.7319 244.864H52.3435C52.0474 244.814 51.764 244.707 51.5096 244.548C51.2551 244.389 51.0346 244.182 50.8606 243.938C50.6866 243.694 50.5626 243.419 50.4956 243.127C50.4286 242.836 50.4199 242.534 50.4701 242.239C50.4701 242.004 50.5082 241.761 50.5311 241.518C50.6377 240.682 50.6377 239.836 50.5311 239C49.8457 234.995 47.485 232.385 43.4794 231.255C41.9563 230.823 41.1415 229.776 41.4308 228.532C41.7202 227.288 42.9539 226.56 44.5303 226.916C50.7138 228.259 55.1916 234.077 55.1916 240.767V240.813C55.1972 240.959 55.1792 241.105 55.1383 241.245C55.0926 241.723 55.0164 242.376 54.887 243.02C54.8 243.53 54.537 243.993 54.1434 244.329C53.7499 244.666 53.2505 244.855 52.7319 244.864ZM43.7154 227.516C43.3672 227.482 43.0189 227.579 42.7377 227.786C42.4565 227.993 42.2622 228.297 42.1924 228.638C41.9182 229.829 43.1595 230.315 43.7154 230.466C48.018 231.68 50.5691 234.487 51.3307 238.81C51.4449 239.712 51.4449 240.624 51.3307 241.526C51.3307 241.761 51.285 241.996 51.2697 242.231C51.2206 242.431 51.2129 242.639 51.2471 242.842C51.2812 243.046 51.3565 243.24 51.4684 243.413C51.5803 243.586 51.7263 243.735 51.8977 243.85C52.0691 243.965 52.2622 244.044 52.4653 244.082C52.6554 244.111 52.8493 244.103 53.036 244.057C53.2227 244.012 53.3986 243.93 53.5535 243.816C53.7084 243.703 53.8393 243.56 53.9388 243.396C54.0383 243.232 54.1043 243.05 54.1331 242.861C54.1331 242.861 54.1331 242.823 54.1331 242.8C54.2549 242.194 54.3235 241.556 54.3768 241.094C54.3671 240.95 54.3826 240.807 54.4225 240.669C54.4225 234.35 50.2036 228.851 44.3779 227.584C44.1601 227.538 43.938 227.515 43.7154 227.516Z" fill="#231414" fill-opacity="0.83"/>
<path d="M44.7495 241.329C44.879 240.292 44.6195 239.244 44.0208 238.386C43.4221 237.528 42.5263 236.92 41.5054 236.679C40.2108 236.285 39.6092 235.374 39.9138 234.282C40.2184 233.19 41.2236 232.765 42.5563 233.106C44.4714 233.618 46.1282 234.819 47.2069 236.476C48.2856 238.133 48.7097 240.13 48.3972 242.08C48.1611 243.415 47.4605 244.03 46.3106 243.908C45.1607 243.787 44.6352 243.006 44.719 241.633C44.7266 241.534 44.7418 241.428 44.7495 241.329Z" fill="#231414" fill-opacity="0.83"/>
<path d="M46.5783 244.302H46.2737C44.941 244.166 44.2404 243.195 44.347 241.632V241.314C44.468 240.363 44.2304 239.401 43.6803 238.615C43.1302 237.829 42.3067 237.274 41.3694 237.058C39.8464 236.595 39.161 235.496 39.5189 234.191C39.8769 232.886 41.0953 232.363 42.626 232.75C44.631 233.291 46.3651 234.55 47.4963 236.285C48.6274 238.021 49.076 240.111 48.7562 242.156C48.5278 243.544 47.751 244.302 46.5783 244.302ZM41.7197 233.372C41.3943 233.34 41.0684 233.426 40.8014 233.614C40.5344 233.802 40.3441 234.08 40.2652 234.396C40.0139 235.291 40.5013 235.996 41.6055 236.338C42.7064 236.604 43.6712 237.263 44.318 238.189C44.9647 239.116 45.2486 240.246 45.1161 241.367V241.67C45.0019 243.4 46.03 243.506 46.365 243.544C46.959 243.604 47.7815 243.544 48.0404 242.027C48.3415 240.169 47.9386 238.266 46.9098 236.687C45.881 235.109 44.2999 233.968 42.4737 233.485C42.228 233.417 41.9748 233.379 41.7197 233.372Z" fill="#231414" fill-opacity="0.83"/>
<path d="M34.0731 232.977C33.9949 232.977 33.9186 232.953 33.8545 232.908C33.7905 232.864 33.7418 232.8 33.7152 232.727L33.2735 231.49C33.2323 231.399 33.2292 231.295 33.2649 231.201C33.3006 231.107 33.3722 231.031 33.4639 230.99C33.5093 230.968 33.5585 230.956 33.6086 230.954C33.6588 230.952 33.7088 230.96 33.7557 230.978C33.8026 230.996 33.8455 231.023 33.8817 231.057C33.9179 231.092 33.9468 231.134 33.9665 231.179V231.24L34.4082 232.469C34.4401 232.565 34.4332 232.669 34.3891 232.759C34.3451 232.85 34.2672 232.92 34.1721 232.954C34.1405 232.967 34.1071 232.975 34.0731 232.977Z" fill="white"/>
<path d="M33.1506 230.383C33.0718 230.385 32.9944 230.362 32.9299 230.317C32.8654 230.272 32.8173 230.207 32.7927 230.133L29.7466 221.576C29.7301 221.526 29.7237 221.474 29.7278 221.422C29.7319 221.369 29.7464 221.318 29.7705 221.272C29.7946 221.225 29.8278 221.184 29.8682 221.15C29.9085 221.116 29.9552 221.091 30.0055 221.076C30.0549 221.058 30.1075 221.05 30.1599 221.053C30.2123 221.057 30.2636 221.07 30.3106 221.094C30.3576 221.117 30.3993 221.15 30.4332 221.19C30.4672 221.229 30.4927 221.276 30.5081 221.326L33.5542 229.882C33.5885 229.977 33.5837 230.081 33.5409 230.172C33.498 230.263 33.4206 230.334 33.3257 230.368C33.269 230.385 33.2094 230.39 33.1506 230.383Z" fill="white"/>
<path d="M54.6722 258.722C54.5801 258.723 54.4909 258.691 54.4209 258.631L47.0265 252.199C46.9885 252.166 46.9574 252.126 46.9349 252.081C46.9124 252.036 46.899 251.987 46.8955 251.937C46.8919 251.887 46.8983 251.837 46.9143 251.79C46.9302 251.742 46.9554 251.698 46.9884 251.66C47.0214 251.622 47.0616 251.591 47.1066 251.569C47.1517 251.547 47.2007 251.533 47.2509 251.53C47.3011 251.526 47.3515 251.533 47.3992 251.548C47.447 251.564 47.4911 251.589 47.5291 251.622L54.9235 258.062C54.9905 258.132 55.028 258.224 55.028 258.32C55.028 258.417 54.9905 258.509 54.9235 258.578C54.894 258.618 54.8564 258.652 54.8132 258.677C54.7699 258.702 54.7219 258.717 54.6722 258.722Z" fill="white"/>
<path d="M46.4789 251.592C46.3868 251.593 46.2975 251.561 46.2275 251.501L45.0091 250.447C44.9734 250.412 44.9451 250.37 44.9258 250.324C44.9064 250.277 44.8965 250.228 44.8965 250.178C44.8965 250.128 44.9064 250.078 44.9258 250.032C44.9451 249.986 44.9734 249.944 45.0091 249.908C45.0728 249.833 45.1638 249.786 45.2624 249.777C45.3609 249.769 45.4588 249.8 45.5346 249.863L46.753 250.917C46.8233 250.989 46.8625 251.086 46.8625 251.187C46.8625 251.287 46.8233 251.384 46.753 251.456C46.72 251.497 46.6783 251.531 46.631 251.554C46.5836 251.578 46.5317 251.591 46.4789 251.592Z" fill="white"/>
<path d="M103.235 278.157H104.324H104.758C104.859 278.157 104.956 278.117 105.027 278.046C105.099 277.975 105.139 277.878 105.139 277.778C105.139 277.677 105.099 277.581 105.027 277.51C104.956 277.438 104.859 277.398 104.758 277.398H103.235C103.134 277.398 103.037 277.438 102.966 277.51C102.894 277.581 102.854 277.677 102.854 277.778C102.854 277.878 102.894 277.975 102.966 278.046C103.037 278.117 103.134 278.157 103.235 278.157Z" fill="#231414" fill-opacity="0.83"/>
<path d="M106.773 278.046C106.845 278.117 106.942 278.157 107.043 278.157H107.073H108.596C108.645 278.155 108.693 278.143 108.738 278.123C108.782 278.102 108.822 278.073 108.856 278.037C108.889 278.002 108.915 277.959 108.932 277.914C108.949 277.868 108.956 277.819 108.954 277.77C108.948 277.671 108.905 277.577 108.833 277.508C108.761 277.439 108.666 277.4 108.566 277.398H107.043C106.942 277.398 106.845 277.438 106.773 277.51C106.702 277.581 106.662 277.677 106.662 277.778C106.662 277.878 106.702 277.975 106.773 278.046Z" fill="#231414" fill-opacity="0.83"/>
<path d="M99.4275 278.119L100.951 278.157V278.111C101.042 278.111 101.129 278.077 101.198 278.017C101.266 277.957 101.311 277.875 101.324 277.785C101.325 277.736 101.316 277.686 101.298 277.64C101.279 277.593 101.252 277.551 101.218 277.515C101.183 277.479 101.141 277.45 101.096 277.43C101.05 277.41 101.001 277.399 100.951 277.398L99.4275 277.361C99.3265 277.361 99.2296 277.4 99.1582 277.472C99.0868 277.543 99.0467 277.639 99.0467 277.74C99.0467 277.84 99.0868 277.937 99.1582 278.008C99.2296 278.079 99.3265 278.119 99.4275 278.119Z" fill="#231414" fill-opacity="0.83"/>
<path d="M110.586 277.978C110.657 278.047 110.751 278.087 110.85 278.089H110.866L112.389 278.028C112.439 278.026 112.488 278.014 112.533 277.993C112.579 277.973 112.62 277.943 112.653 277.906C112.687 277.87 112.714 277.827 112.731 277.78C112.748 277.733 112.756 277.683 112.754 277.634C112.746 277.534 112.701 277.442 112.628 277.374C112.554 277.307 112.458 277.269 112.358 277.269L110.835 277.33C110.735 277.334 110.641 277.377 110.573 277.449C110.505 277.522 110.468 277.618 110.47 277.717C110.473 277.816 110.515 277.909 110.586 277.978Z" fill="#231414" fill-opacity="0.83"/>
<path d="M95.6198 277.952L97.1429 278.036L97.1505 277.99C97.2466 277.995 97.3409 277.963 97.4144 277.901C97.4879 277.839 97.5351 277.752 97.5465 277.656C97.5485 277.608 97.5409 277.559 97.524 277.513C97.5071 277.467 97.4813 277.425 97.4481 277.389C97.4148 277.353 97.3748 277.324 97.3303 277.304C97.2858 277.283 97.2376 277.271 97.1886 277.269L95.6655 277.194C95.5646 277.188 95.4653 277.222 95.3896 277.289C95.3139 277.355 95.268 277.45 95.2619 277.55C95.2559 277.651 95.2902 277.75 95.3573 277.825C95.4244 277.9 95.5189 277.946 95.6198 277.952Z" fill="#231414" fill-opacity="0.83"/>
<path d="M114.389 277.803C114.46 277.874 114.557 277.914 114.658 277.914H114.719C115.229 277.892 115.739 277.861 116.242 277.823C116.291 277.819 116.339 277.806 116.383 277.784C116.426 277.761 116.465 277.731 116.497 277.693C116.529 277.656 116.553 277.613 116.568 277.566C116.583 277.519 116.589 277.47 116.585 277.421C116.577 277.322 116.53 277.23 116.455 277.164C116.379 277.099 116.281 277.066 116.181 277.072L114.658 277.156C114.557 277.156 114.46 277.196 114.389 277.267C114.317 277.338 114.277 277.434 114.277 277.535C114.277 277.636 114.317 277.732 114.389 277.803Z" fill="#231414" fill-opacity="0.83"/>
<path d="M91.8122 277.694L93.3353 277.808L93.3505 277.77C93.4436 277.777 93.5359 277.749 93.6092 277.691C93.6825 277.634 93.7315 277.551 93.7465 277.459C93.7507 277.409 93.7449 277.359 93.7295 277.312C93.7141 277.264 93.6895 277.22 93.6569 277.182C93.6243 277.144 93.5845 277.112 93.5398 277.09C93.4951 277.067 93.4463 277.053 93.3962 277.05L91.8731 276.936C91.7722 276.928 91.6721 276.96 91.595 277.025C91.5179 277.091 91.47 277.184 91.4619 277.285C91.4538 277.385 91.4862 277.485 91.5519 277.562C91.6176 277.639 91.7112 277.686 91.8122 277.694Z" fill="#231414" fill-opacity="0.83"/>
<path d="M118.196 277.56C118.268 277.632 118.365 277.672 118.466 277.672H118.542L120.065 277.558C120.114 277.553 120.162 277.539 120.205 277.515C120.249 277.492 120.287 277.461 120.318 277.423C120.349 277.384 120.373 277.341 120.387 277.293C120.401 277.246 120.405 277.197 120.4 277.148C120.396 277.098 120.382 277.05 120.36 277.005C120.337 276.961 120.305 276.921 120.267 276.888C120.229 276.856 120.185 276.831 120.137 276.816C120.089 276.801 120.039 276.795 119.989 276.799L118.466 276.913C118.365 276.913 118.268 276.953 118.196 277.024C118.125 277.095 118.085 277.192 118.085 277.292C118.085 277.393 118.125 277.489 118.196 277.56Z" fill="#231414" fill-opacity="0.83"/>
<path d="M88.0503 277.323C88.5529 277.383 89.0631 277.436 89.5733 277.482H89.619C89.669 277.484 89.719 277.476 89.7659 277.459C89.8129 277.442 89.856 277.415 89.8928 277.382C89.9296 277.348 89.9593 277.307 89.9803 277.262C90.0013 277.217 90.0131 277.168 90.015 277.118C90.0181 277.068 90.0112 277.019 89.9948 276.972C89.9784 276.925 89.9528 276.882 89.9194 276.846C89.8861 276.809 89.8457 276.779 89.8006 276.758C89.7556 276.737 89.7068 276.725 89.6571 276.723L88.1341 276.564C88.0841 276.559 88.0335 276.563 87.9852 276.577C87.9369 276.591 87.8918 276.614 87.8526 276.646C87.8133 276.677 87.7806 276.716 87.7564 276.76C87.7322 276.804 87.7169 276.852 87.7114 276.902C87.7059 276.951 87.7103 277.002 87.7244 277.05C87.7384 277.098 87.7618 277.143 87.7933 277.182C87.8248 277.221 87.8637 277.254 87.9078 277.278C87.9519 277.302 88.0003 277.317 88.0503 277.323Z" fill="#231414" fill-opacity="0.83"/>
<path d="M121.992 277.265C122.063 277.329 122.155 277.363 122.25 277.361H122.296L123.819 277.216C123.868 277.212 123.916 277.197 123.959 277.174C124.003 277.151 124.041 277.119 124.072 277.081C124.104 277.043 124.127 276.999 124.141 276.952C124.155 276.905 124.159 276.856 124.154 276.807C124.149 276.757 124.135 276.708 124.111 276.664C124.087 276.62 124.055 276.581 124.016 276.549C123.977 276.517 123.932 276.494 123.884 276.479C123.836 276.465 123.785 276.46 123.735 276.465L122.212 276.602C122.162 276.607 122.114 276.621 122.069 276.645C122.025 276.668 121.985 276.701 121.954 276.739C121.922 276.778 121.898 276.823 121.883 276.871C121.869 276.919 121.864 276.969 121.87 277.019C121.877 277.114 121.921 277.202 121.992 277.265Z" fill="#231414" fill-opacity="0.83"/>
<path d="M85.7429 277.05H85.7886L85.7733 277.012C85.8683 277.022 85.9633 276.994 86.0376 276.934C86.1118 276.874 86.1592 276.788 86.1693 276.693C86.1794 276.598 86.1514 276.504 86.0914 276.43C86.0314 276.356 85.9444 276.309 85.8495 276.299L84.3264 276.094C84.2268 276.081 84.1258 276.106 84.0449 276.166C83.9639 276.225 83.9092 276.314 83.8924 276.412C83.883 276.512 83.9115 276.612 83.972 276.692C84.0326 276.772 84.121 276.826 84.2198 276.845L85.7429 277.05Z" fill="#231414" fill-opacity="0.83"/>
<path d="M125.774 276.891C125.843 276.954 125.934 276.989 126.028 276.989H126.081L127.604 276.822C127.654 276.816 127.702 276.8 127.746 276.776C127.79 276.751 127.829 276.718 127.86 276.679C127.891 276.639 127.914 276.594 127.927 276.546C127.941 276.497 127.945 276.447 127.939 276.397C127.933 276.347 127.917 276.299 127.892 276.255C127.868 276.212 127.835 276.173 127.795 276.142C127.756 276.111 127.71 276.088 127.662 276.075C127.613 276.061 127.562 276.057 127.512 276.063L125.989 276.23C125.89 276.242 125.798 276.292 125.736 276.37C125.673 276.448 125.644 276.548 125.654 276.647C125.662 276.741 125.705 276.828 125.774 276.891Z" fill="#231414" fill-opacity="0.83"/>
<path d="M226.418 8.68848L179.006 14.0515L190.985 22.9417L226.418 8.68848Z" fill="white"/>
<path d="M190.985 23.321C190.904 23.3217 190.824 23.2979 190.757 23.2527L178.786 14.3549C178.724 14.3101 178.677 14.2478 178.651 14.1761C178.625 14.1044 178.622 14.0266 178.641 13.9528C178.66 13.8789 178.702 13.8127 178.761 13.7637C178.819 13.7147 178.892 13.6853 178.969 13.6798L226.373 8.36989C226.465 8.35995 226.558 8.38373 226.634 8.43678C226.709 8.48983 226.763 8.56852 226.785 8.65814C226.81 8.7457 226.801 8.83944 226.76 8.92088C226.719 9.00233 226.649 9.06555 226.564 9.0981L191.13 23.3589C191.08 23.354 191.031 23.3412 190.985 23.321ZM180.012 14.3245L191.046 22.5169L223.693 9.37876L180.012 14.3245Z" fill="#231414" fill-opacity="0.83"/>
<path d="M190.986 22.9417L190.895 32.5829L226.42 8.68848L190.986 22.9417Z" fill="white"/>
<path d="M190.894 32.9618C190.833 32.9622 190.773 32.9465 190.719 32.9163C190.658 32.8839 190.607 32.8359 190.571 32.7773C190.535 32.7186 190.515 32.6514 190.514 32.5826L190.605 22.9413C190.605 22.8665 190.628 22.7934 190.67 22.7313C190.712 22.6692 190.772 22.6209 190.841 22.5924L226.275 8.34677C226.362 8.30965 226.46 8.30703 226.549 8.33944C226.639 8.37185 226.712 8.43685 226.755 8.52124C226.799 8.60389 226.811 8.70002 226.789 8.79107C226.766 8.88213 226.711 8.96165 226.633 9.01429L191.108 32.9012C191.045 32.9438 190.97 32.9651 190.894 32.9618ZM191.367 23.1993L191.283 31.8619L223.214 10.3873L191.367 23.1993Z" fill="#231414" fill-opacity="0.83"/>
<path d="M190.895 32.5829L196.454 24.7698L226.42 8.68848L190.895 32.5829Z" fill="white"/>
<path d="M190.895 32.962C190.845 32.9626 190.795 32.9528 190.749 32.9332C190.704 32.9136 190.662 32.8847 190.628 32.8482C190.566 32.7846 190.528 32.7011 190.521 32.6124C190.514 32.5236 190.538 32.4353 190.59 32.3628L196.142 24.5497C196.176 24.5024 196.22 24.4634 196.271 24.4359L226.237 8.34695C226.324 8.30141 226.425 8.29017 226.519 8.31549C226.614 8.34082 226.695 8.40083 226.747 8.48349C226.796 8.56832 226.811 8.66799 226.79 8.76326C226.769 8.85852 226.713 8.94262 226.633 8.99931L191.108 32.8862C191.047 32.9333 190.972 32.9599 190.895 32.962ZM196.713 25.0351L192.418 31.1036L219.886 12.6252L196.713 25.0351Z" fill="#231414" fill-opacity="0.83"/>
<path d="M196.453 24.7698L212.064 36.3909L226.419 8.68848L196.453 24.7698Z" fill="white"/>
<path d="M212.064 36.7699C211.982 36.7716 211.901 36.7448 211.836 36.694L196.224 25.073C196.172 25.0357 196.13 24.9852 196.103 24.9266C196.076 24.8679 196.066 24.8033 196.072 24.7392C196.076 24.676 196.097 24.615 196.132 24.5619C196.166 24.5088 196.214 24.4654 196.27 24.4358L226.236 8.34685C226.308 8.30993 226.39 8.29595 226.47 8.3068C226.551 8.31765 226.626 8.35282 226.685 8.40754C226.744 8.46488 226.782 8.53939 226.794 8.62001C226.806 8.70063 226.792 8.78306 226.754 8.85508L212.407 36.565C212.381 36.615 212.344 36.6585 212.3 36.6927C212.255 36.7268 212.203 36.7505 212.148 36.7623L212.064 36.7699ZM197.138 24.8226L211.919 35.8217L225.497 9.60606L197.138 24.8226Z" fill="#231414" fill-opacity="0.83"/>
<path d="M131.01 120.363C130.675 120.362 130.35 120.252 130.084 120.049C129.818 119.846 129.627 119.562 129.54 119.24C129.365 118.588 111.842 53.7919 108.75 33.273C106.732 19.8618 110.738 11.9273 114.454 7.63389C116.567 5.19343 119.191 3.245 122.143 1.92636C125.094 0.607714 128.301 -0.0489355 131.535 0.00284032C145.068 0.00284032 151.99 12.2307 153.757 18.6936C155.28 24.3221 157.884 34.115 157.915 34.2136C157.999 34.597 157.93 34.9978 157.724 35.332C157.517 35.6662 157.189 35.9078 156.808 36.0059C156.426 36.1041 156.021 36.0513 155.678 35.8585C155.335 35.6657 155.08 35.3481 154.967 34.9722C154.967 34.8736 152.355 25.111 150.817 19.4749C149.279 13.8389 143.225 3.03706 131.535 3.03706C128.74 2.99184 125.969 3.55723 123.416 4.69345C120.864 5.82968 118.593 7.50914 116.762 9.61371C113.464 13.4065 109.908 20.5521 111.766 32.8255C114.812 53.1775 132.327 117.783 132.487 118.451C132.592 118.839 132.538 119.253 132.336 119.602C132.135 119.95 131.803 120.205 131.413 120.309C131.282 120.346 131.146 120.364 131.01 120.363Z" fill="#231414" fill-opacity="0.83"/>
<path d="M45.1784 193.093C38.812 193.093 33.6337 190.9 31.0216 184.544C25.7747 171.808 42.1018 163.464 61.0029 153.792C67.0951 150.682 73.3853 147.458 79.3861 143.931C102.148 130.421 100.503 121.417 100.48 121.326C100.396 120.943 100.465 120.542 100.671 120.208C100.878 119.873 101.206 119.632 101.587 119.534C101.969 119.435 102.373 119.488 102.717 119.681C103.06 119.874 103.314 120.191 103.427 120.567C103.724 121.69 105.605 131.946 80.9472 146.548C74.855 150.159 68.5191 153.375 62.3965 156.538C44.8281 165.519 29.6509 173.279 33.8393 183.436C38.4998 194.762 54.4385 189.383 69.8594 184.195C79.4089 180.979 88.4254 177.937 94.053 179.461C99.0639 180.827 100.092 184.286 100.64 186.144C100.716 186.44 100.816 186.729 100.937 187.009C101.2 187.307 101.334 187.696 101.312 188.092C101.291 188.488 101.114 188.86 100.82 189.128C100.526 189.396 100.139 189.538 99.7409 189.525C99.3429 189.512 98.9659 189.344 98.6907 189.057C98.2065 188.46 97.8746 187.754 97.7236 187.001C97.2362 185.355 96.627 183.307 93.2534 182.389C88.5244 181.1 79.9344 184.005 70.8342 187.07C62.1375 189.945 52.8012 193.093 45.1784 193.093Z" fill="#231414" fill-opacity="0.83"/>
<path d="M205.214 163.259C204.947 163.263 204.685 163.198 204.452 163.069C204.277 162.973 204.123 162.843 203.998 162.687C203.873 162.531 203.781 162.352 203.726 162.16C203.671 161.969 203.654 161.768 203.677 161.57C203.699 161.372 203.761 161.18 203.858 161.006C211.808 146.76 226.14 142.55 238.797 138.841C243.212 137.635 247.557 136.186 251.811 134.502C256.662 132.462 259.426 127.455 258.109 123.124C255.863 115.72 242.49 109.879 211.702 115.69C197.903 118.292 187.333 117.207 180.274 112.36C174.181 108.211 173.123 102.817 173.077 102.59C173.012 102.198 173.103 101.797 173.331 101.472C173.56 101.147 173.907 100.924 174.298 100.85C174.689 100.777 175.094 100.859 175.425 101.079C175.756 101.3 175.988 101.64 176.07 102.028C176.215 102.741 179.771 118.626 211.1 112.709C252.344 104.926 259.723 118.019 260.995 122.244C262.785 128.145 259.335 134.623 252.969 137.301C248.611 139.039 244.156 140.526 239.627 141.754C226.94 145.478 213.834 149.339 206.493 162.485C206.365 162.713 206.179 162.904 205.955 163.039C205.731 163.175 205.476 163.25 205.214 163.259Z" fill="#231414" fill-opacity="0.83"/>
<path d="M157.99 43.8318C157.324 43.8307 156.676 43.6119 156.147 43.2091C155.617 42.8063 155.235 42.2417 155.058 41.6017L151.944 30.2234C151.838 29.8389 151.81 29.4374 151.86 29.042C151.91 28.6465 152.038 28.2648 152.237 27.9186C152.435 27.5724 152.7 27.2685 153.016 27.0242C153.332 26.78 153.694 26.6002 154.08 26.4951C154.466 26.39 154.869 26.3617 155.266 26.4117C155.663 26.4618 156.046 26.5892 156.394 26.7868C156.741 26.9844 157.046 27.2482 157.292 27.5632C157.537 27.8783 157.717 28.2383 157.823 28.6228L160.937 40.0011C161.042 40.3857 161.07 40.787 161.02 41.1823C160.969 41.5776 160.841 41.959 160.642 42.3049C160.443 42.6507 160.178 42.9542 159.862 43.198C159.545 43.4418 159.184 43.6211 158.797 43.7256C158.535 43.7987 158.263 43.8344 157.99 43.8318Z" fill="#231414" fill-opacity="0.83"/>
<path d="M201.109 161.226C201.109 161.226 204.741 155.021 208.374 157.607C212.006 160.194 204.223 165.36 207.338 166.391C210.453 167.423 216.674 164.874 218.761 171.565C220.847 178.255 214.603 181.38 208.381 179.833C202.16 178.286 196.958 172.081 201.109 161.226Z" fill="white"/>
<path d="M211.487 180.599C210.405 180.598 209.328 180.463 208.281 180.197C206.654 179.829 205.126 179.117 203.801 178.11C202.475 177.102 201.382 175.822 200.597 174.356C198.731 170.806 198.792 166.217 200.749 161.089V161.036C200.84 160.877 202.98 157.243 205.729 156.674C206.219 156.57 206.725 156.571 207.214 156.678C207.703 156.785 208.163 156.996 208.562 157.296C210.847 158.912 209.225 161.4 208.06 163.221C207.435 164.199 206.788 165.208 206.956 165.686C206.956 165.739 207.032 165.906 207.42 166.035C208.417 166.272 209.443 166.367 210.466 166.316C213.588 166.316 217.472 166.316 219.049 171.451C220.115 174.902 218.995 177.042 217.861 178.232C217.01 179.03 216.008 179.65 214.913 180.056C213.819 180.463 212.654 180.647 211.487 180.599ZM201.45 161.393C199.576 166.3 199.515 170.662 201.267 174.007C202.006 175.376 203.03 176.57 204.272 177.511C205.513 178.452 206.942 179.117 208.463 179.461C212.02 180.349 215.515 179.659 217.373 177.709C218.79 176.192 219.14 174.129 218.386 171.641C216.97 167.089 213.55 167.089 210.527 167.044C209.413 167.097 208.297 166.99 207.214 166.725C207.004 166.672 206.808 166.57 206.644 166.428C206.48 166.286 206.352 166.107 206.27 165.906C205.973 165.079 206.659 164.017 207.451 162.781C208.837 160.611 209.735 158.988 208.151 157.888C207.839 157.647 207.477 157.477 207.091 157.39C206.706 157.304 206.306 157.303 205.92 157.387C203.635 157.911 201.64 161.074 201.45 161.393Z" fill="#231414" fill-opacity="0.83"/>
<path d="M216.11 179.484C216.035 179.484 215.961 179.463 215.897 179.423C215.813 179.368 215.755 179.282 215.735 179.184C215.715 179.086 215.735 178.984 215.79 178.9C220.154 172.27 213.11 167.332 212.805 167.127C212.722 167.069 212.666 166.981 212.647 166.882C212.629 166.783 212.65 166.68 212.706 166.596C212.734 166.555 212.769 166.52 212.811 166.492C212.852 166.465 212.899 166.446 212.948 166.437C212.997 166.427 213.047 166.428 213.096 166.439C213.145 166.449 213.191 166.469 213.232 166.498C213.308 166.551 221.197 172.066 216.415 179.31C216.382 179.361 216.337 179.404 216.284 179.435C216.231 179.465 216.171 179.482 216.11 179.484Z" fill="#231414" fill-opacity="0.83"/>
<path d="M203.842 244.689L127.971 256.485C122.915 257.243 117.759 253.056 116.464 247.064L77.0632 64.9653C74.7786 56.3784 82.5385 51.8043 87.5951 51.0154L159.742 40.8963C164.798 40.1378 169.946 44.325 171.249 50.3176L215.714 232.12C217.009 238.12 213.894 243.195 203.842 244.689Z" fill="white"/>
<path d="M126.752 256.963C121.947 256.963 117.325 252.821 116.091 247.147L76.6898 65.0412C76.2599 63.6195 76.1462 62.1217 76.3566 60.6518C76.5671 59.182 77.0965 57.7755 77.9082 56.5302C80.2842 52.9195 84.5792 51.0989 87.5415 50.6438L159.688 40.5171C164.928 39.7055 170.281 44.0671 171.614 50.2418L216.079 232.037C216.422 233.316 216.489 234.654 216.276 235.961C216.064 237.268 215.576 238.516 214.846 239.622C212.896 242.429 209.218 244.249 203.895 245.046L128.032 256.841C127.609 256.916 127.181 256.957 126.752 256.963ZM160.96 41.1771C160.57 41.1772 160.18 41.2076 159.795 41.2681L87.6481 51.3948C84.8533 51.8271 80.7944 53.5415 78.5479 56.9474C77.793 58.1063 77.3016 59.4156 77.1082 60.7836C76.9148 62.1516 77.0241 63.5452 77.4285 64.8667L116.837 246.98C118.094 252.776 123.059 256.841 127.91 256.083L203.781 244.257C208.89 243.499 212.401 241.777 214.214 239.152C214.888 238.129 215.337 236.976 215.531 235.768C215.725 234.56 215.66 233.324 215.341 232.143L170.875 50.4087C169.725 45.076 165.423 41.1771 160.96 41.1771Z" fill="#231414" fill-opacity="0.83"/>
<path d="M209.028 242.626L133.172 254.422C128.116 255.18 122.968 250.985 121.673 244.993L82.249 62.8943C80.9544 56.9017 84.0005 51.4098 89.057 50.6209L164.928 38.8254C169.984 38.0669 175.14 42.2617 176.434 48.2542L215.836 230.353C217.138 236.345 214.084 241.837 209.028 242.626Z" fill="#231414" fill-opacity="0.83"/>
<path d="M131.947 254.877C127.134 254.877 122.511 250.735 121.285 245.061L81.8763 62.9629C81.5072 61.4192 81.4552 59.817 81.7235 58.2527C81.9917 56.6885 82.5747 55.1944 83.4374 53.8603C84.0676 52.916 84.8866 52.1113 85.8431 51.4966C86.7996 50.8819 87.8731 50.4702 88.9966 50.2875L164.867 38.492C170.114 37.6727 175.468 42.0344 176.808 48.209L216.179 230.262C216.56 231.811 216.622 233.422 216.36 234.995C216.098 236.569 215.518 238.074 214.656 239.418C214.023 240.362 213.203 241.166 212.245 241.78C211.288 242.395 210.213 242.807 209.089 242.99L133.218 254.786C132.798 254.85 132.372 254.881 131.947 254.877ZM166.154 39.0988C165.764 39.0989 165.375 39.1294 164.989 39.1898L89.1184 50.9853C88.0961 51.1518 87.1193 51.5268 86.2492 52.0867C85.3791 52.6467 84.6344 53.3796 84.0619 54.2395C83.2543 55.4965 82.7105 56.9032 82.4632 58.375C82.2158 59.8468 82.2701 61.3532 82.6226 62.8036L122.024 244.902C123.28 250.69 128.246 254.763 133.104 254.005L208.975 242.202C209.996 242.035 210.972 241.66 211.841 241.1C212.709 240.54 213.453 239.807 214.024 238.947C214.835 237.692 215.381 236.285 215.63 234.813C215.878 233.341 215.824 231.834 215.471 230.383L176.062 48.3304C174.912 43.0205 170.609 39.114 166.162 39.114L166.154 39.0988Z" fill="#231414" fill-opacity="0.83"/>
<path d="M209.401 220.993L123.753 234.305L87.8926 68.5687L173.534 55.2485L209.401 220.993Z" fill="#FB4A04"/>
<path d="M123.753 234.684C123.667 234.684 123.584 234.655 123.518 234.601C123.451 234.547 123.405 234.472 123.388 234.388L87.5198 68.6443C87.4993 68.5425 87.5183 68.4368 87.5731 68.3485C87.6032 68.3059 87.6417 68.2699 87.6862 68.2425C87.7307 68.2151 87.7803 68.197 87.832 68.1892L173.473 54.8766C173.569 54.8626 173.668 54.8853 173.748 54.9401C173.828 54.9949 173.885 55.0778 173.907 55.1724L209.775 220.909C209.786 220.96 209.786 221.012 209.776 221.063C209.765 221.114 209.744 221.162 209.714 221.205C209.654 221.288 209.564 221.345 209.463 221.364L123.814 234.684H123.753ZM88.3498 68.8795L124.035 233.88L208.93 220.681L173.237 55.6806L88.3498 68.8795Z" fill="#231414" fill-opacity="0.83"/>
<path d="M136.576 106.625C137.452 110.805 136.911 114.423 135.388 114.704C133.865 114.984 131.923 111.821 131.055 107.642C130.187 103.462 130.72 99.8436 132.243 99.5629C133.766 99.2823 135.708 102.407 136.576 106.625Z" fill="#231414" fill-opacity="0.83"/>
<path d="M155.387 103.121C156.255 107.3 155.722 110.919 154.191 111.207C152.66 111.495 150.726 108.324 149.858 104.145C148.99 99.9652 149.523 96.3469 151.046 96.0662C152.569 95.7855 154.496 98.9411 155.387 103.121Z" fill="#231414" fill-opacity="0.83"/>
<path d="M145.767 140.191C136.766 140.191 127.894 134.691 122.373 125.384C122.218 125.042 122.196 124.654 122.311 124.297C122.426 123.939 122.67 123.636 122.996 123.448C123.322 123.259 123.706 123.197 124.075 123.275C124.444 123.352 124.771 123.563 124.993 123.867C130.674 133.44 140.155 138.545 149.179 136.876C157.959 135.26 164.661 127.394 166.237 116.85C166.267 116.651 166.335 116.46 166.439 116.287C166.543 116.114 166.68 115.963 166.842 115.843C167.004 115.723 167.189 115.636 167.385 115.587C167.581 115.538 167.785 115.528 167.985 115.557C168.185 115.586 168.377 115.655 168.551 115.758C168.724 115.861 168.876 115.998 168.996 116.16C169.117 116.321 169.204 116.505 169.253 116.7C169.303 116.896 169.313 117.099 169.283 117.298C167.509 129.146 159.848 137.999 149.765 139.865C148.446 140.095 147.107 140.204 145.767 140.191Z" fill="#231414" fill-opacity="0.83"/>
<path d="M108.914 129.914L105.014 137.859L105.698 138.193L109.599 130.247L108.914 129.914Z" fill="white"/>
<path d="M141.627 63.3305L112.428 122.806L113.112 123.139L142.311 63.6638L141.627 63.3305Z" fill="white"/>
<path d="M132.505 63.8689L120.285 87.1816L120.96 87.5327L133.18 64.22L132.505 63.8689Z" fill="white"/>
<path d="M189.838 195.858L176.283 222.564L176.963 222.906L190.517 196.2L189.838 195.858Z" fill="white"/>
<path d="M196.123 183.517L191.91 191.817L192.59 192.159L196.802 183.86L196.123 183.517Z" fill="white"/>
<path d="M140.902 52.4873L117.242 56.1359C116.738 56.1636 116.243 56.002 115.854 55.6831C115.465 55.3642 115.21 54.9112 115.14 54.414C115.064 54.1964 115.032 53.966 115.046 53.7361C115.06 53.5062 115.119 53.2812 115.22 53.0741C115.321 52.8669 115.462 52.6817 115.636 52.5289C115.809 52.3762 116.01 52.2589 116.229 52.1839L116.381 52.1384L140.026 48.5504C140.53 48.5227 141.025 48.6844 141.414 49.0033C141.804 49.3222 142.058 49.7751 142.128 50.2723C142.266 50.7159 142.222 51.196 142.005 51.6071C141.788 52.0181 141.416 52.3266 140.971 52.4645L140.902 52.4873Z" fill="white"/>
<path d="M117.021 56.5607C116.585 56.5112 116.168 56.3527 115.81 56.0998C115.451 55.847 115.163 55.508 114.972 55.1144C114.78 54.7208 114.692 54.2854 114.714 53.8487C114.737 53.4119 114.87 52.9879 115.102 52.6162C115.241 52.4124 115.421 52.2398 115.631 52.1092C115.841 51.9786 116.075 51.8929 116.32 51.8576L140.026 48.1483C140.624 48.1108 141.215 48.2968 141.683 48.6699C142.15 49.0431 142.461 49.5766 142.555 50.1661C142.633 50.4902 142.644 50.8267 142.588 51.1553C142.531 51.4838 142.409 51.7976 142.227 52.0776C142.087 52.2816 141.905 52.4543 141.694 52.5849C141.483 52.7154 141.247 52.801 141.001 52.8362L117.333 56.5152C117.23 56.5383 117.126 56.5535 117.021 56.5607ZM140.278 48.8917H140.11L116.419 52.5783C116.129 52.6323 115.871 52.7986 115.703 53.041C115.579 53.2362 115.496 53.4546 115.459 53.6828C115.423 53.9111 115.433 54.1444 115.49 54.3684C115.544 54.7685 115.744 55.1348 116.051 55.3977C116.359 55.6606 116.753 55.8019 117.158 55.7945L140.826 52.1155C140.97 52.0898 141.107 52.0348 141.229 51.9538C141.351 51.8729 141.455 51.7679 141.534 51.6452C141.786 51.2278 141.86 50.7279 141.742 50.2557C141.623 49.7834 141.321 49.3773 140.902 49.1268C140.702 49.0106 140.483 48.931 140.255 48.8917H140.278Z" fill="#231414" fill-opacity="0.83"/>
<path d="M171.249 234.616C170.815 232.621 169.101 231.21 167.441 231.475C165.781 231.741 164.745 233.569 165.157 235.564C165.568 237.559 167.304 238.97 168.964 238.704C170.624 238.439 171.675 236.611 171.249 234.616Z" fill="white"/>
<path d="M168.568 239.114C166.847 239.114 165.194 237.65 164.76 235.648C164.629 235.097 164.611 234.525 164.708 233.967C164.805 233.409 165.014 232.876 165.324 232.401C165.552 232.056 165.85 231.763 166.199 231.539C166.548 231.316 166.94 231.168 167.349 231.104C169.23 230.808 171.157 232.348 171.614 234.54C171.747 235.089 171.766 235.66 171.67 236.216C171.575 236.773 171.366 237.305 171.058 237.779C170.827 238.123 170.527 238.417 170.177 238.641C169.827 238.865 169.435 239.016 169.025 239.084C168.873 239.105 168.721 239.115 168.568 239.114ZM167.806 231.824H167.441C167.133 231.875 166.84 231.989 166.578 232.157C166.316 232.325 166.091 232.545 165.918 232.803C165.669 233.195 165.501 233.632 165.425 234.09C165.35 234.547 165.367 235.015 165.476 235.465C165.864 237.263 167.395 238.545 168.88 238.31C169.188 238.262 169.483 238.15 169.745 237.981C170.008 237.813 170.232 237.591 170.403 237.332C170.656 236.943 170.825 236.507 170.901 236.05C170.977 235.593 170.958 235.126 170.845 234.677C170.724 233.933 170.36 233.25 169.809 232.734C169.258 232.218 168.551 231.898 167.799 231.824H167.806Z" fill="#231414" fill-opacity="0.83"/>
<path d="M161.061 174.265L126.092 180.265C123.807 180.66 122.284 182.541 122.65 184.453L127.158 206.079L127.28 206.64L129.633 217.943L136.22 208.704L167.153 203.394C169.438 202.999 170.961 201.118 170.588 199.214L165.92 177.019C165.547 175.107 163.361 173.871 161.061 174.265Z" fill="white"/>
<path d="M129.435 218.876L122.276 184.529C122.182 184.065 122.184 183.587 122.282 183.123C122.38 182.66 122.573 182.222 122.848 181.836C123.22 181.318 123.693 180.879 124.239 180.546C124.784 180.212 125.391 179.991 126.023 179.894L161 173.894C163.49 173.469 165.881 174.834 166.331 176.928L170.953 199.123C171.047 199.586 171.045 200.062 170.948 200.524C170.851 200.985 170.661 201.422 170.39 201.809C170.015 202.328 169.541 202.767 168.995 203.102C168.448 203.437 167.84 203.66 167.206 203.758L136.433 209.03L129.435 218.876ZM161.921 174.577C161.666 174.576 161.411 174.599 161.16 174.645L126.183 180.645C125.65 180.724 125.139 180.908 124.678 181.187C124.218 181.466 123.818 181.834 123.502 182.268C123.288 182.57 123.138 182.911 123.06 183.273C122.983 183.634 122.981 184.007 123.053 184.37L129.861 216.987L136.014 208.332L167.1 203.022C168.156 202.848 169.101 202.265 169.727 201.399C169.942 201.096 170.094 200.754 170.172 200.391C170.251 200.029 170.255 199.654 170.184 199.29L165.554 177.103C165.264 175.608 163.703 174.577 161.921 174.577Z" fill="#231414" fill-opacity="0.83"/>
<path d="M158.554 187.259C158.577 186.959 158.554 186.658 158.485 186.364V186.197C157.891 183.33 154.617 181.494 151.182 182.079C148.479 182.541 146.484 184.354 146.042 186.531C145.286 185.55 144.268 184.8 143.105 184.368C141.941 183.936 140.679 183.839 139.462 184.089C136.028 184.68 133.728 187.479 134.322 190.339C134.322 190.339 134.231 192.789 140.064 196.347C144.854 199.275 148.898 201.657 148.974 201.558C149.073 201.611 151.982 198.069 155.401 193.722C156.735 192.165 157.747 190.361 158.379 188.412C158.461 188.151 158.517 187.881 158.546 187.608C158.541 187.492 158.543 187.375 158.554 187.259Z" fill="#FB4A04"/>
<path d="M148.912 201.93C148.861 201.926 148.811 201.911 148.767 201.884C148.059 201.649 146.094 200.519 139.827 196.688C134.283 193.297 133.925 190.809 133.902 190.4C133.775 189.736 133.783 189.053 133.926 188.393C134.068 187.732 134.343 187.107 134.733 186.554C135.279 185.803 135.97 185.167 136.765 184.682C137.559 184.198 138.442 183.875 139.363 183.732C140.525 183.511 141.724 183.578 142.854 183.927C143.984 184.277 145.01 184.897 145.843 185.734C146.292 184.672 147.01 183.743 147.927 183.04C148.844 182.337 149.929 181.882 151.075 181.722C154.707 181.1 158.18 183.08 158.82 186.136V186.258C158.897 186.599 158.925 186.948 158.903 187.297C158.908 187.417 158.896 187.537 158.865 187.654C158.833 187.949 158.775 188.241 158.69 188.526C158.039 190.516 157.004 192.361 155.644 193.957C151.204 199.616 149.757 201.338 149.186 201.793C149.161 201.829 149.126 201.858 149.086 201.877C149.046 201.895 149.002 201.903 148.958 201.899L148.912 201.93ZM140.718 184.331C140.312 184.328 139.907 184.364 139.507 184.437C138.686 184.558 137.897 184.841 137.188 185.271C136.479 185.701 135.864 186.269 135.38 186.941C135.046 187.414 134.811 187.949 134.689 188.515C134.567 189.08 134.561 189.665 134.672 190.233V190.324C134.672 190.324 134.74 192.637 140.231 195.998C144.632 198.683 148.044 200.678 148.866 201.095C149.491 200.428 151.951 197.424 155.065 193.457C156.366 191.934 157.356 190.175 157.982 188.276C158.055 188.028 158.106 187.774 158.134 187.517V187.206C158.154 186.952 158.136 186.696 158.081 186.447C158.073 186.407 158.073 186.366 158.081 186.326C157.517 183.603 154.441 181.889 151.227 182.45C148.76 182.867 146.818 184.536 146.399 186.599C146.389 186.648 146.37 186.694 146.341 186.735C146.313 186.776 146.277 186.811 146.235 186.838C146.194 186.865 146.147 186.883 146.098 186.891C146.049 186.9 145.998 186.899 145.95 186.887C145.902 186.879 145.857 186.862 145.816 186.836C145.776 186.81 145.741 186.776 145.714 186.736C145.135 185.966 144.379 185.346 143.51 184.927C142.641 184.509 141.683 184.304 140.718 184.331Z" fill="#231414" fill-opacity="0.83"/>
<path d="M104.608 188.67C104.608 188.67 102.415 181.843 98.3099 183.565C94.2053 185.287 100.663 192.031 97.4037 192.364C94.1444 192.698 88.6233 188.829 85.1279 194.936C81.6325 201.042 87.0393 205.419 93.4514 205.26C99.8634 205.1 106.291 200.162 104.608 188.67Z" fill="white"/>
<path d="M93.109 205.639C89.3014 205.639 85.9583 204.122 84.4809 201.626C83.6356 200.223 83.0035 197.887 84.8007 194.754C87.4508 190.112 91.2509 190.961 94.297 191.598C95.2891 191.87 96.3143 192.002 97.3431 191.993C97.7467 191.947 97.838 191.796 97.8685 191.75C98.1427 191.318 97.7314 190.233 97.3354 189.103C96.5739 187.077 95.5763 184.301 98.135 183.216C98.5907 183.01 99.0853 182.904 99.5857 182.904C100.086 182.904 100.581 183.01 101.036 183.216C103.588 184.385 104.89 188.382 104.951 188.526V188.587C105.75 194.018 104.798 198.509 102.209 201.573C101.121 202.833 99.774 203.845 98.2591 204.541C96.7443 205.238 95.0971 205.602 93.4288 205.609L93.109 205.639ZM90.7026 191.841C88.7987 191.841 86.9406 192.539 85.4633 195.126C84.1839 197.356 84.0697 199.472 85.1282 201.24C86.5142 203.515 89.7735 204.972 93.4441 204.881C95.0055 204.872 96.5467 204.529 97.9632 203.875C99.3797 203.22 100.638 202.27 101.653 201.088C104.098 198.205 104.989 193.935 104.235 188.739C104.113 188.382 102.887 184.87 100.739 183.891C100.381 183.726 99.9917 183.641 99.5972 183.641C99.2027 183.641 98.8129 183.726 98.4549 183.891C96.6958 184.65 97.1908 186.402 98.0741 188.822C98.5767 190.195 99.0108 191.386 98.5387 192.129C98.4146 192.306 98.2508 192.451 98.0605 192.554C97.8702 192.657 97.6584 192.714 97.4421 192.721C96.3265 192.751 95.2127 192.615 94.137 192.319C93.0124 192.039 91.8611 191.879 90.7026 191.841Z" fill="#231414" fill-opacity="0.83"/>
<path d="M90.2376 195.141C90.0168 195.96 89.4761 196.521 88.9887 196.392C88.5014 196.263 88.311 195.505 88.5395 194.686C88.7679 193.866 89.301 193.297 89.7884 193.426C90.2757 193.555 90.4585 194.322 90.2376 195.141Z" fill="#231414" fill-opacity="0.83"/>
<path d="M87.1838 196.468C86.963 197.288 86.4223 197.849 85.9349 197.728C85.4476 197.606 85.2572 196.832 85.478 196.013C85.6989 195.194 86.2395 194.633 86.7345 194.762C87.2295 194.891 87.4047 195.626 87.1838 196.468Z" fill="#231414" fill-opacity="0.83"/>
<path d="M89.0956 199.798C88.8748 200.618 88.3341 201.187 87.8468 201.058C87.3594 200.929 87.1766 200.163 87.3975 199.343C87.6183 198.524 88.159 197.963 88.6464 198.092C89.1337 198.221 89.3165 198.979 89.0956 199.798Z" fill="#231414" fill-opacity="0.83"/>
<path d="M89.4149 204.471C89.3395 204.472 89.2656 204.45 89.2031 204.408C89.1406 204.366 89.0923 204.306 89.0646 204.236C89.0447 204.191 89.034 204.143 89.0332 204.094C89.0325 204.045 89.0416 203.997 89.0601 203.951C89.0786 203.906 89.106 203.865 89.1408 203.83C89.1756 203.796 89.217 203.769 89.2626 203.75C89.8982 203.486 90.483 203.114 90.9912 202.65C91.0669 202.59 91.163 202.56 91.2598 202.568C91.3565 202.576 91.4467 202.62 91.5119 202.692C91.5771 202.763 91.6123 202.857 91.6103 202.954C91.6084 203.05 91.5694 203.143 91.5015 203.212C90.9296 203.737 90.2698 204.158 89.552 204.456C89.5072 204.467 89.4611 204.473 89.4149 204.471Z" fill="#231414" fill-opacity="0.83"/>
<path d="M92.1952 202.271C92.1126 202.273 92.0318 202.246 91.9668 202.195C91.9268 202.165 91.8931 202.128 91.8676 202.085C91.8421 202.042 91.8254 201.995 91.8183 201.945C91.8112 201.896 91.814 201.846 91.8264 201.798C91.8388 201.749 91.8606 201.704 91.8906 201.664C92.4732 200.893 92.9141 200.025 93.1928 199.1C93.52 198.153 93.6483 197.15 93.5697 196.152C93.4911 195.153 93.2073 194.182 92.7359 193.297C92.6856 193.21 92.6717 193.106 92.6973 193.008C92.723 192.91 92.786 192.826 92.873 192.774C92.9619 192.728 93.065 192.716 93.1622 192.741C93.2594 192.766 93.3436 192.827 93.3984 192.91C93.9185 193.887 94.2333 194.959 94.3236 196.062C94.414 197.164 94.278 198.272 93.9239 199.32C93.62 200.33 93.1378 201.278 92.4998 202.119C92.4636 202.166 92.4174 202.203 92.3647 202.229C92.312 202.256 92.2541 202.27 92.1952 202.271Z" fill="#231414" fill-opacity="0.83"/>
</svg>
