<svg width="100" height="96" viewBox="0 0 100 96" fill="none" xmlns="http://www.w3.org/2000/svg">
<path d="M31.2461 44.1438C34.6979 44.1438 37.4961 41.465 37.4961 38.1604C37.4961 34.8559 34.6979 32.177 31.2461 32.177C27.7943 32.177 24.9961 34.8559 24.9961 38.1604C24.9961 41.465 27.7943 44.1438 31.2461 44.1438Z" fill="#A3A3A3"/>
<path d="M43.7461 56.1106L37.4961 48.1327L24.9961 64.0884H74.9961L56.2461 40.1548L43.7461 56.1106Z" fill="#A3A3A3"/>
<path d="M83.3301 16.2212H16.6634C12.0676 16.2212 8.33008 19.7993 8.33008 24.1991V72.0664C8.33008 76.4662 12.0676 80.0443 16.6634 80.0443H83.3301C87.9259 80.0443 91.6634 76.4662 91.6634 72.0664V24.1991C91.6634 19.7993 87.9259 16.2212 83.3301 16.2212ZM16.6634 72.0664V24.1991H83.3301L83.3384 72.0664H16.6634Z" fill="#A3A3A3"/>
</svg>
