<svg width="48" height="48" viewBox="0 0 48 48" fill="none" xmlns="http://www.w3.org/2000/svg">
<path d="M25.8 19.5C26.4 21.3 28.05 22.5 30 22.5C32.55 22.5 34.5 20.55 34.5 18C34.5 15.45 32.55 13.5 30 13.5C28.05 13.5 26.4 14.7 25.8 16.5H7.5C5.85 16.5 4.5 17.85 4.5 19.5V28.5H0V31.5H4.5V40.5C4.5 42.15 5.85 43.5 7.5 43.5H28.5C30.15 43.5 31.5 42.15 31.5 40.5V34.5H28.5V40.5H7.5V19.5H25.8ZM30 16.5C30.9 16.5 31.5 17.1 31.5 18C31.5 18.9 30.9 19.5 30 19.5C29.1 19.5 28.5 18.9 28.5 18C28.5 17.1 29.1 16.5 30 16.5Z" fill="#F24E1E"/>
<path d="M43.5 16.5V7.5C43.5 5.85 42.15 4.5 40.5 4.5H19.5C17.85 4.5 16.5 5.85 16.5 7.5V13.5H19.5V7.5H40.5V28.5H22.2C21.6 26.7 19.95 25.5 18 25.5C15.45 25.5 13.5 27.45 13.5 30C13.5 32.55 15.45 34.5 18 34.5C19.95 34.5 21.6 33.3 22.2 31.5H40.5C42.15 31.5 43.5 30.15 43.5 28.5V19.5H48V16.5H43.5ZM18 31.5C17.1 31.5 16.5 30.9 16.5 30C16.5 29.1 17.1 28.5 18 28.5C18.9 28.5 19.5 29.1 19.5 30C19.5 30.9 18.9 31.5 18 31.5Z" fill="#F24E1E"/>
</svg>
