<svg width="90" height="90" viewBox="0 0 90 90" fill="none" xmlns="http://www.w3.org/2000/svg">
<g clip-path="url(#clip0_497_645)">
<path d="M65.356 22.3987L60.0259 15.1467L40.9702 29.1523C41.2058 29.4729 41.3045 29.8739 41.2444 30.2672C41.1843 30.6604 40.9705 31.0137 40.6499 31.2493C40.3294 31.4849 39.9284 31.5835 39.5351 31.5235C39.1418 31.4634 38.7885 31.2496 38.5529 30.929L11.6797 50.6804L17.0097 57.9324C18.7897 56.6241 21.8241 57.7285 23.7862 60.3981C25.7482 63.0676 25.8964 66.2934 24.1165 67.6016L29.4465 74.8535L56.3198 55.1021C56.0842 54.7816 55.9856 54.3805 56.0456 53.9873C56.1057 53.594 56.3195 53.2407 56.6401 53.0051C56.9606 52.7695 57.3617 52.6709 57.7549 52.731C58.1482 52.791 58.5015 53.0049 58.7371 53.3254L77.7928 39.3198L72.4627 32.0679C70.6827 33.3761 67.6483 32.2717 65.6862 29.6022C63.7242 26.9327 63.576 23.7069 65.356 22.3987ZM54.1018 49.5516C53.8357 49.7452 53.6409 50.0212 53.5477 50.3368C53.4544 50.6524 53.4679 50.99 53.5861 51.2971C53.7042 51.6043 53.9204 51.8638 54.2011 52.0356C54.4818 52.2074 54.8113 52.2817 55.1386 52.2472L32.5045 68.8828L18.291 49.5444L40.9251 32.9087C40.7953 33.2106 40.7685 33.5469 40.849 33.8656C40.9294 34.1843 41.1125 34.4676 41.3701 34.6718C41.6277 34.8759 41.9453 34.9896 42.2739 34.9952C42.6025 35.0009 42.9238 34.8981 43.1882 34.7029C43.4535 34.5088 43.6475 34.2328 43.7402 33.9175C43.833 33.6022 43.8193 33.2651 43.7013 32.9584C43.5833 32.6516 43.3676 32.3922 43.0875 32.2203C42.8073 32.0484 42.4784 31.9736 42.1515 32.0073L56.968 21.1174L71.1814 40.4559L56.3641 51.3464C56.4948 51.0444 56.5222 50.7078 56.4422 50.3887C56.3621 50.0696 56.179 49.7858 55.9213 49.5814C55.6635 49.3769 55.3455 49.2632 55.0166 49.2578C54.6876 49.2524 54.3661 49.3557 54.1018 49.5516ZM55.0902 54.7648L29.6601 73.4555L25.4351 67.7072C26.9214 65.8305 26.6316 62.5809 24.592 59.8058C22.5523 57.0308 19.5375 55.7841 17.3026 56.6423L13.0777 50.894L38.5078 32.2032C38.8865 32.4213 39.3149 32.5297 39.7471 32.5334L16.893 49.3308L32.2909 70.2808L55.1442 53.4841C55.0196 53.8971 54.9943 54.3389 55.0902 54.7648ZM64.8805 30.1944C66.9201 32.9695 69.935 34.2161 72.1698 33.3579L76.3948 39.1063L58.7822 52.0512C58.4045 51.8363 57.9776 51.7225 57.543 51.721L72.5794 40.6694L57.1815 19.7194L42.145 30.771C42.2704 30.3574 42.2949 29.9162 42.1998 29.4896L59.8124 16.5447L64.0373 22.2931C62.5511 24.1698 62.8408 27.4193 64.8805 30.1944Z" fill="#231414" fill-opacity="0.83"/>
<path d="M45.7256 38.1554C46.3931 37.6648 46.5365 36.726 46.0459 36.0584C45.5553 35.3909 44.6164 35.2475 43.9489 35.7381C43.2814 36.2287 43.138 37.1676 43.6286 37.8351C44.1192 38.5026 45.0581 38.6461 45.7256 38.1554Z" fill="#231414" fill-opacity="0.83"/>
<path d="M48.2646 41.609C48.9322 41.1184 49.0756 40.1796 48.585 39.512C48.0943 38.8445 47.1555 38.7011 46.488 39.1917C45.8204 39.6824 45.677 40.6212 46.1676 41.2887C46.6583 41.9563 47.5971 42.0997 48.2646 41.609Z" fill="#231414" fill-opacity="0.83"/>
<path d="M50.8017 45.0627C51.4693 44.572 51.6127 43.6332 51.1221 42.9657C50.6314 42.2981 49.6926 42.1547 49.0251 42.6453C48.3575 43.136 48.2141 44.0748 48.7047 44.7423C49.1954 45.4099 50.1342 45.5533 50.8017 45.0627Z" fill="#231414" fill-opacity="0.83"/>
<path d="M53.3408 48.516C54.0083 48.0254 54.1517 47.0866 53.6611 46.419C53.1705 45.7515 52.2316 45.6081 51.5641 46.0987C50.8966 46.5893 50.7532 47.5282 51.2438 48.1957C51.7344 48.8632 52.6733 49.0066 53.3408 48.516Z" fill="#231414" fill-opacity="0.83"/>
<path d="M61.4254 40.8991C61.3557 40.8571 61.2752 40.8364 61.1939 40.8393C61.1125 40.8423 61.0338 40.8688 60.9673 40.9156L60.624 41.1679C60.5598 41.2176 60.5113 41.2848 60.4843 41.3614C60.4574 41.438 60.4532 41.5207 60.4722 41.5997L59.6926 41.6837L57.8277 41.8903L60.0503 44.9143L60.8042 43.1962L61.1177 42.478C61.1875 42.5193 61.2676 42.5397 61.3486 42.5368C61.4296 42.5338 61.508 42.5075 61.5745 42.4612L61.9178 42.2089C61.9823 42.1595 62.0312 42.0924 62.0584 42.0158C62.0856 41.9392 62.0899 41.8564 62.071 41.7774L62.8516 41.6913L64.7149 41.4859L62.4929 38.4627L61.7406 40.1797L61.4254 40.8991ZM58.7915 38.315C59.3507 37.909 59.7677 37.3146 59.9169 36.7173C60.073 36.1209 59.9576 35.5282 59.6099 35.1582C59.6468 35.666 59.5256 36.141 59.2978 36.5741C59.07 37.0071 58.7315 37.3874 58.3298 37.6851C57.9306 37.9811 57.4702 38.1838 56.9824 38.2783C56.4979 38.3746 55.996 38.3311 55.5351 38.1531C55.7855 38.5934 56.3173 38.8813 56.9317 38.9101C57.5464 38.946 58.2389 38.7249 58.7915 38.315Z" fill="#231414" fill-opacity="0.83"/>
<path d="M49.0808 37.0019C49.1511 36.9962 49.2207 36.9997 49.2931 37.0122C49.5263 37.6234 49.841 38.2003 50.2286 38.7273C52.5821 41.9294 57.0671 42.6317 60.2467 40.2948C63.4263 37.9578 64.0952 33.4663 61.7422 30.265C61.3449 29.7243 60.8886 29.2555 60.3846 28.8602C60.3928 28.7894 60.4109 28.7202 60.4382 28.6545C60.5234 28.4615 60.5549 28.56 60.4027 28.3529L60.3221 28.2433C60.2588 28.1571 60.2367 28.1473 60.1758 28.1573C60.064 28.1738 59.9536 28.1978 59.8451 28.2291C59.76 28.2552 59.6763 28.2857 59.5944 28.3203C57.196 26.901 54.0951 26.9524 51.7222 28.6965C49.35 30.44 48.3752 33.3841 49.0132 36.096C48.9562 36.1649 48.9021 36.2361 48.8511 36.3095C48.7893 36.4036 48.7337 36.5017 48.6847 36.6031C48.6561 36.6588 48.6597 36.6822 48.7231 36.7684L48.8036 36.878C48.9558 37.0851 48.873 37.0231 49.0808 37.0019ZM52.225 29.3806C53.1464 28.7053 54.2343 28.2934 55.3719 28.1892C56.5096 28.085 57.6542 28.2924 58.683 28.7891C58.0167 29.1959 57.3844 29.6557 56.792 30.164C56.1253 30.7496 55.6491 31.3478 55.3478 31.9577C55.0613 32.522 54.3764 33.0254 53.7531 33.1298C53.0811 33.2353 52.3672 33.5118 51.6093 33.9733C50.9475 34.3866 50.3201 34.8527 49.7333 35.367C49.4101 33.1323 50.2895 30.8031 52.225 29.3806ZM50.8272 38.1099C51.5067 38.6629 52.2317 38.8101 53.0002 38.5977C53.8281 38.3645 54.5389 37.8301 54.993 37.0996C55.2562 36.6861 55.385 36.2013 55.3616 35.7117C55.3244 34.7611 54.9039 34.4608 54.7234 33.7508C54.5669 33.136 55.1092 32.7375 55.6508 33.0691C56.2721 33.4552 56.4356 33.9444 57.3309 34.2643C57.8418 34.446 58.3122 34.4428 58.7672 34.3256C59.5991 34.1108 60.3205 33.5925 60.7896 32.8727C61.2225 32.202 61.2994 31.4641 60.9745 30.6505L61.0606 30.766C63.1351 33.5886 62.5472 37.5503 59.7431 39.6112C56.9398 41.6716 52.9824 41.0507 50.9079 38.2281L50.8272 38.1099ZM24.42 51.9539L26.5802 50.3662L26.0123 49.5934L23.852 51.1812L23.1573 50.236L25.5118 48.5055L24.9332 47.7183L21.6698 50.1168L24.9395 54.5655L28.3108 52.0876L27.7234 51.2883L25.2609 53.0981L24.42 51.9539ZM27.1367 47.2008L30.7183 50.3194L31.6215 49.6555L29.72 45.3021C29.7816 45.3859 29.8696 45.5074 29.9821 45.6655L30.2468 46.0306L32.4581 49.0394L33.3243 48.4027L30.0547 43.9541L28.7171 44.9372L30.4844 49.0269L27.1031 46.1234L25.7502 47.1178L29.0199 51.5664L29.8861 50.9298L27.6747 47.921C27.6114 47.8348 27.5203 47.7143 27.4036 47.5606L27.1367 47.2008ZM36.2438 46.4481C36.8796 45.9808 37.2389 45.4499 37.3195 44.857C37.4576 44.1028 37.2315 43.3257 36.6452 42.528C36.0458 41.7126 35.3723 41.2656 34.6224 41.1876C34.0332 41.0883 33.4192 41.2727 32.7834 41.74C32.1477 42.2073 31.7891 42.7376 31.7072 43.3303C31.5554 44.071 31.7807 44.8486 32.3794 45.6633C32.9657 46.461 33.6406 46.9081 34.4042 46.9997C34.9948 47.0993 35.608 46.9154 36.2438 46.4481ZM32.7802 43.5829C32.7984 43.15 32.9932 42.7971 33.3614 42.5264C33.7297 42.2558 34.1228 42.1778 34.539 42.2914C34.9565 42.4053 35.3467 42.7117 35.7145 43.212C36.0823 43.7124 36.2586 44.1785 36.2422 44.6088C36.2264 45.0399 36.0334 45.3902 35.6652 45.6609C35.297 45.9315 34.9034 46.0123 34.484 45.9011C34.0653 45.7906 33.672 45.4852 33.3036 44.984C32.9353 44.4828 32.7606 44.0155 32.7802 43.5829ZM40.9233 42.1214C40.8878 41.8062 40.7317 41.4605 40.4533 41.0818L38.1768 37.9844L37.247 38.6679L39.5341 41.7797C39.6929 41.9957 39.7857 42.1608 39.8117 42.2807C39.8582 42.4823 39.7774 42.6595 39.572 42.8106C39.3641 42.9633 39.1778 42.9935 39.0111 42.9001C38.8444 42.8067 38.6312 42.591 38.3711 42.2523L38.2953 42.1492L37.417 42.7947L37.4928 42.8978C37.8772 43.4208 38.2769 43.7637 38.6929 43.9245C39.1074 44.0865 39.5977 43.9583 40.1625 43.5431C40.7279 43.1288 40.9805 42.6552 40.9233 42.1214ZM39.0857 37.3164L40.0091 36.6377L43.2788 41.0864L42.3554 41.765L39.0857 37.3164ZM32.9416 49.4523C32.3058 49.9196 31.9473 50.4499 31.8653 51.0425C31.7141 51.7841 31.9388 52.5609 32.5376 53.3756C33.1245 54.1741 33.7988 54.6204 34.5623 54.712C35.153 54.8115 35.7662 54.6277 36.402 54.1604C37.0377 53.6931 37.3971 53.1622 37.4784 52.5687C37.6157 51.815 37.3902 51.0388 36.8033 50.2403C36.204 49.4249 35.5305 48.9779 34.7814 48.8993C34.1907 48.7997 33.5773 48.985 32.9416 49.4523ZM36.3998 52.3203C36.384 52.7514 36.1924 53.1019 35.8233 53.3732C35.4551 53.6438 35.0617 53.7232 34.6416 53.6125C34.2236 53.5015 33.8302 53.1975 33.4612 52.6955C33.0922 52.1935 32.919 51.7264 32.9383 51.2951C32.9573 50.8617 33.1519 50.5102 33.5202 50.2395C33.8892 49.9683 34.281 49.8901 34.6977 50.0045C35.116 50.1178 35.5057 50.4234 35.8735 50.9237C36.2426 51.4243 36.4177 51.8888 36.3998 52.3203ZM40.8874 48.5988L36.8417 46.7955L35.8675 47.5115L39.1366 51.9594L40.0028 51.3227L37.683 48.1665L41.8134 49.992L42.7432 49.3086L39.4741 44.8607L38.6079 45.4973L40.8874 48.5988ZM43.1235 46.0369L45.2846 44.4485L44.716 43.675L42.555 45.2633L41.8603 44.3182L44.2147 42.5877L43.6367 41.8013L40.3734 44.1998L43.6425 48.6476L47.0146 46.1692L46.4271 45.3698L43.9639 47.1803L43.1235 46.0369ZM41.1309 57.0029C40.9376 56.9356 40.7276 56.9342 40.5335 56.9989C40.395 57.0497 40.2645 57.1201 40.146 57.208L39.1678 57.927L40.835 60.1952L41.8132 59.4762C42.1556 59.2245 42.3052 58.8962 42.2621 58.4947C42.2298 58.1958 42.1033 57.8954 41.8818 57.594C41.7947 57.4756 41.6878 57.3605 41.5623 57.2505C41.4367 57.1396 41.29 57.0553 41.1309 57.0029ZM41.6691 58.4664C41.7438 58.7503 41.667 58.9768 41.4438 59.1408L41.0054 59.463L39.9175 57.9828L40.3559 57.6606C40.5718 57.5019 40.7608 57.4585 40.9234 57.5277C41.0871 57.5985 41.2545 57.7485 41.4238 57.979C41.5476 58.1474 41.6286 58.31 41.6691 58.4664ZM42.8604 57.1813L43.9627 56.3711L43.6725 55.9763L42.5702 56.7864L42.2161 56.3046L43.4167 55.4222L43.1217 55.0209L41.4578 56.2438L43.1255 58.5129L44.8451 57.2491L44.5454 56.8414L43.2892 57.7646L42.8604 57.1813ZM44.7446 54.3854C44.9106 54.2634 45.0722 54.2215 45.2276 54.2574C45.3168 54.2775 45.4143 54.3324 45.5257 54.4181L46.0003 54.0693C45.8765 53.9256 45.7152 53.819 45.5344 53.7614C45.1748 53.6385 44.8075 53.7161 44.4295 53.9939C44.1475 54.2012 43.9834 54.4658 43.9386 54.7866C43.8873 55.1557 44.0056 55.5379 44.297 55.9343C44.5664 56.3009 44.8703 56.5219 45.2096 56.5952C45.5481 56.6691 45.8789 56.5872 46.2012 56.3504C46.4623 56.1585 46.6192 55.9228 46.6723 55.6455C46.7259 55.369 46.6818 55.0912 46.5411 54.8136L46.0697 55.16C46.1191 55.2701 46.145 55.3893 46.1458 55.51C46.1411 55.6809 46.0559 55.8267 45.8931 55.9464C45.7352 56.0624 45.5579 56.0947 45.3617 56.044C45.1656 55.9933 44.9751 55.8405 44.788 55.5858C44.6014 55.332 44.5041 55.0983 44.5011 54.8882C44.4946 54.7905 44.5136 54.6928 44.5563 54.6046C44.599 54.5164 44.6639 54.4409 44.7446 54.3854ZM47.3604 52.1004C47.3882 52.171 47.3991 52.2471 47.3923 52.3227C47.3783 52.4258 47.3329 52.522 47.2622 52.5983C47.1791 52.6854 47.0891 52.7657 46.9931 52.8383L47.2134 53.138L47.7379 52.7525L48.8685 54.2907L49.3181 53.9602L47.6776 51.7282L47.3118 51.9971C47.3322 52.0294 47.3485 52.0641 47.3604 52.1004ZM48.6303 51.682L49.7423 50.8648C49.7097 51.0501 49.7125 51.3359 49.7474 51.7211C49.8148 52.3379 49.9891 52.8503 50.2713 53.2596L50.7266 52.925C50.6324 52.7969 50.5358 52.6147 50.4405 52.377C50.3444 52.1399 50.275 51.929 50.2374 51.7444C50.1853 51.5097 50.158 51.2666 50.1528 51.0148C50.1491 50.7631 50.1554 50.581 50.1736 50.4671L49.9219 50.1247L48.3458 51.2831L48.6303 51.682Z" fill="#231414" fill-opacity="0.83"/>
</g>
<defs>
<clipPath id="clip0_497_645">
<rect width="64" height="64" fill="white" transform="translate(0 38.1667) rotate(-36.3153)"/>
</clipPath>
</defs>
</svg>
