<svg width="42" height="42" viewBox="0 0 42 42" fill="none" xmlns="http://www.w3.org/2000/svg">
<g clip-path="url(#clip0_557_662)">
<path d="M30.2191 10.2345L27.7546 6.88139L18.9437 13.3573C19.0526 13.5055 19.0982 13.6909 19.0705 13.8728C19.0427 14.0546 18.9438 14.2179 18.7956 14.3269C18.6474 14.4358 18.462 14.4814 18.2801 14.4536C18.0983 14.4259 17.9349 14.327 17.826 14.1788L5.40039 23.3114L7.86489 26.6645C8.6879 26.0596 10.091 26.5703 10.9982 27.8046C11.9054 29.039 11.9739 30.5305 11.1509 31.1354L13.6154 34.4885L26.041 25.3559C25.9321 25.2077 25.8865 25.0223 25.9142 24.8404C25.942 24.6586 26.0409 24.4952 26.1891 24.3863C26.3373 24.2774 26.5228 24.2318 26.7046 24.2595C26.8864 24.2873 27.0498 24.3862 27.1587 24.5344L35.9696 18.0585L33.5051 14.7054C32.6821 15.3103 31.2791 14.7996 30.3719 13.5653C29.4646 12.331 29.3961 10.8394 30.2191 10.2345ZM25.0155 22.7895C24.8924 22.879 24.8024 23.0066 24.7593 23.1525C24.7161 23.2985 24.7224 23.4545 24.777 23.5965C24.8316 23.7386 24.9316 23.8586 25.0614 23.938C25.1912 24.0174 25.3435 24.0518 25.4948 24.0358L15.0293 31.7278L8.45732 22.7861L18.9228 15.0941C18.8628 15.2337 18.8504 15.3892 18.8876 15.5366C18.9248 15.6839 19.0095 15.8149 19.1286 15.9093C19.2477 16.0037 19.3945 16.0563 19.5465 16.0589C19.6984 16.0615 19.847 16.014 19.9693 15.9237C20.0919 15.834 20.1816 15.7064 20.2245 15.5606C20.2674 15.4148 20.261 15.2589 20.2065 15.1171C20.1519 14.9753 20.0522 14.8553 19.9227 14.7759C19.7931 14.6964 19.641 14.6618 19.4899 14.6774L26.3407 9.6421L32.9127 18.5838L26.0615 23.6193C26.1219 23.4797 26.1346 23.3241 26.0976 23.1765C26.0606 23.029 25.9759 22.8978 25.8567 22.8032C25.7376 22.7087 25.5905 22.6561 25.4384 22.6536C25.2863 22.6511 25.1377 22.6989 25.0155 22.7895ZM25.4725 25.1999L13.7141 33.8421L11.7606 31.1842C12.4478 30.3165 12.3138 28.8139 11.3707 27.5308C10.4277 26.2477 9.03365 25.6712 8.00032 26.0681L6.04679 23.4101L17.8051 14.7679C17.9802 14.8688 18.1783 14.9189 18.3781 14.9206L7.81091 22.6874L14.9306 32.3742L25.4974 24.6077C25.4398 24.7987 25.4281 25.003 25.4725 25.1999ZM29.9993 13.8391C30.9424 15.1222 32.3364 15.6987 33.3697 15.3019L35.3232 17.9598L27.1796 23.9452C27.0049 23.8458 26.8075 23.7933 26.6066 23.7925L33.5591 18.6825L26.4394 8.99569L19.4869 14.1057C19.5449 13.9145 19.5562 13.7105 19.5122 13.5132L27.6559 7.52779L29.6094 10.1857C28.9222 11.0535 29.0562 12.556 29.9993 13.8391Z" fill="#231414" fill-opacity="0.83"/>
<path d="M21.1421 17.5202C21.4507 17.2933 21.517 16.8592 21.2902 16.5506C21.0633 16.2419 20.6292 16.1756 20.3206 16.4025C20.0119 16.6293 19.9456 17.0634 20.1725 17.3721C20.3993 17.6807 20.8334 17.747 21.1421 17.5202Z" fill="#231414" fill-opacity="0.83"/>
<path d="M22.3159 19.117C22.6246 18.8902 22.6909 18.4561 22.464 18.1474C22.2372 17.8388 21.8031 17.7725 21.4944 17.9993C21.1858 18.2262 21.1194 18.6603 21.3463 18.9689C21.5731 19.2776 22.0073 19.3439 22.3159 19.117Z" fill="#231414" fill-opacity="0.83"/>
<path d="M23.4897 20.7139C23.7984 20.487 23.8647 20.0529 23.6378 19.7443C23.411 19.4356 22.9769 19.3693 22.6682 19.5961C22.3596 19.823 22.2933 20.2571 22.5201 20.5658C22.747 20.8744 23.1811 20.9407 23.4897 20.7139Z" fill="#231414" fill-opacity="0.83"/>
<path d="M24.6636 22.3107C24.9722 22.0838 25.0385 21.6497 24.8117 21.3411C24.5848 21.0324 24.1507 20.9661 23.8421 21.193C23.5334 21.4198 23.4671 21.8539 23.694 22.1626C23.9208 22.4712 24.3549 22.5375 24.6636 22.3107Z" fill="#231414" fill-opacity="0.83"/>
<path d="M28.4009 18.7887C28.3687 18.7693 28.3315 18.7597 28.2939 18.7611C28.2562 18.7624 28.2198 18.7747 28.1891 18.7964L28.0304 18.913C28.0006 18.936 27.9782 18.967 27.9658 19.0025C27.9533 19.0379 27.9514 19.0761 27.9602 19.1126L27.5997 19.1515L26.7374 19.247L27.7651 20.6453L28.1137 19.8508L28.2587 19.5188C28.2909 19.5379 28.3279 19.5473 28.3654 19.5459C28.4029 19.5446 28.4391 19.5324 28.4699 19.511L28.6286 19.3943C28.6584 19.3715 28.681 19.3405 28.6936 19.3051C28.7061 19.2697 28.7082 19.2314 28.6994 19.1948L29.0604 19.155L29.9219 19.0601L28.8945 17.6622L28.5467 18.4561L28.4009 18.7887ZM27.1831 17.5939C27.4416 17.4062 27.6344 17.1313 27.7034 16.8551C27.7756 16.5794 27.7222 16.3053 27.5615 16.1343C27.5785 16.369 27.5225 16.5887 27.4172 16.7889C27.3118 16.9891 27.1553 17.165 26.9696 17.3027C26.785 17.4395 26.5721 17.5332 26.3466 17.5769C26.1225 17.6214 25.8904 17.6013 25.6774 17.519C25.7931 17.7226 26.039 17.8557 26.3231 17.869C26.6073 17.8857 26.9276 17.7834 27.1831 17.5939Z" fill="#231414" fill-opacity="0.83"/>
<path d="M22.6929 16.9868C22.7254 16.9842 22.7576 16.9858 22.7911 16.9915C22.8989 17.2742 23.0444 17.5409 23.2236 17.7846C24.3118 19.2652 26.3856 19.5899 27.8558 18.5093C29.3259 17.4288 29.6352 15.352 28.5473 13.8718C28.3635 13.6218 28.1526 13.405 27.9195 13.2222C27.9234 13.1895 27.9317 13.1575 27.9443 13.1271C27.9837 13.0379 27.9983 13.0834 27.9279 12.9877L27.8907 12.937C27.8614 12.8971 27.8511 12.8926 27.823 12.8972C27.7713 12.9049 27.7202 12.9159 27.6701 12.9304C27.6307 12.9425 27.5921 12.9566 27.5542 12.9726C26.4452 12.3164 25.0114 12.3401 23.9142 13.1466C22.8174 13.9527 22.3667 15.314 22.6617 16.5679C22.6353 16.5998 22.6103 16.6327 22.5867 16.6666C22.5581 16.7101 22.5324 16.7555 22.5098 16.8024C22.4966 16.8281 22.4982 16.839 22.5275 16.8788L22.5648 16.9295C22.6351 17.0253 22.5968 16.9966 22.6929 16.9868ZM24.1467 13.4629C24.5728 13.1506 25.0758 12.9602 25.6018 12.912C26.1278 12.8638 26.6571 12.9597 27.1328 13.1894C26.8247 13.3774 26.5323 13.59 26.2584 13.8251C25.9501 14.0959 25.7299 14.3725 25.5906 14.6545C25.4582 14.9154 25.1415 15.1481 24.8533 15.1964C24.5426 15.2452 24.2125 15.373 23.862 15.5864C23.556 15.7776 23.266 15.9931 22.9946 16.2308C22.8452 15.1976 23.2518 14.1206 24.1467 13.4629ZM23.5004 17.4991C23.8146 17.7548 24.1498 17.8229 24.5051 17.7247C24.888 17.6168 25.2166 17.3697 25.4266 17.0319C25.5483 16.8408 25.6078 16.6166 25.597 16.3902C25.5798 15.9507 25.3854 15.8118 25.3019 15.4835C25.2296 15.1993 25.4803 15.015 25.7307 15.1684C26.018 15.3469 26.0936 15.5731 26.5076 15.721C26.7438 15.805 26.9613 15.8035 27.1717 15.7493C27.5563 15.65 27.8899 15.4104 28.1068 15.0775C28.307 14.7674 28.3425 14.4262 28.1923 14.0501L28.2321 14.1034C29.1913 15.4086 28.9195 17.2404 27.6229 18.1933C26.3267 19.146 24.4969 18.8589 23.5377 17.5537L23.5004 17.4991ZM11.2903 23.9003L12.2891 23.1661L12.0265 22.8088L11.0277 23.543L10.7065 23.106L11.7951 22.3058L11.5276 21.9418L10.0187 23.0508L11.5305 25.1078L13.0893 23.9621L12.8177 23.5925L11.6791 24.4293L11.2903 23.9003ZM12.5464 21.7025L14.2025 23.1445L14.6201 22.8375L13.7409 20.8246C13.7694 20.8634 13.8101 20.9195 13.8621 20.9926L13.9845 21.1615L15.007 22.5527L15.4075 22.2583L13.8956 20.2013L13.2772 20.6559L14.0943 22.5469L12.5309 21.2044L11.9054 21.6641L13.4172 23.7211L13.8177 23.4267L12.7952 22.0356C12.7659 21.9957 12.7238 21.94 12.6699 21.8689L12.5464 21.7025ZM16.7574 21.3545C17.0513 21.1385 17.2175 20.893 17.2547 20.6188C17.3186 20.2701 17.214 19.9108 16.9429 19.5419C16.6658 19.1649 16.3544 18.9582 16.0077 18.9222C15.7352 18.8762 15.4513 18.9615 15.1574 19.1776C14.8634 19.3936 14.6976 19.6389 14.6597 19.9129C14.5895 20.2554 14.6937 20.615 14.9706 20.9916C15.2416 21.3605 15.5537 21.5672 15.9068 21.6096C16.1799 21.6556 16.4634 21.5706 16.7574 21.3545ZM15.1559 20.0297C15.1643 19.8295 15.2543 19.6664 15.4246 19.5412C15.5949 19.4161 15.7767 19.38 15.9691 19.4325C16.1621 19.4852 16.3426 19.6269 16.5126 19.8582C16.6827 20.0896 16.7642 20.3051 16.7566 20.5041C16.7493 20.7034 16.6601 20.8654 16.4898 20.9905C16.3196 21.1157 16.1376 21.153 15.9437 21.1016C15.7501 21.0505 15.5682 20.9093 15.3979 20.6775C15.2276 20.4458 15.1468 20.2297 15.1559 20.0297ZM18.9211 19.3539C18.9046 19.2082 18.8325 19.0484 18.7038 18.8732L17.6511 17.4411L17.2212 17.7571L18.2787 19.196C18.3521 19.2958 18.395 19.3722 18.4071 19.4276C18.4286 19.5208 18.3912 19.6028 18.2962 19.6726C18.2001 19.7432 18.114 19.7572 18.0369 19.714C17.9598 19.6708 17.8613 19.5711 17.741 19.4145L17.7059 19.3668L17.2998 19.6653L17.3349 19.7129C17.5126 19.9547 17.6974 20.1133 17.8898 20.1877C18.0814 20.2626 18.3081 20.2033 18.5693 20.0113C18.8307 19.8197 18.9475 19.6007 18.9211 19.3539ZM18.0714 17.1322L18.4984 16.8184L20.0102 18.8754L19.5832 19.1892L18.0714 17.1322ZM15.2305 22.7436C14.9365 22.9596 14.7707 23.2049 14.7328 23.4789C14.6629 23.8218 14.7668 24.1809 15.0437 24.5576C15.315 24.9268 15.6268 25.1332 15.9799 25.1756C16.253 25.2216 16.5365 25.1366 16.8305 24.9205C17.1244 24.7045 17.2906 24.459 17.3282 24.1846C17.3917 23.8361 17.2874 23.4772 17.0161 23.1079C16.739 22.7309 16.4275 22.5242 16.0812 22.4879C15.8081 22.4419 15.5244 22.5275 15.2305 22.7436ZM16.8295 24.0697C16.8222 24.269 16.7336 24.4311 16.563 24.5565C16.3927 24.6817 16.2108 24.7184 16.0165 24.6672C15.8233 24.6158 15.6413 24.4753 15.4707 24.2432C15.3001 24.011 15.22 23.7951 15.229 23.5957C15.2378 23.3953 15.3277 23.2327 15.498 23.1076C15.6687 22.9822 15.8498 22.946 16.0425 22.9989C16.2359 23.0513 16.4161 23.1926 16.5861 23.4239C16.7568 23.6554 16.8378 23.8702 16.8295 24.0697ZM18.9045 22.3489L17.0338 21.5151L16.5834 21.8462L18.0949 23.9028L18.4954 23.6084L17.4228 22.1491L19.3326 22.9931L19.7626 22.6771L18.251 20.6205L17.8505 20.9149L18.9045 22.3489ZM19.9384 21.1644L20.9376 20.4299L20.6747 20.0723L19.6755 20.8067L19.3543 20.3697L20.443 19.5695L20.1757 19.2059L18.6668 20.3149L20.1783 22.3715L21.7375 21.2255L21.4659 20.8559L20.327 21.693L19.9384 21.1644ZM19.017 26.2348C18.9277 26.2037 18.8306 26.2031 18.7408 26.233C18.6768 26.2565 18.6164 26.289 18.5617 26.3296L18.1094 26.6621L18.8802 27.7109L19.3325 27.3784C19.4909 27.2621 19.56 27.1102 19.5401 26.9246C19.5251 26.7864 19.4667 26.6475 19.3642 26.5081C19.324 26.4534 19.2746 26.4002 19.2165 26.3493C19.1585 26.298 19.0906 26.2591 19.017 26.2348ZM19.2659 26.9115C19.3004 27.0428 19.2649 27.1475 19.1617 27.2234L18.959 27.3723L18.456 26.6879L18.6587 26.5389C18.7585 26.4656 18.8459 26.4455 18.9211 26.4775C18.9968 26.5102 19.0742 26.5796 19.1525 26.6861C19.2097 26.764 19.2472 26.8392 19.2659 26.9115ZM19.8167 26.3173L20.3264 25.9427L20.1922 25.7601L19.6826 26.1347L19.5188 25.9119L20.0739 25.5039L19.9376 25.3184L19.1682 25.8838L19.9393 26.933L20.7344 26.3486L20.5958 26.1601L20.015 26.587L19.8167 26.3173ZM20.6879 25.0245C20.7647 24.9681 20.8394 24.9488 20.9113 24.9654C20.9525 24.9747 20.9976 25.0001 21.0491 25.0397L21.2685 24.8784C21.2113 24.8119 21.1367 24.7626 21.0532 24.736C20.8869 24.6792 20.717 24.7151 20.5423 24.8435C20.4119 24.9394 20.336 25.0617 20.3153 25.21C20.2915 25.3807 20.3462 25.5574 20.481 25.7407C20.6056 25.9102 20.7461 26.0124 20.903 26.0463C21.0595 26.0805 21.2124 26.0426 21.3615 25.9331C21.4822 25.8444 21.5547 25.7354 21.5793 25.6072C21.6041 25.4793 21.5837 25.3509 21.5186 25.2225L21.3007 25.3827C21.3235 25.4336 21.3354 25.4887 21.3358 25.5445C21.3337 25.6236 21.2943 25.691 21.219 25.7463C21.146 25.8 21.064 25.8149 20.9733 25.7915C20.8826 25.768 20.7945 25.6973 20.708 25.5796C20.6217 25.4622 20.5767 25.3542 20.5754 25.257C20.5724 25.2119 20.5812 25.1667 20.6009 25.1259C20.6206 25.0851 20.6506 25.0502 20.6879 25.0245ZM21.8974 23.968C21.9103 24.0006 21.9154 24.0359 21.9122 24.0708C21.9057 24.1184 21.8847 24.1629 21.852 24.1982C21.8136 24.2385 21.772 24.2756 21.7276 24.3092L21.8294 24.4478L22.072 24.2695L22.5947 24.9807L22.8026 24.8279L22.0441 23.7959L21.875 23.9202C21.8844 23.9352 21.8919 23.9512 21.8974 23.968ZM22.4846 23.7746L22.9988 23.3967C22.9837 23.4824 22.985 23.6145 23.0011 23.7926C23.0323 24.0778 23.1129 24.3147 23.2434 24.504L23.4539 24.3493C23.4103 24.29 23.3657 24.2058 23.3216 24.0959C23.2772 23.9863 23.2451 23.8887 23.2277 23.8034C23.2036 23.6949 23.191 23.5825 23.1886 23.466C23.1869 23.3497 23.1898 23.2655 23.1982 23.2128L23.0818 23.0545L22.353 23.5901L22.4846 23.7746Z" fill="#231414" fill-opacity="0.83"/>
</g>
<defs>
<clipPath id="clip0_557_662">
<rect width="29.5922" height="29.5922" fill="white" transform="translate(0 17.5254) rotate(-36.3153)"/>
</clipPath>
</defs>
</svg>
