<svg width="64" height="64" viewBox="0 0 64 64" fill="none" xmlns="http://www.w3.org/2000/svg">
<path d="M57.1423 8H6.85659C4.33185 8 2.28516 10.0467 2.28516 12.5714V51.4286C2.28516 53.9534 4.33185 56 6.85659 56H57.1423C59.6671 56 61.7137 53.9534 61.7137 51.4286V12.5714C61.7137 10.0467 59.6671 8 57.1423 8Z" fill="#FB4A04"/>
<path d="M57.1423 8H6.85659C4.33185 8 2.28516 10.0467 2.28516 12.5714V51.4286C2.28516 53.9534 4.33185 56 6.85659 56H57.1423C59.6671 56 61.7137 53.9534 61.7137 51.4286V12.5714C61.7137 10.0467 59.6671 8 57.1423 8Z" stroke="white" stroke-width="4.57143" stroke-linecap="round" stroke-linejoin="round"/>
<path d="M2.28516 13.7143L29.0737 36.5714C29.8952 37.2556 30.9304 37.6303 31.9994 37.6303C33.0685 37.6303 34.1037 37.2556 34.9252 36.5714L61.7137 13.7143" stroke="white" stroke-width="4.57143" stroke-linecap="round" stroke-linejoin="round"/>
</svg>
