<svg width="84" height="84" viewBox="0 0 84 84" fill="none" xmlns="http://www.w3.org/2000/svg">
<path fill-rule="evenodd" clip-rule="evenodd" d="M22.8514 64.3208C37.1118 62.2375 46.9306 62.4166 61.2098 64.3937C62.2439 64.5436 63.1888 65.0626 63.87 65.8549C64.5513 66.6472 64.9228 67.6592 64.916 68.7041C64.916 69.7041 64.5723 70.675 63.9514 71.4333C62.8694 72.7554 61.7608 74.0557 60.6264 75.3333H66.1285C66.4743 74.9208 66.8223 74.5 67.1743 74.0729C68.4101 72.5575 69.0842 70.6616 69.0827 68.7062C69.0827 64.4875 66.0035 60.852 61.7806 60.2687C47.1639 58.2458 36.9473 58.052 22.2493 60.2C17.9827 60.8229 14.916 64.5145 14.916 68.7625C14.916 70.6479 15.5306 72.5125 16.6952 74.0229C17.0389 74.4687 17.3785 74.9062 17.716 75.3354H23.0848C22.0294 74.0719 21 72.7869 19.9973 71.4812C19.4014 70.6996 19.0799 69.7432 19.0827 68.7604C19.0827 66.5166 20.6952 64.6354 22.8514 64.3208ZM41.9993 44.0833C43.6409 44.0833 45.2663 43.76 46.7829 43.1318C48.2995 42.5036 49.6775 41.5829 50.8382 40.4221C51.9989 39.2614 52.9197 37.8834 53.5478 36.3668C54.176 34.8503 54.4993 33.2248 54.4993 31.5833C54.4993 29.9418 54.176 28.3163 53.5478 26.7997C52.9197 25.2832 51.9989 23.9052 50.8382 22.7445C49.6775 21.5837 48.2995 20.663 46.7829 20.0348C45.2663 19.4066 43.6409 19.0833 41.9993 19.0833C38.6841 19.0833 35.5047 20.4003 33.1605 22.7445C30.8163 25.0887 29.4993 28.2681 29.4993 31.5833C29.4993 34.8985 30.8163 38.0779 33.1605 40.4221C35.5047 42.7663 38.6841 44.0833 41.9993 44.0833ZM41.9993 48.25C46.4196 48.25 50.6589 46.494 53.7845 43.3684C56.9101 40.2428 58.666 36.0036 58.666 31.5833C58.666 27.163 56.9101 22.9238 53.7845 19.7982C50.6589 16.6726 46.4196 14.9166 41.9993 14.9166C37.5791 14.9166 33.3398 16.6726 30.2142 19.7982C27.0886 22.9238 25.3327 27.163 25.3327 31.5833C25.3327 36.0036 27.0886 40.2428 30.2142 43.3684C33.3398 46.494 37.5791 48.25 41.9993 48.25Z" fill="#231414" fill-opacity="0.83"/>
<path fill-rule="evenodd" clip-rule="evenodd" d="M41.9997 79.5C62.7101 79.5 79.4997 62.7104 79.4997 42C79.4997 21.2896 62.7101 4.49998 41.9997 4.49998C21.2893 4.49998 4.49967 21.2896 4.49967 42C4.49967 62.7104 21.2893 79.5 41.9997 79.5ZM41.9997 83.6666C65.0122 83.6666 83.6663 65.0125 83.6663 42C83.6663 18.9875 65.0122 0.333313 41.9997 0.333313C18.9872 0.333313 0.333008 18.9875 0.333008 42C0.333008 65.0125 18.9872 83.6666 41.9997 83.6666Z" fill="#231414" fill-opacity="0.83"/>
</svg>
